<?xml version="1.0" encoding="UTF-8" standalone="no"?>
<svg
   xmlns:dc="http://purl.org/dc/elements/1.1/"
   xmlns:cc="http://creativecommons.org/ns#"
   xmlns:rdf="http://www.w3.org/1999/02/22-rdf-syntax-ns#"
   xmlns:svg="http://www.w3.org/2000/svg"
   xmlns="http://www.w3.org/2000/svg"
   xmlns:sodipodi="http://sodipodi.sourceforge.net/DTD/sodipodi-0.dtd"
   xmlns:inkscape="http://www.inkscape.org/namespaces/inkscape"
   version="1.0"
   width="2550.000000pt"
   height="2550.000000pt"
   viewBox="0 0 2550.000000 2550.000000"
   preserveAspectRatio="xMidYMid meet"
   id="svg8"
   sodipodi:docname="chaosean.svg"
   inkscape:version="1.0.2 (e86c870879, 2021-01-15)">
  <metadata
     id="metadata14">
    <rdf:RDF>
      <cc:Work
         rdf:about="">
        <dc:format>image/svg+xml</dc:format>
        <dc:type
           rdf:resource="http://purl.org/dc/dcmitype/StillImage" />
        <dc:title></dc:title>
      </cc:Work>
    </rdf:RDF>
  </metadata>
  <defs
     id="defs12" />
  <sodipodi:namedview
     pagecolor="#ffffff"
     bordercolor="#666666"
     borderopacity="1"
     objecttolerance="10"
     gridtolerance="10"
     guidetolerance="10"
     inkscape:pageopacity="0"
     inkscape:pageshadow="2"
     inkscape:window-width="1366"
     inkscape:window-height="717"
     id="namedview10"
     showgrid="false"
     inkscape:zoom="0.11438492"
     inkscape:cx="1073.7698"
     inkscape:cy="1717.7973"
     inkscape:window-x="0"
     inkscape:window-y="27"
     inkscape:window-maximized="1"
     inkscape:current-layer="g6" />
  <g
     transform="translate(0.000000,2550.000000) scale(0.100000,-0.100000)"
     fill="#000000"
     stroke="none"
     id="g6">
    <path
       d="M21118 25485 c-134 -34 -221 -98 -351 -259 -114 -141 -231 -270 -597 -656 -474 -500 -567 -608 -770 -894 -62 -87 -151 -207 -199 -266 -495 -618 -1240 -1214 -2007 -1606 -377 -192 -550 -210 -755 -76 -41 27 -148 114 -239 193 -729 638 -877 747 -982 724 -39 -9 -113 -77 -141 -130 -19 -34 -22 -56 -21 -145 0 -90 4 -116 28 -180 58 -153 133 -266 319 -478 189 -215 247 -312 247 -413 0 -164 -196 -275 -725 -407 -606 -152 -1007 -214 -1654 -257 -1041 -69 -2759 -7 -3641 130 -311 49 -1228 222 -1480 280 -377 86 -710 198 -1275 430 -496 203 -674 231 -791 123 -98 -91 -128 -234 -72 -348 53 -107 167 -218 336 -328 134 -87 471 -252 757 -370 132 -55 341 -147 465 -204 374 -175 549 -235 1057 -367 328 -85 465 -145 514 -224 67 -111 -45 -226 -445 -457 -1015 -588 -1813 -1293 -2313 -2045 -407 -611 -648 -1330 -750 -2235 -22 -197 -25 -914 -5 -1110 95 -917 358 -1681 789 -2287 305 -430 702 -822 1098 -1087 288 -192 542 -314 920 -443 87 -30 186 -68 218 -86 78 -41 143 -105 172 -170 25 -53 32 -80 80 -292 79 -348 223 -649 419 -877 167 -194 411 -356 717 -478 158 -63 238 -109 306 -175 50 -50 64 -71 78 -120 34 -115 10 -199 -130 -450 -226 -407 -276 -600 -230 -900 23 -156 18 -237 -18 -273 -24 -24 -34 -27 -90 -26 -70 2 -165 33 -292 97 -276 138 -431 317 -520 597 -14 47 -46 185 -70 308 -128 646 -287 1041 -630 1557 -235 355 -642 844 -961 1156 -150 145 -240 216 -339 265 -136 67 -235 66 -375 -3 -271 -133 -341 -437 -240 -1040 16 -94 40 -216 53 -270 49 -197 179 -503 408 -963 177 -354 311 -595 455 -821 315 -493 394 -837 288 -1247 -85 -326 -284 -677 -728 -1276 -200 -272 -534 -778 -752 -1142 -255 -427 -565 -838 -954 -1264 -253 -278 -368 -459 -406 -642 -68 -316 173 -527 674 -592 468 -61 840 62 1602 526 603 368 1166 584 1808 693 350 59 651 79 1072 72 341 -6 533 -21 905 -68 309 -39 580 -65 825 -79 582 -33 659 -40 897 -85 569 -109 1070 -360 1828 -919 180 -133 273 -204 690 -531 570 -448 641 -498 767 -543 99 -35 244 -37 329 -4 176 69 279 219 279 406 0 92 -20 171 -70 271 -72 146 -185 258 -650 647 -135 113 -364 310 -510 437 -587 515 -804 663 -1428 975 -908 454 -1191 523 -2362 576 -623 28 -792 50 -1169 152 -243 66 -294 69 -471 29 -74 -17 -243 -48 -375 -70 -132 -22 -350 -58 -485 -81 -135 -22 -328 -59 -430 -81 -423 -92 -421 -92 -540 -93 -96 -1 -121 2 -155 19 -108 55 -106 208 6 425 62 121 128 209 229 304 161 150 288 179 625 141 332 -37 671 -122 980 -245 161 -64 245 -89 338 -101 175 -22 306 37 402 180 151 228 134 447 -49 626 -79 77 -144 119 -265 171 -150 65 -306 95 -651 124 -486 42 -652 142 -612 370 31 173 121 233 298 198 113 -22 245 -75 493 -195 254 -123 350 -157 486 -173 55 -6 141 -16 190 -21 161 -19 434 -68 705 -129 569 -126 713 -146 1365 -187 324 -20 964 -22 1235 -5 977 65 1786 238 2310 495 116 57 266 155 685 449 445 311 621 454 870 703 523 524 906 1131 1114 1767 115 353 163 639 163 978 0 303 -25 455 -147 880 -422 1468 -997 2261 -1890 2605 -328 127 -571 162 -1055 152 -157 -3 -339 -11 -405 -17 -441 -40 -923 -124 -1270 -221 -334 -94 -525 -169 -945 -372 -279 -134 -645 -289 -972 -411 -213 -79 -298 -103 -392 -112 -164 -15 -236 46 -271 229 -13 70 -23 204 -45 607 -36 645 -137 982 -442 1465 -63 99 -151 245 -197 325 -286 494 -420 692 -644 947 -507 578 -1118 911 -2122 1158 -438 107 -539 143 -614 217 -66 65 -85 159 -51 251 79 211 434 588 926 983 216 174 417 316 702 496 130 82 307 195 392 251 438 285 555 355 767 461 343 171 659 274 1147 371 418 83 726 113 870 86 279 -52 217 -264 -204 -703 -308 -322 -495 -435 -880 -528 -225 -54 -311 -92 -396 -171 -61 -59 -90 -118 -105 -222 -14 -95 -3 -203 51 -482 22 -116 53 -313 70 -440 56 -416 107 -581 222 -709 145 -163 446 -181 583 -35 100 107 140 257 165 624 21 302 49 396 144 490 37 36 91 76 136 99 248 129 403 270 641 585 85 113 206 273 269 357 119 157 203 301 239 412 25 76 36 138 56 302 44 354 100 408 409 397 171 -6 261 -20 496 -78 546 -135 1211 -422 1535 -664 132 -99 398 -384 697 -750 231 -281 353 -479 608 -986 196 -390 280 -587 325 -761 131 -517 77 -1501 -125 -2308 -44 -174 -52 -349 -22 -468 12 -46 35 -107 52 -136 35 -61 110 -135 166 -164 119 -61 276 -73 381 -30 269 112 659 518 1083 1128 204 294 262 369 485 630 77 91 181 215 230 275 195 241 291 333 605 585 166 134 335 279 555 476 667 596 1248 865 2020 934 357 31 501 70 598 159 82 76 121 223 100 386 -24 200 -126 303 -348 351 -98 22 -409 24 -585 5 -517 -56 -860 -150 -1221 -332 -301 -152 -571 -344 -954 -675 -200 -173 -345 -293 -550 -454 -212 -167 -389 -318 -592 -506 -256 -236 -402 -336 -497 -338 -82 -2 -116 54 -116 193 0 109 13 178 100 535 37 155 91 380 120 501 83 350 161 565 241 666 33 42 118 89 161 89 50 0 139 -36 258 -105 189 -108 312 -132 417 -80 63 32 100 79 124 157 68 219 -44 509 -311 803 -207 227 -258 355 -231 579 15 136 54 291 200 801 66 231 174 618 240 860 242 887 292 1028 672 1872 208 463 365 827 597 1388 105 253 226 543 270 645 114 264 144 375 144 534 1 162 -50 273 -149 328 -64 36 -160 45 -245 23z m-2120 -3839 c27 -26 27 -29 26 -154 -1 -141 -18 -272 -70 -532 -74 -373 -189 -768 -277 -953 -35 -73 -56 -103 -102 -146 -57 -51 -61 -53 -105 -49 -79 8 -176 84 -546 430 -317 296 -363 343 -390 403 -31 66 -30 99 6 163 36 62 103 117 255 209 148 89 229 144 425 287 382 277 576 381 698 373 42 -3 59 -10 80 -31z m-2386 -1316 c77 -24 152 -71 274 -172 277 -231 834 -792 1036 -1043 268 -335 306 -576 169 -1076 -83 -300 -158 -477 -237 -556 -57 -57 -97 -64 -169 -29 -94 46 -183 163 -360 471 -252 438 -577 875 -901 1214 -164 171 -299 291 -477 424 -295 221 -351 321 -247 440 47 53 125 104 266 175 323 162 488 201 646 152z m-9097 -4820 c237 -28 354 -63 784 -241 496 -204 612 -267 871 -476 395 -317 735 -726 946 -1136 181 -353 223 -503 244 -872 17 -303 24 -1094 11 -1235 -36 -390 -135 -470 -636 -514 -589 -53 -852 -43 -1000 38 -157 86 -189 239 -129 626 35 224 39 533 10 695 -85 470 -333 827 -746 1077 -177 107 -357 181 -636 262 -325 94 -396 130 -456 227 -66 109 -94 331 -85 683 8 311 41 526 98 638 89 175 382 267 724 228z m8710 -3880 c368 -42 940 -388 1065 -644 59 -120 57 -222 -5 -351 -103 -213 -461 -652 -583 -714 -131 -67 -183 12 -232 347 -36 246 -93 441 -182 614 -147 288 -329 407 -484 318 -60 -34 -104 -86 -141 -167 -23 -51 -27 -70 -26 -153 1 -114 13 -182 102 -604 58 -273 75 -337 109 -409 45 -97 105 -188 159 -243 82 -84 89 -114 48 -201 -81 -176 -489 -425 -903 -552 -167 -52 -322 -79 -577 -101 -132 -11 -332 -32 -445 -46 -319 -39 -679 -50 -1118 -36 -378 13 -506 26 -622 63 -211 68 -304 213 -354 551 -19 131 -45 429 -53 623 -15 359 49 447 417 579 170 60 284 109 557 237 365 171 496 219 606 219 60 0 101 -23 124 -70 19 -38 19 -35 13 -430 -5 -336 31 -600 114 -853 125 -380 294 -542 502 -482 47 13 69 27 110 69 60 62 87 124 110 259 22 123 14 467 -15 694 -64 499 -128 636 -374 804 -140 96 -149 140 -46 240 113 112 283 192 579 273 197 53 679 164 785 180 57 8 661 -3 760 -14z m-5345 -1601 c81 -13 139 -46 188 -108 116 -147 223 -459 239 -695 8 -122 -8 -197 -52 -245 l-33 -36 -144 0 c-154 1 -215 10 -433 70 -270 74 -583 208 -733 315 -112 79 -199 208 -222 331 -21 108 21 201 115 259 66 41 306 89 545 109 141 12 456 12 530 0z m6966 -461 c62 -42 116 -123 148 -220 133 -400 -63 -1126 -467 -1733 -115 -172 -288 -377 -450 -531 -301 -287 -429 -249 -543 161 -73 263 -126 429 -183 573 -75 191 -86 232 -85 322 1 173 107 285 542 573 205 136 301 227 497 472 241 301 368 415 461 415 19 0 50 -13 80 -32z m-2415 -1702 c195 -42 293 -162 423 -521 71 -197 141 -371 211 -524 115 -251 108 -353 -31 -480 -96 -88 -220 -153 -513 -268 -434 -171 -758 -254 -1239 -318 -792 -105 -1720 -94 -2530 30 -445 69 -929 195 -1105 288 -149 79 -154 152 -20 332 136 183 299 441 513 810 191 331 251 414 342 481 122 90 212 94 671 29 461 -65 577 -98 666 -186 91 -91 110 -253 72 -607 -12 -107 -21 -233 -21 -280 0 -166 48 -288 155 -397 132 -134 267 -153 380 -54 137 120 242 406 320 870 56 335 95 426 212 505 112 76 271 118 778 208 555 98 611 104 716 82z"
       id="path2"
       style="fill:#bf0000;fill-opacity:1" />
    <path
       d="M14917 16309 c-92 -13 -274 -59 -367 -91 -242 -85 -384 -186 -766 -543 -357 -334 -401 -356 -792 -395 -408 -41 -606 -121 -678 -275 -86 -184 63 -482 299 -599 119 -59 299 -96 464 -96 93 0 193 -14 378 -52 301 -61 467 -36 621 94 104 87 179 186 335 439 141 228 201 311 299 409 96 97 167 139 287 172 69 19 99 21 263 18 440 -7 429 -8 492 23 79 39 103 79 102 172 0 51 -8 87 -26 132 -67 159 -257 393 -401 492 -137 93 -316 129 -510 100z"
       id="path4"
       style="fill:#bf0000;fill-opacity:1" />
  </g>
</svg>
