<?xml version="1.0" encoding="UTF-8"?>
<svg width="20.001px" height="20.001px" enable-background="new 0 0 20.001 20.001" version="1.1" viewBox="0 0 20.001 20.001" xml:space="preserve" xmlns="http://www.w3.org/2000/svg" xmlns:cc="http://creativecommons.org/ns#" xmlns:dc="http://purl.org/dc/elements/1.1/" xmlns:rdf="http://www.w3.org/1999/02/22-rdf-syntax-ns#"><metadata><rdf:RDF><cc:Work rdf:about=""><dc:format>image/svg+xml</dc:format><dc:type rdf:resource="http://purl.org/dc/dcmitype/StillImage"/><dc:title/></cc:Work></rdf:RDF></metadata>

	
		<linearGradient id="SVGID_1_" x1="10" x2="10" y2="17.902" gradientUnits="userSpaceOnUse">
			<stop stop-color="#5A5B5F" offset="0"/>
			<stop stop-color="#57585C" offset=".0326"/>
			<stop stop-color="#333234" offset=".456"/>
			<stop stop-color="#1C1B1C" offset=".7932"/>
			<stop stop-color="#141213" offset="1"/>
		</linearGradient>
		<circle cx="10" cy="10" r="10" fill="url(#SVGID_1_)"/>
		<linearGradient id="SVGID_2_" x1="10" x2="10" y2="20.002" gradientUnits="userSpaceOnUse">
			<stop stop-color="#5A5B5F" offset="0"/>
			<stop stop-color="#56575A" offset=".0197"/>
			<stop stop-color="#3E3E40" offset=".1524"/>
			<stop stop-color="#2B2A2C" offset=".2989"/>
			<stop stop-color="#1E1C1E" offset=".4647"/>
			<stop stop-color="#161416" offset=".6657"/>
			<stop stop-color="#141213" offset="1"/>
		</linearGradient>
		<path d="m10 1.6c4.633 0 8.4 3.769 8.4 8.401 0 4.631-3.768 8.4-8.4 8.4-4.631 0-8.4-3.77-8.4-8.4 0-4.633 3.769-8.401 8.4-8.401m0-1.6c-5.523 0-10 4.478-10 10 0 5.523 4.477 10.001 10 10.001s10-4.477 10-10.001c0-5.522-4.477-10-10-10z" fill="url(#SVGID_2_)"/>
	
	
<g aria-label="8 "><path d="m5.2005 13.2v-3.2h1.6v3.2zm0-4.8v-1.6h1.6v1.6zm1.6 6.4v-1.6h3.2v-3.2h-3.2v-1.6h3.2v-1.6h-3.2v-1.6h6.4v1.6h1.6v1.6h-1.6v1.6h1.6v3.2h-1.6v1.6z" fill="#fff"/></g>
</svg>
