<?xml version="1.0" encoding="UTF-8"?>
<svg width="20px" height="20px" enable-background="new 0 0 20 20" version="1.1" viewBox="0 0 20 20" xml:space="preserve" xmlns="http://www.w3.org/2000/svg" xmlns:cc="http://creativecommons.org/ns#" xmlns:dc="http://purl.org/dc/elements/1.1/" xmlns:rdf="http://www.w3.org/1999/02/22-rdf-syntax-ns#"><metadata><rdf:RDF><cc:Work rdf:about=""><dc:format>image/svg+xml</dc:format><dc:type rdf:resource="http://purl.org/dc/dcmitype/StillImage"/><dc:title/></cc:Work></rdf:RDF></metadata>

	
		
			<linearGradient id="SVGID_1_" x1="90.372" x2="110.37" y1="442.36" y2="442.36" gradientTransform="matrix(0 1 -1 0 452.36 -89.644)" gradientUnits="userSpaceOnUse">
			<stop stop-color="#5B5B5F" offset="0"/>
			<stop stop-color="#535356" offset=".1036"/>
			<stop stop-color="#252526" offset=".7019"/>
			<stop stop-color="#141414" offset="1"/>
		</linearGradient>
		<circle cx="10" cy="10" r="10" fill="url(#SVGID_1_)"/>
		<linearGradient id="SVGID_2_" x1="10" x2="10" y2="20" gradientUnits="userSpaceOnUse">
			<stop stop-color="#5B5B5F" offset="0"/>
			<stop stop-color="#464649" offset=".2775"/>
			<stop stop-color="#0F0F10" offset=".8541"/>
			<stop offset="1"/>
		</linearGradient>
		<path d="m10 1.658c4.6 0 8.342 3.742 8.342 8.342s-3.743 8.342-8.342 8.342-8.342-3.742-8.342-8.342 3.742-8.342 8.342-8.342m0-1.658c-5.523 0-10 4.477-10 10 0 5.522 4.477 10 10 10 5.522 0 10-4.478 10-10s-4.478-10-10-10z" fill="url(#SVGID_2_)"/>
	
	<g fill="#fff"><polygon transform="matrix(-1 0 0 1 20 -.8976)" points="10 5 12.008 2.925 10 2.925 7.994 2.925" opacity=".5"/>
		
		
	<polygon transform="matrix(1 0 0 -1 -.001 19.756)" points="10 2.925 7.994 2.925 10 5 12.008 2.925" opacity=".5"/><polygon transform="matrix(0 1 1 0 -.5148 -.001)" points="12.008 2.925 10 2.925 7.994 2.925 10 5" opacity=".5"/><polygon transform="rotate(90,10.277,10.276)" points="10 2.925 7.994 2.925 10 5 12.008 2.925" opacity=".5"/></g><g aria-label="R"><path d="m11.4 14.2v-1.4h2.8v1.4zm0-4.2v-2.8h-2.8v2.8zm-5.6 4.2v-8.4h7v1.4h1.4v2.8h-1.4v1.4h-1.4v1.4h-1.4v-1.4h-1.4v2.8z" fill="#fff"/></g>

</svg>
