<svg width="384" height="384" version="1.1" viewBox="0 0 384 384" xmlns="http://www.w3.org/2000/svg">
	<g transform="translate(0 -91.081)">
		<path d="m201 109.49c-4.946 0-9.229 1.812-12.847 5.426l-95.074 95.075h-74.802c-4.952 0-9.234 1.812-12.85 5.424-3.617 3.616-5.426 7.901-5.426 12.849v109.63c0 4.949 1.809 9.233 5.426 12.848 3.619 3.617 7.902 5.427 12.85 5.427h74.798l95.074 95.078c3.617 3.61 7.9 5.424 12.847 5.424 4.952 0 9.234-1.813 12.85-5.424 3.617-3.614 5.426-7.901 5.426-12.847v-310.63c0-4.948-1.809-9.234-5.422-12.85-3.619-3.614-7.898-5.426-12.85-5.426z" fill="#fff"/>
	</g>
</svg>
