<?xml version="1.0" encoding="UTF-8" standalone="no"?>
<svg
   xmlns:ns3="http://ns.adobe.com/AdobeIllustrator/10.0/"
   xmlns:dc="http://purl.org/dc/elements/1.1/"
   xmlns:cc="http://creativecommons.org/ns#"
   xmlns:rdf="http://www.w3.org/1999/02/22-rdf-syntax-ns#"
   xmlns:svg="http://www.w3.org/2000/svg"
   xmlns="http://www.w3.org/2000/svg"
   xmlns:sodipodi="http://sodipodi.sourceforge.net/DTD/sodipodi-0.dtd"
   xmlns:inkscape="http://www.inkscape.org/namespaces/inkscape"
   width="35.487507mm"
   height="44.714848mm"
   viewBox="0 0 35.487507 44.714848"
   version="1.1"
   id="svg6253"
   inkscape:version="1.0.2 (e86c870879, 2021-01-15)"
   sodipodi:docname="numpad.svg">
  <defs
     id="defs6247" />
  <sodipodi:namedview
     id="base"
     pagecolor="#ffffff"
     bordercolor="#666666"
     borderopacity="1.0"
     inkscape:pageopacity="0.0"
     inkscape:pageshadow="2"
     inkscape:zoom="1.979899"
     inkscape:cx="-42.456825"
     inkscape:cy="7.8471827"
     inkscape:document-units="mm"
     inkscape:current-layer="layer1"
     inkscape:document-rotation="0"
     showgrid="false"
     fit-margin-top="0"
     fit-margin-left="0"
     fit-margin-right="0"
     fit-margin-bottom="0"
     inkscape:window-width="1920"
     inkscape:window-height="1026"
     inkscape:window-x="1050"
     inkscape:window-y="31"
     inkscape:window-maximized="1" />
  <metadata
     id="metadata6250">
    <rdf:RDF>
      <cc:Work
         rdf:about="">
        <dc:format>image/svg+xml</dc:format>
        <dc:type
           rdf:resource="http://purl.org/dc/dcmitype/StillImage" />
        <dc:title></dc:title>
      </cc:Work>
    </rdf:RDF>
  </metadata>
  <g
     inkscape:label="Layer 1"
     inkscape:groupmode="layer"
     id="layer1"
     transform="translate(-345.86935,-72.892576)">
    <path
       ns3:knockout="Off"
       fill="#f9f9f9"
       stroke="#000000"
       stroke-width="0.529167"
       d="m 363.23673,89.545186 c 0,0.424392 -0.34422,0.76835 -0.76809,0.76835 h -6.70665 c -0.42492,0 -0.76862,-0.343958 -0.76862,-0.76835 v -6.706393 c 0,-0.425186 0.3437,-0.769144 0.76862,-0.769144 h 6.70665 c 0.42413,0 0.76809,0.343958 0.76809,0.769144 z"
       id="path4086"
       style="fill:#ffffff" />
    <path
       ns3:knockout="Off"
       fill="#f9f9f9"
       stroke="#000000"
       stroke-width="0.529167"
       d="m 363.23673,80.632697 c 0,0.424127 -0.34422,0.76835 -0.76809,0.76835 h -6.70665 c -0.42492,0 -0.76862,-0.344223 -0.76862,-0.76835 v -6.706129 c 0,-0.425186 0.3437,-0.769409 0.76862,-0.769409 h 6.70665 c 0.42413,0 0.76809,0.344223 0.76809,0.769409 z"
       id="path4088"
       style="fill:#ffffff" />
    <path
       ns3:knockout="Off"
       fill="#f9f9f9"
       stroke="#000000"
       stroke-width="0.529167"
       d="m 354.37676,107.40747 c 0,0.42439 -0.34369,0.76835 -0.76808,0.76835 h -6.70666 c -0.42439,0 -0.76809,-0.34396 -0.76809,-0.76835 v -6.70639 c 0,-0.42519 0.3437,-0.769146 0.76809,-0.769146 h 6.70666 c 0.42439,0 0.76808,0.343956 0.76808,0.769146 z"
       id="path4114"
       style="fill:#ffffff" />
    <path
       ns3:knockout="Off"
       fill="#f9f9f9"
       stroke="#000000"
       stroke-width="0.529167"
       d="m 354.37676,98.476196 c 0,0.424392 -0.34369,0.76835 -0.76808,0.76835 h -6.70666 c -0.42439,0 -0.76809,-0.343958 -0.76809,-0.76835 v -6.706393 c 0,-0.425186 0.3437,-0.769144 0.76809,-0.769144 h 6.70666 c 0.42439,0 0.76808,0.343958 0.76808,0.769144 z"
       id="path4118"
       style="fill:#ffffff" />
    <path
       ns3:knockout="Off"
       fill="#f9f9f9"
       stroke="#000000"
       stroke-width="0.529167"
       d="m 354.37676,89.545186 c 0,0.424392 -0.34369,0.76835 -0.76808,0.76835 h -6.70666 c -0.42439,0 -0.76809,-0.343958 -0.76809,-0.76835 v -6.706393 c 0,-0.425186 0.3437,-0.769144 0.76809,-0.769144 h 6.70666 c 0.42439,0 0.76808,0.343958 0.76808,0.769144 z"
       id="path4120"
       style="fill:#ffffff" />
    <path
       ns3:knockout="Off"
       fill="#f9f9f9"
       stroke="#000000"
       stroke-width="0.529167"
       d="m 354.37676,80.632697 c 0,0.424127 -0.34369,0.76835 -0.76808,0.76835 h -6.70666 c -0.42439,0 -0.76809,-0.344223 -0.76809,-0.76835 v -6.706129 c 0,-0.425186 0.3437,-0.769409 0.76809,-0.769409 h 6.70666 c 0.42439,0 0.76808,0.344223 0.76808,0.769409 z"
       id="path4122"
       style="fill:#ffffff" />
    <path
       ns3:knockout="Off"
       fill="#f9f9f9"
       stroke="#000000"
       stroke-width="0.529167"
       d="m 362.93603,116.57475 c 0,0.4244 -0.34449,0.76809 -0.76835,0.76809 h -14.9598 c -0.4244,0 -0.76835,-0.34396 -0.76835,-0.76809 v -6.70665 c 0,-0.42519 0.34395,-0.76915 0.76835,-0.76915 h 14.9598 c 0.42413,0 0.76835,0.34396 0.76835,0.76915 z"
       id="path4160"
       style="fill:#ffffff" />
    <path
       ns3:knockout="Off"
       fill="#f9f9f9"
       stroke="#000000"
       stroke-width="0.529167"
       d="m 381.09227,116.39161 c 0,0.42439 -0.34422,0.76835 -0.76862,0.76835 H 373.617 c -0.4244,0 -0.76809,-0.34396 -0.76809,-0.76835 v -15.69032 c 0,-0.42519 0.34369,-0.769131 0.76809,-0.769131 h 6.70665 c 0.4244,0 0.76862,0.343941 0.76862,0.769131 z"
       id="path4162"
       style="fill:#ffffff" />
    <path
       ns3:knockout="Off"
       fill="#f9f9f9"
       stroke="#000000"
       stroke-width="0.529167"
       d="m 372.09644,98.476196 c 0,0.424392 -0.34423,0.76835 -0.76862,0.76835 h -6.70666 c -0.42439,0 -0.76808,-0.343958 -0.76808,-0.76835 v -6.706393 c 0,-0.425186 0.34369,-0.769144 0.76808,-0.769144 h 6.70666 c 0.42439,0 0.76862,0.343958 0.76862,0.769144 z"
       id="path4164"
       style="fill:#ffffff" />
    <path
       ns3:knockout="Off"
       fill="#f9f9f9"
       stroke="#000000"
       stroke-width="0.529167"
       d="m 372.09644,89.545186 c 0,0.424392 -0.34423,0.76835 -0.76862,0.76835 h -6.70666 c -0.42439,0 -0.76808,-0.343958 -0.76808,-0.76835 v -6.706393 c 0,-0.425186 0.34369,-0.769144 0.76808,-0.769144 h 6.70666 c 0.42439,0 0.76862,0.343958 0.76862,0.769144 z"
       id="path4166"
       style="fill:#ffffff" />
    <path
       ns3:knockout="Off"
       fill="#f9f9f9"
       stroke="#000000"
       stroke-width="0.529167"
       d="m 372.09644,116.57449 c 0,0.42439 -0.34423,0.76809 -0.76862,0.76809 h -6.70666 c -0.42439,0 -0.76808,-0.3437 -0.76808,-0.76809 v -6.70639 c 0,-0.42519 0.34369,-0.76915 0.76808,-0.76915 h 6.70666 c 0.42439,0 0.76862,0.34396 0.76862,0.76915 z"
       id="path4168"
       style="fill:#ffffff" />
    <path
       ns3:knockout="Off"
       fill="#f9f9f9"
       stroke="#000000"
       stroke-width="0.529167"
       d="m 372.09644,107.40747 c 0,0.42439 -0.34423,0.76835 -0.76862,0.76835 h -6.70666 c -0.42439,0 -0.76808,-0.34396 -0.76808,-0.76835 v -6.70639 c 0,-0.42519 0.34369,-0.769146 0.76808,-0.769146 h 6.70666 c 0.42439,0 0.76862,0.343956 0.76862,0.769146 z"
       id="path4170"
       style="fill:#ffffff" />
    <path
       ns3:knockout="Off"
       fill="#f9f9f9"
       stroke="#000000"
       stroke-width="0.529167"
       d="m 372.09644,80.632697 c 0,0.424127 -0.34423,0.76835 -0.76862,0.76835 h -6.70666 c -0.42439,0 -0.76808,-0.344223 -0.76808,-0.76835 v -6.706129 c 0,-0.425186 0.34369,-0.769409 0.76808,-0.769409 h 6.70666 c 0.42439,0 0.76862,0.344223 0.76862,0.769409 z"
       id="path4172"
       style="fill:#ffffff" />
    <path
       ns3:knockout="Off"
       fill="#f9f9f9"
       stroke="#000000"
       stroke-width="0.529167"
       d="m 381.00257,98.209761 c 0,0.424392 -0.34369,0.76835 -0.76808,0.76835 h -6.70666 c -0.42439,0 -0.76835,-0.344223 -0.76835,-0.76835 V 83.148355 c 0,-0.424921 0.34396,-0.768879 0.76835,-0.768879 h 6.70666 c 0.42439,0 0.76808,0.343958 0.76808,0.768879 z"
       id="path4198"
       style="fill:#ffffff" />
    <path
       ns3:knockout="Off"
       fill="#f9f9f9"
       stroke="#000000"
       stroke-width="0.529167"
       d="m 381.00257,80.632697 c 0,0.424127 -0.34369,0.76835 -0.76808,0.76835 h -6.70666 c -0.42439,0 -0.76835,-0.344223 -0.76835,-0.76835 v -6.706129 c 0,-0.425186 0.34396,-0.769409 0.76835,-0.769409 h 6.70666 c 0.42439,0 0.76808,0.344223 0.76808,0.769409 z"
       id="path4200"
       style="fill:#ffffff" />
    <path
       ns3:knockout="Off"
       fill="#f9f9f9"
       stroke="#000000"
       stroke-width="0.529167"
       d="m 363.23647,107.34425 c 0,0.42439 -0.34369,0.76835 -0.76808,0.76835 h -6.70666 c -0.42439,0 -0.76809,-0.34396 -0.76809,-0.76835 v -6.70639 c 0,-0.42519 0.3437,-0.769138 0.76809,-0.769138 h 6.70666 c 0.42439,0 0.76808,0.343948 0.76808,0.769138 z"
       id="path4114-3"
       style="fill:#ffffff" />
    <path
       ns3:knockout="Off"
       fill="#f9f9f9"
       stroke="#000000"
       stroke-width="0.529167"
       d="m 363.23647,98.412984 c 0,0.42439 -0.34369,0.76835 -0.76808,0.76835 h -6.70666 c -0.42439,0 -0.76809,-0.34396 -0.76809,-0.76835 v -6.706392 c 0,-0.425186 0.3437,-0.769144 0.76809,-0.769144 h 6.70666 c 0.42439,0 0.76808,0.343958 0.76808,0.769144 z"
       id="path4118-5"
       style="fill:#ffffff" />
  </g>
</svg>
