<?xml version="1.0" encoding="utf-8"?>
<!-- Generator: Adobe Illustrator 16.0.0, SVG Export Plug-In . SVG Version: 6.00 Build 0)  -->
<!DOCTYPE svg PUBLIC "-//W3C//DTD SVG 1.1//EN" "http://www.w3.org/Graphics/SVG/1.1/DTD/svg11.dtd">
<svg version="1.1" id="Capa_1" xmlns="http://www.w3.org/2000/svg" xmlns:xlink="http://www.w3.org/1999/xlink" x="0px" y="0px"
	 width="20px" height="20px" viewBox="0 0 20 20" enable-background="new 0 0 20 20" xml:space="preserve">
<g>
	<g>
		
			<linearGradient id="SVGID_1_" gradientUnits="userSpaceOnUse" x1="90.3721" y1="442.356" x2="110.3721" y2="442.356" gradientTransform="matrix(0 1 -1 0 452.356 -89.644)">
			<stop  offset="0" style="stop-color:#5B5B5F"/>
			<stop  offset="0.1036" style="stop-color:#535356"/>
			<stop  offset="0.7019" style="stop-color:#252526"/>
			<stop  offset="1" style="stop-color:#141414"/>
		</linearGradient>
		<circle fill="url(#SVGID_1_)" cx="10" cy="10" r="10"/>
		<linearGradient id="SVGID_2_" gradientUnits="userSpaceOnUse" x1="10" y1="0" x2="10" y2="20">
			<stop  offset="0" style="stop-color:#5B5B5F"/>
			<stop  offset="0.2775" style="stop-color:#464649"/>
			<stop  offset="0.8541" style="stop-color:#0F0F10"/>
			<stop  offset="1" style="stop-color:#000000"/>
		</linearGradient>
		<path fill="url(#SVGID_2_)" d="M10,1.658c4.6,0,8.342,3.742,8.342,8.342c0,4.6-3.743,8.342-8.342,8.342S1.658,14.6,1.658,10
			C1.658,5.4,5.4,1.658,10,1.658 M10,0C4.477,0,0,4.477,0,10c0,5.522,4.477,10,10,10c5.522,0,10-4.478,10-10S15.522,0,10,0L10,0z"/>
	</g>
	<g>
		<g>
			<path fill="#FFFFFF" d="M8.457,13.707v-1.912c0-0.357-0.082-0.613-0.246-0.766c-0.164-0.153-0.469-0.229-0.916-0.229H5.64v2.907
				H4.13V6.283h3.768c0.342,0,0.654,0.054,0.933,0.162c0.28,0.108,0.52,0.257,0.722,0.447c0.201,0.19,0.355,0.417,0.463,0.682
				c0.108,0.264,0.163,0.549,0.163,0.855c0,0.402-0.095,0.758-0.286,1.067c-0.19,0.31-0.464,0.527-0.822,0.654
				c0.328,0.104,0.561,0.265,0.699,0.481c0.138,0.216,0.207,0.541,0.207,0.973v2.102H8.457z M5.64,7.568v1.979h1.945
				c0.417,0,0.712-0.093,0.883-0.279s0.257-0.421,0.257-0.705c0-0.291-0.084-0.529-0.251-0.716C8.306,7.662,8.028,7.568,7.641,7.568
				H5.64z"/>
			<path fill="#FFFFFF" d="M10.061,13.789H8.375v-1.995c0-0.332-0.074-0.569-0.22-0.705c-0.147-0.138-0.437-0.207-0.86-0.207H5.723
				v2.907H4.048V6.2h3.851c0.351,0,0.675,0.057,0.963,0.167C9.15,6.479,9.402,6.635,9.61,6.832c0.208,0.197,0.372,0.436,0.484,0.711
				c0.111,0.273,0.168,0.572,0.168,0.887c0,0.416-0.101,0.79-0.298,1.111c-0.163,0.265-0.387,0.469-0.668,0.606
				c0.244,0.108,0.427,0.255,0.545,0.44c0.146,0.229,0.22,0.571,0.22,1.018V13.789z M8.54,13.624h1.354v-2.019
				c0-0.415-0.065-0.727-0.193-0.928c-0.127-0.198-0.347-0.349-0.654-0.446l-0.235-0.075l0.232-0.083
				c0.337-0.12,0.6-0.328,0.779-0.619c0.181-0.295,0.273-0.639,0.273-1.024c0-0.293-0.053-0.571-0.156-0.824
				C9.837,7.353,9.688,7.133,9.496,6.952C9.304,6.771,9.07,6.626,8.802,6.522C8.533,6.418,8.229,6.366,7.898,6.366H4.213v7.258
				h1.344v-2.907h1.738c0.473,0,0.791,0.083,0.973,0.251c0.181,0.169,0.272,0.447,0.272,0.827V13.624z M7.585,9.63H5.557V7.486
				h2.084c0.41,0,0.711,0.103,0.895,0.307c0.181,0.201,0.273,0.46,0.273,0.771c0,0.304-0.094,0.56-0.279,0.76
				C8.342,9.527,8.024,9.63,7.585,9.63z M5.723,9.464h1.862c0.391,0,0.668-0.085,0.822-0.252C8.565,9.04,8.643,8.828,8.643,8.563
				c0-0.272-0.075-0.488-0.23-0.66c-0.15-0.167-0.41-0.252-0.771-0.252H5.723V9.464z"/>
		</g>
		<g>
			<path fill="#FFFFFF" d="M12.728,9.357c0.313,0,0.568-0.028,0.766-0.084s0.351-0.13,0.458-0.224
				c0.108-0.093,0.183-0.201,0.224-0.324s0.062-0.252,0.062-0.386c0-0.373-0.077-0.656-0.229-0.85
				C13.855,7.296,13.611,7.2,13.276,7.2c-0.284,0-0.518,0.106-0.705,0.318c-0.186,0.212-0.28,0.513-0.28,0.9h-1.353
				c0-0.358,0.058-0.682,0.173-0.973c0.116-0.291,0.28-0.54,0.492-0.749c0.212-0.208,0.465-0.371,0.76-0.486
				c0.294-0.115,0.617-0.173,0.967-0.173c0.321,0,0.621,0.049,0.9,0.146c0.279,0.097,0.523,0.234,0.732,0.414
				c0.208,0.179,0.373,0.394,0.492,0.643c0.119,0.25,0.179,0.524,0.179,0.822c0,0.336-0.073,0.654-0.218,0.957
				c-0.146,0.301-0.363,0.538-0.654,0.709c0.358,0.149,0.631,0.375,0.822,0.677c0.19,0.302,0.285,0.688,0.285,1.157
				c0,0.373-0.063,0.708-0.19,1.006c-0.127,0.298-0.306,0.55-0.537,0.755c-0.23,0.205-0.507,0.363-0.827,0.475
				c-0.32,0.112-0.675,0.168-1.062,0.168c-0.775,0-1.375-0.216-1.8-0.648s-0.637-1.028-0.637-1.789h1.397
				c0,0.432,0.093,0.748,0.279,0.945c0.186,0.197,0.462,0.296,0.827,0.296c0.306,0,0.56-0.106,0.761-0.318
				c0.201-0.213,0.302-0.516,0.302-0.912c0-0.432-0.125-0.734-0.375-0.905c-0.25-0.171-0.677-0.257-1.281-0.257V9.357z"/>
			<path fill="#FFFFFF" d="M13.253,14.046c-0.794,0-1.42-0.227-1.859-0.674c-0.438-0.446-0.661-1.067-0.661-1.846v-0.083h1.563
				v0.083c0,0.408,0.086,0.707,0.257,0.888c0.169,0.179,0.427,0.27,0.767,0.27c0.285,0,0.514-0.096,0.7-0.292
				c0.186-0.196,0.279-0.483,0.279-0.854c0-0.401-0.114-0.683-0.339-0.837c-0.234-0.161-0.649-0.243-1.233-0.243h-0.083V9.274h0.083
				c0.304,0,0.554-0.027,0.744-0.081c0.185-0.053,0.329-0.122,0.427-0.207c0.096-0.083,0.163-0.18,0.199-0.288
				c0.038-0.114,0.057-0.235,0.057-0.359c0-0.352-0.071-0.62-0.211-0.798c-0.137-0.174-0.355-0.259-0.667-0.259
				c-0.261,0-0.471,0.095-0.642,0.29c-0.172,0.196-0.259,0.48-0.259,0.846v0.083h-1.518V8.418c0-0.367,0.06-0.705,0.179-1.004
				c0.119-0.3,0.291-0.562,0.51-0.777c0.22-0.216,0.485-0.385,0.789-0.504c0.302-0.119,0.638-0.179,0.997-0.179
				c0.328,0,0.64,0.051,0.927,0.15c0.288,0.1,0.543,0.244,0.759,0.429c0.216,0.186,0.389,0.411,0.512,0.67
				c0.125,0.26,0.188,0.548,0.188,0.857c0,0.347-0.076,0.68-0.226,0.992c-0.13,0.269-0.317,0.491-0.558,0.662
				c0.306,0.154,0.548,0.37,0.72,0.645c0.198,0.313,0.298,0.718,0.298,1.201c0,0.382-0.066,0.731-0.197,1.039
				c-0.131,0.308-0.319,0.572-0.558,0.784c-0.238,0.211-0.526,0.376-0.855,0.492C14.015,13.988,13.648,14.046,13.253,14.046z
				 M10.9,11.609c0.015,0.695,0.221,1.249,0.612,1.647c0.407,0.414,0.993,0.624,1.741,0.624c0.376,0,0.725-0.055,1.035-0.163
				c0.309-0.107,0.578-0.262,0.8-0.459c0.221-0.196,0.394-0.439,0.515-0.725c0.122-0.286,0.184-0.614,0.184-0.974
				c0-0.452-0.092-0.826-0.272-1.113c-0.179-0.285-0.443-0.502-0.783-0.644l-0.153-0.064l0.143-0.084
				c0.274-0.162,0.484-0.389,0.622-0.675c0.139-0.289,0.209-0.599,0.209-0.92c0-0.284-0.057-0.548-0.171-0.786
				c-0.113-0.238-0.272-0.445-0.471-0.616c-0.2-0.171-0.438-0.305-0.706-0.398c-0.27-0.093-0.563-0.141-0.873-0.141
				c-0.338,0-0.653,0.057-0.937,0.168c-0.283,0.11-0.529,0.268-0.733,0.468c-0.203,0.2-0.362,0.442-0.473,0.721
				c-0.102,0.257-0.158,0.545-0.167,0.859h1.188c0.013-0.368,0.113-0.661,0.299-0.872c0.202-0.23,0.459-0.347,0.767-0.347
				c0.36,0,0.629,0.108,0.797,0.322C14.237,7.647,14.32,7.95,14.32,8.34c0,0.142-0.022,0.281-0.065,0.412
				c-0.046,0.137-0.129,0.259-0.248,0.361c-0.117,0.101-0.282,0.181-0.49,0.24c-0.186,0.053-0.423,0.082-0.706,0.086v0.853
				c0.583,0.007,0.99,0.096,1.245,0.271c0.272,0.187,0.41,0.515,0.41,0.974c0,0.415-0.109,0.741-0.324,0.968
				c-0.217,0.229-0.493,0.345-0.821,0.345c-0.387,0-0.686-0.109-0.888-0.322c-0.188-0.199-0.289-0.508-0.301-0.918H10.9z"/>
		</g>
	</g>
</g>
</svg>
