<?xml version="1.0" encoding="UTF-8" standalone="no"?>
<svg
   xmlns:dc="http://purl.org/dc/elements/1.1/"
   xmlns:cc="http://creativecommons.org/ns#"
   xmlns:rdf="http://www.w3.org/1999/02/22-rdf-syntax-ns#"
   xmlns:svg="http://www.w3.org/2000/svg"
   xmlns="http://www.w3.org/2000/svg"
   xmlns:sodipodi="http://sodipodi.sourceforge.net/DTD/sodipodi-0.dtd"
   xmlns:inkscape="http://www.inkscape.org/namespaces/inkscape"
   version="1.1"
   id="Capa_1"
   x="0px"
   y="0px"
   width="20px"
   height="20px"
   viewBox="0 0 20 20"
   enable-background="new 0 0 20 20"
   xml:space="preserve"
   sodipodi:docname="playstation-button-ls.svg"
   inkscape:version="1.0.2 (e86c870879, 2021-01-15)"><metadata
   id="metadata47"><rdf:RDF><cc:Work
       rdf:about=""><dc:format>image/svg+xml</dc:format><dc:type
         rdf:resource="http://purl.org/dc/dcmitype/StillImage" /><dc:title></dc:title></cc:Work></rdf:RDF></metadata><defs
   id="defs45" /><sodipodi:namedview
   pagecolor="#ffffff"
   bordercolor="#666666"
   borderopacity="1"
   objecttolerance="10"
   gridtolerance="10"
   guidetolerance="10"
   inkscape:pageopacity="0"
   inkscape:pageshadow="2"
   inkscape:window-width="1920"
   inkscape:window-height="1026"
   id="namedview43"
   showgrid="false"
   inkscape:zoom="30.122749"
   inkscape:cx="10.252291"
   inkscape:cy="6.837761"
   inkscape:window-x="1050"
   inkscape:window-y="31"
   inkscape:window-maximized="1"
   inkscape:current-layer="g30"
   inkscape:document-rotation="0" />
<g
   id="g40">
	<g
   id="g24">
		
			<linearGradient
   id="SVGID_1_"
   gradientUnits="userSpaceOnUse"
   x1="90.3721"
   y1="442.356"
   x2="110.3721"
   y2="442.356"
   gradientTransform="matrix(0 1 -1 0 452.356 -89.644)">
			<stop
   offset="0"
   style="stop-color:#5B5B5F"
   id="stop2" />
			<stop
   offset="0.1036"
   style="stop-color:#535356"
   id="stop4" />
			<stop
   offset="0.7019"
   style="stop-color:#252526"
   id="stop6" />
			<stop
   offset="1"
   style="stop-color:#141414"
   id="stop8" />
		</linearGradient>
		<circle
   fill="url(#SVGID_1_)"
   cx="10"
   cy="10"
   r="10"
   id="circle11" />
		<linearGradient
   id="SVGID_2_"
   gradientUnits="userSpaceOnUse"
   x1="10"
   y1="0"
   x2="10"
   y2="20">
			<stop
   offset="0"
   style="stop-color:#5B5B5F"
   id="stop13" />
			<stop
   offset="0.2775"
   style="stop-color:#464649"
   id="stop15" />
			<stop
   offset="0.8541"
   style="stop-color:#0F0F10"
   id="stop17" />
			<stop
   offset="1"
   style="stop-color:#000000"
   id="stop19" />
		</linearGradient>
		<path
   fill="url(#SVGID_2_)"
   d="M10,1.658c4.6,0,8.342,3.742,8.342,8.342c0,4.6-3.743,8.342-8.342,8.342S1.658,14.6,1.658,10    C1.658,5.4,5.4,1.658,10,1.658 M10,0C4.477,0,0,4.477,0,10c0,5.522,4.477,10,10,10c5.522,0,10-4.478,10-10S15.522,0,10,0L10,0z"
   id="path22" />
	</g>
	<g
   id="g38"><polygon
   opacity="0.5"
   fill="#ffffff"
   points="7.994,2.925 10,5 12.008,2.925 10,2.925 "
   id="polygon30"
   transform="rotate(180,10.0005,3.5137299)" />
		<g
   id="g30"
   transform="translate(2.845,0.0055)">
			
			
		<polygon
   fill="#ffffff"
   points="5.697,2.477 5.697,9.996 11.108,9.996 11.108,8.316 7.57,8.316 7.57,2.477 "
   id="polygon36"
   transform="translate(-1.649,3.723)" /></g>
		
	<polygon
   opacity="0.5"
   fill="#ffffff"
   points="12.008,2.925 10,2.925 7.994,2.925 10,5 "
   id="polygon30-3"
   transform="translate(-0.001,11.830978)" /><polygon
   opacity="0.5"
   fill="#ffffff"
   points="10,5 12.008,2.925 10,2.925 7.994,2.925 "
   id="polygon30-3-6"
   transform="rotate(90,3.7056435,3.7046435)" /><polygon
   opacity="0.5"
   fill="#ffffff"
   points="12.008,2.925 10,2.925 7.994,2.925 10,5 "
   id="polygon30-3-6-7"
   transform="matrix(0,1,1,0,12.627554,-10e-4)" /></g>
</g>
</svg>
