<?xml version="1.0" encoding="UTF-8" standalone="no"?>
<svg
   xmlns:dc="http://purl.org/dc/elements/1.1/"
   xmlns:cc="http://creativecommons.org/ns#"
   xmlns:rdf="http://www.w3.org/1999/02/22-rdf-syntax-ns#"
   xmlns:svg="http://www.w3.org/2000/svg"
   xmlns="http://www.w3.org/2000/svg"
   xmlns:sodipodi="http://sodipodi.sourceforge.net/DTD/sodipodi-0.dtd"
   xmlns:inkscape="http://www.inkscape.org/namespaces/inkscape"
   version="1.1"
   id="Capa_1"
   x="0px"
   y="0px"
   width="20px"
   height="20px"
   viewBox="0 0 20 20"
   enable-background="new 0 0 20 20"
   xml:space="preserve"
   sodipodi:docname="playstation-button-l3.svg"
   inkscape:version="1.0.2 (e86c870879, 2021-01-15)"><metadata
   id="metadata273"><rdf:RDF><cc:Work
       rdf:about=""><dc:format>image/svg+xml</dc:format><dc:type
         rdf:resource="http://purl.org/dc/dcmitype/StillImage" /><dc:title></dc:title></cc:Work></rdf:RDF></metadata><defs
   id="defs271" /><sodipodi:namedview
   pagecolor="#ffffff"
   bordercolor="#666666"
   borderopacity="1"
   objecttolerance="10"
   gridtolerance="10"
   guidetolerance="10"
   inkscape:pageopacity="0"
   inkscape:pageshadow="2"
   inkscape:window-width="952"
   inkscape:window-height="1022"
   id="namedview269"
   showgrid="false"
   inkscape:zoom="15.061374"
   inkscape:cx="-0.3021358"
   inkscape:cy="8.0054742"
   inkscape:window-x="1050"
   inkscape:window-y="31"
   inkscape:window-maximized="0"
   inkscape:current-layer="g264" />
<g
   id="g266">
	<g
   id="g250">
		
			<linearGradient
   id="SVGID_1_"
   gradientUnits="userSpaceOnUse"
   x1="90.372101"
   y1="442.35599"
   x2="110.3721"
   y2="442.35599"
   gradientTransform="rotate(90,271,181.356)">
			<stop
   offset="0"
   style="stop-color:#5B5B5F"
   id="stop228" />
			<stop
   offset="0.1036"
   style="stop-color:#535356"
   id="stop230" />
			<stop
   offset="0.7019"
   style="stop-color:#252526"
   id="stop232" />
			<stop
   offset="1"
   style="stop-color:#141414"
   id="stop234" />
		</linearGradient>
		<circle
   fill="url(#SVGID_1_)"
   cx="10"
   cy="10"
   r="10"
   id="circle237"
   style="fill:url(#SVGID_1_)" />
		<linearGradient
   id="SVGID_2_"
   gradientUnits="userSpaceOnUse"
   x1="10"
   y1="0"
   x2="10"
   y2="20">
			<stop
   offset="0"
   style="stop-color:#5B5B5F"
   id="stop239" />
			<stop
   offset="0.2775"
   style="stop-color:#464649"
   id="stop241" />
			<stop
   offset="0.8541"
   style="stop-color:#0F0F10"
   id="stop243" />
			<stop
   offset="1"
   style="stop-color:#000000"
   id="stop245" />
		</linearGradient>
		<path
   fill="url(#SVGID_2_)"
   d="m 10,1.658 c 4.6,0 8.342,3.742 8.342,8.342 0,4.6 -3.743,8.342 -8.342,8.342 C 5.401,18.342 1.658,14.6 1.658,10 1.658,5.4 5.4,1.658 10,1.658 M 10,0 C 4.477,0 0,4.477 0,10 0,15.522 4.477,20 10,20 15.522,20 20,15.522 20,10 20,4.478 15.522,0 10,0 Z"
   id="path248"
   style="fill:url(#SVGID_2_)" />
	</g>
	<g
   id="g264">
		
		<g
   id="g262">
			<path
   fill="#ffffff"
   d="m 12.728,9.357 c 0.313,0 0.568,-0.028 0.766,-0.084 0.198,-0.056 0.351,-0.13 0.458,-0.224 0.108,-0.093 0.183,-0.201 0.224,-0.324 0.041,-0.123 0.062,-0.252 0.062,-0.386 0,-0.373 -0.077,-0.656 -0.229,-0.85 C 13.855,7.296 13.611,7.2 13.276,7.2 c -0.284,0 -0.518,0.106 -0.705,0.318 -0.186,0.212 -0.28,0.513 -0.28,0.9 h -1.353 c 0,-0.358 0.058,-0.682 0.173,-0.973 0.116,-0.291 0.28,-0.54 0.492,-0.749 0.212,-0.208 0.465,-0.371 0.76,-0.486 0.294,-0.115 0.617,-0.173 0.967,-0.173 0.321,0 0.621,0.049 0.9,0.146 0.279,0.097 0.523,0.234 0.732,0.414 0.208,0.179 0.373,0.394 0.492,0.643 0.119,0.25 0.179,0.524 0.179,0.822 0,0.336 -0.073,0.654 -0.218,0.957 -0.146,0.301 -0.363,0.538 -0.654,0.709 0.358,0.149 0.631,0.375 0.822,0.677 0.19,0.302 0.285,0.688 0.285,1.157 0,0.373 -0.063,0.708 -0.19,1.006 -0.127,0.298 -0.306,0.55 -0.537,0.755 -0.23,0.205 -0.507,0.363 -0.827,0.475 -0.32,0.112 -0.675,0.168 -1.062,0.168 -0.775,0 -1.375,-0.216 -1.8,-0.648 -0.425,-0.432 -0.637,-1.028 -0.637,-1.789 h 1.397 c 0,0.432 0.093,0.748 0.279,0.945 0.186,0.197 0.462,0.296 0.827,0.296 0.306,0 0.56,-0.106 0.761,-0.318 0.201,-0.213 0.302,-0.516 0.302,-0.912 0,-0.432 -0.125,-0.734 -0.375,-0.905 -0.25,-0.171 -0.677,-0.257 -1.281,-0.257 V 9.357 Z"
   id="path258" />
			<path
   fill="#ffffff"
   d="m 13.253,14.046 c -0.794,0 -1.42,-0.227 -1.859,-0.674 -0.438,-0.446 -0.661,-1.067 -0.661,-1.846 v -0.083 h 1.563 v 0.083 c 0,0.408 0.086,0.707 0.257,0.888 0.169,0.179 0.427,0.27 0.767,0.27 0.285,0 0.514,-0.096 0.7,-0.292 0.186,-0.196 0.279,-0.483 0.279,-0.854 0,-0.401 -0.114,-0.683 -0.339,-0.837 -0.234,-0.161 -0.649,-0.243 -1.233,-0.243 H 12.644 V 9.274 h 0.083 c 0.304,0 0.554,-0.027 0.744,-0.081 0.185,-0.053 0.329,-0.122 0.427,-0.207 0.096,-0.083 0.163,-0.18 0.199,-0.288 0.038,-0.114 0.057,-0.235 0.057,-0.359 0,-0.352 -0.071,-0.62 -0.211,-0.798 -0.137,-0.174 -0.355,-0.259 -0.667,-0.259 -0.261,0 -0.471,0.095 -0.642,0.29 -0.172,0.196 -0.259,0.48 -0.259,0.846 V 8.501 H 10.857 V 8.418 c 0,-0.367 0.06,-0.705 0.179,-1.004 0.119,-0.3 0.291,-0.562 0.51,-0.777 0.22,-0.216 0.485,-0.385 0.789,-0.504 0.302,-0.119 0.638,-0.179 0.997,-0.179 0.328,0 0.64,0.051 0.927,0.15 0.288,0.1 0.543,0.244 0.759,0.429 0.216,0.186 0.389,0.411 0.512,0.67 0.125,0.26 0.188,0.548 0.188,0.857 0,0.347 -0.076,0.68 -0.226,0.992 -0.13,0.269 -0.317,0.491 -0.558,0.662 0.306,0.154 0.548,0.37 0.72,0.645 0.198,0.313 0.298,0.718 0.298,1.201 0,0.382 -0.066,0.731 -0.197,1.039 -0.131,0.308 -0.319,0.572 -0.558,0.784 -0.238,0.211 -0.526,0.376 -0.855,0.492 -0.327,0.113 -0.694,0.171 -1.089,0.171 z M 10.9,11.609 c 0.015,0.695 0.221,1.249 0.612,1.647 0.407,0.414 0.993,0.624 1.741,0.624 0.376,0 0.725,-0.055 1.035,-0.163 0.309,-0.107 0.578,-0.262 0.8,-0.459 0.221,-0.196 0.394,-0.439 0.515,-0.725 0.122,-0.286 0.184,-0.614 0.184,-0.974 0,-0.452 -0.092,-0.826 -0.272,-1.113 C 15.336,10.161 15.072,9.944 14.732,9.802 L 14.579,9.738 14.722,9.654 C 14.996,9.492 15.206,9.265 15.344,8.979 15.483,8.69 15.553,8.38 15.553,8.059 15.553,7.775 15.496,7.511 15.382,7.273 15.269,7.035 15.11,6.828 14.911,6.657 14.711,6.486 14.473,6.352 14.205,6.259 13.935,6.166 13.642,6.118 13.332,6.118 c -0.338,0 -0.653,0.057 -0.937,0.168 -0.283,0.11 -0.529,0.268 -0.733,0.468 -0.203,0.2 -0.362,0.442 -0.473,0.721 -0.102,0.257 -0.158,0.545 -0.167,0.859 h 1.188 c 0.013,-0.368 0.113,-0.661 0.299,-0.872 0.202,-0.23 0.459,-0.347 0.767,-0.347 0.36,0 0.629,0.108 0.797,0.322 0.164,0.21 0.247,0.513 0.247,0.903 0,0.142 -0.022,0.281 -0.065,0.412 -0.046,0.137 -0.129,0.259 -0.248,0.361 -0.117,0.101 -0.282,0.181 -0.49,0.24 -0.186,0.053 -0.423,0.082 -0.706,0.086 v 0.853 c 0.583,0.007 0.99,0.096 1.245,0.271 0.272,0.187 0.41,0.515 0.41,0.974 0,0.415 -0.109,0.741 -0.324,0.968 -0.217,0.229 -0.493,0.345 -0.821,0.345 -0.387,0 -0.686,-0.109 -0.888,-0.322 C 12.245,12.329 12.144,12.02 12.132,11.61 H 10.9 Z"
   id="path260" />
		</g>
	<g
   id="g30"
   transform="translate(0.602,0.07)"><polygon
     fill="#ffffff"
     points="5.697,9.996 11.108,9.996 11.108,8.316 7.57,8.316 7.57,2.477 5.697,2.477 "
     id="polygon36"
     transform="translate(-1.649,3.723)" /></g></g>
</g>
</svg>
