<?xml version="1.0" encoding="UTF-8" standalone="no"?>
<svg
   xmlns:dc="http://purl.org/dc/elements/1.1/"
   xmlns:cc="http://creativecommons.org/ns#"
   xmlns:rdf="http://www.w3.org/1999/02/22-rdf-syntax-ns#"
   xmlns:svg="http://www.w3.org/2000/svg"
   xmlns="http://www.w3.org/2000/svg"
   xmlns:sodipodi="http://sodipodi.sourceforge.net/DTD/sodipodi-0.dtd"
   xmlns:inkscape="http://www.inkscape.org/namespaces/inkscape"
   version="1.1"
   id="Capa_1"
   x="0px"
   y="0px"
   width="19.560001"
   height="10.504"
   viewBox="0 0 19.560001 10.504"
   enable-background="new 0 0 20.007 15.854"
   xml:space="preserve"
   sodipodi:docname="playstation-button-select.svg"
   inkscape:version="1.0.2 (e86c870879, 2021-01-15)"><metadata
   id="metadata303"><rdf:RDF><cc:Work
       rdf:about=""><dc:format>image/svg+xml</dc:format><dc:type
         rdf:resource="http://purl.org/dc/dcmitype/StillImage" /><dc:title></dc:title></cc:Work></rdf:RDF></metadata><defs
   id="defs301" /><sodipodi:namedview
   pagecolor="#ffffff"
   bordercolor="#666666"
   borderopacity="1"
   objecttolerance="10"
   gridtolerance="10"
   guidetolerance="10"
   inkscape:pageopacity="0"
   inkscape:pageshadow="2"
   inkscape:window-width="1920"
   inkscape:window-height="1026"
   id="namedview299"
   showgrid="false"
   inkscape:zoom="26.87019"
   inkscape:cx="0.28497824"
   inkscape:cy="1.5374764"
   inkscape:window-x="1050"
   inkscape:window-y="31"
   inkscape:window-maximized="1"
   inkscape:current-layer="Capa_1"
   fit-margin-top="0"
   fit-margin-left="0"
   fit-margin-right="0"
   fit-margin-bottom="0" />
<g
   id="g282"
   transform="translate(-0.223)">
	<linearGradient
   id="SVGID_1_"
   gradientUnits="userSpaceOnUse"
   x1="10.0034"
   y1="10.2437"
   x2="10.0034"
   y2="0.26069999">
		<stop
   offset="0"
   style="stop-color:#141414"
   id="stop254" />
		<stop
   offset="0.2088"
   style="stop-color:#1C1C1D"
   id="stop256" />
		<stop
   offset="0.5493"
   style="stop-color:#333335"
   id="stop258" />
		<stop
   offset="0.9769"
   style="stop-color:#59595D"
   id="stop260" />
		<stop
   offset="1"
   style="stop-color:#5B5B5F"
   id="stop262" />
	</linearGradient>
	<path
   fill="url(#SVGID_1_)"
   d="m 19.523,8.66 c 0,0.645 -0.939,1.583 -1.583,1.583 H 2.067 C 1.422,10.243 0.484,9.304 0.484,8.66 V 1.845 C 0.484,1.2 1.423,0.261 2.067,0.261 h 15.872 c 0.645,0 1.583,0.939 1.583,1.584 V 8.66 Z"
   id="path265"
   style="fill:url(#SVGID_1_)" />
	<linearGradient
   id="SVGID_2_"
   gradientUnits="userSpaceOnUse"
   x1="10.0034"
   y1="10.5044"
   x2="10.0034"
   y2="0">
		<stop
   offset="0"
   style="stop-color:#141414"
   id="stop267" />
		<stop
   offset="0.2261"
   style="stop-color:#181818"
   id="stop269" />
		<stop
   offset="0.4603"
   style="stop-color:#242425"
   id="stop271" />
		<stop
   offset="0.6982"
   style="stop-color:#373739"
   id="stop273" />
		<stop
   offset="0.9374"
   style="stop-color:#535356"
   id="stop275" />
		<stop
   offset="1"
   style="stop-color:#5B5B5F"
   id="stop277" />
	</linearGradient>
	<path
   fill="url(#SVGID_2_)"
   d="M 17.939,10.504 H 2.067 C 1.274,10.504 0.223,9.453 0.223,8.66 V 1.845 C 0.223,1.051 1.274,0 2.067,0 h 15.872 c 0.793,0 1.844,1.051 1.844,1.845 V 8.66 c 10e-4,0.793 -1.051,1.844 -1.844,1.844 z M 2.067,0.521 c -0.495,0 -1.323,0.828 -1.323,1.323 V 8.66 c 0,0.495 0.829,1.323 1.323,1.323 h 15.872 c 0.495,0 1.323,-0.829 1.323,-1.323 V 1.845 c 0,-0.495 -0.829,-1.323 -1.323,-1.323 H 2.067 Z"
   id="path280"
   style="fill:url(#SVGID_2_)" />
</g>
<g
   id="g296"
   style="fill:#ffffff"
   transform="matrix(0.74779174,0,0,0.74779174,2.2999653,-5.2223189)">
	<path
   d="M 2.048,13.295 C 2.03,13.118 1.966,12.986 1.855,12.899 c -0.111,-0.087 -0.278,-0.13 -0.5,-0.13 -0.41,0 -0.615,0.141 -0.615,0.422 0,0.101 0.042,0.185 0.127,0.252 0.085,0.068 0.221,0.125 0.409,0.169 0.222,0.052 0.415,0.101 0.578,0.146 0.164,0.045 0.313,0.097 0.449,0.156 0.076,0.031 0.148,0.07 0.216,0.117 0.068,0.047 0.125,0.105 0.172,0.175 0.047,0.069 0.084,0.153 0.112,0.25 0.028,0.098 0.042,0.215 0.042,0.354 0,0.167 -0.034,0.314 -0.104,0.443 -0.069,0.129 -0.164,0.237 -0.281,0.326 -0.118,0.089 -0.257,0.156 -0.417,0.203 -0.16,0.047 -0.329,0.071 -0.505,0.071 -0.504,0 -0.883,-0.098 -1.136,-0.292 C 0.147,15.367 0.014,15.079 0,14.697 h 0.698 c 0.003,0.177 0.076,0.317 0.216,0.419 0.141,0.103 0.317,0.154 0.529,0.154 0.229,0 0.403,-0.042 0.521,-0.125 0.118,-0.083 0.177,-0.196 0.177,-0.339 0,-0.055 -0.007,-0.107 -0.021,-0.153 C 2.106,14.606 2.079,14.563 2.039,14.525 2,14.487 1.945,14.453 1.876,14.423 1.806,14.393 1.716,14.366 1.605,14.342 1.34,14.287 1.112,14.23 0.919,14.173 0.726,14.116 0.567,14.045 0.442,13.96 0.317,13.875 0.225,13.772 0.166,13.65 0.107,13.528 0.077,13.374 0.077,13.186 c 0,-0.143 0.026,-0.276 0.078,-0.401 0.052,-0.125 0.132,-0.233 0.24,-0.326 0.108,-0.093 0.241,-0.165 0.399,-0.219 0.158,-0.054 0.344,-0.081 0.56,-0.081 0.208,0 0.396,0.026 0.563,0.081 0.167,0.054 0.31,0.13 0.43,0.229 0.12,0.099 0.213,0.219 0.279,0.36 0.066,0.141 0.103,0.296 0.109,0.466 H 2.048 Z"
   id="path284"
   style="fill:#ffffff" />
	<path
   d="m 3.622,15.734 v -3.46 h 2.543 v 0.604 h -1.84 v 0.74 h 1.693 v 0.61 H 4.326 v 0.891 h 1.923 v 0.615 z"
   id="path286"
   style="fill:#ffffff" />
	<path
   d="m 6.994,15.734 v -3.46 h 0.724 v 2.83 h 1.715 v 0.63 z"
   id="path288"
   style="fill:#ffffff" />
	<path
   d="m 10.204,15.734 v -3.46 h 2.543 v 0.604 h -1.84 v 0.74 H 12.6 v 0.61 h -1.693 v 0.891 h 1.923 v 0.615 z"
   id="path290"
   style="fill:#ffffff" />
	<path
   d="m 16.625,14.546 c -0.038,0.198 -0.099,0.377 -0.182,0.537 -0.083,0.16 -0.188,0.297 -0.315,0.412 -0.127,0.115 -0.273,0.203 -0.44,0.266 -0.167,0.063 -0.351,0.094 -0.553,0.094 -0.226,0 -0.437,-0.039 -0.633,-0.115 -0.196,-0.077 -0.366,-0.191 -0.508,-0.344 -0.143,-0.153 -0.254,-0.342 -0.336,-0.566 -0.082,-0.224 -0.123,-0.485 -0.123,-0.784 0,-0.292 0.037,-0.555 0.112,-0.79 0.074,-0.234 0.181,-0.433 0.32,-0.594 0.139,-0.161 0.308,-0.286 0.508,-0.373 0.2,-0.087 0.423,-0.13 0.67,-0.13 0.215,0 0.411,0.032 0.586,0.096 0.175,0.064 0.327,0.153 0.453,0.266 0.127,0.113 0.228,0.246 0.302,0.399 0.075,0.153 0.121,0.316 0.138,0.49 H 15.9 c -0.049,-0.198 -0.143,-0.352 -0.282,-0.461 -0.139,-0.109 -0.295,-0.164 -0.469,-0.164 -0.302,0 -0.525,0.109 -0.667,0.326 -0.142,0.217 -0.213,0.515 -0.213,0.894 0,0.386 0.07,0.686 0.211,0.899 0.141,0.214 0.352,0.321 0.633,0.321 0.215,0 0.388,-0.058 0.519,-0.174 0.131,-0.116 0.22,-0.284 0.269,-0.503 h 0.724 z"
   id="path292"
   style="fill:#ffffff" />
	<path
   d="m 18.235,15.734 v -2.856 h -1.042 v -0.604 h 2.814 v 0.604 H 18.96 v 2.856 z"
   id="path294"
   style="fill:#ffffff" />
</g>
</svg>
