<?xml version="1.0" encoding="utf-8"?>
<!-- Generator: Adobe Illustrator 16.0.0, SVG Export Plug-In . SVG Version: 6.00 Build 0)  -->
<!DOCTYPE svg PUBLIC "-//W3C//DTD SVG 1.1//EN" "http://www.w3.org/Graphics/SVG/1.1/DTD/svg11.dtd">
<svg version="1.1" id="Capa_1" xmlns="http://www.w3.org/2000/svg" xmlns:xlink="http://www.w3.org/1999/xlink" x="0px" y="0px"
	 width="20px" height="14.949px" viewBox="0 0 20 14.949" enable-background="new 0 0 20 14.949" xml:space="preserve">
<g>
	<g>
		<linearGradient id="SVGID_1_" gradientUnits="userSpaceOnUse" x1="10" y1="0" x2="10" y2="13.3794">
			<stop  offset="0" style="stop-color:#5B5B5F"/>
			<stop  offset="0.0626" style="stop-color:#535356"/>
			<stop  offset="0.3018" style="stop-color:#373739"/>
			<stop  offset="0.5397" style="stop-color:#242425"/>
			<stop  offset="0.7739" style="stop-color:#181818"/>
			<stop  offset="1" style="stop-color:#141414"/>
		</linearGradient>
		<path fill="url(#SVGID_1_)" d="M20,10.746c0,5.604-20,5.604-20,0V2.563C0,1.147,1.146,0,2.562,0h14.876
			C18.854,0,20,1.147,20,2.563V10.746z"/>
		<linearGradient id="SVGID_2_" gradientUnits="userSpaceOnUse" x1="10" y1="0" x2="10" y2="14.9492">
			<stop  offset="0" style="stop-color:#5B5B5F"/>
			<stop  offset="0.0155" style="stop-color:#58585B"/>
			<stop  offset="0.1488" style="stop-color:#3F3F41"/>
			<stop  offset="0.296" style="stop-color:#2C2C2D"/>
			<stop  offset="0.4624" style="stop-color:#1E1E1F"/>
			<stop  offset="0.6643" style="stop-color:#161617"/>
			<stop  offset="1" style="stop-color:#141414"/>
		</linearGradient>
		<path fill="url(#SVGID_2_)" d="M17.438,1.512c0.58,0,1.051,0.471,1.051,1.051v8.184c0,0.586-0.801,1.235-2.143,1.736
			c-1.625,0.607-3.938,0.955-6.346,0.955s-4.722-0.348-6.346-0.955c-1.342-0.501-2.143-1.15-2.143-1.736V2.563
			c0-0.58,0.471-1.051,1.05-1.051H17.438 M17.438,0H2.562C1.146,0,0,1.147,0,2.563v8.184c0,2.802,5,4.203,10,4.203
			s10-1.401,10-4.203V2.563C20,1.147,18.854,0,17.438,0L17.438,0z"/>
	</g>
	<g>
		<path fill="#FFFFFF" d="M10.082,6.08c0.201-0.326,0.303-0.705,0.303-1.126c0-0.317-0.057-0.618-0.17-0.895
			c-0.113-0.278-0.279-0.521-0.491-0.722C9.513,3.139,9.259,2.98,8.968,2.868C8.678,2.757,8.354,2.7,8.002,2.7H4.188v7.519h1.829
			V7.423h1.403c0.472,0,0.67,0.093,0.753,0.17c0.117,0.109,0.177,0.311,0.177,0.599v2.027h1.841V8.008
			c0-0.456-0.075-0.796-0.229-1.037C9.869,6.825,9.74,6.702,9.575,6.603C9.781,6.469,9.951,6.294,10.082,6.08z M6.018,4.314h1.736
			c0.316,0,0.538,0.069,0.662,0.206C8.545,4.665,8.609,4.85,8.609,5.083c0,0.226-0.064,0.405-0.197,0.55
			C8.284,5.771,8.045,5.841,7.701,5.841H6.018V4.314z"/>
		<path fill="#FFFFFF" d="M12.791,8.626c0.043-0.099,0.111-0.206,0.205-0.322c0.174-0.22,0.395-0.427,0.65-0.615
			c0.381-0.273,0.711-0.526,0.979-0.751c0.275-0.23,0.501-0.462,0.67-0.688c0.174-0.23,0.301-0.47,0.379-0.711
			c0.077-0.24,0.116-0.51,0.116-0.801c0-0.376-0.065-0.712-0.194-0.997c-0.13-0.287-0.314-0.529-0.548-0.72
			c-0.229-0.188-0.509-0.329-0.83-0.422c-0.313-0.091-0.662-0.137-1.036-0.137c-0.79,0-1.414,0.239-1.854,0.711
			c-0.438,0.468-0.659,1.121-0.659,1.941v0.188h1.723V5.115c0-0.42,0.077-0.717,0.223-0.86c0.151-0.148,0.357-0.22,0.632-0.22
			c0.12,0,0.236,0.013,0.344,0.038c0.095,0.021,0.174,0.06,0.242,0.113c0.064,0.053,0.115,0.123,0.153,0.215
			c0.04,0.1,0.062,0.228,0.062,0.38c0,0.13-0.02,0.251-0.055,0.36c-0.037,0.107-0.099,0.219-0.186,0.331
			c-0.092,0.118-0.219,0.246-0.377,0.381c-0.163,0.139-0.374,0.298-0.627,0.475c-0.467,0.334-0.848,0.652-1.134,0.946
			c-0.29,0.298-0.519,0.597-0.681,0.89c-0.163,0.296-0.274,0.601-0.332,0.906c-0.056,0.297-0.084,0.62-0.084,0.96v0.188h5.239V8.626
			H12.791z"/>
	</g>
</g>
</svg>
