<?xml version="1.0" encoding="UTF-8" standalone="no"?>
<svg
   xmlns:dc="http://purl.org/dc/elements/1.1/"
   xmlns:cc="http://creativecommons.org/ns#"
   xmlns:rdf="http://www.w3.org/1999/02/22-rdf-syntax-ns#"
   xmlns:svg="http://www.w3.org/2000/svg"
   xmlns="http://www.w3.org/2000/svg"
   xmlns:sodipodi="http://sodipodi.sourceforge.net/DTD/sodipodi-0.dtd"
   xmlns:inkscape="http://www.inkscape.org/namespaces/inkscape"
   version="1.1"
   id="Capa_1"
   x="0px"
   y="0px"
   width="19.887659"
   height="16.046318"
   viewBox="0 0 19.887659 16.046317"
   enable-background="new 0 0 20 17.731"
   xml:space="preserve"
   sodipodi:docname="playstation-button-start.svg"
   inkscape:version="1.0.2 (e86c870879, 2021-01-15)"><metadata
   id="metadata354"><rdf:RDF><cc:Work
       rdf:about=""><dc:format>image/svg+xml</dc:format><dc:type
         rdf:resource="http://purl.org/dc/dcmitype/StillImage" /></cc:Work></rdf:RDF></metadata><defs
   id="defs352" /><sodipodi:namedview
   pagecolor="#ffffff"
   bordercolor="#666666"
   borderopacity="1"
   objecttolerance="10"
   gridtolerance="10"
   guidetolerance="10"
   inkscape:pageopacity="0"
   inkscape:pageshadow="2"
   inkscape:window-width="1920"
   inkscape:window-height="1026"
   id="namedview350"
   showgrid="false"
   inkscape:zoom="33.977494"
   inkscape:cx="3.4968672"
   inkscape:cy="6.4973813"
   inkscape:window-x="1050"
   inkscape:window-y="31"
   inkscape:window-maximized="1"
   inkscape:current-layer="g347"
   fit-margin-top="0"
   fit-margin-left="0"
   fit-margin-right="0"
   fit-margin-bottom="0" />
<g
   id="g347"
   transform="translate(-0.05617048,-0.84234153)">
	
	<g
   id="g345"
   transform="matrix(1.2728102,0,0,1.2728102,-2.2870731,0.84234153)">
		<linearGradient
   id="SVGID_1_"
   gradientUnits="userSpaceOnUse"
   x1="9.5853996"
   y1="12.2471"
   x2="9.5853996"
   y2="0.32859999">
			<stop
   offset="0"
   style="stop-color:#141414"
   id="stop317" />
			<stop
   offset="0.2088"
   style="stop-color:#1C1C1D"
   id="stop319" />
			<stop
   offset="0.5493"
   style="stop-color:#333335"
   id="stop321" />
			<stop
   offset="0.9769"
   style="stop-color:#59595D"
   id="stop323" />
			<stop
   offset="1"
   style="stop-color:#5B5B5F"
   id="stop325" />
		</linearGradient>
		<path
   fill="url(#SVGID_1_)"
   d="m 3.091,12.247 c -0.582,0 -0.987,-0.445 -0.987,-1.083 V 1.412 c 0,-0.639 0.406,-1.083 0.987,-1.083 0.16,0 0.325,0.034 0.493,0.101 l 12.859,5.172 c 0.542,0.217 0.623,0.523 0.623,0.686 0,0.163 -0.081,0.468 -0.623,0.686 L 3.584,12.146 c -0.168,0.067 -0.333,0.101 -0.493,0.101 z"
   id="path328"
   style="fill:url(#SVGID_1_)" />
		
			<linearGradient
   id="SVGID_2_"
   gradientUnits="userSpaceOnUse"
   x1="138.0332"
   y1="82.2939"
   x2="150.64059"
   y2="82.2939"
   gradientTransform="rotate(-90,39.00025,111.64035)">
			<stop
   offset="0"
   style="stop-color:#141414"
   id="stop330" />
			<stop
   offset="0.2261"
   style="stop-color:#181818"
   id="stop332" />
			<stop
   offset="0.4603"
   style="stop-color:#242425"
   id="stop334" />
			<stop
   offset="0.6982"
   style="stop-color:#373739"
   id="stop336" />
			<stop
   offset="0.9374"
   style="stop-color:#535356"
   id="stop338" />
			<stop
   offset="1"
   style="stop-color:#5B5B5F"
   id="stop340" />
		</linearGradient>
		<path
   fill="url(#SVGID_2_)"
   d="m 2.872,12.607 c -0.607,0 -1.031,-0.47 -1.031,-1.145 V 1.145 C 1.841,0.471 2.265,0 2.872,0 3.039,0 3.212,0.036 3.385,0.106 l 13.43,5.471 c 0.566,0.231 0.651,0.554 0.651,0.727 0,0.171 -0.085,0.495 -0.651,0.726 L 3.385,12.5 c -0.173,0.072 -0.346,0.107 -0.513,0.107 z m 0,-12.077 c -0.309,0 -0.501,0.235 -0.501,0.615 v 10.317 c 0,0.379 0.192,0.615 0.501,0.615 0.098,0 0.203,-0.023 0.313,-0.068 L 16.614,6.537 c 0.265,-0.107 0.321,-0.213 0.321,-0.234 0,-0.021 -0.057,-0.127 -0.321,-0.235 L 3.186,0.598 C 3.075,0.553 2.97,0.53 2.872,0.53 Z"
   id="path343"
   style="fill:url(#SVGID_2_)" />
	</g>
<g
   id="g315"
   transform="matrix(0.58248658,0,0,0.58248658,2.5613699,-0.07538324)"
   style="fill:#ffffff">
		<path
   d="M 2.438,14.686 C 2.417,14.474 2.34,14.317 2.209,14.214 2.076,14.11 1.877,14.058 1.613,14.058 c -0.488,0 -0.732,0.168 -0.732,0.502 0,0.121 0.051,0.221 0.152,0.301 0.102,0.081 0.263,0.148 0.487,0.202 0.265,0.062 0.494,0.121 0.689,0.174 0.193,0.053 0.372,0.116 0.533,0.186 0.091,0.037 0.177,0.084 0.257,0.14 0.081,0.056 0.149,0.125 0.205,0.208 0.056,0.082 0.101,0.182 0.133,0.298 0.034,0.116 0.05,0.256 0.05,0.421 0,0.199 -0.042,0.374 -0.124,0.527 C 3.18,17.171 3.068,17.3 2.928,17.406 2.787,17.512 2.622,17.593 2.432,17.648 2.242,17.704 2.041,17.731 1.83,17.731 1.231,17.731 0.78,17.615 0.477,17.384 0.176,17.152 0.016,16.809 0,16.354 h 0.831 c 0.004,0.211 0.09,0.377 0.257,0.5 0.167,0.121 0.378,0.182 0.63,0.182 0.273,0 0.479,-0.05 0.621,-0.148 C 2.48,16.788 2.55,16.654 2.55,16.485 2.55,16.419 2.541,16.358 2.525,16.302 2.509,16.246 2.477,16.196 2.43,16.15 2.382,16.105 2.317,16.064 2.234,16.029 2.151,15.994 2.044,15.962 1.911,15.932 1.597,15.867 1.325,15.799 1.095,15.731 0.866,15.662 0.676,15.577 0.527,15.476 0.379,15.375 0.269,15.252 0.198,15.107 0.128,14.963 0.092,14.778 0.092,14.555 c 0,-0.169 0.032,-0.329 0.094,-0.478 0.062,-0.149 0.157,-0.277 0.285,-0.388 0.128,-0.11 0.287,-0.197 0.475,-0.261 0.188,-0.063 0.411,-0.096 0.667,-0.096 0.249,0 0.472,0.032 0.67,0.096 0.199,0.064 0.37,0.156 0.512,0.273 0.143,0.118 0.253,0.261 0.332,0.429 0.079,0.167 0.123,0.352 0.131,0.555 h -0.82 z"
   id="path305"
   style="fill:#ffffff" />
		<path
   d="m 5.391,17.589 v -3.4 H 4.15 v -0.72 H 7.5 v 0.72 H 6.253 v 3.4 z"
   id="path307"
   style="fill:#ffffff" />
		<path
   d="m 10.329,17.589 -0.26,-0.85 H 8.548 l -0.291,0.85 H 7.345 l 1.47,-4.12 h 0.999 l 1.451,4.12 z M 9.305,14.395 H 9.299 l -0.527,1.637 h 1.047 z"
   id="path309"
   style="fill:#ffffff" />
		<path
   d="m 14.721,17.589 v -1.061 c 0,-0.199 -0.046,-0.34 -0.136,-0.425 -0.092,-0.085 -0.261,-0.127 -0.509,-0.127 h -0.918 v 1.613 H 12.32 v -4.12 h 2.09 c 0.19,0 0.363,0.031 0.518,0.09 0.155,0.06 0.289,0.143 0.401,0.249 0.111,0.104 0.197,0.231 0.257,0.378 0.06,0.146 0.09,0.305 0.09,0.474 0,0.224 -0.053,0.422 -0.158,0.593 -0.105,0.171 -0.258,0.292 -0.456,0.362 0.182,0.058 0.312,0.147 0.388,0.267 0.076,0.12 0.115,0.301 0.115,0.54 v 1.167 z m -1.563,-3.406 v 1.098 h 1.079 c 0.232,0 0.396,-0.052 0.49,-0.155 0.095,-0.103 0.143,-0.233 0.143,-0.391 0,-0.161 -0.047,-0.293 -0.14,-0.397 -0.093,-0.103 -0.248,-0.155 -0.462,-0.155 z"
   id="path311"
   style="fill:#ffffff" />
		<path
   d="m 17.891,17.589 v -3.4 h -1.24 v -0.72 H 20 v 0.72 h -1.247 v 3.4 z"
   id="path313"
   style="fill:#ffffff" />
	</g></g>
</svg>
