<?xml version="1.0" encoding="UTF-8" standalone="no"?>
<svg
   xmlns:dc="http://purl.org/dc/elements/1.1/"
   xmlns:cc="http://creativecommons.org/ns#"
   xmlns:rdf="http://www.w3.org/1999/02/22-rdf-syntax-ns#"
   xmlns:svg="http://www.w3.org/2000/svg"
   xmlns="http://www.w3.org/2000/svg"
   xmlns:sodipodi="http://sodipodi.sourceforge.net/DTD/sodipodi-0.dtd"
   xmlns:inkscape="http://www.inkscape.org/namespaces/inkscape"
   width="16.64"
   height="10.24"
   version="1.1"
   viewBox="0 0 16.64 10.24"
   id="svg539"
   sodipodi:docname="wasd-keys-beveled-left.svg"
   inkscape:version="1.0.2 (e86c870879, 2021-01-15)">
  <defs
     id="defs543" />
  <sodipodi:namedview
     pagecolor="#ffffff"
     bordercolor="#666666"
     borderopacity="1"
     objecttolerance="10"
     gridtolerance="10"
     guidetolerance="10"
     inkscape:pageopacity="0"
     inkscape:pageshadow="2"
     inkscape:window-width="1920"
     inkscape:window-height="1026"
     id="namedview541"
     showgrid="false"
     inkscape:zoom="40.478518"
     inkscape:cx="4.3753628"
     inkscape:cy="8.5321318"
     inkscape:window-x="1050"
     inkscape:window-y="31"
     inkscape:window-maximized="1"
     inkscape:current-layer="svg539"
     inkscape:document-rotation="0"
     showguides="true"
     inkscape:guide-bbox="true">
    <sodipodi:guide
       position="8.4723161,1.5056536"
       orientation="0,-1"
       id="guide2573" />
  </sodipodi:namedview>
  <metadata
     id="metadata475">
    <rdf:RDF>
      <cc:Work
         rdf:about="">
        <dc:format>image/svg+xml</dc:format>
        <dc:type
           rdf:resource="http://purl.org/dc/dcmitype/StillImage" />
        <dc:title></dc:title>
      </cc:Work>
    </rdf:RDF>
  </metadata>
  <path
     d="m 0.9402166,5.42 4.549982,-1.4e-6 -0.02311,4.49425 -4.5268811,0.00577 z"
     fill="#999999"
     fill-opacity="0.9"
     id="path509"
     style="stroke-width:0.50001;fill:#999999;fill-opacity:1" />
  <text
     x="3.2651284"
     y="8.6808014"
     font-family="sans-serif"
     font-size="3.6667px"
     letter-spacing="0px"
     word-spacing="0px"
     style="line-height:1.25"
     xml:space="preserve"
     id="text20-3-7"><tspan
       x="3.2651284"
       y="8.6808014"
       font-family="sans-serif"
       font-size="3.6667px"
       font-weight="bold"
       text-align="center"
       text-anchor="middle"
       id="tspan18-6-5">a</tspan></text>
  <path
     d="m 6.060025,0.3 4.549982,-1.38e-6 -0.02311,4.49424998 -4.526881,0.00577 z"
     fill="#999999"
     fill-opacity="0.9"
     id="path477"
     style="stroke-width:0.50001;fill:#666666;fill-opacity:1" />
  <text
     x="8.3188839"
     y="3.5626032"
     font-family="sans-serif"
     font-size="3.6667px"
     letter-spacing="0px"
     word-spacing="0px"
     style="line-height:1.25"
     xml:space="preserve"
     id="text20"><tspan
       x="8.3188839"
       y="3.5626032"
       font-family="sans-serif"
       font-size="3.6667px"
       font-weight="bold"
       text-align="center"
       text-anchor="middle"
       id="tspan18">w</tspan></text>
  <path
     d="m 10.879918,5.119995 1.09e-4,-5.12 -0.270011,0.3 -0.02311,4.49425 -4.526881,0.00577 -0.300012,0.32 z"
     fill="#5d6069"
     stroke-width="0.108257"
     id="path479" />
  <path
     d="M 5.760013,0 6.060025,0.3 V 4.8 L 5.760013,5.12 Z m 0,0 5.120205,3.5765e-8 -0.270011,0.300000004235 -4.549982,1.38e-6 z"
     id="path483"
     style="fill:#dcdee5;stroke-width:0.50001" />
  <path
     d="m 6.060025,5.42 4.549982,-1.4e-6 -0.02311,4.49425 -4.526881,0.00577 z"
     fill="#999999"
     fill-opacity="0.9"
     id="path493"
     style="stroke-width:0.50001;fill:#666666;fill-opacity:1" />
  <path
     d="m 10.879918,10.239995 1.09e-4,-5.12 -0.270011,0.3 -0.02311,4.49425 -4.526881,0.00577 -0.300012,0.320001 z"
     fill="#5d6069"
     stroke-width="0.108257"
     id="path495" />
  <path
     d="m 5.760013,5.12 0.300012,0.3 v 4.5 l -0.300012,0.32 z m 0,0 h 5.120205 l -0.270011,0.3 -4.549982,1.4e-6 z"
     id="path499"
     style="fill:#dcdee5;stroke-width:0.50001" />
  <path
     d="m 5.7601094,10.239995 1.09e-4,-5.12 -0.2700108,0.3 -0.02311,4.49425 -4.52688107,0.00577 -0.300012,0.320001 z"
     fill="#5d6069"
     stroke-width="0.108257"
     id="path511" />
  <path
     d="m 0.6402046,5.12 0.300012,0.3 v 4.5 l -0.300012,0.32 z m 0,0 h 5.1202048 l -0.2700108,0.3 -4.54998199,1.4e-6 z"
     id="path515"
     style="fill:#dcdee5;stroke-width:0.50001" />
  <path
     d="m 11.179976,5.42 4.549982,-1.4e-6 -0.02311,4.49425 -4.526881,0.00577 z"
     fill="#999999"
     fill-opacity="0.9"
     id="path523"
     style="stroke-width:0.50001;fill:#666666;fill-opacity:1" />
  <path
     d="m 15.999868,10.239995 1.09e-4,-5.12 -0.27001,0.3 -0.02311,4.49425 -4.526881,0.00577 -0.300012,0.320001 z"
     fill="#5d6069"
     stroke-width="0.108257"
     id="path525" />
  <path
     d="m 10.879964,5.12 0.300012,0.3 v 4.5 l -0.300012,0.32 z m 0,0 h 5.120205 l -0.270011,0.3 -4.549982,1.4e-6 z"
     id="path529"
     style="fill:#dcdee5;stroke-width:0.50001" />
  <text
     x="8.3188839"
     y="8.6826229"
     font-family="sans-serif"
     font-size="3.6667px"
     letter-spacing="0px"
     word-spacing="0px"
     style="line-height:1.25"
     xml:space="preserve"
     id="text20-3"><tspan
       x="8.3188839"
       y="8.6826229"
       font-family="sans-serif"
       font-size="3.6667px"
       font-weight="bold"
       text-align="center"
       text-anchor="middle"
       id="tspan18-6">s</tspan></text>
  <text
     xml:space="preserve"
     style="font-style:normal;font-weight:normal;font-size:40px;line-height:1.25;font-family:sans-serif;letter-spacing:0px;word-spacing:0px;fill:#000000;fill-opacity:1;stroke:none"
     x="13.00325"
     y="7.7447276"
     id="text907"><tspan
       sodipodi:role="line"
       id="tspan905"
       x="13.00325"
       y="7.7447276" /></text>
  <text
     x="13.511358"
     y="8.6685467"
     font-family="sans-serif"
     font-size="3.6667px"
     letter-spacing="0px"
     word-spacing="0px"
     style="line-height:1.25"
     xml:space="preserve"
     id="text20-3-3"><tspan
       x="13.511358"
       y="8.6685467"
       font-family="sans-serif"
       font-size="3.6667px"
       font-weight="bold"
       text-align="center"
       text-anchor="middle"
       id="tspan18-6-56">d</tspan></text>
</svg>
