<?xml version="1.0" encoding="utf-8"?>
<!-- Generator: Adobe Illustrator 16.0.0, SVG Export Plug-In . SVG Version: 6.00 Build 0)  -->
<!DOCTYPE svg PUBLIC "-//W3C//DTD SVG 1.1//EN" "http://www.w3.org/Graphics/SVG/1.1/DTD/svg11.dtd">
<svg version="1.1" id="Capa_1" xmlns="http://www.w3.org/2000/svg" xmlns:xlink="http://www.w3.org/1999/xlink" x="0px" y="0px"
	 width="14.951px" height="12.075px" viewBox="0 0 14.951 12.075" enable-background="new 0 0 14.951 12.075" xml:space="preserve">
<g>
	<g>
		<linearGradient id="SVGID_1_" gradientUnits="userSpaceOnUse" x1="7.4756" y1="0" x2="7.4756" y2="10.8071">
			<stop  offset="0" style="stop-color:#5B5B5F"/>
			<stop  offset="0.0231" style="stop-color:#59595D"/>
			<stop  offset="0.4507" style="stop-color:#333335"/>
			<stop  offset="0.7912" style="stop-color:#1C1C1D"/>
			<stop  offset="1" style="stop-color:#141414"/>
		</linearGradient>
		<path fill="url(#SVGID_1_)" d="M14.951,6.038c0,3.334-2.702,6.037-6.037,6.037H6.037C2.702,12.075,0,9.372,0,6.038l0,0
			C0,2.704,2.702,0,6.037,0h2.877C12.249,0,14.951,2.704,14.951,6.038L14.951,6.038z"/>
		<linearGradient id="SVGID_2_" gradientUnits="userSpaceOnUse" x1="7.4756" y1="0" x2="7.4756" y2="12.0747">
			<stop  offset="0" style="stop-color:#5B5B5F"/>
			<stop  offset="0.0807" style="stop-color:#505053"/>
			<stop  offset="0.3078" style="stop-color:#363638"/>
			<stop  offset="0.5369" style="stop-color:#232324"/>
			<stop  offset="0.767" style="stop-color:#181818"/>
			<stop  offset="1" style="stop-color:#141414"/>
		</linearGradient>
		<path fill="url(#SVGID_2_)" d="M8.914,1.197c2.669,0,4.84,2.171,4.84,4.84s-2.171,4.84-4.84,4.84H6.037
			c-2.669,0-4.84-2.171-4.84-4.84s2.171-4.84,4.84-4.84H8.914 M8.914,0H6.037C2.702,0,0,2.704,0,6.038
			c0,3.334,2.702,6.037,6.037,6.037h2.877c3.335,0,6.037-2.703,6.037-6.037C14.951,2.704,12.249,0,8.914,0L8.914,0z"/>
	</g>
	<g>
		<polygon fill="#EAEAEA" points="6.063,6.038 6.063,3.543 8.223,4.791 10.384,6.038 8.223,7.285 6.063,8.533 		"/>
	</g>
</g>
</svg>
