<?xml version="1.0" encoding="utf-8"?>
<!-- Generator: Adobe Illustrator 16.0.0, SVG Export Plug-In . SVG Version: 6.00 Build 0)  -->
<!DOCTYPE svg PUBLIC "-//W3C//DTD SVG 1.1//EN" "http://www.w3.org/Graphics/SVG/1.1/DTD/svg11.dtd">
<svg version="1.1" id="Capa_1" xmlns="http://www.w3.org/2000/svg" xmlns:xlink="http://www.w3.org/1999/xlink" x="0px" y="0px"
	 width="20px" height="20px" viewBox="0 0 20 20" enable-background="new 0 0 20 20" xml:space="preserve">
<g>
	<g>
		<g>
			<linearGradient id="SVGID_1_" gradientUnits="userSpaceOnUse" x1="10" y1="0" x2="10" y2="17.9003">
				<stop  offset="0" style="stop-color:#5B5B5F"/>
				<stop  offset="0.0231" style="stop-color:#59595D"/>
				<stop  offset="0.4507" style="stop-color:#333335"/>
				<stop  offset="0.7912" style="stop-color:#1C1C1D"/>
				<stop  offset="1" style="stop-color:#141414"/>
			</linearGradient>
			<circle fill="url(#SVGID_1_)" cx="10" cy="9.999" r="10"/>
			<linearGradient id="SVGID_2_" gradientUnits="userSpaceOnUse" x1="0" y1="10" x2="20" y2="10">
				<stop  offset="0" style="stop-color:#5B5B5F"/>
				<stop  offset="0.0231" style="stop-color:#59595D"/>
				<stop  offset="0.4507" style="stop-color:#333335"/>
				<stop  offset="0.7912" style="stop-color:#1C1C1D"/>
				<stop  offset="1" style="stop-color:#141414"/>
			</linearGradient>
			<path fill="url(#SVGID_2_)" d="M10,2.399c4.191,0,7.6,3.409,7.6,7.6c0,4.191-3.408,7.601-7.6,7.601c-4.189,0-7.6-3.409-7.6-7.601
				C2.4,5.809,5.811,2.399,10,2.399 M10,0C4.477,0,0,4.477,0,9.999C0,15.522,4.477,20,10,20s10-4.478,10-10.001
				C20,4.477,15.523,0,10,0L10,0z"/>
		</g>
		<g>
			<polygon opacity="0.5" fill="#FFFFFF" points="12.008,2.925 10,2.925 7.994,2.925 10,5 			"/>
			<polygon opacity="0.5" fill="#FFFFFF" points="15,10 17.076,12.006 17.076,10 17.076,7.993 			"/>
			<polygon opacity="0.5" fill="#FFFFFF" points="2.926,10 2.926,12.006 5,10 2.926,7.993 			"/>
			<polygon opacity="0.5" fill="#FFFFFF" points="7.994,17.075 10.002,17.075 12.008,17.075 10.002,15 			"/>
		</g>
	</g>
	<path fill="#FFFFFF" d="M11.51,14.304v-2.217c0-0.415-0.094-0.711-0.285-0.889c-0.189-0.177-0.543-0.266-1.063-0.266H8.244v3.371
		h-1.75V5.696h4.369c0.396,0,0.758,0.063,1.082,0.188c0.324,0.126,0.602,0.299,0.836,0.519c0.232,0.221,0.412,0.484,0.537,0.791
		s0.188,0.638,0.188,0.991c0,0.467-0.109,0.88-0.33,1.238s-0.537,0.611-0.953,0.759c0.381,0.121,0.65,0.307,0.811,0.557
		c0.16,0.251,0.24,0.627,0.24,1.128v2.438H11.51z M8.244,7.187v2.295H10.5c0.484,0,0.824-0.108,1.023-0.324s0.299-0.488,0.299-0.816
		c0-0.337-0.098-0.613-0.293-0.83c-0.193-0.216-0.516-0.324-0.965-0.324H8.244z"/>
</g>
</svg>
