<?xml version="1.0" encoding="UTF-8" standalone="no"?>
<svg
   xmlns:dc="http://purl.org/dc/elements/1.1/"
   xmlns:cc="http://creativecommons.org/ns#"
   xmlns:rdf="http://www.w3.org/1999/02/22-rdf-syntax-ns#"
   xmlns:svg="http://www.w3.org/2000/svg"
   xmlns="http://www.w3.org/2000/svg"
   xmlns:sodipodi="http://sodipodi.sourceforge.net/DTD/sodipodi-0.dtd"
   xmlns:inkscape="http://www.inkscape.org/namespaces/inkscape"
   version="1.1"
   id="Capa_1"
   x="0px"
   y="0px"
   width="20px"
   height="20px"
   viewBox="0 0 20 20"
   enable-background="new 0 0 20 20"
   xml:space="preserve"
   sodipodi:docname="xbox-button-rs-omni.svg"
   inkscape:version="1.0.2 (e86c870879, 2021-01-15)"><metadata
   id="metadata51"><rdf:RDF><cc:Work
       rdf:about=""><dc:format>image/svg+xml</dc:format><dc:type
         rdf:resource="http://purl.org/dc/dcmitype/StillImage" /><dc:title></dc:title></cc:Work></rdf:RDF></metadata><defs
   id="defs49" /><sodipodi:namedview
   pagecolor="#ffffff"
   bordercolor="#666666"
   borderopacity="1"
   objecttolerance="10"
   gridtolerance="10"
   guidetolerance="10"
   inkscape:pageopacity="0"
   inkscape:pageshadow="2"
   inkscape:window-width="1920"
   inkscape:window-height="1026"
   id="namedview47"
   showgrid="false"
   inkscape:zoom="42.6"
   inkscape:cx="10"
   inkscape:cy="10"
   inkscape:window-x="1050"
   inkscape:window-y="31"
   inkscape:window-maximized="1"
   inkscape:current-layer="g40"
   inkscape:document-rotation="0" />
<g
   id="g44">
	<g
   id="g40">
		<g
   id="g28">
			<linearGradient
   id="SVGID_1_"
   gradientUnits="userSpaceOnUse"
   x1="10"
   y1="0"
   x2="10"
   y2="17.9003">
				<stop
   offset="0"
   style="stop-color:#5B5B5F"
   id="stop2" />
				<stop
   offset="0.0231"
   style="stop-color:#59595D"
   id="stop4" />
				<stop
   offset="0.4507"
   style="stop-color:#333335"
   id="stop6" />
				<stop
   offset="0.7912"
   style="stop-color:#1C1C1D"
   id="stop8" />
				<stop
   offset="1"
   style="stop-color:#141414"
   id="stop10" />
			</linearGradient>
			<circle
   fill="url(#SVGID_1_)"
   cx="10"
   cy="9.999"
   r="10"
   id="circle13" />
			<linearGradient
   id="SVGID_2_"
   gradientUnits="userSpaceOnUse"
   x1="0"
   y1="10"
   x2="20"
   y2="10">
				<stop
   offset="0"
   style="stop-color:#5B5B5F"
   id="stop15" />
				<stop
   offset="0.0231"
   style="stop-color:#59595D"
   id="stop17" />
				<stop
   offset="0.4507"
   style="stop-color:#333335"
   id="stop19" />
				<stop
   offset="0.7912"
   style="stop-color:#1C1C1D"
   id="stop21" />
				<stop
   offset="1"
   style="stop-color:#141414"
   id="stop23" />
			</linearGradient>
			<path
   fill="url(#SVGID_2_)"
   d="M10,2.399c4.191,0,7.6,3.409,7.6,7.6c0,4.191-3.408,7.601-7.6,7.601c-4.189,0-7.6-3.409-7.6-7.601     C2.4,5.809,5.811,2.399,10,2.399 M10,0C4.477,0,0,4.477,0,9.999C0,15.522,4.477,20,10,20s10-4.478,10-10.001     C20,4.477,15.523,0,10,0L10,0z"
   id="path26" />
		</g>
		<g
   id="g38"
   transform="matrix(-1,0,0,1,20.002,0)">
			<polygon
   opacity="0.5"
   fill="#ffffff"
   points="7.994,2.925 10,5 12.008,2.925 10,2.925 "
   id="polygon30"
   transform="matrix(1,0,0,-1,0,7.925)" />
			<polygon
   opacity="0.5"
   fill="#ffffff"
   points="17.076,10 17.076,7.993 15,10 17.076,12.006 "
   id="polygon32"
   transform="matrix(-1,0,0,1,32.076,0)" />
			<polygon
   opacity="0.5"
   fill="#ffffff"
   points="5,10 2.926,7.993 2.926,10 2.926,12.006 "
   id="polygon34"
   transform="matrix(-1,0,0,1,7.926,0)" />
			<polygon
   opacity="0.5"
   fill="#ffffff"
   points="12.008,17.075 10.002,15 7.994,17.075 10.002,17.075 "
   id="polygon36"
   transform="matrix(1,0,0,-1,0,32.075)" />
		</g>
	</g>
	<path
   fill="#FFFFFF"
   d="M11.51,14.304v-2.217c0-0.415-0.094-0.711-0.285-0.889c-0.189-0.177-0.543-0.266-1.063-0.266H8.244v3.371   h-1.75V5.696h4.369c0.396,0,0.758,0.063,1.082,0.188c0.324,0.126,0.602,0.299,0.836,0.519c0.232,0.221,0.412,0.484,0.537,0.791   s0.188,0.638,0.188,0.991c0,0.467-0.109,0.88-0.33,1.238s-0.537,0.611-0.953,0.759c0.381,0.121,0.65,0.307,0.811,0.557   c0.16,0.251,0.24,0.627,0.24,1.128v2.438H11.51z M8.244,7.187v2.295H10.5c0.484,0,0.824-0.108,1.023-0.324s0.299-0.488,0.299-0.816   c0-0.337-0.098-0.613-0.293-0.83c-0.193-0.216-0.516-0.324-0.965-0.324H8.244z"
   id="path42" />
</g>
</svg>
