<?xml version="1.0" encoding="UTF-8" standalone="no"?>
<svg
   xmlns:dc="http://purl.org/dc/elements/1.1/"
   xmlns:cc="http://creativecommons.org/ns#"
   xmlns:rdf="http://www.w3.org/1999/02/22-rdf-syntax-ns#"
   xmlns:svg="http://www.w3.org/2000/svg"
   xmlns="http://www.w3.org/2000/svg"
   xmlns:sodipodi="http://sodipodi.sourceforge.net/DTD/sodipodi-0.dtd"
   xmlns:inkscape="http://www.inkscape.org/namespaces/inkscape"
   version="1.1"
   id="Capa_1"
   x="0px"
   y="0px"
   width="20px"
   height="20px"
   viewBox="0 0 20 20"
   enable-background="new 0 0 20 20"
   xml:space="preserve"
   sodipodi:docname="xbox-dpad.svg"
   inkscape:version="1.0.2 (e86c870879, 2021-01-15)"><metadata
   id="metadata24"><rdf:RDF><cc:Work
       rdf:about=""><dc:format>image/svg+xml</dc:format><dc:type
         rdf:resource="http://purl.org/dc/dcmitype/StillImage" /><dc:title></dc:title></cc:Work></rdf:RDF></metadata><defs
   id="defs22" /><sodipodi:namedview
   pagecolor="#ffffff"
   bordercolor="#666666"
   borderopacity="1"
   objecttolerance="10"
   gridtolerance="10"
   guidetolerance="10"
   inkscape:pageopacity="0"
   inkscape:pageshadow="2"
   inkscape:window-width="1920"
   inkscape:window-height="1026"
   id="namedview20"
   showgrid="false"
   inkscape:zoom="42.6"
   inkscape:cx="10"
   inkscape:cy="10"
   inkscape:window-x="1050"
   inkscape:window-y="31"
   inkscape:window-maximized="1"
   inkscape:current-layer="g17" />
<g
   id="g17">
	<g
   id="g4">
		<circle
   fill="#727272"
   cx="10"
   cy="10"
   r="10"
   id="circle2" />
	</g>
	<g
   id="g13">
		<linearGradient
   id="SVGID_1_"
   gradientUnits="userSpaceOnUse"
   x1="10"
   y1="0"
   x2="10"
   y2="17.9003">
			<stop
   offset="0"
   style="stop-color:#444242"
   id="stop6" />
			<stop
   offset="1"
   style="stop-color:#252526"
   id="stop8" />
		</linearGradient>
		<path
   fill="url(#SVGID_1_)"
   d="M19.746,12.235C19.912,11.516,20,10.769,20,10s-0.088-1.517-0.254-2.235    c-3.766-0.827-6.734-3.775-7.592-7.529C11.461,0.083,10.74,0,10.002,0C9.18,0,8.383,0.102,7.619,0.288    c-0.877,3.62-3.721,6.47-7.336,7.354C0.1,8.398,0,9.188,0,10c0,0.804,0.098,1.584,0.277,2.334c3.674,0.855,6.57,3.736,7.447,7.402    C8.455,19.907,9.217,20,10.002,20c0.738,0,1.459-0.083,2.152-0.235C13.012,16.011,15.98,13.063,19.746,12.235z"
   id="path11" />
	</g>
	
</g>
</svg>
