<?xml version="1.0" encoding="utf-8"?>
<!-- Generator: Adobe Illustrator 16.0.0, SVG Export Plug-In . SVG Version: 6.00 Build 0)  -->
<!DOCTYPE svg PUBLIC "-//W3C//DTD SVG 1.1//EN" "http://www.w3.org/Graphics/SVG/1.1/DTD/svg11.dtd">
<svg version="1.1" id="Capa_1" xmlns="http://www.w3.org/2000/svg" xmlns:xlink="http://www.w3.org/1999/xlink" x="0px" y="0px"
	 width="29px" height="13.564px" viewBox="0 0 29 13.564" enable-background="new 0 0 29 13.564" xml:space="preserve">
<g>
	<g>
		<linearGradient id="SVGID_1_" gradientUnits="userSpaceOnUse" x1="14.5" y1="0" x2="14.5" y2="13.564">
			<stop  offset="0" style="stop-color:#5B5B5F"/>
			<stop  offset="0.0231" style="stop-color:#59595D"/>
			<stop  offset="0.4507" style="stop-color:#333335"/>
			<stop  offset="0.7912" style="stop-color:#1C1C1D"/>
			<stop  offset="1" style="stop-color:#141414"/>
		</linearGradient>
		<path fill="url(#SVGID_1_)" d="M29,11.269c0,3.061-29,3.061-29,0V5.542C0,2.482,2.48,0,5.541,0h17.918C26.52,0,29,2.482,29,5.542
			V11.269z"/>
		<linearGradient id="SVGID_2_" gradientUnits="userSpaceOnUse" x1="14.5" y1="0" x2="14.5" y2="13.5635">
			<stop  offset="0" style="stop-color:#5B5B5F"/>
			<stop  offset="0.0626" style="stop-color:#535356"/>
			<stop  offset="0.3018" style="stop-color:#373739"/>
			<stop  offset="0.5397" style="stop-color:#242425"/>
			<stop  offset="0.7739" style="stop-color:#181818"/>
			<stop  offset="1" style="stop-color:#141414"/>
		</linearGradient>
		<path fill="url(#SVGID_2_)" d="M23.459,1.479c2.24,0,4.063,1.822,4.063,4.063v5.233c-0.43,0.195-1.559,0.568-4.25,0.878
			c-2.432,0.278-5.547,0.433-8.771,0.433s-6.34-0.154-8.771-0.433c-2.693-0.31-3.82-0.683-4.252-0.878V5.542
			c0-2.241,1.824-4.063,4.064-4.063H23.459 M23.459,0H5.541C2.48,0,0,2.482,0,5.542v5.727c0,1.53,7.25,2.295,14.5,2.295
			S29,12.799,29,11.269V5.542C29,2.482,26.52,0,23.459,0L23.459,0z"/>
	</g>
	<g>
		<path fill="#FFFFFF" d="M13.809,6.346c0.221-0.357,0.332-0.775,0.332-1.239c0-0.35-0.063-0.681-0.188-0.986
			c-0.125-0.307-0.307-0.573-0.541-0.795C13.18,3.106,12.9,2.933,12.58,2.81c-0.318-0.124-0.678-0.187-1.066-0.187H7.295v8.319
			h1.986V7.829h1.586c0.533,0,0.76,0.106,0.855,0.196c0.137,0.127,0.205,0.356,0.205,0.685v2.232h1.998V8.507
			c0-0.505-0.082-0.877-0.252-1.143c-0.107-0.169-0.262-0.311-0.457-0.422C13.459,6.793,13.656,6.593,13.809,6.346z M11.988,5.881
			c-0.146,0.157-0.418,0.236-0.809,0.236H9.281V4.369h1.957c0.357,0,0.611,0.079,0.754,0.238c0.15,0.165,0.223,0.376,0.223,0.644
			C12.215,5.508,12.141,5.713,11.988,5.881z"/>
		<path fill="#FFFFFF" d="M21.602,7.586c-0.07-0.231-0.164-0.434-0.283-0.604c-0.119-0.172-0.264-0.316-0.432-0.432
			c-0.055-0.036-0.111-0.072-0.168-0.104c0.166-0.118,0.313-0.27,0.439-0.451c0.203-0.299,0.307-0.643,0.307-1.021
			c0-0.722-0.225-1.298-0.668-1.722c-0.439-0.418-1.082-0.631-1.91-0.631h-4.1v8.319h3.764c1.047,0,1.842-0.232,2.361-0.687
			c0.525-0.463,0.793-1.092,0.793-1.868C21.705,8.083,21.67,7.813,21.602,7.586z M16.76,4.369h1.814c0.342,0,0.594,0.057,0.73,0.163
			c0.127,0.101,0.188,0.27,0.188,0.515c0,0.314-0.094,0.678-0.822,0.678h-1.91V4.369z M19.449,8.951
			c-0.18,0.181-0.432,0.268-0.766,0.268H16.76V7.446h1.947c0.332,0,0.59,0.069,0.768,0.201c0.164,0.125,0.244,0.327,0.244,0.619
			C19.719,8.546,19.631,8.77,19.449,8.951z"/>
	</g>
</g>
</svg>
