<?xml version="1.0" encoding="UTF-8" standalone="no"?>
<svg
   xmlns:dc="http://purl.org/dc/elements/1.1/"
   xmlns:cc="http://creativecommons.org/ns#"
   xmlns:rdf="http://www.w3.org/1999/02/22-rdf-syntax-ns#"
   xmlns:svg="http://www.w3.org/2000/svg"
   xmlns="http://www.w3.org/2000/svg"
   xmlns:sodipodi="http://sodipodi.sourceforge.net/DTD/sodipodi-0.dtd"
   xmlns:inkscape="http://www.inkscape.org/namespaces/inkscape"
   version="1.1"
   id="Capa_1"
   x="0px"
   y="0px"
   width="20px"
   height="20px"
   viewBox="0 0 20 20"
   enable-background="new 0 0 20 20"
   xml:space="preserve"
   sodipodi:docname="xbox-button-ls-left.svg"
   inkscape:version="1.0.2 (e86c870879, 2021-01-15)"><metadata
   id="metadata45"><rdf:RDF><cc:Work
       rdf:about=""><dc:format>image/svg+xml</dc:format><dc:type
         rdf:resource="http://purl.org/dc/dcmitype/StillImage" /><dc:title></dc:title></cc:Work></rdf:RDF></metadata><defs
   id="defs43" /><sodipodi:namedview
   pagecolor="#ffffff"
   bordercolor="#666666"
   borderopacity="1"
   objecttolerance="10"
   gridtolerance="10"
   guidetolerance="10"
   inkscape:pageopacity="0"
   inkscape:pageshadow="2"
   inkscape:window-width="1920"
   inkscape:window-height="1026"
   id="namedview41"
   showgrid="false"
   inkscape:zoom="42.6"
   inkscape:cx="10"
   inkscape:cy="10"
   inkscape:window-x="1050"
   inkscape:window-y="31"
   inkscape:window-maximized="1"
   inkscape:current-layer="g38" />
<g
   id="g38">
	<linearGradient
   id="SVGID_1_"
   gradientUnits="userSpaceOnUse"
   x1="10"
   y1="0"
   x2="10"
   y2="17.9003">
		<stop
   offset="0"
   style="stop-color:#5B5B5F"
   id="stop2" />
		<stop
   offset="0.0231"
   style="stop-color:#59595D"
   id="stop4" />
		<stop
   offset="0.4507"
   style="stop-color:#333335"
   id="stop6" />
		<stop
   offset="0.7912"
   style="stop-color:#1C1C1D"
   id="stop8" />
		<stop
   offset="1"
   style="stop-color:#141414"
   id="stop10" />
	</linearGradient>
	<circle
   fill="url(#SVGID_1_)"
   cx="10"
   cy="10"
   r="10"
   id="circle13" />
	<linearGradient
   id="SVGID_2_"
   gradientUnits="userSpaceOnUse"
   x1="0"
   y1="10"
   x2="20"
   y2="10">
		<stop
   offset="0"
   style="stop-color:#5B5B5F"
   id="stop15" />
		<stop
   offset="0.0231"
   style="stop-color:#59595D"
   id="stop17" />
		<stop
   offset="0.4507"
   style="stop-color:#333335"
   id="stop19" />
		<stop
   offset="0.7912"
   style="stop-color:#1C1C1D"
   id="stop21" />
		<stop
   offset="1"
   style="stop-color:#141414"
   id="stop23" />
	</linearGradient>
	<path
   fill="url(#SVGID_2_)"
   d="M10.001,2.4c4.19,0,7.6,3.409,7.6,7.6s-3.409,7.6-7.6,7.6S2.4,14.19,2.4,10S5.811,2.4,10.001,2.4    M10.001,0C4.478,0,0,4.478,0,10s4.478,10,10.001,10C15.523,20,20,15.522,20,10S15.523,0,10.001,0L10.001,0z"
   id="path26" />
	
	
	<polygon
   opacity="0.5"
   fill="#ffffff"
   points="2.926,12.007 5,10 2.926,7.994 2.926,10 "
   id="polygon32"
   transform="matrix(-1,0,0,1,7.926,0)" />
	
	<path
   fill="#FFFFFF"
   d="M6.967,14.304V5.696H8.77v7.039h4.264v1.568H6.967z"
   id="path36" />
</g>
</svg>
