<?xml version="1.0" encoding="UTF-8" standalone="no"?>
<svg
   xmlns:dc="http://purl.org/dc/elements/1.1/"
   xmlns:cc="http://creativecommons.org/ns#"
   xmlns:rdf="http://www.w3.org/1999/02/22-rdf-syntax-ns#"
   xmlns:svg="http://www.w3.org/2000/svg"
   xmlns="http://www.w3.org/2000/svg"
   xmlns:sodipodi="http://sodipodi.sourceforge.net/DTD/sodipodi-0.dtd"
   xmlns:inkscape="http://www.inkscape.org/namespaces/inkscape"
   width="512"
   height="288"
   id="svg2"
   sodipodi:version="0.32"
   inkscape:version="1.0.2 (e86c870879, 2021-01-15)"
   sodipodi:docname="dc-input.svg"
   inkscape:output_extension="org.inkscape.output.svg.inkscape"
   version="1.0">
  <defs
     id="defs4">
    <inkscape:perspective
       sodipodi:type="inkscape:persp3d"
       inkscape:vp_x="0 : 663.1653 : 1"
       inkscape:vp_y="0 : 1000 : 0"
       inkscape:vp_z="744.09448 : 663.1653 : 1"
       inkscape:persp3d-origin="372.04724 : 487.7716 : 1"
       id="perspective10" />
    <inkscape:perspective
       id="perspective2390"
       inkscape:persp3d-origin="372.04724 : 487.7716 : 1"
       inkscape:vp_z="744.09448 : 663.1653 : 1"
       inkscape:vp_y="0 : 1000 : 0"
       inkscape:vp_x="0 : 663.1653 : 1"
       sodipodi:type="inkscape:persp3d" />
    <inkscape:perspective
       id="perspective12"
       inkscape:persp3d-origin="886.50018 : 236.98421 : 1"
       inkscape:vp_z="1773.0004 : 286.98421 : 1"
       inkscape:vp_y="0 : 1000 : 0"
       inkscape:vp_x="0 : 286.98421 : 1"
       sodipodi:type="inkscape:persp3d" />
    <inkscape:perspective
       id="perspective3355"
       inkscape:persp3d-origin="67.123741 : 170.98342 : 1"
       inkscape:vp_z="134.24748 : 187.98302 : 1"
       inkscape:vp_y="0 : 1000 : 0"
       inkscape:vp_x="0 : 187.98302 : 1"
       sodipodi:type="inkscape:persp3d" />
    <inkscape:perspective
       id="perspective3443"
       inkscape:persp3d-origin="177.16534 : 255.09444 : 1"
       inkscape:vp_z="354.33069 : 314.14955 : 1"
       inkscape:vp_y="0 : 1000 : 0"
       inkscape:vp_x="0 : 314.14955 : 1"
       sodipodi:type="inkscape:persp3d" />
    <clipPath
       id="a">
      <ellipse
         cx="296.69"
         cy="214.12"
         rx="206.77"
         ry="205.42"
         display="none"
         fill="#4d4d4d"
         id="ellipse1190" />
      <path
         class="powerclip"
         d="m 8.0946,3.7805 h 575.41 v 590.04 H 8.0946 Z m 495.36,210.34 a 206.77,205.42 0 0 0 -206.77,-205.42 206.77,205.42 0 0 0 -206.77,205.42 206.77,205.42 0 0 0 206.77,205.42 206.77,205.42 0 0 0 206.77,-205.42 z"
         display="block"
         fill="#4d4d4d"
         id="path1192" />
    </clipPath>
  </defs>
  <sodipodi:namedview
     id="base"
     pagecolor="#ffffff"
     bordercolor="#666666"
     borderopacity="1.0"
     gridtolerance="10000"
     guidetolerance="10"
     objecttolerance="10"
     inkscape:pageopacity="0.0"
     inkscape:pageshadow="2"
     inkscape:zoom="13.37162"
     inkscape:cx="255.32595"
     inkscape:cy="175.25972"
     inkscape:document-units="px"
     inkscape:current-layer="g1664"
     showgrid="false"
     inkscape:window-width="1223"
     inkscape:window-height="1022"
     inkscape:window-x="1739"
     inkscape:window-y="31"
     showguides="true"
     inkscape:guide-bbox="true"
     inkscape:document-rotation="0"
     inkscape:window-maximized="0" />
  <metadata
     id="metadata7">
    <rdf:RDF>
      <cc:Work
         rdf:about="">
        <dc:format>image/svg+xml</dc:format>
        <dc:type
           rdf:resource="http://purl.org/dc/dcmitype/StillImage" />
        <dc:title></dc:title>
      </cc:Work>
    </rdf:RDF>
  </metadata>
  <g
     inkscape:label="Layer 1"
     inkscape:groupmode="layer"
     id="layer1"
     transform="translate(-260.34243,-473.69226)"
     style="display:inline">
    <path
       style="display:inline;fill:#d8d8d8;fill-opacity:1;fill-rule:evenodd;stroke:#000000;stroke-width:0.966954;stroke-linecap:butt;stroke-linejoin:miter;stroke-miterlimit:4;stroke-dasharray:none;stroke-opacity:1"
       d="m 437.1803,546.97084 c 0.0704,-0.35215 1.33816,-5.84565 1.47902,-6.76123 0.14086,-0.91559 0.35215,-1.40859 1.47902,-2.18332 10.57641,-7.27128 5.4994,-7.4732 17.76308,-5.49519 2.18332,0.35214 5.0005,5.84565 5.0005,5.84565 z"
       id="path3352-3"
       sodipodi:nodetypes="cssscc"
       data-button="button-6" />
    <path
       style="display:inline;fill:#d8d8d8;fill-opacity:1;fill-rule:evenodd;stroke:#000000;stroke-width:0.966954;stroke-linecap:butt;stroke-linejoin:miter;stroke-miterlimit:4;stroke-dasharray:none;stroke-opacity:1"
       d="m 595.50455,546.97084 c -0.0704,-0.35215 -1.33816,-5.84565 -1.47901,-6.76123 -0.14086,-0.91559 -0.35215,-1.40859 -1.47902,-2.18332 -10.57641,-7.27128 -5.4994,-7.4732 -17.76308,-5.49519 -2.18332,0.35214 -5.0005,5.84565 -5.0005,5.84565 z"
       id="path3352-3-3"
       sodipodi:nodetypes="cssscc"
       data-button="button-7" />
    <path
       sodipodi:nodetypes="cssscc"
       id="path3365"
       d="m 604.24237,553.12623 c -0.0704,-0.35215 -1.33816,-5.84565 -1.47902,-6.76123 -0.14086,-0.91559 -0.35215,-1.40859 -1.47902,-2.18332 -10.57641,-7.27128 -22.95106,-10.78169 -35.21474,-8.80368 -2.18332,0.35214 -5.0005,5.84565 -5.0005,5.84565 z"
       style="display:inline;fill:#d8d8d8;fill-opacity:1;fill-rule:evenodd;stroke:#000000;stroke-width:0.966954;stroke-linecap:butt;stroke-linejoin:miter;stroke-miterlimit:4;stroke-dasharray:none;stroke-opacity:1"
       data-button="button-5" />
    <path
       style="display:inline;fill:#d8d8d8;fill-opacity:1;fill-rule:evenodd;stroke:#000000;stroke-width:0.966954;stroke-linecap:butt;stroke-linejoin:miter;stroke-miterlimit:4;stroke-dasharray:none;stroke-opacity:1"
       d="m 428.44249,553.12623 c 0.0704,-0.35215 1.33816,-5.84565 1.47902,-6.76123 0.14086,-0.91559 0.35215,-1.40859 1.47902,-2.18332 10.57641,-7.27128 22.95106,-10.78169 35.21474,-8.80368 2.18331,0.35214 5.0005,5.84565 5.0005,5.84565 z"
       id="path3352"
       sodipodi:nodetypes="cssscc"
       data-button="button-4" />
    <g
       id="g1664"
       transform="matrix(0.34400583,0,0,0.34400583,414.9701,503.94886)">
      <ellipse
         cx="294.98001"
         cy="208.06"
         rx="205.59"
         ry="199.11"
         fill="none"
         stroke="#000000"
         stroke-width="7.4"
         id="ellipse1197" />
      <ellipse
         cx="295.57001"
         cy="214.12"
         rx="206.77"
         ry="205.42"
         display="block"
         fill="#e6e6e6"
         id="ellipse1199" />
      <rect
         x="255.54619"
         y="18.994112"
         width="93.049889"
         height="71.373405"
         fill="#666666"
         id="rect1201-5"
         style="display:inline;stroke-width:0.671245;fill:#d35f5f" />
      <rect
         x="234.74001"
         y="140.67"
         width="129.82001"
         height="113.54"
         fill="#666666"
         id="rect1201" />
      <g
         transform="translate(-1.12)"
         fill="#1a1a1a"
         id="g1245">
        <g
           id="g1243">
          <path
             d="m 243.78,111.34 c 0.838,0 1.818,-0.043 2.687,-0.135 0.869,-0.092 1.481,-0.397 2.167,-0.636 0.686,-0.239 1.377,-0.643 2.02,-1.261 0.637,-0.618 1.157,-1.316 1.548,-2.099 0.392,-0.784 0.673,-1.659 0.845,-2.632 0.171,-0.967 0.239,-1.952 0.196,-2.95 -0.042,-1.12 -0.343,-1.953 -0.648,-2.907 -0.306,-0.955 -0.881,-2.154 -1.671,-2.803 -0.869,-0.716 -1.493,-1.224 -2.387,-1.481 -0.894,-0.251 -2.154,-0.637 -3.599,-0.637 -0.881,0 -2.05,0.062 -2.62,0.128 -0.593,0.074 -1.138,0.147 -1.885,0.159 l 0.196,17.228 c 1.162,0.038 2.154,0.026 3.151,0.026 z"
             fill="#1a1a1a"
             id="path1203" />
          <path
             d="m 278.33,102.96 c -0.031,-0.624 0,-0.416 -0.073,-0.765 -0.074,-0.343 -0.166,-0.618 -0.349,-0.991 -0.184,-0.367 -0.502,-0.624 -0.795,-0.894 -0.294,-0.27 -0.643,-0.478 -1.053,-0.618 -0.404,-0.147 -1.01,-0.22 -1.475,-0.22 -0.501,0 -0.948,0.153 -1.395,0.312 -0.447,0.159 -0.838,0.374 -1.175,0.649 -0.336,0.275 -0.618,0.6 -0.844,0.967 -0.227,0.367 -0.392,0.729 -0.496,1.071 -0.042,0.135 -0.049,0.147 -0.042,0.153 0.006,0.006 0.03,-0.012 -0.025,0.336 z"
             fill="#1a1a1a"
             id="path1205" />
          <path
             d="m 291.54,104.42 c -0.3,0.27 -0.441,0.343 -0.587,0.453 -0.147,0.11 -0.361,0.171 -0.551,0.269 -0.19,0.092 -0.447,0.116 -0.68,0.202 -0.226,0.085 -1.022,0.11 -1.346,0.153 -0.691,0.086 -1.15,0.159 -1.426,0.27 -0.6,0.214 -0.955,0.275 -1.298,0.496 -0.342,0.22 -0.612,0.551 -0.838,0.808 -0.227,0.257 -0.312,0.49 -0.404,0.747 -0.104,0.318 -0.092,0.655 -0.073,0.998 0.018,0.538 0.434,1.132 0.734,1.523 0.293,0.398 0.3,0.257 0.679,0.526 0.379,0.263 0.918,0.404 1.518,0.404 0.374,0 0.759,-0.031 1.157,-0.092 0.306,-0.043 0.637,-0.239 1.096,-0.392 0.146,-0.049 0.489,-0.361 0.655,-0.422 0,0 0.422,-0.342 0.844,-1.077 0.422,-0.734 0.508,-1.952 0.508,-1.952 z"
             fill="#1a1a1a"
             id="path1207" />
          <path
             d="m 341.81,104.23 c -0.294,0.27 -0.44,0.349 -0.588,0.459 -0.146,0.11 -0.379,0.153 -0.569,0.251 -0.189,0.092 -0.428,0.135 -0.66,0.22 -0.227,0.086 -1.022,0.11 -1.347,0.153 -0.691,0.085 -1.15,0.159 -1.426,0.269 -0.6,0.22 -0.961,0.282 -1.304,0.496 -0.343,0.221 -0.618,0.551 -0.845,0.808 -0.227,0.257 -0.318,0.489 -0.404,0.747 -0.104,0.318 -0.085,0.655 -0.073,1.003 0.019,0.533 0.435,1.132 0.734,1.524 0.3,0.398 0.3,0.257 0.686,0.526 0.38,0.263 0.918,0.404 1.524,0.404 0.373,0 0.759,-0.03 1.162,-0.092 0.307,-0.042 0.643,-0.245 1.096,-0.392 0.146,-0.049 0.489,-0.361 0.655,-0.422 0,0 0.422,-0.343 0.844,-1.077 0.423,-0.729 0.509,-1.953 0.509,-1.953 z"
             fill="#1a1a1a"
             id="path1209" />
          <path
             d="m 79.619,239.47 c 24.811,0 44.995,-20.073 44.995,-44.748 0,-24.675 -20.184,-44.748 -44.995,-44.748 -24.811,0 -44.997,20.073 -44.997,44.748 0,24.675 20.192,44.748 44.997,44.748 z"
             fill="#ececec"
             id="path1211" />
          <polygon
             transform="matrix(1.6291,0,0,1.6291,-178.01,-257.79)"
             points="318.12,444.41 293.78,403.06 269.44,444.41 "
             fill="#ffffff"
             stroke-width="0.61384"
             id="polygon1213" />
          <path
             d="m 119.14,577.38 c 12.815,-43.023 10.985,-43.023 17.393,-58.582 6.408,-15.562 19.223,-16.475 35.698,-20.135 15.404,-3.42 80.508,-11.378 123.02,-12.431 0.006,0.117 0,0 0,0 l 11.652,-0.15207 -0.013,-0.092 c 0,0 75.65199,4.89139 112.487,12.67507 16.476,3.66 29.291,4.578 35.698,20.135 6.407,15.564 4.578,15.564 17.394,58.582 12.814,43.018 69.554,-66.818 95.184,-228.83 C 593.284,186.54 555.805,123.64 545.431,118.15 535.058,112.66 466.049,97.746 466.049,97.746 447.78,73.835 428.178,56.369 409.01,43.547 v 181.14 c 0,53.85 -43.807,97.657 -97.656,97.657 H 289.83 c -53.85,0 -97.657,-43.808 -97.657,-97.657 V 37.517 c -22.156,13.194 -45.296,32.319 -66.624,60.232 0,0 -69.009,14.908 -79.382,20.404 -10.374,5.49 -47.853,68.385 -22.222,230.4 25.624,162.01 82.375,271.85 95.19,228.83 z M 492.91,318.65 c -13.801,0 -25.031,-11.223 -25.031,-25.024 0,-13.801 11.23,-25.031 25.031,-25.031 13.8,0 25.024,11.224 25.024,25.031 10e-4,13.802 -11.224,25.024 -25.024,25.024 z m 48.207,-96.432 c 13.801,0 25.03,11.224 25.03,25.031 0,13.801 -11.229,25.025 -25.03,25.025 -13.801,0 -25.031,-11.224 -25.031,-25.025 0,-13.801 11.23,-25.031 25.031,-25.031 z m -47.601,-46.989 c 13.801,0 25.031,11.224 25.031,25.031 0,13.8 -11.23,25.024 -25.031,25.024 -13.801,0 -25.03,-11.224 -25.03,-25.024 0.005,-13.801 11.229,-25.031 25.03,-25.031 z m -48.207,46.383 c 13.801,0 25.024,11.224 25.024,25.031 0,13.801 -11.224,25.025 -25.024,25.025 -13.8,0 -25.031,-11.224 -25.031,-25.025 0.006,-13.807 11.236,-25.031 25.031,-25.031 z m -176.43,232.05 28.458,-48.342 c 1.408,-2.418 5.056,-2.441 6.5,-0.006 l 28.451,48.342 c 0.729,1.242 0.759,2.662 0.099,3.818 -0.655,1.15 -1.91,1.842 -3.33,1.842 h -56.928 c -1.426,0 -2.674,-0.691 -3.335,-1.842 -0.668,-1.156 -0.631,-2.582 0.085,-3.812 z m -136.01,-171.33 c 2.699,0 4.896,2.191 4.896,4.89 v 26.23 h 26.23 c 2.693,0 4.89,2.191 4.89,4.891 v 23.801 c 0,2.697 -2.191,4.889 -4.89,4.889 h -26.23 v 26.23 c 0,2.693 -2.191,4.891 -4.896,4.891 h -23.801 c -2.692,0 -4.89,-2.191 -4.89,-4.891 v -26.23 h -26.23 c -2.693,0 -4.89,-2.191 -4.89,-4.889 v -23.801 c 0,-2.693 2.191,-4.891 4.89,-4.891 h 26.23 v -26.23 c 0,-2.699 2.191,-4.89 4.89,-4.89 z M 78.86,148.692 c 24.902,0 45.166,20.263 45.166,45.166 0,24.903 -20.263,45.166 -45.166,45.166 -24.903,0 -45.166,-20.263 -45.166,-45.166 0,-24.903 20.264,-45.166 45.166,-45.166 z"
             clip-path="url(#b)"
             fill="#e6e6e6"
             id="path1215"
             sodipodi:nodetypes="ccccccccccccccssssccccccssscssssssssscsssscscccccssccsscsssscsssscsssscssssssss" />
          <path
             d="m 371.79,133.6 h -142.4 v 126.1 h 142.4 z m -8.256,117.31 c 0,0.985 -0.796,1.781 -1.781,1.781 h -122.33 c -0.979,0 -1.781,-0.796 -1.781,-1.781 V 142.4 c 0,-0.985 0.795,-1.781 1.781,-1.781 h 122.33 c 0.985,0 1.781,0.795 1.781,1.781 z"
             fill="#1a1a1a"
             id="path1217" />
          <path
             d="m 289.82,316.22 h 21.523 c 50.558,0 91.537,-40.985 91.537,-91.536 v -6.089 l 0.0627,-180.67 C 356.6907,10.058 317.3377,9.45 302.5627,8.641 c -3.6348,-0.19916 -6.7928,-0.03767 -6.7928,-0.03767 0,0 -2.9265,-0.19568 -6.6277,-0.015294 -13.717,0.66851 -50.54,2.3407 -91.789,25.089 l 0.93221,184.880004 v 6.12 c 0,50.552 40.986,91.537 91.537,91.537 z m 66.506,-218.18 1.806,-0.061 c 0.018,-0.379 -0.031,-1.567 -0.031,-2.497 0,-0.453 -0.227,-0.869 -0.41,-1.096 0.82,-0.184 2.069,-0.563 2.638,-0.728 -0.006,1.469 0.099,3.556 0.117,4.321 l 3.684,0.055 c -0.019,0.63 0.049,0.851 0.062,1.419 l -1.016,-0.122 h -2.705 l -0.05,8.103 -0.024,0.679 c 0.024,0.723 0.123,1.641 0.282,2.001 0.159,0.361 0.385,0.496 0.679,0.655 0.3,0.159 0.637,0.196 0.949,0.196 0.22,0 0.551,-0.006 0.808,-0.006 0.257,0 0.435,-0.019 1.071,-0.202 -0.08,0.478 -0.209,0.741 -0.294,1.536 -0.588,0.166 -0.857,0.208 -1.206,0.245 -0.349,0.043 -0.679,-0.067 -0.997,-0.067 -0.777,0 -1.414,-0.11 -1.903,-0.337 -0.49,-0.22 -0.869,-0.575 -1.139,-1.071 -0.275,-0.49 -0.465,-1.708 -0.496,-2.552 -0.006,-0.11 -0.006,-0.3 -0.012,-0.575 0,-0.275 -0.019,-0.551 0,-2.197 l -0.056,-6.402 h -1.774 c 0.023,-0.397 0.023,-0.519 0.017,-1.297 z m -2.932,9.309 c -0.135,-0.184 -0.643,-0.618 -0.899,-0.838 -0.257,-0.227 -0.937,-0.557 -1.824,-0.924 -0.899,-0.379 -2.044,-0.74 -2.46,-1.089 -0.416,-0.355 -1.175,-0.759 -1.475,-1.132 -0.3,-0.373 -0.526,-0.74 -0.68,-1.12 -0.153,-0.374 -0.043,-0.943 -0.055,-1.328 -0.024,-0.618 0.36,-1.254 0.728,-1.836 0.361,-0.575 0.992,-0.9 1.714,-1.188 0.723,-0.281 1.579,-0.428 2.564,-0.428 1.102,0 2.166,0.214 3.501,0.471 0.073,0.753 -0.099,1.273 -0.007,1.897 -0.961,-0.636 -2.025,-0.955 -3.072,-0.955 -0.568,0 -1.145,0.086 -1.621,0.233 -0.478,0.146 -1.01,0.624 -1.218,0.918 -0.215,0.3 -0.331,0.581 -0.318,0.936 0.006,0.233 0.079,0.618 0.165,0.833 0.086,0.214 0.648,0.808 0.942,0.937 0.404,0.177 0.245,0.153 0.612,0.232 0.416,0.092 1.444,0.618 2.423,1.083 1.017,0.483 1.946,1.089 2.265,1.408 0.324,0.318 0.637,0.759 0.931,1.438 0.165,0.38 0.257,0.826 0.257,1.145 0,0.551 -0.146,0.625 -0.129,0.967 0.031,0.673 -0.141,0.924 -0.514,1.5 -0.373,0.576 -1.071,1.126 -1.849,1.444 -0.777,0.318 -1.604,0.582 -2.576,0.582 -0.416,0 -1.377,0.049 -1.934,-0.006 -0.558,-0.049 -1.035,-0.239 -1.427,-0.312 -0.392,-0.073 -0.643,-0.092 -1.224,-0.232 L 346.012,111 c -0.006,-0.116 -0.263,-0.771 -0.373,-1.396 1.646,0.906 3.385,1.542 4.633,1.542 0.654,0 1.304,-0.19 1.75,-0.361 0.447,-0.171 0.882,-0.489 1.096,-0.826 0.208,-0.336 0.44,-0.661 0.521,-1.016 0.049,-0.196 0.11,-0.459 0.061,-0.637 -0.067,-0.211 -0.171,-0.774 -0.306,-0.957 z M 267.256,52.067 c 0.324,-2.111 0.955,-4.223 1.364,-5.673 0.973,-3.47 3.581,-8.672 4.841,-10.429 1.26,-1.757 1.762,-2.295 3.592,-4.339 1.83,-2.044 0.783,-0.637 4.174,-3.421 3.384,-2.785 7.938,-4.78 9.933,-5.587 1.995,-0.814 5.037,-2.301 10.521,-2.668 5.484,-0.367 8.794,0.312 11.854,0.667 3.586,0.417 10.435,2.754 10.435,2.754 0,0 3.996,1.805 7.093,3.837 1.671,1.004 3.158,2.987 4.676,4.927 2.087,2.668 4.131,6.028 4.425,6.505 0.508,0.814 2.778,4.908 3.256,6.426 0.478,1.518 1.542,7.117 1.628,7.729 0.086,0.612 0.937,4.051 -2.001,4.253 -3.22,0.22 -3.55,-3.066 -3.758,-4.002 -0.214,-0.942 -2.387,-8.158 -3.14,-9.517 -0.753,-1.359 -5.264,-7.962 -7.265,-10.135 -2.001,-2.173 -5.894,-4.951 -10.141,-6.255 -4.063,-1.254 -10.961,-2.479 -15.6,-2.276 -4.076,0.177 -5.416,0.459 -7.191,1.022 -3.629,1.157 -6.812,2.993 -9.015,4.382 -2.203,1.383 -5.899,4.357 -7.515,6.383 -1.916,2.405 -5.166,8.354 -5.888,11.64 -1.334,6.114 -0.502,12.014 -0.502,12.014 0,0 1.506,11.579 9.015,17.521 2.938,2.332 5.336,3.562 12.02,5.379 0.937,0.257 3.978,0.471 7.778,0.496 3.801,0.019 4.957,-0.11 7.124,-0.869 2.16,-0.759 2.852,-0.894 4.504,-1.75 1.659,-0.857 4.505,-1.799 7.559,-4.811 1.707,-1.689 3.837,-5.006 4.719,-8.329 0.514,-1.946 0.189,-2.552 0.122,-5.104 -0.019,-0.783 -0.092,-1.493 -0.153,-2.167 -0.146,-1.524 -0.397,-2.938 -0.93,-5.178 -0.771,-3.231 -0.539,-2.387 -1.292,-4.449 -0.52,-1.42 -1.107,-2.577 -1.523,-3.25 -0.416,-0.673 -0.814,-1.12 -1.273,-1.818 -3.17,-4.841 -9.431,-8.011 -15.232,-8.201 -1.934,-0.067 -4.314,0.135 -6.714,0.894 -1.628,0.514 -3.268,1.346 -4.786,2.271 -0.63,0.379 -1.23,0.673 -1.812,1.132 -0.587,0.471 -0.942,0.606 -1.462,1.157 -0.471,0.501 -1.114,1.628 -1.5,2.136 -4.725,6.065 -3.629,11.689 -3.629,11.689 0,0 -0.44,13.207 13.52,14.646 3.525,0.171 9.89,-2.087 12.301,-4.67 1.481,-1.591 1.585,-4.437 1.536,-6.964 -0.036,-2.001 -1.016,-5.551 -2.552,-6.922 -3.342,-2.98 -6.12,-3.072 -7.576,-3.158 -1.94,-0.123 -4.7,0.477 -5.79,4.725 -0.38,1.475 0.777,4.547 2.962,4.982 1.879,0.379 3.88,0 4.762,0.128 0.783,0.11 1.971,-0.153 1.971,2.313 -0.221,4.321 -9.633,1.903 -9.737,1.812 -0.722,-0.624 -4.969,-3.042 -5.134,-7.631 -0.178,-4.847 2.099,-8.507 6.236,-10.576 1.041,-0.52 2.956,-0.783 4.254,-0.838 3.524,0.171 6.021,0.63 8.604,2.02 0.483,0.263 0.979,0.477 1.512,0.838 0.165,0.11 0.802,0.557 0.899,0.618 3.023,2.601 4.284,6.035 4.884,9.499 0.238,1.377 0.232,2.662 0.275,3.678 0.08,1.738 -0.122,3.843 -1.01,5.82 -0.942,2.112 -2.638,4.082 -5,5.318 -2.295,1.2 -5.643,3.103 -10.264,3.672 -2.784,0.342 -6.021,0.287 -9.773,-0.924 C 281.804,72 280.801,59.925 280.801,59.925 c 0,0 -2.173,-8.898 3.69,-16.916 0.618,-0.844 1.322,-1.928 2.129,-2.735 2.644,-2.644 5.012,-4.015 7.185,-5.166 3.99,-2.111 6.916,-2.595 7.779,-2.595 0.618,0 2.093,-0.085 3.824,0.043 1.983,0.141 4.309,0.526 6.065,0.955 1.928,0.471 3.537,0.851 4.792,1.383 1.188,0.508 2.038,1.175 2.968,1.744 1.922,1.169 4.982,3.488 6.017,5.055 1.07,1.628 2.589,3.715 3.77,7.387 0.691,2.154 1.273,5.232 1.983,8.703 1.064,5.196 0.679,10.447 -0.502,13.764 -0.129,0.355 -1.451,4.566 -5.637,8.513 -4.187,3.954 -9.455,6.193 -11.016,6.817 -1.567,0.625 -3.795,2.521 -12.332,2.381 -7.387,-0.123 -12.987,-2.081 -14.651,-2.754 -1.665,-0.673 -6.059,-2.068 -10.833,-7.319 -4.773,-5.257 -5.814,-8.648 -6.573,-10.949 -0.759,-2.301 -2.191,-8.195 -2.191,-8.195 0,0 0.171,-0.024 -0.171,-3.066 -0.129,-1.359 -0.111,-3.133 0.159,-4.908 z m 73.825,59.388 c -0.465,0.386 -0.937,0.673 -1.236,0.857 -0.637,0.134 -1.021,0.281 -1.426,0.312 -0.404,0.037 -0.783,0.049 -1.15,0.049 -1.212,0 -2.1,-0.367 -2.791,-0.686 -0.691,-0.318 -1.261,-0.875 -1.622,-1.523 -0.36,-0.649 -0.44,-1.243 -0.471,-2.008 -0.019,-0.446 0.11,-0.905 0.22,-1.279 0.104,-0.379 0.251,-0.716 0.447,-1.022 0.189,-0.306 0.33,-0.539 0.691,-0.851 0.361,-0.306 0.575,-0.478 0.979,-0.673 0.403,-0.202 0.777,-0.288 1.315,-0.483 0.539,-0.196 1.524,-0.263 2.785,-0.441 0.385,-0.098 0.71,-0.073 0.979,-0.177 0.27,-0.104 0.509,-0.208 0.717,-0.306 0.208,-0.098 0.385,-0.214 0.538,-0.349 0.153,-0.135 0.294,-0.3 0.416,-0.49 0.129,-0.196 0.215,-0.141 0.27,-0.336 0.055,-0.196 0.024,-0.294 0.019,-0.496 -0.019,-0.489 -0.043,-0.765 -0.337,-1.107 -0.294,-0.342 -0.637,-0.833 -1.102,-0.967 -0.459,-0.141 -1.23,-0.361 -1.849,-0.361 -0.575,0 -1.046,0.073 -1.646,0.178 -0.6,0.104 -1.114,0.232 -1.549,0.373 -0.429,0.147 -0.918,0.361 -1.561,0.649 0.062,-0.435 0.013,-1.065 0.062,-1.922 1.053,-0.306 1.609,-0.453 2.387,-0.563 0.778,-0.11 1.928,-0.178 2.674,-0.178 0.796,0 1.292,0.171 1.995,0.337 0.698,0.165 1.586,0.777 1.91,1.261 0.336,0.496 0.648,0.856 0.819,1.334 0.172,0.478 0.404,1.42 0.429,1.958 0.024,0.679 0.062,0.239 0.037,1.842 -0.024,1.609 0.073,4.547 0.061,5.912 -0.006,0.833 0.099,0.912 0.318,2.038 -0.483,-0.019 -1.102,0.024 -1.401,0.024 -0.287,0 -0.71,-0.043 -1.236,-0.024 v -1.53 c 0.007,0.006 -0.226,0.263 -0.691,0.648 z m -19.155,-3.378 c 0.336,0.838 0.899,1.659 1.683,2.118 0.784,0.459 1.701,0.906 2.662,0.906 0.931,0 2.889,-0.098 5.013,-1.224 -0.013,0.159 -0.098,0.514 -0.153,0.942 -0.055,0.435 -0.178,0.796 -0.214,1.212 -0.637,0.166 -1.31,0.349 -1.903,0.41 -0.588,0.061 -2.197,0.165 -2.644,0.165 -0.949,0 -2.051,-0.196 -2.864,-0.483 -0.814,-0.288 -1.83,-0.832 -2.448,-1.487 -0.624,-0.655 -1.328,-1.31 -1.646,-2.283 -0.318,-0.973 -0.545,-1.909 -0.581,-2.993 -0.056,-1.457 0.177,-1.946 0.587,-3.25 0.404,-1.31 1.438,-2.252 2.394,-2.993 0.954,-0.741 3.164,-1.371 4.859,-1.371 1.248,0 2.711,0.208 3.91,0.575 0.086,0.851 0.116,1.31 0.178,1.861 -0.845,-0.3 -1.616,-0.649 -2.148,-0.753 -0.532,-0.104 -1.199,-0.202 -1.652,-0.202 -0.771,0 -2.411,0.343 -3.011,0.655 -0.6,0.318 -1.102,0.765 -1.512,1.353 -0.41,0.581 -0.734,1.395 -0.894,2.197 -0.16,0.802 -0.221,0.869 -0.189,1.702 0.04,1.125 0.23,2.104 0.573,2.943 z m -6.898,-5.263 c -0.019,-0.575 -0.189,-1.224 -0.306,-1.548 -0.116,-0.324 -0.704,-0.924 -0.949,-1.187 -0.244,-0.263 -0.611,-0.312 -0.961,-0.447 -0.349,-0.135 -0.911,-0.166 -1.353,-0.166 -0.354,0 -0.802,0.062 -1.095,0.147 -0.275,0.086 -0.551,0.147 -0.809,0.331 -0.281,0.189 -0.532,0.3 -0.752,0.575 -0.221,0.27 -0.398,0.575 -0.545,0.912 -0.153,0.349 -0.159,0.869 -0.189,1.432 -0.037,0.606 0.03,1.383 0.012,2.252 -0.024,0.918 -0.024,4.56 0,6.065 l 0.422,1.346 c -0.514,-0.018 -1.272,-0.03 -1.529,-0.03 -0.239,0 -0.894,0.006 -1.457,0.03 0.043,-1.224 0.19,-0.11 0.196,-1.407 l 0.024,-5.594 c 0,-1.108 -0.013,-2.057 -0.043,-2.833 -0.019,-0.508 -0.079,-0.686 -0.184,-1.041 -0.098,-0.355 -0.275,-0.802 -0.532,-1.096 -0.251,-0.293 -0.808,-0.765 -1.15,-0.918 -0.35,-0.153 -0.839,-0.269 -1.268,-0.269 -0.452,0 -0.746,0.049 -1.138,0.22 -0.392,0.171 -0.734,0.251 -1.059,0.594 -0.318,0.336 -0.588,0.373 -0.796,0.869 -0.208,0.489 -0.367,0.385 -0.459,1.181 -0.098,0.795 -0.141,3.69 -0.135,5.667 0.006,1.169 0.019,2.228 0.037,3.183 0.012,0.654 0.281,0.887 0.306,1.444 -0.569,-0.018 -1.212,-0.03 -1.42,-0.03 -0.232,0 -1.01,0.006 -1.585,0.03 l 0.318,-1.028 c 0.012,-0.453 0.019,-1.922 0.024,-2.901 l -0.147,-8.292 c -0.018,-0.741 -0.416,-1.628 -0.435,-2.014 0.41,0.012 1.335,-0.135 1.763,-0.294 0.343,-0.128 0.729,-0.128 1.09,-0.141 l -0.006,1.928 c 0.275,-0.557 0.776,-0.612 1.01,-0.942 0.232,-0.324 0.471,-0.312 0.856,-0.587 0.385,-0.275 0.624,-0.288 1.139,-0.361 0.63,-0.092 1.027,-0.123 1.572,-0.123 0.38,0 0.753,0.049 1.126,0.147 0.374,0.098 0.717,0.239 1.041,0.417 0.318,0.177 0.594,0.379 0.826,0.605 0.232,0.227 0.483,0.349 0.691,0.741 0.073,0.128 0.637,-0.624 1.426,-1.083 0.79,-0.453 1.72,-0.802 2.711,-0.802 0.637,0 2.057,0.085 2.662,0.312 0.606,0.227 1.463,0.557 1.836,0.979 0.367,0.429 0.478,0.618 0.809,0.967 0.41,0.435 0.538,1.53 0.562,1.995 0.019,0.477 0.067,1.199 0.067,2.16 l 0.006,6.818 c 0,0.655 0.19,0.734 0.312,1.481 -0.471,-0.019 -1.083,-0.031 -1.353,-0.031 -0.281,0 -0.955,0.006 -1.506,0.031 0.367,-1.169 0.294,-0.771 0.325,-1.487 l 0.024,-6.181 c -0.002,-0.87 -0.007,-1.384 -0.032,-2.026 z m -24.217,8.831 c -0.459,0.386 -0.937,0.667 -1.23,0.857 -0.637,0.135 -1.016,0.282 -1.42,0.312 -0.404,0.031 -0.79,0.049 -1.151,0.049 -1.206,0 -2.093,-0.367 -2.784,-0.686 -0.692,-0.318 -1.255,-0.875 -1.616,-1.524 -0.361,-0.648 -0.441,-1.242 -0.471,-2.007 -0.019,-0.447 0.116,-0.906 0.22,-1.279 0.104,-0.374 0.251,-0.716 0.44,-1.022 0.19,-0.306 0.331,-0.539 0.692,-0.844 0.361,-0.306 0.575,-0.478 0.979,-0.673 0.404,-0.195 0.771,-0.288 1.31,-0.483 0.539,-0.19 1.524,-0.263 2.778,-0.441 0.38,-0.098 0.71,-0.073 0.979,-0.177 0.269,-0.104 0.508,-0.208 0.716,-0.306 0.208,-0.098 0.386,-0.214 0.539,-0.349 0.153,-0.135 0.294,-0.3 0.417,-0.49 0.128,-0.196 0.214,-0.263 0.269,-0.459 0.055,-0.196 0.024,-0.294 0.019,-0.496 -0.019,-0.49 -0.043,-0.637 -0.337,-0.985 -0.293,-0.349 -0.636,-0.833 -1.095,-0.967 -0.459,-0.134 -1.224,-0.361 -1.842,-0.361 -0.575,0 -1.046,0.074 -1.646,0.177 -0.6,0.104 -1.114,0.233 -1.548,0.374 -0.429,0.147 -0.918,0.361 -1.561,0.649 0.062,-0.441 0.012,-1.065 0.062,-1.928 1.046,-0.3 1.604,-0.453 2.38,-0.563 0.777,-0.11 1.928,-0.177 2.668,-0.177 0.795,0 1.292,0.171 1.989,0.336 0.704,0.166 1.579,0.777 1.904,1.261 0.336,0.496 0.648,0.851 0.82,1.328 0.165,0.478 0.404,1.42 0.428,1.958 0.025,0.686 0.062,0.239 0.037,1.842 -0.025,1.609 0.073,4.547 0.061,5.912 -0.006,0.826 0.098,0.912 0.318,2.038 -0.478,-0.019 -1.096,0.024 -1.402,0.024 -0.281,0 -0.709,-0.043 -1.236,-0.024 v -1.53 c 0.006,0.011 -0.227,0.268 -0.686,0.654 z m -19.975,-3.109 c 0.422,0.875 0.991,1.438 1.769,1.891 0.777,0.447 1.805,0.839 2.791,0.839 1.139,0 3.213,-0.478 4.915,-1.328 -0.085,0.539 -0.263,1.242 -0.336,2.075 -0.838,0.238 -2.222,0.771 -2.84,0.856 -0.618,0.086 -1.23,0.104 -1.848,0.104 -1.102,0 -2.197,-0.275 -3.084,-0.569 -0.888,-0.3 -1.775,-0.912 -2.424,-1.652 -0.655,-0.735 -1.297,-1.536 -1.603,-2.491 -0.312,-0.948 -0.386,-1.909 -0.429,-2.968 -0.055,-1.475 0.184,-2.025 0.637,-3.286 0.453,-1.261 1.401,-2.179 2.387,-2.901 0.979,-0.722 2.246,-1.083 3.794,-1.083 0.802,0 1.713,0.062 2.454,0.325 0.74,0.263 1.365,0.539 1.867,1.071 0.508,0.539 0.93,1.071 1.224,1.86 0.294,0.79 0.361,0.802 0.526,1.72 0.074,0.429 0.129,1.102 0.092,1.438 l -10.49,0.061 c -0.012,0.545 -0.049,0.814 -0.037,1.096 0.029,1.045 0.212,2.067 0.635,2.942 z m -11.12,-10.288 c 0.318,-0.067 1.102,-0.177 1.518,-0.189 l 0.006,2.644 c 0.3,-0.612 0.318,-0.575 0.563,-0.881 0.239,-0.312 0.624,-0.667 0.93,-0.869 0.312,-0.202 0.649,-0.49 1.046,-0.606 0.392,-0.117 0.753,-0.282 1.188,-0.3 0.343,-0.012 0.667,-0.061 1.548,0.031 0.887,0.092 1.353,0.294 1.548,0.349 0.019,0.355 -0.649,1.989 -0.649,1.989 0,0 -0.636,-0.055 -1.211,-0.293 -0.551,-0.166 -0.924,-0.166 -1.359,-0.166 -0.514,0 -1.12,0.116 -1.524,0.312 -0.404,0.19 -0.79,0.422 -1.102,0.814 -0.312,0.392 -0.52,0.796 -0.71,1.34 -0.159,0.441 -0.104,0.073 -0.165,0.765 -0.067,0.691 -0.006,7.326 0.049,8.819 l 0.263,0.857 c -0.483,-0.019 -1.169,0 -1.462,0 -0.27,0 -0.924,0.012 -1.469,0.03 0,-0.281 0.282,-0.673 0.288,-0.942 0.067,-4.633 -0.03,-8.213 -0.141,-11.206 l -0.049,-1.261 -0.44,-1.071 c 0.446,-0.05 1.052,-0.111 1.334,-0.166 z m -18.654,-6.224 c 0.533,0 1.322,0.086 2.436,0.062 1.114,-0.025 2.105,0 2.546,0.042 1.585,0.147 1.989,0.233 3.078,0.502 0.826,0.196 2.393,1.034 3.091,1.53 0.704,0.496 1.401,1.064 1.97,1.866 0.563,0.802 0.845,1.059 1.224,1.989 0.508,1.261 0.802,2.625 0.851,3.892 0.067,1.732 -0.116,3.06 -0.618,4.651 -0.496,1.591 -1.603,2.772 -2.668,3.837 -1.065,1.065 -2.234,1.708 -3.593,2.044 -1.365,0.336 -2.901,0.667 -4.596,0.667 l -3.991,-0.03 -3.8,-0.092 0.539,-1.42 -0.043,-17.528 c -0.012,-0.508 -0.251,-1.034 -0.501,-1.922 1.198,0.027 3.224,-0.09 4.075,-0.09 z m -17.797,168.64 v -128.02 c 0,-2.846 2.313,-5.159 5.159,-5.159 h 144.32 c 2.846,0 5.159,2.313 5.159,5.159 v 128.02 c 0,2.846 -2.313,5.159 -5.159,5.159 h -144.32 c -2.846,0.001 -5.159,-2.312 -5.159,-5.158 z"
             fill="#1a1a1a"
             id="path1219" />
          <ellipse
             cx="493.54999"
             cy="200.22"
             rx="25.204"
             ry="25.115"
             fill="#ffffff"
             id="ellipse1221" />
          <circle
             cx="493.51001"
             cy="200.25999"
             r="18.910999"
             fill="#1a1a1a"
             id="circle1223" />
          <ellipse
             cx="444.94"
             cy="246.53999"
             rx="25.204"
             ry="25.115"
             fill="#ffffff"
             id="ellipse1225" />
          <path
             d="m 445.3,265.55 c 10.422,0 18.904,-8.482 18.904,-18.905 0,-10.423 -8.482,-18.911 -18.904,-18.911 -10.429,0 -18.911,8.482 -18.911,18.911 0,10.429 8.482,18.905 18.911,18.905 z"
             fill="#1a1a1a"
             id="path1227" />
          <ellipse
             cx="492.88"
             cy="293.45001"
             rx="25.204"
             ry="25.115"
             fill="#ffffff"
             id="ellipse1229" />
          <path
             d="m 492.9,274.71 c -10.429,0 -18.911,8.482 -18.911,18.911 0,10.428 8.482,18.905 18.911,18.905 10.422,0 18.904,-8.482 18.904,-18.905 0,-10.423 -8.482,-18.911 -18.904,-18.911 z"
             fill="#1a1a1a"
             id="path1231" />
          <ellipse
             cx="541.22998"
             cy="247.25"
             rx="25.204"
             ry="25.115"
             fill="#ffffff"
             id="ellipse1233" />
          <circle
             cx="541.10999"
             cy="247.25"
             r="18.910999"
             fill="#1a1a1a"
             id="circle1235" />
          <path
             d="m 78.855,232.89 c 21.53,0 39.045,-17.515 39.045,-39.045 0,-21.53 -17.515,-39.045 -39.045,-39.045 -21.53,0 -39.046,17.515 -39.046,39.045 0,21.53 17.522,39.045 39.046,39.045 z"
             fill="#1a1a1a"
             id="path1237" />
          <polygon
             transform="translate(6.8088,8.7805)"
             points="124.82,332.13 155.94,332.13 155.94,310.78 124.82,310.78 124.82,279.67 103.48,279.67 103.48,310.78 72.364,310.78 72.364,332.13 103.48,332.13 103.48,363.25 124.82,363.25 "
             fill="#1a1a1a"
             id="polygon1239" />
          <polygon
             transform="translate(6.8088,8.7805)"
             points="269.44,444.41 318.12,444.41 293.78,403.06 "
             fill="#1a1a1a"
             id="polygon1241" />
        </g>
      </g>
      <g
         transform="translate(-1.12)"
         clip-path="url(#a)"
         fill="#1a1a1a"
         id="g1287">
        <g
           clip-path="none"
           id="g1285">
          <path
             d="m 243.78,111.34 c 0.838,0 1.818,-0.043 2.687,-0.135 0.869,-0.092 1.481,-0.397 2.167,-0.636 0.686,-0.239 1.377,-0.643 2.02,-1.261 0.637,-0.618 1.157,-1.316 1.548,-2.099 0.392,-0.784 0.673,-1.659 0.845,-2.632 0.171,-0.967 0.239,-1.952 0.196,-2.95 -0.042,-1.12 -0.343,-1.953 -0.648,-2.907 -0.306,-0.955 -0.881,-2.154 -1.671,-2.803 -0.869,-0.716 -1.493,-1.224 -2.387,-1.481 -0.894,-0.251 -2.154,-0.637 -3.599,-0.637 -0.881,0 -2.05,0.062 -2.62,0.128 -0.593,0.074 -1.138,0.147 -1.885,0.159 l 0.196,17.228 c 1.162,0.038 2.154,0.026 3.151,0.026 z"
             fill="#1a1a1a"
             id="path1247" />
          <path
             d="m 278.33,102.96 c -0.031,-0.624 0,-0.416 -0.073,-0.765 -0.074,-0.343 -0.166,-0.618 -0.349,-0.991 -0.184,-0.367 -0.502,-0.624 -0.795,-0.894 -0.294,-0.27 -0.643,-0.478 -1.053,-0.618 -0.404,-0.147 -1.01,-0.22 -1.475,-0.22 -0.501,0 -0.948,0.153 -1.395,0.312 -0.447,0.159 -0.838,0.374 -1.175,0.649 -0.336,0.275 -0.618,0.6 -0.844,0.967 -0.227,0.367 -0.392,0.729 -0.496,1.071 -0.042,0.135 -0.049,0.147 -0.042,0.153 0.006,0.006 0.03,-0.012 -0.025,0.336 z"
             fill="#1a1a1a"
             id="path1249" />
          <path
             d="m 291.54,104.42 c -0.3,0.27 -0.441,0.343 -0.587,0.453 -0.147,0.11 -0.361,0.171 -0.551,0.269 -0.19,0.092 -0.447,0.116 -0.68,0.202 -0.226,0.085 -1.022,0.11 -1.346,0.153 -0.691,0.086 -1.15,0.159 -1.426,0.27 -0.6,0.214 -0.955,0.275 -1.298,0.496 -0.342,0.22 -0.612,0.551 -0.838,0.808 -0.227,0.257 -0.312,0.49 -0.404,0.747 -0.104,0.318 -0.092,0.655 -0.073,0.998 0.018,0.538 0.434,1.132 0.734,1.523 0.293,0.398 0.3,0.257 0.679,0.526 0.379,0.263 0.918,0.404 1.518,0.404 0.374,0 0.759,-0.031 1.157,-0.092 0.306,-0.043 0.637,-0.239 1.096,-0.392 0.146,-0.049 0.489,-0.361 0.655,-0.422 0,0 0.422,-0.342 0.844,-1.077 0.422,-0.734 0.508,-1.952 0.508,-1.952 z"
             fill="#1a1a1a"
             id="path1251" />
          <path
             d="m 341.81,104.23 c -0.294,0.27 -0.44,0.349 -0.588,0.459 -0.146,0.11 -0.379,0.153 -0.569,0.251 -0.189,0.092 -0.428,0.135 -0.66,0.22 -0.227,0.086 -1.022,0.11 -1.347,0.153 -0.691,0.085 -1.15,0.159 -1.426,0.269 -0.6,0.22 -0.961,0.282 -1.304,0.496 -0.343,0.221 -0.618,0.551 -0.845,0.808 -0.227,0.257 -0.318,0.489 -0.404,0.747 -0.104,0.318 -0.085,0.655 -0.073,1.003 0.019,0.533 0.435,1.132 0.734,1.524 0.3,0.398 0.3,0.257 0.686,0.526 0.38,0.263 0.918,0.404 1.524,0.404 0.373,0 0.759,-0.03 1.162,-0.092 0.307,-0.042 0.643,-0.245 1.096,-0.392 0.146,-0.049 0.489,-0.361 0.655,-0.422 0,0 0.422,-0.343 0.844,-1.077 0.423,-0.729 0.509,-1.953 0.509,-1.953 z"
             fill="#1a1a1a"
             id="path1253" />
          <path
             d="m 119.14,577.38 c 12.815,-43.023 10.985,-43.023 17.393,-58.582 6.408,-15.562 19.223,-16.475 35.698,-20.135 82.80462,-10.45413 167.08976,-15.74174 247.149,-7e-5 16.476,3.66 29.291,4.578 35.698,20.135 6.407,15.564 4.578,15.564 17.394,58.582 12.814,43.018 69.554,-66.818 95.184,-228.83 25.631,-162.01 -11.848,-224.91 -22.222,-230.4 -10.373,-5.49 -79.382,-20.404 -79.382,-20.404 -18.269,-23.911 -37.871,-41.377 -57.039,-54.199 v 181.14 c 0,53.85 -43.807,97.657 -97.656,97.657 h -21.524 c -53.85,0 -97.657,-43.808 -97.657,-97.657 v -187.17 c -22.156,13.194 -45.296,32.319 -66.624,60.232 0,0 -69.009,14.908 -79.382,20.404 -10.374,5.49 -47.853,68.385 -22.222,230.4 25.624,162.01 82.375,271.85 95.19,228.83 z M 492.91,318.65 c -13.801,0 -25.031,-11.223 -25.031,-25.024 0,-13.801 11.23,-25.031 25.031,-25.031 13.8,0 25.024,11.224 25.024,25.031 10e-4,13.802 -11.224,25.024 -25.024,25.024 z m 48.207,-96.432 c 13.801,0 25.03,11.224 25.03,25.031 0,13.801 -11.229,25.025 -25.03,25.025 -13.801,0 -25.031,-11.224 -25.031,-25.025 0,-13.801 11.23,-25.031 25.031,-25.031 z m -47.601,-46.989 c 13.801,0 25.031,11.224 25.031,25.031 0,13.8 -11.23,25.024 -25.031,25.024 -13.801,0 -25.03,-11.224 -25.03,-25.024 0.005,-13.801 11.229,-25.031 25.03,-25.031 z m -48.207,46.383 c 13.801,0 25.024,11.224 25.024,25.031 0,13.801 -11.224,25.025 -25.024,25.025 -13.8,0 -25.031,-11.224 -25.031,-25.025 0.006,-13.807 11.236,-25.031 25.031,-25.031 z m -176.43,232.05 28.458,-48.342 c 1.408,-2.418 5.056,-2.441 6.5,-0.006 l 28.451,48.342 c 0.729,1.242 0.759,2.662 0.099,3.818 -0.655,1.15 -1.91,1.842 -3.33,1.842 h -56.928 c -1.426,0 -2.674,-0.691 -3.335,-1.842 -0.668,-1.156 -0.631,-2.582 0.085,-3.812 z m -136.01,-171.33 c 0.12593,-2.6961 5.10374,2.19925 4.89499,4.89016 v 26.23 L 163.995,313.452 c 2.693,-2e-5 4.89,2.191 4.89,4.891 v 23.801 c 0,2.697 -2.191,4.889 -4.89,4.889 l -26.23101,1.6e-4 v 26.23 c 0,2.693 -2.18999,4.89084 -4.89499,4.89084 h -23.801 c -2.692,0 -4.89,-2.191 -4.89,-4.891 v -26.23 h -26.23 c -2.693,0 -4.89,-2.191 -4.89,-4.889 v -23.801 c 0,-2.693 2.191,-4.891 4.89,-4.891 h 26.23 v -26.23 c 0,-2.699 2.191,-4.89 4.89,-4.89 7.9337,0 15.867,169.86 23.801,0 z M 78.86,148.692 c 24.902,0 45.166,20.263 45.166,45.166 0,24.903 -20.263,45.166 -45.166,45.166 -24.903,0 -45.166,-20.263 -45.166,-45.166 0,-24.903 20.264,-45.166 45.166,-45.166 z"
             fill="#f2f2f2"
             stroke="#000000"
             stroke-width="4.1"
             id="path1255"
             sodipodi:nodetypes="ccccccccccssssccccccssscssssssssscsssscscccccssccsscsssscsssscsssscssssssss"
             style="stroke-width:3.2266895;stroke-miterlimit:4;stroke-dasharray:none" />
          <path
             d="m 371.79,133.6 h -142.4 v 126.1 h 142.4 z m -8.256,117.31 c 0,0.985 -0.796,1.781 -1.781,1.781 h -122.33 c -0.979,0 -1.781,-0.796 -1.781,-1.781 V 142.4 c 0,-0.985 0.795,-1.781 1.781,-1.781 h 122.33 c 0.985,0 1.781,0.795 1.781,1.781 z"
             fill="#1a1a1a"
             id="path1257" />
          <path
             d="m 126.54,95.719 a 205.64,206.43 0 0 0 -36.058,116.76 205.64,206.43 0 0 0 205.64,206.43 205.64,206.43 0 0 0 205.64,-206.43 205.64,206.43 0 0 0 -36.06,-116.76 z"
             clip-path="none"
             fill="none"
             stroke="#000000"
             stroke-width="7.4"
             id="path1259" />
          <path
             d="m 289.82,316.22 h 21.523 c 50.558,0 91.537,-40.985 91.537,-91.536 V 39.544 C 357.862,11.57 316.302,8.779 301.5,8.779 c -3.69,0 -5.71,0.171 -5.71,0.171 0,0 -2.026,-0.171 -5.71,-0.171 -13.733,0 -50.551,2.405 -91.8,25.153 v 190.75 c 0,50.552 40.986,91.537 91.537,91.537 z m 66.506,-218.18 1.806,-0.061 c 0.018,-0.379 -0.031,-1.567 -0.031,-2.497 0,-0.453 -0.227,-0.869 -0.41,-1.096 0.82,-0.184 2.069,-0.563 2.638,-0.728 -0.006,1.469 0.099,3.556 0.117,4.321 l 3.684,0.055 c -0.019,0.63 0.049,0.851 0.062,1.419 l -1.016,-0.122 h -2.705 l -0.05,8.103 -0.024,0.679 c 0.024,0.723 0.123,1.641 0.282,2.001 0.159,0.361 0.385,0.496 0.679,0.655 0.3,0.159 0.637,0.196 0.949,0.196 0.22,0 0.551,-0.006 0.808,-0.006 0.257,0 0.435,-0.019 1.071,-0.202 -0.08,0.478 -0.209,0.741 -0.294,1.536 -0.588,0.166 -0.857,0.208 -1.206,0.245 -0.349,0.043 -0.679,-0.067 -0.997,-0.067 -0.777,0 -1.414,-0.11 -1.903,-0.337 -0.49,-0.22 -0.869,-0.575 -1.139,-1.071 -0.275,-0.49 -0.465,-1.708 -0.496,-2.552 -0.006,-0.11 -0.006,-0.3 -0.012,-0.575 0,-0.275 -0.019,-0.551 0,-2.197 l -0.056,-6.402 h -1.774 c 0.023,-0.397 0.023,-0.519 0.017,-1.297 z m -2.932,9.309 c -0.135,-0.184 -0.643,-0.618 -0.899,-0.838 -0.257,-0.227 -0.937,-0.557 -1.824,-0.924 -0.899,-0.379 -2.044,-0.74 -2.46,-1.089 -0.416,-0.355 -1.175,-0.759 -1.475,-1.132 -0.3,-0.373 -0.526,-0.74 -0.68,-1.12 -0.153,-0.374 -0.043,-0.943 -0.055,-1.328 -0.024,-0.618 0.36,-1.254 0.728,-1.836 0.361,-0.575 0.992,-0.9 1.714,-1.188 0.723,-0.281 1.579,-0.428 2.564,-0.428 1.102,0 2.166,0.214 3.501,0.471 0.073,0.753 -0.099,1.273 -0.007,1.897 -0.961,-0.636 -2.025,-0.955 -3.072,-0.955 -0.568,0 -1.145,0.086 -1.621,0.233 -0.478,0.146 -1.01,0.624 -1.218,0.918 -0.215,0.3 -0.331,0.581 -0.318,0.936 0.006,0.233 0.079,0.618 0.165,0.833 0.086,0.214 0.648,0.808 0.942,0.937 0.404,0.177 0.245,0.153 0.612,0.232 0.416,0.092 1.444,0.618 2.423,1.083 1.017,0.483 1.946,1.089 2.265,1.408 0.324,0.318 0.637,0.759 0.931,1.438 0.165,0.38 0.257,0.826 0.257,1.145 0,0.551 -0.146,0.625 -0.129,0.967 0.031,0.673 -0.141,0.924 -0.514,1.5 -0.373,0.576 -1.071,1.126 -1.849,1.444 -0.777,0.318 -1.604,0.582 -2.576,0.582 -0.416,0 -1.377,0.049 -1.934,-0.006 -0.558,-0.049 -1.035,-0.239 -1.427,-0.312 -0.392,-0.073 -0.643,-0.092 -1.224,-0.232 L 346.012,111 c -0.006,-0.116 -0.263,-0.771 -0.373,-1.396 1.646,0.906 3.385,1.542 4.633,1.542 0.654,0 1.304,-0.19 1.75,-0.361 0.447,-0.171 0.882,-0.489 1.096,-0.826 0.208,-0.336 0.44,-0.661 0.521,-1.016 0.049,-0.196 0.11,-0.459 0.061,-0.637 -0.067,-0.211 -0.171,-0.774 -0.306,-0.957 z M 267.256,52.067 c 0.324,-2.111 0.955,-4.223 1.364,-5.673 0.973,-3.47 3.581,-8.672 4.841,-10.429 1.26,-1.757 1.762,-2.295 3.592,-4.339 1.83,-2.044 0.783,-0.637 4.174,-3.421 3.384,-2.785 7.938,-4.78 9.933,-5.587 1.995,-0.814 5.037,-2.301 10.521,-2.668 5.484,-0.367 8.794,0.312 11.854,0.667 3.586,0.417 10.435,2.754 10.435,2.754 0,0 3.996,1.805 7.093,3.837 1.671,1.004 3.158,2.987 4.676,4.927 2.087,2.668 4.131,6.028 4.425,6.505 0.508,0.814 2.778,4.908 3.256,6.426 0.478,1.518 1.542,7.117 1.628,7.729 0.086,0.612 0.937,4.051 -2.001,4.253 -3.22,0.22 -3.55,-3.066 -3.758,-4.002 -0.214,-0.942 -2.387,-8.158 -3.14,-9.517 -0.753,-1.359 -5.264,-7.962 -7.265,-10.135 -2.001,-2.173 -5.894,-4.951 -10.141,-6.255 -4.063,-1.254 -10.961,-2.479 -15.6,-2.276 -4.076,0.177 -5.416,0.459 -7.191,1.022 -3.629,1.157 -6.812,2.993 -9.015,4.382 -2.203,1.383 -5.899,4.357 -7.515,6.383 -1.916,2.405 -5.166,8.354 -5.888,11.64 -1.334,6.114 -0.502,12.014 -0.502,12.014 0,0 1.506,11.579 9.015,17.521 2.938,2.332 5.336,3.562 12.02,5.379 0.937,0.257 3.978,0.471 7.778,0.496 3.801,0.019 4.957,-0.11 7.124,-0.869 2.16,-0.759 2.852,-0.894 4.504,-1.75 1.659,-0.857 4.505,-1.799 7.559,-4.811 1.707,-1.689 3.837,-5.006 4.719,-8.329 0.514,-1.946 0.189,-2.552 0.122,-5.104 -0.019,-0.783 -0.092,-1.493 -0.153,-2.167 -0.146,-1.524 -0.397,-2.938 -0.93,-5.178 -0.771,-3.231 -0.539,-2.387 -1.292,-4.449 -0.52,-1.42 -1.107,-2.577 -1.523,-3.25 -0.416,-0.673 -0.814,-1.12 -1.273,-1.818 -3.17,-4.841 -9.431,-8.011 -15.232,-8.201 -1.934,-0.067 -4.314,0.135 -6.714,0.894 -1.628,0.514 -3.268,1.346 -4.786,2.271 -0.63,0.379 -1.23,0.673 -1.812,1.132 -0.587,0.471 -0.942,0.606 -1.462,1.157 -0.471,0.501 -1.114,1.628 -1.5,2.136 -4.725,6.065 -3.629,11.689 -3.629,11.689 0,0 -0.44,13.207 13.52,14.646 3.525,0.171 9.89,-2.087 12.301,-4.67 1.481,-1.591 1.585,-4.437 1.536,-6.964 -0.036,-2.001 -1.016,-5.551 -2.552,-6.922 -3.342,-2.98 -6.12,-3.072 -7.576,-3.158 -1.94,-0.123 -4.7,0.477 -5.79,4.725 -0.38,1.475 0.777,4.547 2.962,4.982 1.879,0.379 3.88,0 4.762,0.128 0.783,0.11 1.971,-0.153 1.971,2.313 -0.221,4.321 -9.633,1.903 -9.737,1.812 -0.722,-0.624 -4.969,-3.042 -5.134,-7.631 -0.178,-4.847 2.099,-8.507 6.236,-10.576 1.041,-0.52 2.956,-0.783 4.254,-0.838 3.524,0.171 6.021,0.63 8.604,2.02 0.483,0.263 0.979,0.477 1.512,0.838 0.165,0.11 0.802,0.557 0.899,0.618 3.023,2.601 4.284,6.035 4.884,9.499 0.238,1.377 0.232,2.662 0.275,3.678 0.08,1.738 -0.122,3.843 -1.01,5.82 -0.942,2.112 -2.638,4.082 -5,5.318 -2.295,1.2 -5.643,3.103 -10.264,3.672 -2.784,0.342 -6.021,0.287 -9.773,-0.924 C 281.804,72 280.801,59.925 280.801,59.925 c 0,0 -2.173,-8.898 3.69,-16.916 0.618,-0.844 1.322,-1.928 2.129,-2.735 2.644,-2.644 5.012,-4.015 7.185,-5.166 3.99,-2.111 6.916,-2.595 7.779,-2.595 0.618,0 2.093,-0.085 3.824,0.043 1.983,0.141 4.309,0.526 6.065,0.955 1.928,0.471 3.537,0.851 4.792,1.383 1.188,0.508 2.038,1.175 2.968,1.744 1.922,1.169 4.982,3.488 6.017,5.055 1.07,1.628 2.589,3.715 3.77,7.387 0.691,2.154 1.273,5.232 1.983,8.703 1.064,5.196 0.679,10.447 -0.502,13.764 -0.129,0.355 -1.451,4.566 -5.637,8.513 -4.187,3.954 -9.455,6.193 -11.016,6.817 -1.567,0.625 -3.795,2.521 -12.332,2.381 -7.387,-0.123 -12.987,-2.081 -14.651,-2.754 -1.665,-0.673 -6.059,-2.068 -10.833,-7.319 -4.773,-5.257 -5.814,-8.648 -6.573,-10.949 -0.759,-2.301 -2.191,-8.195 -2.191,-8.195 0,0 0.171,-0.024 -0.171,-3.066 -0.129,-1.359 -0.111,-3.133 0.159,-4.908 z m 73.825,59.388 c -0.465,0.386 -0.937,0.673 -1.236,0.857 -0.637,0.134 -1.021,0.281 -1.426,0.312 -0.404,0.037 -0.783,0.049 -1.15,0.049 -1.212,0 -2.1,-0.367 -2.791,-0.686 -0.691,-0.318 -1.261,-0.875 -1.622,-1.523 -0.36,-0.649 -0.44,-1.243 -0.471,-2.008 -0.019,-0.446 0.11,-0.905 0.22,-1.279 0.104,-0.379 0.251,-0.716 0.447,-1.022 0.189,-0.306 0.33,-0.539 0.691,-0.851 0.361,-0.306 0.575,-0.478 0.979,-0.673 0.403,-0.202 0.777,-0.288 1.315,-0.483 0.539,-0.196 1.524,-0.263 2.785,-0.441 0.385,-0.098 0.71,-0.073 0.979,-0.177 0.27,-0.104 0.509,-0.208 0.717,-0.306 0.208,-0.098 0.385,-0.214 0.538,-0.349 0.153,-0.135 0.294,-0.3 0.416,-0.49 0.129,-0.196 0.215,-0.141 0.27,-0.336 0.055,-0.196 0.024,-0.294 0.019,-0.496 -0.019,-0.489 -0.043,-0.765 -0.337,-1.107 -0.294,-0.342 -0.637,-0.833 -1.102,-0.967 -0.459,-0.141 -1.23,-0.361 -1.849,-0.361 -0.575,0 -1.046,0.073 -1.646,0.178 -0.6,0.104 -1.114,0.232 -1.549,0.373 -0.429,0.147 -0.918,0.361 -1.561,0.649 0.062,-0.435 0.013,-1.065 0.062,-1.922 1.053,-0.306 1.609,-0.453 2.387,-0.563 0.778,-0.11 1.928,-0.178 2.674,-0.178 0.796,0 1.292,0.171 1.995,0.337 0.698,0.165 1.586,0.777 1.91,1.261 0.336,0.496 0.648,0.856 0.819,1.334 0.172,0.478 0.404,1.42 0.429,1.958 0.024,0.679 0.062,0.239 0.037,1.842 -0.024,1.609 0.073,4.547 0.061,5.912 -0.006,0.833 0.099,0.912 0.318,2.038 -0.483,-0.019 -1.102,0.024 -1.401,0.024 -0.287,0 -0.71,-0.043 -1.236,-0.024 v -1.53 c 0.007,0.006 -0.226,0.263 -0.691,0.648 z m -19.155,-3.378 c 0.336,0.838 0.899,1.659 1.683,2.118 0.784,0.459 1.701,0.906 2.662,0.906 0.931,0 2.889,-0.098 5.013,-1.224 -0.013,0.159 -0.098,0.514 -0.153,0.942 -0.055,0.435 -0.178,0.796 -0.214,1.212 -0.637,0.166 -1.31,0.349 -1.903,0.41 -0.588,0.061 -2.197,0.165 -2.644,0.165 -0.949,0 -2.051,-0.196 -2.864,-0.483 -0.814,-0.288 -1.83,-0.832 -2.448,-1.487 -0.624,-0.655 -1.328,-1.31 -1.646,-2.283 -0.318,-0.973 -0.545,-1.909 -0.581,-2.993 -0.056,-1.457 0.177,-1.946 0.587,-3.25 0.404,-1.31 1.438,-2.252 2.394,-2.993 0.954,-0.741 3.164,-1.371 4.859,-1.371 1.248,0 2.711,0.208 3.91,0.575 0.086,0.851 0.116,1.31 0.178,1.861 -0.845,-0.3 -1.616,-0.649 -2.148,-0.753 -0.532,-0.104 -1.199,-0.202 -1.652,-0.202 -0.771,0 -2.411,0.343 -3.011,0.655 -0.6,0.318 -1.102,0.765 -1.512,1.353 -0.41,0.581 -0.734,1.395 -0.894,2.197 -0.16,0.802 -0.221,0.869 -0.189,1.702 0.04,1.125 0.23,2.104 0.573,2.943 z m -6.898,-5.263 c -0.019,-0.575 -0.189,-1.224 -0.306,-1.548 -0.116,-0.324 -0.704,-0.924 -0.949,-1.187 -0.244,-0.263 -0.611,-0.312 -0.961,-0.447 -0.349,-0.135 -0.911,-0.166 -1.353,-0.166 -0.354,0 -0.802,0.062 -1.095,0.147 -0.275,0.086 -0.551,0.147 -0.809,0.331 -0.281,0.189 -0.532,0.3 -0.752,0.575 -0.221,0.27 -0.398,0.575 -0.545,0.912 -0.153,0.349 -0.159,0.869 -0.189,1.432 -0.037,0.606 0.03,1.383 0.012,2.252 -0.024,0.918 -0.024,4.56 0,6.065 l 0.422,1.346 c -0.514,-0.018 -1.272,-0.03 -1.529,-0.03 -0.239,0 -0.894,0.006 -1.457,0.03 0.043,-1.224 0.19,-0.11 0.196,-1.407 l 0.024,-5.594 c 0,-1.108 -0.013,-2.057 -0.043,-2.833 -0.019,-0.508 -0.079,-0.686 -0.184,-1.041 -0.098,-0.355 -0.275,-0.802 -0.532,-1.096 -0.251,-0.293 -0.808,-0.765 -1.15,-0.918 -0.35,-0.153 -0.839,-0.269 -1.268,-0.269 -0.452,0 -0.746,0.049 -1.138,0.22 -0.392,0.171 -0.734,0.251 -1.059,0.594 -0.318,0.336 -0.588,0.373 -0.796,0.869 -0.208,0.489 -0.367,0.385 -0.459,1.181 -0.098,0.795 -0.141,3.69 -0.135,5.667 0.006,1.169 0.019,2.228 0.037,3.183 0.012,0.654 0.281,0.887 0.306,1.444 -0.569,-0.018 -1.212,-0.03 -1.42,-0.03 -0.232,0 -1.01,0.006 -1.585,0.03 l 0.318,-1.028 c 0.012,-0.453 0.019,-1.922 0.024,-2.901 l -0.147,-8.292 c -0.018,-0.741 -0.416,-1.628 -0.435,-2.014 0.41,0.012 1.335,-0.135 1.763,-0.294 0.343,-0.128 0.729,-0.128 1.09,-0.141 l -0.006,1.928 c 0.275,-0.557 0.776,-0.612 1.01,-0.942 0.232,-0.324 0.471,-0.312 0.856,-0.587 0.385,-0.275 0.624,-0.288 1.139,-0.361 0.63,-0.092 1.027,-0.123 1.572,-0.123 0.38,0 0.753,0.049 1.126,0.147 0.374,0.098 0.717,0.239 1.041,0.417 0.318,0.177 0.594,0.379 0.826,0.605 0.232,0.227 0.483,0.349 0.691,0.741 0.073,0.128 0.637,-0.624 1.426,-1.083 0.79,-0.453 1.72,-0.802 2.711,-0.802 0.637,0 2.057,0.085 2.662,0.312 0.606,0.227 1.463,0.557 1.836,0.979 0.367,0.429 0.478,0.618 0.809,0.967 0.41,0.435 0.538,1.53 0.562,1.995 0.019,0.477 0.067,1.199 0.067,2.16 l 0.006,6.818 c 0,0.655 0.19,0.734 0.312,1.481 -0.471,-0.019 -1.083,-0.031 -1.353,-0.031 -0.281,0 -0.955,0.006 -1.506,0.031 0.367,-1.169 0.294,-0.771 0.325,-1.487 l 0.024,-6.181 c -0.002,-0.87 -0.007,-1.384 -0.032,-2.026 z m -24.217,8.831 c -0.459,0.386 -0.937,0.667 -1.23,0.857 -0.637,0.135 -1.016,0.282 -1.42,0.312 -0.404,0.031 -0.79,0.049 -1.151,0.049 -1.206,0 -2.093,-0.367 -2.784,-0.686 -0.692,-0.318 -1.255,-0.875 -1.616,-1.524 -0.361,-0.648 -0.441,-1.242 -0.471,-2.007 -0.019,-0.447 0.116,-0.906 0.22,-1.279 0.104,-0.374 0.251,-0.716 0.44,-1.022 0.19,-0.306 0.331,-0.539 0.692,-0.844 0.361,-0.306 0.575,-0.478 0.979,-0.673 0.404,-0.195 0.771,-0.288 1.31,-0.483 0.539,-0.19 1.524,-0.263 2.778,-0.441 0.38,-0.098 0.71,-0.073 0.979,-0.177 0.269,-0.104 0.508,-0.208 0.716,-0.306 0.208,-0.098 0.386,-0.214 0.539,-0.349 0.153,-0.135 0.294,-0.3 0.417,-0.49 0.128,-0.196 0.214,-0.263 0.269,-0.459 0.055,-0.196 0.024,-0.294 0.019,-0.496 -0.019,-0.49 -0.043,-0.637 -0.337,-0.985 -0.293,-0.349 -0.636,-0.833 -1.095,-0.967 -0.459,-0.134 -1.224,-0.361 -1.842,-0.361 -0.575,0 -1.046,0.074 -1.646,0.177 -0.6,0.104 -1.114,0.233 -1.548,0.374 -0.429,0.147 -0.918,0.361 -1.561,0.649 0.062,-0.441 0.012,-1.065 0.062,-1.928 1.046,-0.3 1.604,-0.453 2.38,-0.563 0.777,-0.11 1.928,-0.177 2.668,-0.177 0.795,0 1.292,0.171 1.989,0.336 0.704,0.166 1.579,0.777 1.904,1.261 0.336,0.496 0.648,0.851 0.82,1.328 0.165,0.478 0.404,1.42 0.428,1.958 0.025,0.686 0.062,0.239 0.037,1.842 -0.025,1.609 0.073,4.547 0.061,5.912 -0.006,0.826 0.098,0.912 0.318,2.038 -0.478,-0.019 -1.096,0.024 -1.402,0.024 -0.281,0 -0.709,-0.043 -1.236,-0.024 v -1.53 c 0.006,0.011 -0.227,0.268 -0.686,0.654 z m -19.975,-3.109 c 0.422,0.875 0.991,1.438 1.769,1.891 0.777,0.447 1.805,0.839 2.791,0.839 1.139,0 3.213,-0.478 4.915,-1.328 -0.085,0.539 -0.263,1.242 -0.336,2.075 -0.838,0.238 -2.222,0.771 -2.84,0.856 -0.618,0.086 -1.23,0.104 -1.848,0.104 -1.102,0 -2.197,-0.275 -3.084,-0.569 -0.888,-0.3 -1.775,-0.912 -2.424,-1.652 -0.655,-0.735 -1.297,-1.536 -1.603,-2.491 -0.312,-0.948 -0.386,-1.909 -0.429,-2.968 -0.055,-1.475 0.184,-2.025 0.637,-3.286 0.453,-1.261 1.401,-2.179 2.387,-2.901 0.979,-0.722 2.246,-1.083 3.794,-1.083 0.802,0 1.713,0.062 2.454,0.325 0.74,0.263 1.365,0.539 1.867,1.071 0.508,0.539 0.93,1.071 1.224,1.86 0.294,0.79 0.361,0.802 0.526,1.72 0.074,0.429 0.129,1.102 0.092,1.438 l -10.49,0.061 c -0.012,0.545 -0.049,0.814 -0.037,1.096 0.029,1.045 0.212,2.067 0.635,2.942 z m -11.12,-10.288 c 0.318,-0.067 1.102,-0.177 1.518,-0.189 l 0.006,2.644 c 0.3,-0.612 0.318,-0.575 0.563,-0.881 0.239,-0.312 0.624,-0.667 0.93,-0.869 0.312,-0.202 0.649,-0.49 1.046,-0.606 0.392,-0.117 0.753,-0.282 1.188,-0.3 0.343,-0.012 0.667,-0.061 1.548,0.031 0.887,0.092 1.353,0.294 1.548,0.349 0.019,0.355 -0.649,1.989 -0.649,1.989 0,0 -0.636,-0.055 -1.211,-0.293 -0.551,-0.166 -0.924,-0.166 -1.359,-0.166 -0.514,0 -1.12,0.116 -1.524,0.312 -0.404,0.19 -0.79,0.422 -1.102,0.814 -0.312,0.392 -0.52,0.796 -0.71,1.34 -0.159,0.441 -0.104,0.073 -0.165,0.765 -0.067,0.691 -0.006,7.326 0.049,8.819 l 0.263,0.857 c -0.483,-0.019 -1.169,0 -1.462,0 -0.27,0 -0.924,0.012 -1.469,0.03 0,-0.281 0.282,-0.673 0.288,-0.942 0.067,-4.633 -0.03,-8.213 -0.141,-11.206 l -0.049,-1.261 -0.44,-1.071 c 0.446,-0.05 1.052,-0.111 1.334,-0.166 z m -18.654,-6.224 c 0.533,0 1.322,0.086 2.436,0.062 1.114,-0.025 2.105,0 2.546,0.042 1.585,0.147 1.989,0.233 3.078,0.502 0.826,0.196 2.393,1.034 3.091,1.53 0.704,0.496 1.401,1.064 1.97,1.866 0.563,0.802 0.845,1.059 1.224,1.989 0.508,1.261 0.802,2.625 0.851,3.892 0.067,1.732 -0.116,3.06 -0.618,4.651 -0.496,1.591 -1.603,2.772 -2.668,3.837 -1.065,1.065 -2.234,1.708 -3.593,2.044 -1.365,0.336 -2.901,0.667 -4.596,0.667 l -3.991,-0.03 -3.8,-0.092 0.539,-1.42 -0.043,-17.528 c -0.012,-0.508 -0.251,-1.034 -0.501,-1.922 1.198,0.027 3.224,-0.09 4.075,-0.09 z m -17.797,168.64 v -128.02 c 0,-2.846 2.313,-5.159 5.159,-5.159 h 144.32 c 2.846,0 5.159,2.313 5.159,5.159 v 128.02 c 0,2.846 -2.313,5.159 -5.159,5.159 h -144.32 c -2.846,0.001 -5.159,-2.312 -5.159,-5.158 z"
             fill="#1a1a1a"
             id="path1261" />
          <ellipse
             cx="444.94"
             cy="246.53999"
             rx="25.204"
             ry="25.115"
             fill="#ffffff"
             id="ellipse1263" />
          <path
             d="m 445.3,265.55 c 10.422,0 18.904,-8.482 18.904,-18.905 0,-10.423 -8.482,-18.911 -18.904,-18.911 -10.429,0 -18.911,8.482 -18.911,18.911 0,10.429 8.482,18.905 18.911,18.905 z"
             fill="#1a1a1a"
             id="path1265" />
          <ellipse
             cx="492.88"
             cy="293.45001"
             rx="25.204"
             ry="25.115"
             fill="#ffffff"
             id="ellipse1267" />
          <path
             d="m 492.9,274.71 c -10.429,0 -18.911,8.482 -18.911,18.911 0,10.428 8.482,18.905 18.911,18.905 10.422,0 18.904,-8.482 18.904,-18.905 0,-10.423 -8.482,-18.911 -18.904,-18.911 z"
             fill="#1a1a1a"
             id="path1269" />
          <ellipse
             cx="541.22998"
             cy="247.25"
             rx="25.204"
             ry="25.115"
             fill="#ffffff"
             id="ellipse1271" />
          <circle
             cx="541.10999"
             cy="247.25"
             r="18.910999"
             fill="#1a1a1a"
             id="circle1273" />
          <path
             d="m 78.855,232.89 c 21.53,0 39.045,-17.515 39.045,-39.045 0,-21.53 -17.515,-39.045 -39.045,-39.045 -21.53,0 -39.046,17.515 -39.046,39.045 0,21.53 17.522,39.045 39.046,39.045 z"
             fill="#1a1a1a"
             id="path1275" />
          <polygon
             transform="translate(6.8088,8.7805)"
             points="124.82,279.67 103.48,279.67 103.48,310.78 72.364,310.78 72.364,332.13 103.48,332.13 103.48,363.25 124.82,363.25 124.82,332.13 155.94,332.13 155.94,310.78 124.82,310.78 "
             fill="#1a1a1a"
             id="polygon1277" />
          <polygon
             transform="translate(6.8088,8.7805)"
             points="318.12,444.41 293.78,403.06 269.44,444.41 "
             fill="#1a1a1a"
             id="polygon1279" />
          <polygon
             transform="translate(6.8088,8.7805)"
             points="124.82,332.13 155.94,332.13 155.94,310.78 124.82,310.78 124.82,279.67 103.48,279.67 103.48,310.78 72.364,310.78 72.364,332.13 103.48,332.13 103.48,363.25 124.82,363.25 "
             fill="#1a1a1a"
             id="polygon1281" />
          <ellipse
             cx="409.17999"
             cy="244.08"
             rx="25.204"
             ry="25.115"
             fill="#ffffff"
             id="ellipse1283" />
        </g>
      </g>
      <path
         d="m 444.18768,415.90334 c 23.1026,0 41.89661,-18.79488 41.89661,-41.89747 0,-23.10259 -18.79401,-41.89747 -41.89661,-41.89747 -23.10259,0 -41.89833,18.79488 -41.89833,41.89747 0,23.10259 18.80177,41.89747 41.89833,41.89747 z"
         id="path1289"
         style="stroke-width:0.861716" />
      <path
         d="m 444.18768,412.5685 c 21.38003,0 38.77289,-17.29721 38.77289,-38.56004 0,-21.26284 -17.39286,-38.56005 -38.77289,-38.56005 -21.38002,0 -38.77461,17.29721 -38.77461,38.56005 0,21.26283 17.39976,38.56004 38.77461,38.56004 z"
         fill="#ececec"
         id="path1291"
         style="stroke-width:0.861716" />
      <path
         d="m 444.18768,407.64811 c 18.55274,0 33.64569,-15.09295 33.64569,-33.64569 0,-18.55273 -15.09295,-33.64568 -33.64569,-33.64568 -18.55273,0 -33.64654,15.09295 -33.64654,33.64568 0,18.55274 15.09898,33.64569 33.64654,33.64569 z"
         fill="#1a1a1a"
         id="path1293"
         style="fill:#333333;stroke:#000000;stroke-width:2.90693;stroke-miterlimit:4;stroke-dasharray:none"
         data-button="button-11" />
      <path
         d="m 78.499,243.34 c 26.81,0 48.62,-21.811 48.62,-48.621 0,-26.81 -21.81,-48.621 -48.62,-48.621 -26.81,0 -48.622,21.811 -48.622,48.621 0,26.81 21.819,48.621 48.622,48.621 z"
         id="path1295" />
      <path
         d="m 78.499,239.47 c 24.811,0 44.995,-20.073 44.995,-44.748 0,-24.675 -20.184,-44.748 -44.995,-44.748 -24.811,0 -44.997,20.073 -44.997,44.748 0,24.675 20.192,44.748 44.997,44.748 z"
         fill="#ececec"
         id="path1297" />
      <path
         d="m 78.499,233.76 c 21.53,0 39.045,-17.515 39.045,-39.045 0,-21.53 -17.515,-39.045 -39.045,-39.045 -21.53,0 -39.046,17.515 -39.046,39.045 0,21.53 17.522,39.045 39.046,39.045 z"
         fill="#1a1a1a"
         id="path1299"
         style="fill:#333333;stroke:#000000;stroke-width:2.90693;stroke-miterlimit:4;stroke-dasharray:none"
         data-button="button-10" />
      <path
         d="m 491.77891,320.3317 c 14.99617,0 27.19559,-12.19998 27.19559,-27.19615 0,-14.99617 -12.19942,-27.19616 -27.19559,-27.19616 -14.99618,0 -27.19672,12.19999 -27.19672,27.19616 0,14.99617 12.20446,27.19615 27.19672,27.19615 z"
         id="path1301"
         style="stroke-width:1.00001" />
      <path
         d="m 491.77891,317.31681 c 13.40817,0 24.31662,-10.84804 24.31662,-24.18294 0,-13.3349 -10.90789,-24.18294 -24.31662,-24.18294 -13.40874,0 -24.31719,10.84804 -24.31719,24.18294 0,13.3349 10.91236,24.18294 24.31719,24.18294 z"
         fill="#ececec"
         id="path1303"
         style="stroke-width:1.00001" />
      <path
         d="m 491.77891,314.23479 c 11.63504,0 21.10092,-9.46532 21.10092,-21.10092 0,-11.63504 -9.46533,-21.10092 -21.10092,-21.10092 -11.63504,0 -21.10148,9.46532 -21.10148,21.10092 0,11.63504 9.46923,21.10092 21.10148,21.10092 z"
         fill="#1a1a1a"
         id="path1305"
         style="fill:#a02c2c;stroke-width:1.00001"
         data-button="button-0" />
      <path
         d="m 539.96961,273.9169 c 14.73799,0 26.72738,-11.98995 26.72738,-26.72794 0,-14.73799 -11.98939,-26.72794 -26.72738,-26.72794 -14.738,0 -26.72849,11.98995 -26.72849,26.72794 0,14.73799 11.99434,26.72794 26.72849,26.72794 z"
         id="path1309"
         style="stroke-width:0.999996" />
      <path
         d="m 539.96961,270.95391 c 13.17734,0 23.89797,-10.66127 23.89797,-23.7666 0,-13.10532 -10.72008,-23.76659 -23.89797,-23.76659 -13.17789,0 -23.89853,10.66127 -23.89853,23.76659 0,13.10533 10.72449,23.7666 23.89853,23.7666 z"
         fill="#ececec"
         id="path1311"
         style="stroke-width:0.999996" />
      <path
         d="m 539.96961,267.92495 c 11.43472,0 20.73763,-9.30236 20.73763,-20.73764 0,-11.43473 -9.30236,-20.73764 -20.73763,-20.73764 -11.43473,0 -20.73819,9.30237 -20.73819,20.73764 0,11.43473 9.30621,20.73764 20.73819,20.73764 z"
         fill="#1a1a1a"
         id="path1313"
         style="fill:#0066ff;stroke-width:0.999996"
         data-button="button-1" />
      <path
         d="m 493.22435,227.3206 c 14.73799,0 26.72738,-11.98995 26.72738,-26.72794 0,-14.73799 -11.98939,-26.72794 -26.72738,-26.72794 -14.738,0 -26.72849,11.98995 -26.72849,26.72794 0,14.73799 11.99434,26.72794 26.72849,26.72794 z"
         id="path1317"
         style="stroke-width:0.999996" />
      <path
         d="m 493.22435,224.35761 c 13.17734,0 23.89797,-10.66127 23.89797,-23.7666 0,-13.10532 -10.72008,-23.76659 -23.89797,-23.76659 -13.17789,0 -23.89853,10.66127 -23.89853,23.76659 0,13.10533 10.72449,23.7666 23.89853,23.7666 z"
         fill="#ececec"
         id="path1319"
         style="stroke-width:0.999996" />
      <path
         d="m 493.22435,221.32865 c 11.43472,0 20.73763,-9.30236 20.73763,-20.73764 0,-11.43472 -9.30236,-20.73764 -20.73763,-20.73764 -11.43473,0 -20.73819,9.30237 -20.73819,20.73764 0,11.43473 9.30621,20.73764 20.73819,20.73764 z"
         fill="#1a1a1a"
         id="path1321"
         style="fill:#1ccb1c;stroke-width:0.999996;fill-opacity:1"
         data-button="button-3" />
      <path
         d="m 444.79435,268.3306 c 14.73799,0 26.72738,-11.98995 26.72738,-26.72794 0,-14.73799 -11.98939,-26.72794 -26.72738,-26.72794 -14.738,0 -26.72849,11.98995 -26.72849,26.72794 0,14.73799 11.99434,26.72794 26.72849,26.72794 z"
         id="path1325"
         style="stroke-width:0.999996" />
      <path
         d="m 444.79435,265.36761 c 13.17734,0 23.89797,-10.66127 23.89797,-23.7666 0,-13.10532 -10.72008,-23.76659 -23.89797,-23.76659 -13.17789,0 -23.89853,10.66127 -23.89853,23.76659 0,13.10533 10.72449,23.7666 23.89853,23.7666 z"
         fill="#ffffff"
         id="path1327"
         style="stroke-width:0.999996" />
      <path
         d="m 444.79435,262.33865 c 11.43472,0 20.73763,-9.30236 20.73763,-20.73764 0,-11.43472 -9.30236,-20.73764 -20.73763,-20.73764 -11.43473,0 -20.73819,9.30237 -20.73819,20.73764 0,11.43473 9.30621,20.73764 20.73819,20.73764 z"
         fill="#1a1a1a"
         id="path1329"
         style="fill:#fa9900;stroke-width:0.999996;fill-opacity:1"
         data-button="button-2" />
      <polygon
         transform="matrix(1.7101,0,0,1.7148,-202.93,-294.51)"
         points="269.44,444.41 318.12,444.41 293.78,403.06 "
         fill="#ffffff"
         stroke="#000000"
         stroke-linecap="round"
         stroke-linejoin="round"
         stroke-width="2.0439"
         id="polygon1333"
         style="stroke-linejoin:round;stroke-linecap:square;paint-order:normal" />
      <g
         id="g4411"
         transform="matrix(1.2116053,0,0,1.240494,-56.47659,-89.865857)"
         style="fill:#333333;stroke-width:2.371135;stroke-miterlimit:0;stroke-dasharray:none;stroke:#000000;stroke-opacity:1;stroke-linejoin:round;paint-order:normal">
        <polygon
           points="269.44,444.41 318.12,444.41 293.78,403.06 "
           fill="#1a1a1a"
           stroke-width="0.8156"
           id="polygon1335"
           data-button="button-9"
           style="fill:#333333;stroke-width:2.371135;stroke-miterlimit:0;stroke-dasharray:none;stroke:#000000;stroke-opacity:1;stroke-linejoin:round;paint-order:normal" />
      </g>
      <text
         x="484.67032"
         y="210.79993"
         fill="#ffffff"
         font-family="sans-serif"
         font-size="40px"
         letter-spacing="0px"
         stroke-width="1.8191"
         word-spacing="0px"
         style="line-height:1.25;fill:#000000;stroke-width:1.8197366;stroke-miterlimit:4;stroke-dasharray:none;fill-opacity:0.75;"
         xml:space="preserve"
         id="text1341"><tspan
           x="484.67032"
           y="210.79993"
           fill="#ffffff"
           font-family="sans-serif"
           font-size="28px"
           stroke-width="1.8191"
           style="font-variant-ligatures:normal;font-variant-caps:normal;font-variant-numeric:normal;font-variant-east-asian:normal;fill:#000000;stroke-width:1.8197366;stroke-miterlimit:4;stroke-dasharray:none;fill-opacity:0.75;"
           id="tspan1339">Y</tspan></text>
      <text
         x="435.22971"
         y="251.80605"
         fill="#ffffff"
         font-family="sans-serif"
         font-size="40px"
         letter-spacing="0px"
         stroke-width="1.8191"
         word-spacing="0px"
         style="line-height:1.25;fill:#000000;stroke-width:1.8197366;stroke-miterlimit:4;stroke-dasharray:none;fill-opacity:0.75;"
         xml:space="preserve"
         id="text1345"><tspan
           x="435.22971"
           y="251.80605"
           fill="#ffffff"
           font-family="sans-serif"
           font-size="28px"
           stroke-width="1.8191"
           style="font-variant-ligatures:normal;font-variant-caps:normal;font-variant-numeric:normal;font-variant-east-asian:normal;fill:#000000;stroke-width:1.8197366;stroke-miterlimit:4;stroke-dasharray:none;fill-opacity:0.75;"
           id="tspan1343">X</tspan></text>
      <text
         x="531.4353"
         y="257.39502"
         fill="#ffffff"
         font-family="sans-serif"
         font-size="40px"
         letter-spacing="0px"
         stroke-width="1.8191"
         word-spacing="0px"
         style="line-height:1.25;fill:#000000;stroke-width:1.8197366;stroke-miterlimit:4;stroke-dasharray:none;fill-opacity:0.75;"
         xml:space="preserve"
         id="text1349"><tspan
           x="531.4353"
           y="257.39502"
           fill="#ffffff"
           font-family="sans-serif"
           font-size="28px"
           stroke-width="1.8191"
           style="font-variant-ligatures:normal;font-variant-caps:normal;font-variant-numeric:normal;font-variant-east-asian:normal;fill:#000000;stroke-width:1.8197366;stroke-miterlimit:4;stroke-dasharray:none;fill-opacity:0.75;"
           id="tspan1347">B</tspan></text>
      <text
         x="482.2132"
         y="303.34509"
         fill="#ffffff"
         font-family="sans-serif"
         font-size="40px"
         letter-spacing="0px"
         stroke-width="1.8191"
         word-spacing="0px"
         style="line-height:1.25;fill:#000000;stroke-width:1.8197366;stroke-miterlimit:4;stroke-dasharray:none;fill-opacity:0.75;"
         xml:space="preserve"
         id="text1353"><tspan
           x="482.2132"
           y="303.34509"
           fill="#ffffff"
           font-family="sans-serif"
           font-size="28px"
           stroke-width="1.8191"
           style="font-variant-ligatures:normal;font-variant-caps:normal;font-variant-numeric:normal;font-variant-east-asian:normal;fill:#000000;stroke-width:1.8197366;stroke-miterlimit:4;stroke-dasharray:none;fill-opacity:0.75;"
           id="tspan1351">A</tspan></text>
      <path
         d="m 173.24814,347.85901 v -35.97466 h -35.33512 v -35.71923 h -36.42069 v 35.71923 H 65.890293 v 35.97466 h 35.602037 v 35.94403 h 36.42069 v -35.94403 z"
         fill="#ffffff"
         stroke="#000000"
         stroke-linecap="round"
         stroke-linejoin="round"
         stroke-miterlimit="6.6"
         stroke-width="3.3"
         id="path1355"
         sodipodi:nodetypes="ccccccccccccc"
         style="stroke-width:3.18258;stroke-miterlimit:6.6;stroke-dasharray:none" />
      <g
         id="g4414"
         data-button="dpad-0"
         style="fill:#333333;stroke:#000000;stroke-width:2.03484923;stroke-miterlimit:4;stroke-dasharray:none">
        <polygon
           transform="matrix(1.1295918,0,0,1.1295918,-9.657417,-33.438327)"
           points="103.48,363.25 124.82,363.25 124.82,332.13 155.94,332.13 155.94,310.78 124.82,310.78 124.82,279.67 103.48,279.67 103.48,310.78 72.364,310.78 72.364,332.13 103.48,332.13 "
           fill="#1a1a1a"
           stroke-width="0.95108"
           id="polygon1357"
           style="fill:#333333;stroke:#000000;stroke-width:1.80140227;stroke-miterlimit:4;stroke-dasharray:none" />
      </g>
      <path
         d="m 246.42892,423.17516 c 9.52197,0 17.26811,-7.7465 17.26811,-17.26846 0,-9.52197 -7.74614,-17.26847 -17.26811,-17.26847 -9.52196,0 -17.26882,7.7465 -17.26882,17.26847 0,9.52196 7.74934,17.26846 17.26882,17.26846 z"
         id="path1301-6"
         style="display:inline;stroke-width:0.634966" />
      <path
         d="m 246.4289,420.50294 c 8.0934,0 14.67791,-6.54806 14.67791,-14.59722 0,-8.04917 -6.58418,-14.59723 -14.67791,-14.59723 -8.09374,0 -14.67825,6.54806 -14.67825,14.59723 0,8.04916 6.58688,14.59722 14.67825,14.59722 z"
         fill="#ececec"
         id="path1303-2"
         style="display:inline;stroke-width:0.603621" />
      <path
         d="m 246.42889,418.32939 c 6.85041,0 12.42367,-5.57292 12.42367,-12.42367 0,-6.85041 -5.57293,-12.42368 -12.42367,-12.42368 -6.85042,0 -12.42401,5.57293 -12.42401,12.42368 0,6.85042 5.57525,12.42367 12.42401,12.42367 z"
         fill="#1a1a1a"
         id="path1305-9"
         style="display:inline;fill:#333333;stroke-width:1.45346374;stroke-miterlimit:4;stroke-dasharray:none;stroke:#000000"
         data-button="button-8" />
      <path
         d="m 352.49814,423.17516 c 9.52197,0 17.26811,-7.7465 17.26811,-17.26846 0,-9.52197 -7.74614,-17.26847 -17.26811,-17.26847 -9.52196,0 -17.26882,7.7465 -17.26882,17.26847 0,9.52196 7.74934,17.26846 17.26882,17.26846 z"
         id="path1301-6-1"
         style="display:inline;stroke-width:0.634966" />
      <path
         d="m 352.49812,420.50294 c 8.0934,0 14.67791,-6.54806 14.67791,-14.59722 0,-8.04917 -6.58418,-14.59723 -14.67791,-14.59723 -8.09374,0 -14.67825,6.54806 -14.67825,14.59723 0,8.04916 6.58688,14.59722 14.67825,14.59722 z"
         fill="#ececec"
         id="path1303-2-2"
         style="display:inline;stroke-width:0.603621" />
      <path
         d="m 352.49811,418.32939 c 6.85041,0 12.42367,-5.57292 12.42367,-12.42367 0,-6.85041 -5.57293,-12.42368 -12.42367,-12.42368 -6.85042,0 -12.42401,5.57293 -12.42401,12.42368 0,6.85042 5.57525,12.42367 12.42401,12.42367 z"
         fill="#1a1a1a"
         id="path1305-9-7"
         style="display:inline;fill:#333333;stroke-width:1.45346374;stroke:#000000;stroke-miterlimit:4;stroke-dasharray:none"
         data-button="button-16" />
      <text
         x="281.13306"
         y="481.78577"
         fill="#ffffff"
         font-family="sans-serif"
         font-size="40px"
         letter-spacing="0px"
         stroke-width="1.8191"
         word-spacing="0px"
         style="font-size:40px;line-height:1.25;font-family:sans-serif;letter-spacing:0px;word-spacing:0px;display:inline;fill:#000000;stroke-width:1.8191"
         xml:space="preserve"
         id="text1353-0"><tspan
           x="281.13306"
           y="481.78577"
           fill="#ffffff"
           font-family="sans-serif"
           font-size="28px"
           stroke-width="1.8191"
           style="font-style:normal;font-variant:normal;font-weight:normal;font-stretch:normal;font-size:11.6277px;font-family:sans-serif;-inkscape-font-specification:'sans-serif, Normal';font-variant-ligatures:normal;font-variant-caps:normal;font-variant-numeric:normal;font-variant-east-asian:normal;fill:#000000"
           id="tspan1351-9">START</tspan></text>
      <text
         x="224.14134"
         y="384.38974"
         fill="#ffffff"
         font-family="sans-serif"
         font-size="40px"
         letter-spacing="0px"
         stroke-width="1.8191"
         word-spacing="0px"
         style="font-size:40px;line-height:1.25;font-family:sans-serif;letter-spacing:0px;word-spacing:0px;display:inline;fill:#000000;stroke-width:1.8191"
         xml:space="preserve"
         id="text1353-0-0"><tspan
           x="224.14134"
           y="384.38974"
           fill="#ffffff"
           font-family="sans-serif"
           font-size="28px"
           stroke-width="1.8191"
           style="font-style:normal;font-variant:normal;font-weight:normal;font-stretch:normal;font-size:11.6277px;font-family:sans-serif;-inkscape-font-specification:'sans-serif, Normal';font-variant-ligatures:normal;font-variant-caps:normal;font-variant-numeric:normal;font-variant-east-asian:normal;fill:#000000"
           id="tspan1351-9-8">SELECT</tspan></text>
      <text
         x="334.6618"
         y="384.38974"
         fill="#ffffff"
         font-family="sans-serif"
         font-size="40px"
         letter-spacing="0px"
         stroke-width="1.8191"
         word-spacing="0px"
         style="font-size:40px;line-height:1.25;font-family:sans-serif;letter-spacing:0px;word-spacing:0px;display:inline;fill:#000000;stroke-width:1.8191"
         xml:space="preserve"
         id="text1353-0-1"><tspan
           x="334.6618"
           y="384.38974"
           fill="#ffffff"
           font-family="sans-serif"
           font-size="28px"
           stroke-width="1.8191"
           style="font-style:normal;font-variant:normal;font-weight:normal;font-stretch:normal;font-size:11.6277px;font-family:sans-serif;-inkscape-font-specification:'sans-serif, Normal';font-variant-ligatures:normal;font-variant-caps:normal;font-variant-numeric:normal;font-variant-east-asian:normal;fill:#000000"
           id="tspan1351-9-3">HOME</tspan></text>
    </g>
  </g>
  <g
     inkscape:groupmode="layer"
     id="layer5"
     inkscape:label="Layer 2"
     transform="translate(-260.34243,-473.69226)"
     style="display:inline">
    <path
       style="fill:none;stroke:#000000;stroke-width:0.499999;stroke-linecap:butt;stroke-linejoin:miter;stroke-miterlimit:4;stroke-dasharray:none;stroke-opacity:1"
       d="m 591.9802,611.79395 68.94571,20.07928"
       id="path4466-5-6"
       sodipodi:nodetypes="cc" />
    <path
       style="fill:none;stroke:#000000;stroke-width:0.499999;stroke-linecap:butt;stroke-linejoin:miter;stroke-miterlimit:4;stroke-dasharray:none;stroke-opacity:1"
       d="m 576.39993,592.09785 84.52598,24.70129"
       id="path4466-6"
       sodipodi:nodetypes="cc" />
    <path
       style="fill:none;stroke:#000000;stroke-width:0.499999;stroke-linecap:butt;stroke-linejoin:miter;stroke-miterlimit:4;stroke-dasharray:none;stroke-opacity:1"
       d="m 595.32633,575.12417 65.59958,18.18343"
       id="path4466-5-6-4"
       sodipodi:nodetypes="cc" />
    <path
       style="fill:none;stroke:#000000;stroke-width:0.499999;stroke-linecap:butt;stroke-linejoin:miter;stroke-miterlimit:4;stroke-dasharray:none;stroke-opacity:1"
       d="m 609.92753,591.64681 50.99838,15.21886"
       id="path4466-6-0"
       sodipodi:nodetypes="cc" />
    <text
       xml:space="preserve"
       style="font-style:normal;font-weight:normal;font-size:40px;line-height:1.25;font-family:sans-serif;letter-spacing:0px;word-spacing:0px;fill:#000000;fill-opacity:1;stroke:none;stroke-width:1"
       x="662.21619"
       y="608.90283"
       id="text3125-3-3-9-9"><tspan
         sodipodi:role="line"
         id="tspan3123-1-4-1-6"
         x="662.21619"
         y="608.90283"
         style="font-style:normal;font-variant:normal;font-weight:normal;font-stretch:normal;font-size:6.00001px;font-family:sans-serif;-inkscape-font-specification:'sans-serif, Normal';font-variant-ligatures:normal;font-variant-caps:normal;font-variant-numeric:normal;font-variant-east-asian:normal;stroke-width:1">Spindash / Roll</tspan></text>
    <text
       xml:space="preserve"
       style="font-style:normal;font-weight:normal;font-size:40px;line-height:1.25;font-family:sans-serif;letter-spacing:0px;word-spacing:0px;fill:#000000;fill-opacity:1;stroke:none;stroke-width:1"
       x="662.5141"
       y="634.3454"
       id="text3125-3-3-9-9-0"><tspan
         sodipodi:role="line"
         id="tspan3123-1-4-1-6-4"
         x="662.5141"
         y="634.3454"
         style="font-style:normal;font-variant:normal;font-weight:normal;font-stretch:normal;font-size:6.00001px;font-family:sans-serif;-inkscape-font-specification:'sans-serif, Normal';font-variant-ligatures:normal;font-variant-caps:normal;font-variant-numeric:normal;font-variant-east-asian:normal;stroke-width:1">Jump</tspan></text>
    <text
       xml:space="preserve"
       style="font-style:normal;font-weight:normal;font-size:40px;line-height:1.25;font-family:sans-serif;letter-spacing:0px;word-spacing:0px;fill:#000000;fill-opacity:1;stroke:none;stroke-width:1"
       x="662.27887"
       y="619.60553"
       id="text3125-3-3-9-9-6"><tspan
         sodipodi:role="line"
         id="tspan3123-1-4-1-6-2"
         x="662.27887"
         y="619.60553"
         style="font-style:normal;font-variant:normal;font-weight:normal;font-stretch:normal;font-size:6.00001px;font-family:sans-serif;-inkscape-font-specification:'sans-serif, Normal';font-variant-ligatures:normal;font-variant-caps:normal;font-variant-numeric:normal;font-variant-east-asian:normal;stroke-width:1">Lightspeed Dash / Lift Object</tspan></text>
    <text
       xml:space="preserve"
       style="font-style:normal;font-weight:normal;font-size:40px;line-height:1.25;font-family:sans-serif;letter-spacing:0px;word-spacing:0px;fill:#000000;fill-opacity:1;stroke:none;stroke-width:1"
       x="661.63348"
       y="595.76831"
       id="text3125-3-3-9-9-67"><tspan
         sodipodi:role="line"
         id="tspan3123-1-4-1-6-5"
         x="661.63348"
         y="595.76831"
         style="font-style:normal;font-variant:normal;font-weight:normal;font-stretch:normal;font-size:6.00001px;font-family:sans-serif;-inkscape-font-specification:'sans-serif, Normal';font-variant-ligatures:normal;font-variant-caps:normal;font-variant-numeric:normal;font-variant-east-asian:normal;stroke-width:1">Super Transform</tspan></text>
    <path
       style="fill:none;stroke:#000000;stroke-width:0.499999;stroke-linecap:butt;stroke-linejoin:miter;stroke-miterlimit:4;stroke-dasharray:none;stroke-opacity:1"
       d="m 605.14785,544.49623 53.16279,13.40318"
       id="path4466-5-6-4-6"
       sodipodi:nodetypes="cc" />
    <text
       xml:space="preserve"
       style="font-style:normal;font-weight:normal;font-size:40px;line-height:1.25;font-family:sans-serif;letter-spacing:0px;word-spacing:0px;fill:#000000;fill-opacity:1;stroke:none;stroke-width:1"
       x="659.01825"
       y="560.35986"
       id="text3125-3-3-9-9-67-9"><tspan
         sodipodi:role="line"
         id="tspan3123-1-4-1-6-5-8"
         x="659.01825"
         y="560.35986"
         style="font-style:normal;font-variant:normal;font-weight:normal;font-stretch:normal;font-size:6.00001px;font-family:sans-serif;-inkscape-font-specification:'sans-serif, Normal';font-variant-ligatures:normal;font-variant-caps:normal;font-variant-numeric:normal;font-variant-east-asian:normal;stroke-width:1">Air Dash</tspan></text>
    <path
       style="fill:none;stroke:#000000;stroke-width:0.499999;stroke-linecap:butt;stroke-linejoin:miter;stroke-miterlimit:4;stroke-dasharray:none;stroke-opacity:1"
       d="m 582.91803,636.21421 78.00788,22.51922"
       id="path2959"
       sodipodi:nodetypes="cc" />
    <text
       xml:space="preserve"
       style="font-style:normal;font-weight:normal;font-size:40px;line-height:1.25;font-family:sans-serif;letter-spacing:0px;word-spacing:0px;fill:#000000;fill-opacity:1;stroke:none;stroke-width:1"
       x="664.28082"
       y="661.3197"
       id="text3125-3"><tspan
         sodipodi:role="line"
         id="tspan3123-1"
         x="664.28082"
         y="661.3197"
         style="font-style:normal;font-variant:normal;font-weight:normal;font-stretch:normal;font-size:6.00001px;font-family:sans-serif;-inkscape-font-specification:'sans-serif, Normal';font-variant-ligatures:normal;font-variant-caps:normal;font-variant-numeric:normal;font-variant-east-asian:normal;stroke-width:1">Switch Shields</tspan></text>
    <path
       style="fill:none;stroke:#000000;stroke-width:0.499999;stroke-linecap:butt;stroke-linejoin:miter;stroke-miterlimit:4;stroke-dasharray:none;stroke-opacity:1"
       d="m 426.92413,544.07586 -53.16279,13.40318"
       id="path4466-5-6-4-6-7"
       sodipodi:nodetypes="cc" />
    <text
       xml:space="preserve"
       style="font-style:normal;font-weight:normal;font-size:40px;line-height:1.25;font-family:sans-serif;letter-spacing:0px;word-spacing:0px;fill:#000000;fill-opacity:1;stroke:none;stroke-width:1"
       x="347.5455"
       y="559.51819"
       id="text3125-3-3-9-9-67-9-2"><tspan
         sodipodi:role="line"
         id="tspan3123-1-4-1-6-5-8-8"
         x="347.5455"
         y="559.51819"
         style="font-style:normal;font-variant:normal;font-weight:normal;font-stretch:normal;font-size:6.00001px;font-family:sans-serif;-inkscape-font-specification:'sans-serif, Normal';font-variant-ligatures:normal;font-variant-caps:normal;font-variant-numeric:normal;font-variant-east-asian:normal;stroke-width:1">Air Dash</tspan></text>
    <path
       style="fill:none;stroke:#000000;stroke-width:0.499999;stroke-linecap:butt;stroke-linejoin:miter;stroke-miterlimit:4;stroke-dasharray:none;stroke-opacity:1"
       d="M 438.09077,626.73672 371.04729,645.2091"
       id="path4466-5-6-4-6-7-2"
       sodipodi:nodetypes="cc" />
    <text
       xml:space="preserve"
       style="font-style:normal;font-weight:normal;font-size:40px;line-height:1.25;font-family:sans-serif;letter-spacing:0px;word-spacing:0px;fill:#000000;fill-opacity:1;stroke:none;stroke-width:1"
       x="352.86777"
       y="647.30273"
       id="text3125-3-3-9-9-67-9-2-9"><tspan
         sodipodi:role="line"
         id="tspan3123-1-4-1-6-5-8-8-9"
         x="352.86777"
         y="647.30273"
         style="font-style:normal;font-variant:normal;font-weight:normal;font-stretch:normal;font-size:6.00001px;font-family:sans-serif;-inkscape-font-specification:'sans-serif, Normal';font-variant-ligatures:normal;font-variant-caps:normal;font-variant-numeric:normal;font-variant-east-asian:normal;stroke-width:1">Move</tspan></text>
    <path
       style="display:inline;fill:none;stroke:#000000;stroke-width:0.499999;stroke-linecap:butt;stroke-linejoin:miter;stroke-miterlimit:4;stroke-dasharray:none;stroke-opacity:1"
       d="m 507.06468,652.48785 -115.69252,44.1463"
       id="path4466-5-6-4-6-7-2-3"
       sodipodi:nodetypes="cc" />
    <text
       xml:space="preserve"
       style="font-style:normal;font-weight:normal;font-size:40px;line-height:1.25;font-family:sans-serif;letter-spacing:0px;word-spacing:0px;display:inline;fill:#000000;fill-opacity:1;stroke:none;stroke-width:1"
       x="371.43689"
       y="698.36121"
       id="text3125-5"><tspan
         sodipodi:role="line"
         id="tspan3123-3"
         x="371.43689"
         y="698.36121"
         style="font-style:normal;font-variant:normal;font-weight:normal;font-stretch:normal;font-size:6.00001px;font-family:sans-serif;-inkscape-font-specification:'sans-serif, Normal';font-variant-ligatures:normal;font-variant-caps:normal;font-variant-numeric:normal;font-variant-east-asian:normal;stroke-width:1">Pause</tspan></text>
  </g>
</svg>
