<svg version="1.0" viewBox="0 0 512 288" xmlns="http://www.w3.org/2000/svg">
 <defs>
  <clipPath id="a">
   <ellipse cx="296.69" cy="214.12" rx="206.77" ry="205.42" display="none" fill="#4d4d4d"/>
   <path class="powerclip" d="m8.0946 3.7805h575.41v590.04h-575.41zm495.36 210.34a206.77 205.42 0 0 0-206.77-205.42 206.77 205.42 0 0 0-206.77 205.42 206.77 205.42 0 0 0 206.77 205.42 206.77 205.42 0 0 0 206.77-205.42z" display="block" fill="#4d4d4d"/>
  </clipPath>
 </defs>
 <g transform="translate(-260.34 -473.69)">
  <path d="m437.18 546.97c0.0704-0.35215 1.3382-5.8456 1.479-6.7612 0.14086-0.91559 0.35215-1.4086 1.479-2.1833 10.576-7.2713 5.4994-7.4732 17.763-5.4952 2.1833 0.35214 5.0005 5.8456 5.0005 5.8456z" fill="#d8d8d8" fill-rule="evenodd" stroke="#000" stroke-width=".96695" data-button="button-6"/>
  <path d="m595.5 546.97c-0.0704-0.35215-1.3382-5.8456-1.479-6.7612-0.14086-0.91559-0.35215-1.4086-1.479-2.1833-10.576-7.2713-5.4994-7.4732-17.763-5.4952-2.1833 0.35214-5.0005 5.8456-5.0005 5.8456z" fill="#d8d8d8" fill-rule="evenodd" stroke="#000" stroke-width=".96695" data-button="button-7"/>
  <path d="m604.24 553.13c-0.0704-0.35215-1.3382-5.8456-1.479-6.7612-0.14086-0.91559-0.35215-1.4086-1.479-2.1833-10.576-7.2713-22.951-10.782-35.215-8.8037-2.1833 0.35214-5.0005 5.8456-5.0005 5.8456z" fill="#d8d8d8" fill-rule="evenodd" stroke="#000" stroke-width=".96695" data-button="button-5"/>
  <path d="m428.44 553.13c0.0704-0.35215 1.3382-5.8456 1.479-6.7612 0.14086-0.91559 0.35215-1.4086 1.479-2.1833 10.576-7.2713 22.951-10.782 35.215-8.8037 2.1833 0.35214 5.0005 5.8456 5.0005 5.8456z" fill="#d8d8d8" fill-rule="evenodd" stroke="#000" stroke-width=".96695" data-button="button-4"/>
  <g transform="matrix(.34401 0 0 .34401 414.97 503.95)">
   <ellipse cx="294.98" cy="208.06" rx="205.59" ry="199.11" fill="none" stroke="#000" stroke-width="7.4"/>
   <ellipse cx="295.57" cy="214.12" rx="206.77" ry="205.42" display="block" fill="#e6e6e6"/>
   <rect x="255.55" y="18.994" width="93.05" height="71.373" fill="#d35f5f" stroke-width=".67124"/>
   <rect x="234.74" y="140.67" width="129.82" height="113.54" fill="#666"/>
   <g transform="translate(-1.12)" fill="#1a1a1a">
    <g>
     <path d="m243.78 111.34c0.838 0 1.818-0.043 2.687-0.135s1.481-0.397 2.167-0.636 1.377-0.643 2.02-1.261c0.637-0.618 1.157-1.316 1.548-2.099 0.392-0.784 0.673-1.659 0.845-2.632 0.171-0.967 0.239-1.952 0.196-2.95-0.042-1.12-0.343-1.953-0.648-2.907-0.306-0.955-0.881-2.154-1.671-2.803-0.869-0.716-1.493-1.224-2.387-1.481-0.894-0.251-2.154-0.637-3.599-0.637-0.881 0-2.05 0.062-2.62 0.128-0.593 0.074-1.138 0.147-1.885 0.159l0.196 17.228c1.162 0.038 2.154 0.026 3.151 0.026z" fill="#1a1a1a"/>
     <path d="m278.33 102.96c-0.031-0.624 0-0.416-0.073-0.765-0.074-0.343-0.166-0.618-0.349-0.991-0.184-0.367-0.502-0.624-0.795-0.894-0.294-0.27-0.643-0.478-1.053-0.618-0.404-0.147-1.01-0.22-1.475-0.22-0.501 0-0.948 0.153-1.395 0.312s-0.838 0.374-1.175 0.649c-0.336 0.275-0.618 0.6-0.844 0.967-0.227 0.367-0.392 0.729-0.496 1.071-0.042 0.135-0.049 0.147-0.042 0.153 6e-3 6e-3 0.03-0.012-0.025 0.336z" fill="#1a1a1a"/>
     <path d="m291.54 104.42c-0.3 0.27-0.441 0.343-0.587 0.453-0.147 0.11-0.361 0.171-0.551 0.269-0.19 0.092-0.447 0.116-0.68 0.202-0.226 0.085-1.022 0.11-1.346 0.153-0.691 0.086-1.15 0.159-1.426 0.27-0.6 0.214-0.955 0.275-1.298 0.496-0.342 0.22-0.612 0.551-0.838 0.808-0.227 0.257-0.312 0.49-0.404 0.747-0.104 0.318-0.092 0.655-0.073 0.998 0.018 0.538 0.434 1.132 0.734 1.523 0.293 0.398 0.3 0.257 0.679 0.526 0.379 0.263 0.918 0.404 1.518 0.404 0.374 0 0.759-0.031 1.157-0.092 0.306-0.043 0.637-0.239 1.096-0.392 0.146-0.049 0.489-0.361 0.655-0.422 0 0 0.422-0.342 0.844-1.077 0.422-0.734 0.508-1.952 0.508-1.952z" fill="#1a1a1a"/>
     <path d="m341.81 104.23c-0.294 0.27-0.44 0.349-0.588 0.459-0.146 0.11-0.379 0.153-0.569 0.251-0.189 0.092-0.428 0.135-0.66 0.22-0.227 0.086-1.022 0.11-1.347 0.153-0.691 0.085-1.15 0.159-1.426 0.269-0.6 0.22-0.961 0.282-1.304 0.496-0.343 0.221-0.618 0.551-0.845 0.808s-0.318 0.489-0.404 0.747c-0.104 0.318-0.085 0.655-0.073 1.003 0.019 0.533 0.435 1.132 0.734 1.524 0.3 0.398 0.3 0.257 0.686 0.526 0.38 0.263 0.918 0.404 1.524 0.404 0.373 0 0.759-0.03 1.162-0.092 0.307-0.042 0.643-0.245 1.096-0.392 0.146-0.049 0.489-0.361 0.655-0.422 0 0 0.422-0.343 0.844-1.077 0.423-0.729 0.509-1.953 0.509-1.953z" fill="#1a1a1a"/>
     <path d="m79.619 239.47c24.811 0 44.995-20.073 44.995-44.748s-20.184-44.748-44.995-44.748-44.997 20.073-44.997 44.748 20.192 44.748 44.997 44.748z" fill="#ececec"/>
     <polygon transform="matrix(1.6291,0,0,1.6291,-178.01,-257.79)" points="318.12 444.41 293.78 403.06 269.44 444.41" fill="#fff" stroke-width=".61384"/>
     <path d="m119.14 577.38c12.815-43.023 10.985-43.023 17.393-58.582 6.408-15.562 19.223-16.475 35.698-20.135 15.404-3.42 80.508-11.378 123.02-12.431 6e-3 0.117 0 0 0 0l11.652-0.15207-0.013-0.092s75.652 4.8914 112.49 12.675c16.476 3.66 29.291 4.578 35.698 20.135 6.407 15.564 4.578 15.564 17.394 58.582 12.814 43.018 69.554-66.818 95.184-228.83 25.631-162.01-11.848-224.91-22.222-230.4-10.373-5.49-79.382-20.404-79.382-20.404-18.269-23.911-37.871-41.377-57.039-54.199v181.14c0 53.85-43.807 97.657-97.656 97.657h-21.524c-53.85 0-97.657-43.808-97.657-97.657v-187.17c-22.156 13.194-45.296 32.319-66.624 60.232 0 0-69.009 14.908-79.382 20.404-10.374 5.49-47.853 68.385-22.222 230.4 25.624 162.01 82.375 271.85 95.19 228.83zm373.77-258.73c-13.801 0-25.031-11.223-25.031-25.024s11.23-25.031 25.031-25.031c13.8 0 25.024 11.224 25.024 25.031 1e-3 13.802-11.224 25.024-25.024 25.024zm48.207-96.432c13.801 0 25.03 11.224 25.03 25.031 0 13.801-11.229 25.025-25.03 25.025s-25.031-11.224-25.031-25.025 11.23-25.031 25.031-25.031zm-47.601-46.989c13.801 0 25.031 11.224 25.031 25.031 0 13.8-11.23 25.024-25.031 25.024s-25.03-11.224-25.03-25.024c5e-3 -13.801 11.229-25.031 25.03-25.031zm-48.207 46.383c13.801 0 25.024 11.224 25.024 25.031 0 13.801-11.224 25.025-25.024 25.025s-25.031-11.224-25.031-25.025c6e-3 -13.807 11.236-25.031 25.031-25.031zm-176.43 232.05 28.458-48.342c1.408-2.418 5.056-2.441 6.5-6e-3l28.451 48.342c0.729 1.242 0.759 2.662 0.099 3.818-0.655 1.15-1.91 1.842-3.33 1.842h-56.928c-1.426 0-2.674-0.691-3.335-1.842-0.668-1.156-0.631-2.582 0.085-3.812zm-136.01-171.33c2.699 0 4.896 2.191 4.896 4.89v26.23h26.23c2.693 0 4.89 2.191 4.89 4.891v23.801c0 2.697-2.191 4.889-4.89 4.889h-26.23v26.23c0 2.693-2.191 4.891-4.896 4.891h-23.801c-2.692 0-4.89-2.191-4.89-4.891v-26.23h-26.23c-2.693 0-4.89-2.191-4.89-4.889v-23.801c0-2.693 2.191-4.891 4.89-4.891h26.23v-26.23c0-2.699 2.191-4.89 4.89-4.89zm-54.009-133.64c24.902 0 45.166 20.263 45.166 45.166s-20.263 45.166-45.166 45.166-45.166-20.263-45.166-45.166 20.264-45.166 45.166-45.166z" clip-path="url(#b)" fill="#e6e6e6"/>
     <path d="m371.79 133.6h-142.4v126.1h142.4zm-8.256 117.31c0 0.985-0.796 1.781-1.781 1.781h-122.33c-0.979 0-1.781-0.796-1.781-1.781v-108.51c0-0.985 0.795-1.781 1.781-1.781h122.33c0.985 0 1.781 0.795 1.781 1.781z" fill="#1a1a1a"/>
     <path d="m289.82 316.22h21.523c50.558 0 91.537-40.985 91.537-91.536v-6.089l0.0627-180.67c-46.252-27.867-85.605-28.475-100.38-29.284-3.6348-0.19916-6.7928-0.03767-6.7928-0.03767s-2.9265-0.19568-6.6277-0.015294c-13.717 0.66851-50.54 2.3407-91.789 25.089l0.93221 184.88v6.12c0 50.552 40.986 91.537 91.537 91.537zm66.506-218.18 1.806-0.061c0.018-0.379-0.031-1.567-0.031-2.497 0-0.453-0.227-0.869-0.41-1.096 0.82-0.184 2.069-0.563 2.638-0.728-6e-3 1.469 0.099 3.556 0.117 4.321l3.684 0.055c-0.019 0.63 0.049 0.851 0.062 1.419l-1.016-0.122h-2.705l-0.05 8.103-0.024 0.679c0.024 0.723 0.123 1.641 0.282 2.001 0.159 0.361 0.385 0.496 0.679 0.655 0.3 0.159 0.637 0.196 0.949 0.196 0.22 0 0.551-6e-3 0.808-6e-3s0.435-0.019 1.071-0.202c-0.08 0.478-0.209 0.741-0.294 1.536-0.588 0.166-0.857 0.208-1.206 0.245-0.349 0.043-0.679-0.067-0.997-0.067-0.777 0-1.414-0.11-1.903-0.337-0.49-0.22-0.869-0.575-1.139-1.071-0.275-0.49-0.465-1.708-0.496-2.552-6e-3 -0.11-6e-3 -0.3-0.012-0.575 0-0.275-0.019-0.551 0-2.197l-0.056-6.402h-1.774c0.023-0.397 0.023-0.519 0.017-1.297zm-2.932 9.309c-0.135-0.184-0.643-0.618-0.899-0.838-0.257-0.227-0.937-0.557-1.824-0.924-0.899-0.379-2.044-0.74-2.46-1.089-0.416-0.355-1.175-0.759-1.475-1.132s-0.526-0.74-0.68-1.12c-0.153-0.374-0.043-0.943-0.055-1.328-0.024-0.618 0.36-1.254 0.728-1.836 0.361-0.575 0.992-0.9 1.714-1.188 0.723-0.281 1.579-0.428 2.564-0.428 1.102 0 2.166 0.214 3.501 0.471 0.073 0.753-0.099 1.273-7e-3 1.897-0.961-0.636-2.025-0.955-3.072-0.955-0.568 0-1.145 0.086-1.621 0.233-0.478 0.146-1.01 0.624-1.218 0.918-0.215 0.3-0.331 0.581-0.318 0.936 6e-3 0.233 0.079 0.618 0.165 0.833 0.086 0.214 0.648 0.808 0.942 0.937 0.404 0.177 0.245 0.153 0.612 0.232 0.416 0.092 1.444 0.618 2.423 1.083 1.017 0.483 1.946 1.089 2.265 1.408 0.324 0.318 0.637 0.759 0.931 1.438 0.165 0.38 0.257 0.826 0.257 1.145 0 0.551-0.146 0.625-0.129 0.967 0.031 0.673-0.141 0.924-0.514 1.5s-1.071 1.126-1.849 1.444c-0.777 0.318-1.604 0.582-2.576 0.582-0.416 0-1.377 0.049-1.934-6e-3 -0.558-0.049-1.035-0.239-1.427-0.312s-0.643-0.092-1.224-0.232l-0.202-0.985c-6e-3 -0.116-0.263-0.771-0.373-1.396 1.646 0.906 3.385 1.542 4.633 1.542 0.654 0 1.304-0.19 1.75-0.361 0.447-0.171 0.882-0.489 1.096-0.826 0.208-0.336 0.44-0.661 0.521-1.016 0.049-0.196 0.11-0.459 0.061-0.637-0.067-0.211-0.171-0.774-0.306-0.957zm-86.138-55.282c0.324-2.111 0.955-4.223 1.364-5.673 0.973-3.47 3.581-8.672 4.841-10.429s1.762-2.295 3.592-4.339 0.783-0.637 4.174-3.421c3.384-2.785 7.938-4.78 9.933-5.587 1.995-0.814 5.037-2.301 10.521-2.668s8.794 0.312 11.854 0.667c3.586 0.417 10.435 2.754 10.435 2.754s3.996 1.805 7.093 3.837c1.671 1.004 3.158 2.987 4.676 4.927 2.087 2.668 4.131 6.028 4.425 6.505 0.508 0.814 2.778 4.908 3.256 6.426s1.542 7.117 1.628 7.729 0.937 4.051-2.001 4.253c-3.22 0.22-3.55-3.066-3.758-4.002-0.214-0.942-2.387-8.158-3.14-9.517s-5.264-7.962-7.265-10.135-5.894-4.951-10.141-6.255c-4.063-1.254-10.961-2.479-15.6-2.276-4.076 0.177-5.416 0.459-7.191 1.022-3.629 1.157-6.812 2.993-9.015 4.382-2.203 1.383-5.899 4.357-7.515 6.383-1.916 2.405-5.166 8.354-5.888 11.64-1.334 6.114-0.502 12.014-0.502 12.014s1.506 11.579 9.015 17.521c2.938 2.332 5.336 3.562 12.02 5.379 0.937 0.257 3.978 0.471 7.778 0.496 3.801 0.019 4.957-0.11 7.124-0.869 2.16-0.759 2.852-0.894 4.504-1.75 1.659-0.857 4.505-1.799 7.559-4.811 1.707-1.689 3.837-5.006 4.719-8.329 0.514-1.946 0.189-2.552 0.122-5.104-0.019-0.783-0.092-1.493-0.153-2.167-0.146-1.524-0.397-2.938-0.93-5.178-0.771-3.231-0.539-2.387-1.292-4.449-0.52-1.42-1.107-2.577-1.523-3.25s-0.814-1.12-1.273-1.818c-3.17-4.841-9.431-8.011-15.232-8.201-1.934-0.067-4.314 0.135-6.714 0.894-1.628 0.514-3.268 1.346-4.786 2.271-0.63 0.379-1.23 0.673-1.812 1.132-0.587 0.471-0.942 0.606-1.462 1.157-0.471 0.501-1.114 1.628-1.5 2.136-4.725 6.065-3.629 11.689-3.629 11.689s-0.44 13.207 13.52 14.646c3.525 0.171 9.89-2.087 12.301-4.67 1.481-1.591 1.585-4.437 1.536-6.964-0.036-2.001-1.016-5.551-2.552-6.922-3.342-2.98-6.12-3.072-7.576-3.158-1.94-0.123-4.7 0.477-5.79 4.725-0.38 1.475 0.777 4.547 2.962 4.982 1.879 0.379 3.88 0 4.762 0.128 0.783 0.11 1.971-0.153 1.971 2.313-0.221 4.321-9.633 1.903-9.737 1.812-0.722-0.624-4.969-3.042-5.134-7.631-0.178-4.847 2.099-8.507 6.236-10.576 1.041-0.52 2.956-0.783 4.254-0.838 3.524 0.171 6.021 0.63 8.604 2.02 0.483 0.263 0.979 0.477 1.512 0.838 0.165 0.11 0.802 0.557 0.899 0.618 3.023 2.601 4.284 6.035 4.884 9.499 0.238 1.377 0.232 2.662 0.275 3.678 0.08 1.738-0.122 3.843-1.01 5.82-0.942 2.112-2.638 4.082-5 5.318-2.295 1.2-5.643 3.103-10.264 3.672-2.784 0.342-6.021 0.287-9.773-0.924-10.643-3.439-11.646-15.514-11.646-15.514s-2.173-8.898 3.69-16.916c0.618-0.844 1.322-1.928 2.129-2.735 2.644-2.644 5.012-4.015 7.185-5.166 3.99-2.111 6.916-2.595 7.779-2.595 0.618 0 2.093-0.085 3.824 0.043 1.983 0.141 4.309 0.526 6.065 0.955 1.928 0.471 3.537 0.851 4.792 1.383 1.188 0.508 2.038 1.175 2.968 1.744 1.922 1.169 4.982 3.488 6.017 5.055 1.07 1.628 2.589 3.715 3.77 7.387 0.691 2.154 1.273 5.232 1.983 8.703 1.064 5.196 0.679 10.447-0.502 13.764-0.129 0.355-1.451 4.566-5.637 8.513-4.187 3.954-9.455 6.193-11.016 6.817-1.567 0.625-3.795 2.521-12.332 2.381-7.387-0.123-12.987-2.081-14.651-2.754-1.665-0.673-6.059-2.068-10.833-7.319-4.773-5.257-5.814-8.648-6.573-10.949s-2.191-8.195-2.191-8.195 0.171-0.024-0.171-3.066c-0.129-1.359-0.111-3.133 0.159-4.908zm73.825 59.388c-0.465 0.386-0.937 0.673-1.236 0.857-0.637 0.134-1.021 0.281-1.426 0.312-0.404 0.037-0.783 0.049-1.15 0.049-1.212 0-2.1-0.367-2.791-0.686-0.691-0.318-1.261-0.875-1.622-1.523-0.36-0.649-0.44-1.243-0.471-2.008-0.019-0.446 0.11-0.905 0.22-1.279 0.104-0.379 0.251-0.716 0.447-1.022 0.189-0.306 0.33-0.539 0.691-0.851 0.361-0.306 0.575-0.478 0.979-0.673 0.403-0.202 0.777-0.288 1.315-0.483 0.539-0.196 1.524-0.263 2.785-0.441 0.385-0.098 0.71-0.073 0.979-0.177 0.27-0.104 0.509-0.208 0.717-0.306s0.385-0.214 0.538-0.349 0.294-0.3 0.416-0.49c0.129-0.196 0.215-0.141 0.27-0.336 0.055-0.196 0.024-0.294 0.019-0.496-0.019-0.489-0.043-0.765-0.337-1.107s-0.637-0.833-1.102-0.967c-0.459-0.141-1.23-0.361-1.849-0.361-0.575 0-1.046 0.073-1.646 0.178-0.6 0.104-1.114 0.232-1.549 0.373-0.429 0.147-0.918 0.361-1.561 0.649 0.062-0.435 0.013-1.065 0.062-1.922 1.053-0.306 1.609-0.453 2.387-0.563s1.928-0.178 2.674-0.178c0.796 0 1.292 0.171 1.995 0.337 0.698 0.165 1.586 0.777 1.91 1.261 0.336 0.496 0.648 0.856 0.819 1.334 0.172 0.478 0.404 1.42 0.429 1.958 0.024 0.679 0.062 0.239 0.037 1.842-0.024 1.609 0.073 4.547 0.061 5.912-6e-3 0.833 0.099 0.912 0.318 2.038-0.483-0.019-1.102 0.024-1.401 0.024-0.287 0-0.71-0.043-1.236-0.024v-1.53c7e-3 6e-3 -0.226 0.263-0.691 0.648zm-19.155-3.378c0.336 0.838 0.899 1.659 1.683 2.118s1.701 0.906 2.662 0.906c0.931 0 2.889-0.098 5.013-1.224-0.013 0.159-0.098 0.514-0.153 0.942-0.055 0.435-0.178 0.796-0.214 1.212-0.637 0.166-1.31 0.349-1.903 0.41-0.588 0.061-2.197 0.165-2.644 0.165-0.949 0-2.051-0.196-2.864-0.483-0.814-0.288-1.83-0.832-2.448-1.487-0.624-0.655-1.328-1.31-1.646-2.283s-0.545-1.909-0.581-2.993c-0.056-1.457 0.177-1.946 0.587-3.25 0.404-1.31 1.438-2.252 2.394-2.993 0.954-0.741 3.164-1.371 4.859-1.371 1.248 0 2.711 0.208 3.91 0.575 0.086 0.851 0.116 1.31 0.178 1.861-0.845-0.3-1.616-0.649-2.148-0.753s-1.199-0.202-1.652-0.202c-0.771 0-2.411 0.343-3.011 0.655-0.6 0.318-1.102 0.765-1.512 1.353-0.41 0.581-0.734 1.395-0.894 2.197s-0.221 0.869-0.189 1.702c0.04 1.125 0.23 2.104 0.573 2.943zm-6.898-5.263c-0.019-0.575-0.189-1.224-0.306-1.548-0.116-0.324-0.704-0.924-0.949-1.187-0.244-0.263-0.611-0.312-0.961-0.447-0.349-0.135-0.911-0.166-1.353-0.166-0.354 0-0.802 0.062-1.095 0.147-0.275 0.086-0.551 0.147-0.809 0.331-0.281 0.189-0.532 0.3-0.752 0.575-0.221 0.27-0.398 0.575-0.545 0.912-0.153 0.349-0.159 0.869-0.189 1.432-0.037 0.606 0.03 1.383 0.012 2.252-0.024 0.918-0.024 4.56 0 6.065l0.422 1.346c-0.514-0.018-1.272-0.03-1.529-0.03-0.239 0-0.894 6e-3 -1.457 0.03 0.043-1.224 0.19-0.11 0.196-1.407l0.024-5.594c0-1.108-0.013-2.057-0.043-2.833-0.019-0.508-0.079-0.686-0.184-1.041-0.098-0.355-0.275-0.802-0.532-1.096-0.251-0.293-0.808-0.765-1.15-0.918-0.35-0.153-0.839-0.269-1.268-0.269-0.452 0-0.746 0.049-1.138 0.22s-0.734 0.251-1.059 0.594c-0.318 0.336-0.588 0.373-0.796 0.869-0.208 0.489-0.367 0.385-0.459 1.181-0.098 0.795-0.141 3.69-0.135 5.667 6e-3 1.169 0.019 2.228 0.037 3.183 0.012 0.654 0.281 0.887 0.306 1.444-0.569-0.018-1.212-0.03-1.42-0.03-0.232 0-1.01 6e-3 -1.585 0.03l0.318-1.028c0.012-0.453 0.019-1.922 0.024-2.901l-0.147-8.292c-0.018-0.741-0.416-1.628-0.435-2.014 0.41 0.012 1.335-0.135 1.763-0.294 0.343-0.128 0.729-0.128 1.09-0.141l-6e-3 1.928c0.275-0.557 0.776-0.612 1.01-0.942 0.232-0.324 0.471-0.312 0.856-0.587s0.624-0.288 1.139-0.361c0.63-0.092 1.027-0.123 1.572-0.123 0.38 0 0.753 0.049 1.126 0.147 0.374 0.098 0.717 0.239 1.041 0.417 0.318 0.177 0.594 0.379 0.826 0.605 0.232 0.227 0.483 0.349 0.691 0.741 0.073 0.128 0.637-0.624 1.426-1.083 0.79-0.453 1.72-0.802 2.711-0.802 0.637 0 2.057 0.085 2.662 0.312 0.606 0.227 1.463 0.557 1.836 0.979 0.367 0.429 0.478 0.618 0.809 0.967 0.41 0.435 0.538 1.53 0.562 1.995 0.019 0.477 0.067 1.199 0.067 2.16l6e-3 6.818c0 0.655 0.19 0.734 0.312 1.481-0.471-0.019-1.083-0.031-1.353-0.031-0.281 0-0.955 6e-3 -1.506 0.031 0.367-1.169 0.294-0.771 0.325-1.487l0.024-6.181c-2e-3 -0.87-7e-3 -1.384-0.032-2.026zm-24.217 8.831c-0.459 0.386-0.937 0.667-1.23 0.857-0.637 0.135-1.016 0.282-1.42 0.312-0.404 0.031-0.79 0.049-1.151 0.049-1.206 0-2.093-0.367-2.784-0.686-0.692-0.318-1.255-0.875-1.616-1.524-0.361-0.648-0.441-1.242-0.471-2.007-0.019-0.447 0.116-0.906 0.22-1.279 0.104-0.374 0.251-0.716 0.44-1.022 0.19-0.306 0.331-0.539 0.692-0.844 0.361-0.306 0.575-0.478 0.979-0.673s0.771-0.288 1.31-0.483c0.539-0.19 1.524-0.263 2.778-0.441 0.38-0.098 0.71-0.073 0.979-0.177s0.508-0.208 0.716-0.306 0.386-0.214 0.539-0.349 0.294-0.3 0.417-0.49c0.128-0.196 0.214-0.263 0.269-0.459s0.024-0.294 0.019-0.496c-0.019-0.49-0.043-0.637-0.337-0.985-0.293-0.349-0.636-0.833-1.095-0.967s-1.224-0.361-1.842-0.361c-0.575 0-1.046 0.074-1.646 0.177-0.6 0.104-1.114 0.233-1.548 0.374-0.429 0.147-0.918 0.361-1.561 0.649 0.062-0.441 0.012-1.065 0.062-1.928 1.046-0.3 1.604-0.453 2.38-0.563 0.777-0.11 1.928-0.177 2.668-0.177 0.795 0 1.292 0.171 1.989 0.336 0.704 0.166 1.579 0.777 1.904 1.261 0.336 0.496 0.648 0.851 0.82 1.328 0.165 0.478 0.404 1.42 0.428 1.958 0.025 0.686 0.062 0.239 0.037 1.842-0.025 1.609 0.073 4.547 0.061 5.912-6e-3 0.826 0.098 0.912 0.318 2.038-0.478-0.019-1.096 0.024-1.402 0.024-0.281 0-0.709-0.043-1.236-0.024v-1.53c6e-3 0.011-0.227 0.268-0.686 0.654zm-19.975-3.109c0.422 0.875 0.991 1.438 1.769 1.891 0.777 0.447 1.805 0.839 2.791 0.839 1.139 0 3.213-0.478 4.915-1.328-0.085 0.539-0.263 1.242-0.336 2.075-0.838 0.238-2.222 0.771-2.84 0.856-0.618 0.086-1.23 0.104-1.848 0.104-1.102 0-2.197-0.275-3.084-0.569-0.888-0.3-1.775-0.912-2.424-1.652-0.655-0.735-1.297-1.536-1.603-2.491-0.312-0.948-0.386-1.909-0.429-2.968-0.055-1.475 0.184-2.025 0.637-3.286s1.401-2.179 2.387-2.901c0.979-0.722 2.246-1.083 3.794-1.083 0.802 0 1.713 0.062 2.454 0.325 0.74 0.263 1.365 0.539 1.867 1.071 0.508 0.539 0.93 1.071 1.224 1.86 0.294 0.79 0.361 0.802 0.526 1.72 0.074 0.429 0.129 1.102 0.092 1.438l-10.49 0.061c-0.012 0.545-0.049 0.814-0.037 1.096 0.029 1.045 0.212 2.067 0.635 2.942zm-11.12-10.288c0.318-0.067 1.102-0.177 1.518-0.189l6e-3 2.644c0.3-0.612 0.318-0.575 0.563-0.881 0.239-0.312 0.624-0.667 0.93-0.869 0.312-0.202 0.649-0.49 1.046-0.606 0.392-0.117 0.753-0.282 1.188-0.3 0.343-0.012 0.667-0.061 1.548 0.031 0.887 0.092 1.353 0.294 1.548 0.349 0.019 0.355-0.649 1.989-0.649 1.989s-0.636-0.055-1.211-0.293c-0.551-0.166-0.924-0.166-1.359-0.166-0.514 0-1.12 0.116-1.524 0.312-0.404 0.19-0.79 0.422-1.102 0.814s-0.52 0.796-0.71 1.34c-0.159 0.441-0.104 0.073-0.165 0.765-0.067 0.691-6e-3 7.326 0.049 8.819l0.263 0.857c-0.483-0.019-1.169 0-1.462 0-0.27 0-0.924 0.012-1.469 0.03 0-0.281 0.282-0.673 0.288-0.942 0.067-4.633-0.03-8.213-0.141-11.206l-0.049-1.261-0.44-1.071c0.446-0.05 1.052-0.111 1.334-0.166zm-18.654-6.224c0.533 0 1.322 0.086 2.436 0.062 1.114-0.025 2.105 0 2.546 0.042 1.585 0.147 1.989 0.233 3.078 0.502 0.826 0.196 2.393 1.034 3.091 1.53 0.704 0.496 1.401 1.064 1.97 1.866 0.563 0.802 0.845 1.059 1.224 1.989 0.508 1.261 0.802 2.625 0.851 3.892 0.067 1.732-0.116 3.06-0.618 4.651-0.496 1.591-1.603 2.772-2.668 3.837s-2.234 1.708-3.593 2.044c-1.365 0.336-2.901 0.667-4.596 0.667l-3.991-0.03-3.8-0.092 0.539-1.42-0.043-17.528c-0.012-0.508-0.251-1.034-0.501-1.922 1.198 0.027 3.224-0.09 4.075-0.09zm-17.797 168.64v-128.02c0-2.846 2.313-5.159 5.159-5.159h144.32c2.846 0 5.159 2.313 5.159 5.159v128.02c0 2.846-2.313 5.159-5.159 5.159h-144.32c-2.846 1e-3 -5.159-2.312-5.159-5.158z" fill="#1a1a1a"/>
     <ellipse cx="493.55" cy="200.22" rx="25.204" ry="25.115" fill="#fff"/>
     <circle cx="493.51" cy="200.26" r="18.911" fill="#1a1a1a"/>
     <ellipse cx="444.94" cy="246.54" rx="25.204" ry="25.115" fill="#fff"/>
     <path d="m445.3 265.55c10.422 0 18.904-8.482 18.904-18.905s-8.482-18.911-18.904-18.911c-10.429 0-18.911 8.482-18.911 18.911s8.482 18.905 18.911 18.905z" fill="#1a1a1a"/>
     <ellipse cx="492.88" cy="293.45" rx="25.204" ry="25.115" fill="#fff"/>
     <path d="m492.9 274.71c-10.429 0-18.911 8.482-18.911 18.911 0 10.428 8.482 18.905 18.911 18.905 10.422 0 18.904-8.482 18.904-18.905s-8.482-18.911-18.904-18.911z" fill="#1a1a1a"/>
     <ellipse cx="541.23" cy="247.25" rx="25.204" ry="25.115" fill="#fff"/>
     <circle cx="541.11" cy="247.25" r="18.911" fill="#1a1a1a"/>
     <path d="m78.855 232.89c21.53 0 39.045-17.515 39.045-39.045s-17.515-39.045-39.045-39.045-39.046 17.515-39.046 39.045 17.522 39.045 39.046 39.045z" fill="#1a1a1a"/>
     <polygon transform="translate(6.8088,8.7805)" points="124.82 332.13 155.94 332.13 155.94 310.78 124.82 310.78 124.82 279.67 103.48 279.67 103.48 310.78 72.364 310.78 72.364 332.13 103.48 332.13 103.48 363.25 124.82 363.25" fill="#1a1a1a"/>
     <polygon transform="translate(6.8088,8.7805)" points="269.44 444.41 318.12 444.41 293.78 403.06" fill="#1a1a1a"/>
    </g>
   </g>
   <g transform="translate(-1.12)" clip-path="url(#a)" fill="#1a1a1a">
    <g clip-path="none">
     <path d="m243.78 111.34c0.838 0 1.818-0.043 2.687-0.135s1.481-0.397 2.167-0.636 1.377-0.643 2.02-1.261c0.637-0.618 1.157-1.316 1.548-2.099 0.392-0.784 0.673-1.659 0.845-2.632 0.171-0.967 0.239-1.952 0.196-2.95-0.042-1.12-0.343-1.953-0.648-2.907-0.306-0.955-0.881-2.154-1.671-2.803-0.869-0.716-1.493-1.224-2.387-1.481-0.894-0.251-2.154-0.637-3.599-0.637-0.881 0-2.05 0.062-2.62 0.128-0.593 0.074-1.138 0.147-1.885 0.159l0.196 17.228c1.162 0.038 2.154 0.026 3.151 0.026z" fill="#1a1a1a"/>
     <path d="m278.33 102.96c-0.031-0.624 0-0.416-0.073-0.765-0.074-0.343-0.166-0.618-0.349-0.991-0.184-0.367-0.502-0.624-0.795-0.894-0.294-0.27-0.643-0.478-1.053-0.618-0.404-0.147-1.01-0.22-1.475-0.22-0.501 0-0.948 0.153-1.395 0.312s-0.838 0.374-1.175 0.649c-0.336 0.275-0.618 0.6-0.844 0.967-0.227 0.367-0.392 0.729-0.496 1.071-0.042 0.135-0.049 0.147-0.042 0.153 6e-3 6e-3 0.03-0.012-0.025 0.336z" fill="#1a1a1a"/>
     <path d="m291.54 104.42c-0.3 0.27-0.441 0.343-0.587 0.453-0.147 0.11-0.361 0.171-0.551 0.269-0.19 0.092-0.447 0.116-0.68 0.202-0.226 0.085-1.022 0.11-1.346 0.153-0.691 0.086-1.15 0.159-1.426 0.27-0.6 0.214-0.955 0.275-1.298 0.496-0.342 0.22-0.612 0.551-0.838 0.808-0.227 0.257-0.312 0.49-0.404 0.747-0.104 0.318-0.092 0.655-0.073 0.998 0.018 0.538 0.434 1.132 0.734 1.523 0.293 0.398 0.3 0.257 0.679 0.526 0.379 0.263 0.918 0.404 1.518 0.404 0.374 0 0.759-0.031 1.157-0.092 0.306-0.043 0.637-0.239 1.096-0.392 0.146-0.049 0.489-0.361 0.655-0.422 0 0 0.422-0.342 0.844-1.077 0.422-0.734 0.508-1.952 0.508-1.952z" fill="#1a1a1a"/>
     <path d="m341.81 104.23c-0.294 0.27-0.44 0.349-0.588 0.459-0.146 0.11-0.379 0.153-0.569 0.251-0.189 0.092-0.428 0.135-0.66 0.22-0.227 0.086-1.022 0.11-1.347 0.153-0.691 0.085-1.15 0.159-1.426 0.269-0.6 0.22-0.961 0.282-1.304 0.496-0.343 0.221-0.618 0.551-0.845 0.808s-0.318 0.489-0.404 0.747c-0.104 0.318-0.085 0.655-0.073 1.003 0.019 0.533 0.435 1.132 0.734 1.524 0.3 0.398 0.3 0.257 0.686 0.526 0.38 0.263 0.918 0.404 1.524 0.404 0.373 0 0.759-0.03 1.162-0.092 0.307-0.042 0.643-0.245 1.096-0.392 0.146-0.049 0.489-0.361 0.655-0.422 0 0 0.422-0.343 0.844-1.077 0.423-0.729 0.509-1.953 0.509-1.953z" fill="#1a1a1a"/>
     <path d="m119.14 577.38c12.815-43.023 10.985-43.023 17.393-58.582 6.408-15.562 19.223-16.475 35.698-20.135 82.805-10.454 167.09-15.742 247.15-7e-5 16.476 3.66 29.291 4.578 35.698 20.135 6.407 15.564 4.578 15.564 17.394 58.582 12.814 43.018 69.554-66.818 95.184-228.83 25.631-162.01-11.848-224.91-22.222-230.4-10.373-5.49-79.382-20.404-79.382-20.404-18.269-23.911-37.871-41.377-57.039-54.199v181.14c0 53.85-43.807 97.657-97.656 97.657h-21.524c-53.85 0-97.657-43.808-97.657-97.657v-187.17c-22.156 13.194-45.296 32.319-66.624 60.232 0 0-69.009 14.908-79.382 20.404-10.374 5.49-47.853 68.385-22.222 230.4 25.624 162.01 82.375 271.85 95.19 228.83zm373.77-258.73c-13.801 0-25.031-11.223-25.031-25.024s11.23-25.031 25.031-25.031c13.8 0 25.024 11.224 25.024 25.031 1e-3 13.802-11.224 25.024-25.024 25.024zm48.207-96.432c13.801 0 25.03 11.224 25.03 25.031 0 13.801-11.229 25.025-25.03 25.025s-25.031-11.224-25.031-25.025 11.23-25.031 25.031-25.031zm-47.601-46.989c13.801 0 25.031 11.224 25.031 25.031 0 13.8-11.23 25.024-25.031 25.024s-25.03-11.224-25.03-25.024c5e-3 -13.801 11.229-25.031 25.03-25.031zm-48.207 46.383c13.801 0 25.024 11.224 25.024 25.031 0 13.801-11.224 25.025-25.024 25.025s-25.031-11.224-25.031-25.025c6e-3 -13.807 11.236-25.031 25.031-25.031zm-176.43 232.05 28.458-48.342c1.408-2.418 5.056-2.441 6.5-6e-3l28.451 48.342c0.729 1.242 0.759 2.662 0.099 3.818-0.655 1.15-1.91 1.842-3.33 1.842h-56.928c-1.426 0-2.674-0.691-3.335-1.842-0.668-1.156-0.631-2.582 0.085-3.812zm-136.01-171.33c0.12593-2.6961 5.1037 2.1992 4.895 4.8902v26.23l26.231-1.6e-4c2.693-2e-5 4.89 2.191 4.89 4.891v23.801c0 2.697-2.191 4.889-4.89 4.889l-26.231 1.6e-4v26.23c0 2.693-2.19 4.8908-4.895 4.8908h-23.801c-2.692 0-4.89-2.191-4.89-4.891v-26.23h-26.23c-2.693 0-4.89-2.191-4.89-4.889v-23.801c0-2.693 2.191-4.891 4.89-4.891h26.23v-26.23c0-2.699 2.191-4.89 4.89-4.89 7.9337 0 15.867 169.86 23.801 0zm-54.009-133.64c24.902 0 45.166 20.263 45.166 45.166s-20.263 45.166-45.166 45.166-45.166-20.263-45.166-45.166 20.264-45.166 45.166-45.166z" fill="#f2f2f2" stroke="#000" stroke-width="3.2267"/>
     <path d="m371.79 133.6h-142.4v126.1h142.4zm-8.256 117.31c0 0.985-0.796 1.781-1.781 1.781h-122.33c-0.979 0-1.781-0.796-1.781-1.781v-108.51c0-0.985 0.795-1.781 1.781-1.781h122.33c0.985 0 1.781 0.795 1.781 1.781z" fill="#1a1a1a"/>
     <path d="m126.54 95.719a205.64 206.43 0 0 0-36.058 116.76 205.64 206.43 0 0 0 205.64 206.43 205.64 206.43 0 0 0 205.64-206.43 205.64 206.43 0 0 0-36.06-116.76z" clip-path="none" fill="none" stroke="#000" stroke-width="7.4"/>
     <path d="m289.82 316.22h21.523c50.558 0 91.537-40.985 91.537-91.536v-185.14c-45.018-27.974-86.578-30.765-101.38-30.765-3.69 0-5.71 0.171-5.71 0.171s-2.026-0.171-5.71-0.171c-13.733 0-50.551 2.405-91.8 25.153v190.75c0 50.552 40.986 91.537 91.537 91.537zm66.506-218.18 1.806-0.061c0.018-0.379-0.031-1.567-0.031-2.497 0-0.453-0.227-0.869-0.41-1.096 0.82-0.184 2.069-0.563 2.638-0.728-6e-3 1.469 0.099 3.556 0.117 4.321l3.684 0.055c-0.019 0.63 0.049 0.851 0.062 1.419l-1.016-0.122h-2.705l-0.05 8.103-0.024 0.679c0.024 0.723 0.123 1.641 0.282 2.001 0.159 0.361 0.385 0.496 0.679 0.655 0.3 0.159 0.637 0.196 0.949 0.196 0.22 0 0.551-6e-3 0.808-6e-3s0.435-0.019 1.071-0.202c-0.08 0.478-0.209 0.741-0.294 1.536-0.588 0.166-0.857 0.208-1.206 0.245-0.349 0.043-0.679-0.067-0.997-0.067-0.777 0-1.414-0.11-1.903-0.337-0.49-0.22-0.869-0.575-1.139-1.071-0.275-0.49-0.465-1.708-0.496-2.552-6e-3 -0.11-6e-3 -0.3-0.012-0.575 0-0.275-0.019-0.551 0-2.197l-0.056-6.402h-1.774c0.023-0.397 0.023-0.519 0.017-1.297zm-2.932 9.309c-0.135-0.184-0.643-0.618-0.899-0.838-0.257-0.227-0.937-0.557-1.824-0.924-0.899-0.379-2.044-0.74-2.46-1.089-0.416-0.355-1.175-0.759-1.475-1.132s-0.526-0.74-0.68-1.12c-0.153-0.374-0.043-0.943-0.055-1.328-0.024-0.618 0.36-1.254 0.728-1.836 0.361-0.575 0.992-0.9 1.714-1.188 0.723-0.281 1.579-0.428 2.564-0.428 1.102 0 2.166 0.214 3.501 0.471 0.073 0.753-0.099 1.273-7e-3 1.897-0.961-0.636-2.025-0.955-3.072-0.955-0.568 0-1.145 0.086-1.621 0.233-0.478 0.146-1.01 0.624-1.218 0.918-0.215 0.3-0.331 0.581-0.318 0.936 6e-3 0.233 0.079 0.618 0.165 0.833 0.086 0.214 0.648 0.808 0.942 0.937 0.404 0.177 0.245 0.153 0.612 0.232 0.416 0.092 1.444 0.618 2.423 1.083 1.017 0.483 1.946 1.089 2.265 1.408 0.324 0.318 0.637 0.759 0.931 1.438 0.165 0.38 0.257 0.826 0.257 1.145 0 0.551-0.146 0.625-0.129 0.967 0.031 0.673-0.141 0.924-0.514 1.5s-1.071 1.126-1.849 1.444c-0.777 0.318-1.604 0.582-2.576 0.582-0.416 0-1.377 0.049-1.934-6e-3 -0.558-0.049-1.035-0.239-1.427-0.312s-0.643-0.092-1.224-0.232l-0.202-0.985c-6e-3 -0.116-0.263-0.771-0.373-1.396 1.646 0.906 3.385 1.542 4.633 1.542 0.654 0 1.304-0.19 1.75-0.361 0.447-0.171 0.882-0.489 1.096-0.826 0.208-0.336 0.44-0.661 0.521-1.016 0.049-0.196 0.11-0.459 0.061-0.637-0.067-0.211-0.171-0.774-0.306-0.957zm-86.138-55.282c0.324-2.111 0.955-4.223 1.364-5.673 0.973-3.47 3.581-8.672 4.841-10.429s1.762-2.295 3.592-4.339 0.783-0.637 4.174-3.421c3.384-2.785 7.938-4.78 9.933-5.587 1.995-0.814 5.037-2.301 10.521-2.668s8.794 0.312 11.854 0.667c3.586 0.417 10.435 2.754 10.435 2.754s3.996 1.805 7.093 3.837c1.671 1.004 3.158 2.987 4.676 4.927 2.087 2.668 4.131 6.028 4.425 6.505 0.508 0.814 2.778 4.908 3.256 6.426s1.542 7.117 1.628 7.729 0.937 4.051-2.001 4.253c-3.22 0.22-3.55-3.066-3.758-4.002-0.214-0.942-2.387-8.158-3.14-9.517s-5.264-7.962-7.265-10.135-5.894-4.951-10.141-6.255c-4.063-1.254-10.961-2.479-15.6-2.276-4.076 0.177-5.416 0.459-7.191 1.022-3.629 1.157-6.812 2.993-9.015 4.382-2.203 1.383-5.899 4.357-7.515 6.383-1.916 2.405-5.166 8.354-5.888 11.64-1.334 6.114-0.502 12.014-0.502 12.014s1.506 11.579 9.015 17.521c2.938 2.332 5.336 3.562 12.02 5.379 0.937 0.257 3.978 0.471 7.778 0.496 3.801 0.019 4.957-0.11 7.124-0.869 2.16-0.759 2.852-0.894 4.504-1.75 1.659-0.857 4.505-1.799 7.559-4.811 1.707-1.689 3.837-5.006 4.719-8.329 0.514-1.946 0.189-2.552 0.122-5.104-0.019-0.783-0.092-1.493-0.153-2.167-0.146-1.524-0.397-2.938-0.93-5.178-0.771-3.231-0.539-2.387-1.292-4.449-0.52-1.42-1.107-2.577-1.523-3.25s-0.814-1.12-1.273-1.818c-3.17-4.841-9.431-8.011-15.232-8.201-1.934-0.067-4.314 0.135-6.714 0.894-1.628 0.514-3.268 1.346-4.786 2.271-0.63 0.379-1.23 0.673-1.812 1.132-0.587 0.471-0.942 0.606-1.462 1.157-0.471 0.501-1.114 1.628-1.5 2.136-4.725 6.065-3.629 11.689-3.629 11.689s-0.44 13.207 13.52 14.646c3.525 0.171 9.89-2.087 12.301-4.67 1.481-1.591 1.585-4.437 1.536-6.964-0.036-2.001-1.016-5.551-2.552-6.922-3.342-2.98-6.12-3.072-7.576-3.158-1.94-0.123-4.7 0.477-5.79 4.725-0.38 1.475 0.777 4.547 2.962 4.982 1.879 0.379 3.88 0 4.762 0.128 0.783 0.11 1.971-0.153 1.971 2.313-0.221 4.321-9.633 1.903-9.737 1.812-0.722-0.624-4.969-3.042-5.134-7.631-0.178-4.847 2.099-8.507 6.236-10.576 1.041-0.52 2.956-0.783 4.254-0.838 3.524 0.171 6.021 0.63 8.604 2.02 0.483 0.263 0.979 0.477 1.512 0.838 0.165 0.11 0.802 0.557 0.899 0.618 3.023 2.601 4.284 6.035 4.884 9.499 0.238 1.377 0.232 2.662 0.275 3.678 0.08 1.738-0.122 3.843-1.01 5.82-0.942 2.112-2.638 4.082-5 5.318-2.295 1.2-5.643 3.103-10.264 3.672-2.784 0.342-6.021 0.287-9.773-0.924-10.643-3.439-11.646-15.514-11.646-15.514s-2.173-8.898 3.69-16.916c0.618-0.844 1.322-1.928 2.129-2.735 2.644-2.644 5.012-4.015 7.185-5.166 3.99-2.111 6.916-2.595 7.779-2.595 0.618 0 2.093-0.085 3.824 0.043 1.983 0.141 4.309 0.526 6.065 0.955 1.928 0.471 3.537 0.851 4.792 1.383 1.188 0.508 2.038 1.175 2.968 1.744 1.922 1.169 4.982 3.488 6.017 5.055 1.07 1.628 2.589 3.715 3.77 7.387 0.691 2.154 1.273 5.232 1.983 8.703 1.064 5.196 0.679 10.447-0.502 13.764-0.129 0.355-1.451 4.566-5.637 8.513-4.187 3.954-9.455 6.193-11.016 6.817-1.567 0.625-3.795 2.521-12.332 2.381-7.387-0.123-12.987-2.081-14.651-2.754-1.665-0.673-6.059-2.068-10.833-7.319-4.773-5.257-5.814-8.648-6.573-10.949s-2.191-8.195-2.191-8.195 0.171-0.024-0.171-3.066c-0.129-1.359-0.111-3.133 0.159-4.908zm73.825 59.388c-0.465 0.386-0.937 0.673-1.236 0.857-0.637 0.134-1.021 0.281-1.426 0.312-0.404 0.037-0.783 0.049-1.15 0.049-1.212 0-2.1-0.367-2.791-0.686-0.691-0.318-1.261-0.875-1.622-1.523-0.36-0.649-0.44-1.243-0.471-2.008-0.019-0.446 0.11-0.905 0.22-1.279 0.104-0.379 0.251-0.716 0.447-1.022 0.189-0.306 0.33-0.539 0.691-0.851 0.361-0.306 0.575-0.478 0.979-0.673 0.403-0.202 0.777-0.288 1.315-0.483 0.539-0.196 1.524-0.263 2.785-0.441 0.385-0.098 0.71-0.073 0.979-0.177 0.27-0.104 0.509-0.208 0.717-0.306s0.385-0.214 0.538-0.349 0.294-0.3 0.416-0.49c0.129-0.196 0.215-0.141 0.27-0.336 0.055-0.196 0.024-0.294 0.019-0.496-0.019-0.489-0.043-0.765-0.337-1.107s-0.637-0.833-1.102-0.967c-0.459-0.141-1.23-0.361-1.849-0.361-0.575 0-1.046 0.073-1.646 0.178-0.6 0.104-1.114 0.232-1.549 0.373-0.429 0.147-0.918 0.361-1.561 0.649 0.062-0.435 0.013-1.065 0.062-1.922 1.053-0.306 1.609-0.453 2.387-0.563s1.928-0.178 2.674-0.178c0.796 0 1.292 0.171 1.995 0.337 0.698 0.165 1.586 0.777 1.91 1.261 0.336 0.496 0.648 0.856 0.819 1.334 0.172 0.478 0.404 1.42 0.429 1.958 0.024 0.679 0.062 0.239 0.037 1.842-0.024 1.609 0.073 4.547 0.061 5.912-6e-3 0.833 0.099 0.912 0.318 2.038-0.483-0.019-1.102 0.024-1.401 0.024-0.287 0-0.71-0.043-1.236-0.024v-1.53c7e-3 6e-3 -0.226 0.263-0.691 0.648zm-19.155-3.378c0.336 0.838 0.899 1.659 1.683 2.118s1.701 0.906 2.662 0.906c0.931 0 2.889-0.098 5.013-1.224-0.013 0.159-0.098 0.514-0.153 0.942-0.055 0.435-0.178 0.796-0.214 1.212-0.637 0.166-1.31 0.349-1.903 0.41-0.588 0.061-2.197 0.165-2.644 0.165-0.949 0-2.051-0.196-2.864-0.483-0.814-0.288-1.83-0.832-2.448-1.487-0.624-0.655-1.328-1.31-1.646-2.283s-0.545-1.909-0.581-2.993c-0.056-1.457 0.177-1.946 0.587-3.25 0.404-1.31 1.438-2.252 2.394-2.993 0.954-0.741 3.164-1.371 4.859-1.371 1.248 0 2.711 0.208 3.91 0.575 0.086 0.851 0.116 1.31 0.178 1.861-0.845-0.3-1.616-0.649-2.148-0.753s-1.199-0.202-1.652-0.202c-0.771 0-2.411 0.343-3.011 0.655-0.6 0.318-1.102 0.765-1.512 1.353-0.41 0.581-0.734 1.395-0.894 2.197s-0.221 0.869-0.189 1.702c0.04 1.125 0.23 2.104 0.573 2.943zm-6.898-5.263c-0.019-0.575-0.189-1.224-0.306-1.548-0.116-0.324-0.704-0.924-0.949-1.187-0.244-0.263-0.611-0.312-0.961-0.447-0.349-0.135-0.911-0.166-1.353-0.166-0.354 0-0.802 0.062-1.095 0.147-0.275 0.086-0.551 0.147-0.809 0.331-0.281 0.189-0.532 0.3-0.752 0.575-0.221 0.27-0.398 0.575-0.545 0.912-0.153 0.349-0.159 0.869-0.189 1.432-0.037 0.606 0.03 1.383 0.012 2.252-0.024 0.918-0.024 4.56 0 6.065l0.422 1.346c-0.514-0.018-1.272-0.03-1.529-0.03-0.239 0-0.894 6e-3 -1.457 0.03 0.043-1.224 0.19-0.11 0.196-1.407l0.024-5.594c0-1.108-0.013-2.057-0.043-2.833-0.019-0.508-0.079-0.686-0.184-1.041-0.098-0.355-0.275-0.802-0.532-1.096-0.251-0.293-0.808-0.765-1.15-0.918-0.35-0.153-0.839-0.269-1.268-0.269-0.452 0-0.746 0.049-1.138 0.22s-0.734 0.251-1.059 0.594c-0.318 0.336-0.588 0.373-0.796 0.869-0.208 0.489-0.367 0.385-0.459 1.181-0.098 0.795-0.141 3.69-0.135 5.667 6e-3 1.169 0.019 2.228 0.037 3.183 0.012 0.654 0.281 0.887 0.306 1.444-0.569-0.018-1.212-0.03-1.42-0.03-0.232 0-1.01 6e-3 -1.585 0.03l0.318-1.028c0.012-0.453 0.019-1.922 0.024-2.901l-0.147-8.292c-0.018-0.741-0.416-1.628-0.435-2.014 0.41 0.012 1.335-0.135 1.763-0.294 0.343-0.128 0.729-0.128 1.09-0.141l-6e-3 1.928c0.275-0.557 0.776-0.612 1.01-0.942 0.232-0.324 0.471-0.312 0.856-0.587s0.624-0.288 1.139-0.361c0.63-0.092 1.027-0.123 1.572-0.123 0.38 0 0.753 0.049 1.126 0.147 0.374 0.098 0.717 0.239 1.041 0.417 0.318 0.177 0.594 0.379 0.826 0.605 0.232 0.227 0.483 0.349 0.691 0.741 0.073 0.128 0.637-0.624 1.426-1.083 0.79-0.453 1.72-0.802 2.711-0.802 0.637 0 2.057 0.085 2.662 0.312 0.606 0.227 1.463 0.557 1.836 0.979 0.367 0.429 0.478 0.618 0.809 0.967 0.41 0.435 0.538 1.53 0.562 1.995 0.019 0.477 0.067 1.199 0.067 2.16l6e-3 6.818c0 0.655 0.19 0.734 0.312 1.481-0.471-0.019-1.083-0.031-1.353-0.031-0.281 0-0.955 6e-3 -1.506 0.031 0.367-1.169 0.294-0.771 0.325-1.487l0.024-6.181c-2e-3 -0.87-7e-3 -1.384-0.032-2.026zm-24.217 8.831c-0.459 0.386-0.937 0.667-1.23 0.857-0.637 0.135-1.016 0.282-1.42 0.312-0.404 0.031-0.79 0.049-1.151 0.049-1.206 0-2.093-0.367-2.784-0.686-0.692-0.318-1.255-0.875-1.616-1.524-0.361-0.648-0.441-1.242-0.471-2.007-0.019-0.447 0.116-0.906 0.22-1.279 0.104-0.374 0.251-0.716 0.44-1.022 0.19-0.306 0.331-0.539 0.692-0.844 0.361-0.306 0.575-0.478 0.979-0.673s0.771-0.288 1.31-0.483c0.539-0.19 1.524-0.263 2.778-0.441 0.38-0.098 0.71-0.073 0.979-0.177s0.508-0.208 0.716-0.306 0.386-0.214 0.539-0.349 0.294-0.3 0.417-0.49c0.128-0.196 0.214-0.263 0.269-0.459s0.024-0.294 0.019-0.496c-0.019-0.49-0.043-0.637-0.337-0.985-0.293-0.349-0.636-0.833-1.095-0.967s-1.224-0.361-1.842-0.361c-0.575 0-1.046 0.074-1.646 0.177-0.6 0.104-1.114 0.233-1.548 0.374-0.429 0.147-0.918 0.361-1.561 0.649 0.062-0.441 0.012-1.065 0.062-1.928 1.046-0.3 1.604-0.453 2.38-0.563 0.777-0.11 1.928-0.177 2.668-0.177 0.795 0 1.292 0.171 1.989 0.336 0.704 0.166 1.579 0.777 1.904 1.261 0.336 0.496 0.648 0.851 0.82 1.328 0.165 0.478 0.404 1.42 0.428 1.958 0.025 0.686 0.062 0.239 0.037 1.842-0.025 1.609 0.073 4.547 0.061 5.912-6e-3 0.826 0.098 0.912 0.318 2.038-0.478-0.019-1.096 0.024-1.402 0.024-0.281 0-0.709-0.043-1.236-0.024v-1.53c6e-3 0.011-0.227 0.268-0.686 0.654zm-19.975-3.109c0.422 0.875 0.991 1.438 1.769 1.891 0.777 0.447 1.805 0.839 2.791 0.839 1.139 0 3.213-0.478 4.915-1.328-0.085 0.539-0.263 1.242-0.336 2.075-0.838 0.238-2.222 0.771-2.84 0.856-0.618 0.086-1.23 0.104-1.848 0.104-1.102 0-2.197-0.275-3.084-0.569-0.888-0.3-1.775-0.912-2.424-1.652-0.655-0.735-1.297-1.536-1.603-2.491-0.312-0.948-0.386-1.909-0.429-2.968-0.055-1.475 0.184-2.025 0.637-3.286s1.401-2.179 2.387-2.901c0.979-0.722 2.246-1.083 3.794-1.083 0.802 0 1.713 0.062 2.454 0.325 0.74 0.263 1.365 0.539 1.867 1.071 0.508 0.539 0.93 1.071 1.224 1.86 0.294 0.79 0.361 0.802 0.526 1.72 0.074 0.429 0.129 1.102 0.092 1.438l-10.49 0.061c-0.012 0.545-0.049 0.814-0.037 1.096 0.029 1.045 0.212 2.067 0.635 2.942zm-11.12-10.288c0.318-0.067 1.102-0.177 1.518-0.189l6e-3 2.644c0.3-0.612 0.318-0.575 0.563-0.881 0.239-0.312 0.624-0.667 0.93-0.869 0.312-0.202 0.649-0.49 1.046-0.606 0.392-0.117 0.753-0.282 1.188-0.3 0.343-0.012 0.667-0.061 1.548 0.031 0.887 0.092 1.353 0.294 1.548 0.349 0.019 0.355-0.649 1.989-0.649 1.989s-0.636-0.055-1.211-0.293c-0.551-0.166-0.924-0.166-1.359-0.166-0.514 0-1.12 0.116-1.524 0.312-0.404 0.19-0.79 0.422-1.102 0.814s-0.52 0.796-0.71 1.34c-0.159 0.441-0.104 0.073-0.165 0.765-0.067 0.691-6e-3 7.326 0.049 8.819l0.263 0.857c-0.483-0.019-1.169 0-1.462 0-0.27 0-0.924 0.012-1.469 0.03 0-0.281 0.282-0.673 0.288-0.942 0.067-4.633-0.03-8.213-0.141-11.206l-0.049-1.261-0.44-1.071c0.446-0.05 1.052-0.111 1.334-0.166zm-18.654-6.224c0.533 0 1.322 0.086 2.436 0.062 1.114-0.025 2.105 0 2.546 0.042 1.585 0.147 1.989 0.233 3.078 0.502 0.826 0.196 2.393 1.034 3.091 1.53 0.704 0.496 1.401 1.064 1.97 1.866 0.563 0.802 0.845 1.059 1.224 1.989 0.508 1.261 0.802 2.625 0.851 3.892 0.067 1.732-0.116 3.06-0.618 4.651-0.496 1.591-1.603 2.772-2.668 3.837s-2.234 1.708-3.593 2.044c-1.365 0.336-2.901 0.667-4.596 0.667l-3.991-0.03-3.8-0.092 0.539-1.42-0.043-17.528c-0.012-0.508-0.251-1.034-0.501-1.922 1.198 0.027 3.224-0.09 4.075-0.09zm-17.797 168.64v-128.02c0-2.846 2.313-5.159 5.159-5.159h144.32c2.846 0 5.159 2.313 5.159 5.159v128.02c0 2.846-2.313 5.159-5.159 5.159h-144.32c-2.846 1e-3 -5.159-2.312-5.159-5.158z" fill="#1a1a1a"/>
     <ellipse cx="444.94" cy="246.54" rx="25.204" ry="25.115" fill="#fff"/>
     <path d="m445.3 265.55c10.422 0 18.904-8.482 18.904-18.905s-8.482-18.911-18.904-18.911c-10.429 0-18.911 8.482-18.911 18.911s8.482 18.905 18.911 18.905z" fill="#1a1a1a"/>
     <ellipse cx="492.88" cy="293.45" rx="25.204" ry="25.115" fill="#fff"/>
     <path d="m492.9 274.71c-10.429 0-18.911 8.482-18.911 18.911 0 10.428 8.482 18.905 18.911 18.905 10.422 0 18.904-8.482 18.904-18.905s-8.482-18.911-18.904-18.911z" fill="#1a1a1a"/>
     <ellipse cx="541.23" cy="247.25" rx="25.204" ry="25.115" fill="#fff"/>
     <circle cx="541.11" cy="247.25" r="18.911" fill="#1a1a1a"/>
     <path d="m78.855 232.89c21.53 0 39.045-17.515 39.045-39.045s-17.515-39.045-39.045-39.045-39.046 17.515-39.046 39.045 17.522 39.045 39.046 39.045z" fill="#1a1a1a"/>
     <polygon transform="translate(6.8088,8.7805)" points="124.82 279.67 103.48 279.67 103.48 310.78 72.364 310.78 72.364 332.13 103.48 332.13 103.48 363.25 124.82 363.25 124.82 332.13 155.94 332.13 155.94 310.78 124.82 310.78" fill="#1a1a1a"/>
     <polygon transform="translate(6.8088,8.7805)" points="318.12 444.41 293.78 403.06 269.44 444.41" fill="#1a1a1a"/>
     <polygon transform="translate(6.8088,8.7805)" points="124.82 332.13 155.94 332.13 155.94 310.78 124.82 310.78 124.82 279.67 103.48 279.67 103.48 310.78 72.364 310.78 72.364 332.13 103.48 332.13 103.48 363.25 124.82 363.25" fill="#1a1a1a"/>
     <ellipse cx="409.18" cy="244.08" rx="25.204" ry="25.115" fill="#fff"/>
    </g>
   </g>
   <path d="m444.19 415.9c23.103 0 41.897-18.795 41.897-41.897s-18.794-41.897-41.897-41.897c-23.103 0-41.898 18.795-41.898 41.897s18.802 41.897 41.898 41.897z" stroke-width=".86172"/>
   <path d="m444.19 412.57c21.38 0 38.773-17.297 38.773-38.56 0-21.263-17.393-38.56-38.773-38.56-21.38 0-38.775 17.297-38.775 38.56 0 21.263 17.4 38.56 38.775 38.56z" fill="#ececec" stroke-width=".86172"/>
   <path d="m444.19 407.65c18.553 0 33.646-15.093 33.646-33.646 0-18.553-15.093-33.646-33.646-33.646-18.553 0-33.647 15.093-33.647 33.646 0 18.553 15.099 33.646 33.647 33.646z" fill="#333" stroke="#000" stroke-width="2.9069" data-button="button-11"/>
   <path d="m78.499 243.34c26.81 0 48.62-21.811 48.62-48.621s-21.81-48.621-48.62-48.621-48.622 21.811-48.622 48.621 21.819 48.621 48.622 48.621z"/>
   <path d="m78.499 239.47c24.811 0 44.995-20.073 44.995-44.748s-20.184-44.748-44.995-44.748-44.997 20.073-44.997 44.748 20.192 44.748 44.997 44.748z" fill="#ececec"/>
   <path d="m78.499 233.76c21.53 0 39.045-17.515 39.045-39.045s-17.515-39.045-39.045-39.045-39.046 17.515-39.046 39.045 17.522 39.045 39.046 39.045z" fill="#333" stroke="#000" stroke-width="2.9069" data-button="button-10"/>
   <path d="m491.78 320.33c14.996 0 27.196-12.2 27.196-27.196s-12.199-27.196-27.196-27.196c-14.996 0-27.197 12.2-27.197 27.196s12.204 27.196 27.197 27.196z"/>
   <path d="m491.78 317.32c13.408 0 24.317-10.848 24.317-24.183s-10.908-24.183-24.317-24.183c-13.409 0-24.317 10.848-24.317 24.183s10.912 24.183 24.317 24.183z" fill="#ececec"/>
   <path d="m491.78 314.23c11.635 0 21.101-9.4653 21.101-21.101 0-11.635-9.4653-21.101-21.101-21.101-11.635 0-21.101 9.4653-21.101 21.101 0 11.635 9.4692 21.101 21.101 21.101z" fill="#a02c2c" data-button="button-0"/>
   <path d="m539.97 273.92c14.738 0 26.727-11.99 26.727-26.728s-11.989-26.728-26.727-26.728c-14.738 0-26.728 11.99-26.728 26.728s11.994 26.728 26.728 26.728z"/>
   <path d="m539.97 270.95c13.177 0 23.898-10.661 23.898-23.767 0-13.105-10.72-23.767-23.898-23.767s-23.899 10.661-23.899 23.767c0 13.105 10.724 23.767 23.899 23.767z" fill="#ececec"/>
   <path d="m539.97 267.92c11.435 0 20.738-9.3024 20.738-20.738 0-11.435-9.3024-20.738-20.738-20.738-11.435 0-20.738 9.3024-20.738 20.738 0 11.435 9.3062 20.738 20.738 20.738z" fill="#06f" data-button="button-1"/>
   <path d="m493.22 227.32c14.738 0 26.727-11.99 26.727-26.728s-11.989-26.728-26.727-26.728c-14.738 0-26.728 11.99-26.728 26.728s11.994 26.728 26.728 26.728z"/>
   <path d="m493.22 224.36c13.177 0 23.898-10.661 23.898-23.767 0-13.105-10.72-23.767-23.898-23.767s-23.899 10.661-23.899 23.767c0 13.105 10.724 23.767 23.899 23.767z" fill="#ececec"/>
   <path d="m493.22 221.33c11.435 0 20.738-9.3024 20.738-20.738 0-11.435-9.3024-20.738-20.738-20.738-11.435 0-20.738 9.3024-20.738 20.738 0 11.435 9.3062 20.738 20.738 20.738z" fill="#1ccb1c" data-button="button-3"/>
   <path d="m444.79 268.33c14.738 0 26.727-11.99 26.727-26.728s-11.989-26.728-26.727-26.728c-14.738 0-26.728 11.99-26.728 26.728s11.994 26.728 26.728 26.728z"/>
   <path d="m444.79 265.37c13.177 0 23.898-10.661 23.898-23.767 0-13.105-10.72-23.767-23.898-23.767s-23.899 10.661-23.899 23.767c0 13.105 10.724 23.767 23.899 23.767z" fill="#fff"/>
   <path d="m444.79 262.34c11.435 0 20.738-9.3024 20.738-20.738 0-11.435-9.3024-20.738-20.738-20.738-11.435 0-20.738 9.3024-20.738 20.738 0 11.435 9.3062 20.738 20.738 20.738z" fill="#fa9900" data-button="button-2"/>
   <polygon transform="matrix(1.7101,0,0,1.7148,-202.93,-294.51)" points="269.44 444.41 318.12 444.41 293.78 403.06" fill="#fff" stroke="#000" stroke-linecap="square" stroke-linejoin="round" stroke-width="2.0439" style="paint-order:normal"/>
   <g transform="matrix(1.2116 0 0 1.2405 -56.477 -89.866)" fill="#333" stroke="#000" stroke-linejoin="round" stroke-miterlimit="0" stroke-width="2.3711" style="paint-order:normal">
    <polygon points="269.44 444.41 318.12 444.41 293.78 403.06" fill="#333" stroke="#000" stroke-linejoin="round" stroke-miterlimit="0" stroke-width="2.3711" style="paint-order:normal" data-button="button-9"/>
   </g>
   <text x="484.67032" y="210.79993" fill="#000000" fill-opacity=".75" font-family="sans-serif" font-size="40px" letter-spacing="0px" stroke-width="1.8197" word-spacing="0px" style="line-height:1.25" xml:space="preserve"><tspan x="484.67032" y="210.79993" fill="#000000" fill-opacity=".75" font-family="sans-serif" font-size="28px" stroke-width="1.8197" style="font-variant-caps:normal;font-variant-east-asian:normal;font-variant-ligatures:normal;font-variant-numeric:normal">Y</tspan></text>
   <text x="435.22971" y="251.80605" fill="#000000" fill-opacity=".75" font-family="sans-serif" font-size="40px" letter-spacing="0px" stroke-width="1.8197" word-spacing="0px" style="line-height:1.25" xml:space="preserve"><tspan x="435.22971" y="251.80605" fill="#000000" fill-opacity=".75" font-family="sans-serif" font-size="28px" stroke-width="1.8197" style="font-variant-caps:normal;font-variant-east-asian:normal;font-variant-ligatures:normal;font-variant-numeric:normal">X</tspan></text>
   <text x="531.4353" y="257.39502" fill="#000000" fill-opacity=".75" font-family="sans-serif" font-size="40px" letter-spacing="0px" stroke-width="1.8197" word-spacing="0px" style="line-height:1.25" xml:space="preserve"><tspan x="531.4353" y="257.39502" fill="#000000" fill-opacity=".75" font-family="sans-serif" font-size="28px" stroke-width="1.8197" style="font-variant-caps:normal;font-variant-east-asian:normal;font-variant-ligatures:normal;font-variant-numeric:normal">B</tspan></text>
   <text x="482.2132" y="303.34509" fill="#000000" fill-opacity=".75" font-family="sans-serif" font-size="40px" letter-spacing="0px" stroke-width="1.8197" word-spacing="0px" style="line-height:1.25" xml:space="preserve"><tspan x="482.2132" y="303.34509" fill="#000000" fill-opacity=".75" font-family="sans-serif" font-size="28px" stroke-width="1.8197" style="font-variant-caps:normal;font-variant-east-asian:normal;font-variant-ligatures:normal;font-variant-numeric:normal">A</tspan></text>
   <path d="m173.25 347.86v-35.975h-35.335v-35.719h-36.421v35.719h-35.602v35.975h35.602v35.944h36.421v-35.944z" fill="#fff" stroke="#000" stroke-linecap="round" stroke-linejoin="round" stroke-miterlimit="6.6" stroke-width="3.1826"/>
   <g fill="#333" stroke="#000" stroke-width="2.0348" data-button="dpad-0">
    <polygon transform="matrix(1.1296 0 0 1.1296 -9.6574 -33.438)" points="103.48 363.25 124.82 363.25 124.82 332.13 155.94 332.13 155.94 310.78 124.82 310.78 124.82 279.67 103.48 279.67 103.48 310.78 72.364 310.78 72.364 332.13 103.48 332.13" fill="#333" stroke="#000" stroke-width="1.8014"/>
   </g>
   <path d="m246.43 423.18c9.522 0 17.268-7.7465 17.268-17.268 0-9.522-7.7461-17.268-17.268-17.268-9.522 0-17.269 7.7465-17.269 17.268 0 9.522 7.7493 17.268 17.269 17.268z" stroke-width=".63497"/>
   <path d="m246.43 420.5c8.0934 0 14.678-6.5481 14.678-14.597 0-8.0492-6.5842-14.597-14.678-14.597-8.0937 0-14.678 6.5481-14.678 14.597 0 8.0492 6.5869 14.597 14.678 14.597z" fill="#ececec" stroke-width=".60362"/>
   <path d="m246.43 418.33c6.8504 0 12.424-5.5729 12.424-12.424 0-6.8504-5.5729-12.424-12.424-12.424-6.8504 0-12.424 5.5729-12.424 12.424 0 6.8504 5.5752 12.424 12.424 12.424z" fill="#333" stroke="#000" stroke-width="1.4535" data-button="button-8"/>
   <path d="m352.5 423.18c9.522 0 17.268-7.7465 17.268-17.268 0-9.522-7.7461-17.268-17.268-17.268-9.522 0-17.269 7.7465-17.269 17.268 0 9.522 7.7493 17.268 17.269 17.268z" stroke-width=".63497"/>
   <path d="m352.5 420.5c8.0934 0 14.678-6.5481 14.678-14.597 0-8.0492-6.5842-14.597-14.678-14.597-8.0937 0-14.678 6.5481-14.678 14.597 0 8.0492 6.5869 14.597 14.678 14.597z" fill="#ececec" stroke-width=".60362"/>
   <path d="m352.5 418.33c6.8504 0 12.424-5.5729 12.424-12.424 0-6.8504-5.5729-12.424-12.424-12.424-6.8504 0-12.424 5.5729-12.424 12.424 0 6.8504 5.5752 12.424 12.424 12.424z" fill="#333" stroke="#000" stroke-width="1.4535" data-button="button-16"/>
   <text x="281.13306" y="481.78577" fill="#000000" font-family="sans-serif" font-size="40px" letter-spacing="0px" stroke-width="1.8191" word-spacing="0px" style="line-height:1.25" xml:space="preserve"><tspan x="281.13306" y="481.78577" fill="#000000" font-family="sans-serif" font-size="11.628px" stroke-width="1.8191" style="font-variant-caps:normal;font-variant-east-asian:normal;font-variant-ligatures:normal;font-variant-numeric:normal">START</tspan></text>
   <text x="224.14134" y="384.38974" fill="#000000" font-family="sans-serif" font-size="40px" letter-spacing="0px" stroke-width="1.8191" word-spacing="0px" style="line-height:1.25" xml:space="preserve"><tspan x="224.14134" y="384.38974" fill="#000000" font-family="sans-serif" font-size="11.628px" stroke-width="1.8191" style="font-variant-caps:normal;font-variant-east-asian:normal;font-variant-ligatures:normal;font-variant-numeric:normal">SELECT</tspan></text>
   <text x="334.6618" y="384.38974" fill="#000000" font-family="sans-serif" font-size="40px" letter-spacing="0px" stroke-width="1.8191" word-spacing="0px" style="line-height:1.25" xml:space="preserve"><tspan x="334.6618" y="384.38974" fill="#000000" font-family="sans-serif" font-size="11.628px" stroke-width="1.8191" style="font-variant-caps:normal;font-variant-east-asian:normal;font-variant-ligatures:normal;font-variant-numeric:normal">HOME</tspan></text>
  </g>
 </g>
 <g transform="translate(-260.34 -473.69)">
  <path d="m591.98 611.79 68.946 20.079" fill="none" stroke="#000" stroke-width=".5"/>
  <path d="m576.4 592.1 84.526 24.701" fill="none" stroke="#000" stroke-width=".5"/>
  <path d="m595.33 575.12 65.6 18.183" fill="none" stroke="#000" stroke-width=".5"/>
  <path d="m609.93 591.65 50.998 15.219" fill="none" stroke="#000" stroke-width=".5"/>
  <text x="662.21619" y="608.90283" fill="#000000" font-family="sans-serif" font-size="40px" letter-spacing="0px" word-spacing="0px" style="line-height:1.25" xml:space="preserve"><tspan x="662.21619" y="608.90283" font-family="sans-serif" font-size="6px" style="font-variant-caps:normal;font-variant-east-asian:normal;font-variant-ligatures:normal;font-variant-numeric:normal">Spindash / Roll</tspan></text>
  <text x="662.5141" y="634.3454" fill="#000000" font-family="sans-serif" font-size="40px" letter-spacing="0px" word-spacing="0px" style="line-height:1.25" xml:space="preserve"><tspan x="662.5141" y="634.3454" font-family="sans-serif" font-size="6px" style="font-variant-caps:normal;font-variant-east-asian:normal;font-variant-ligatures:normal;font-variant-numeric:normal">Jump</tspan></text>
  <text x="662.27887" y="619.60553" fill="#000000" font-family="sans-serif" font-size="40px" letter-spacing="0px" word-spacing="0px" style="line-height:1.25" xml:space="preserve"><tspan x="662.27887" y="619.60553" font-family="sans-serif" font-size="6px" style="font-variant-caps:normal;font-variant-east-asian:normal;font-variant-ligatures:normal;font-variant-numeric:normal">Lightspeed Dash / Lift Object</tspan></text>
  <text x="661.63348" y="595.76831" fill="#000000" font-family="sans-serif" font-size="40px" letter-spacing="0px" word-spacing="0px" style="line-height:1.25" xml:space="preserve"><tspan x="661.63348" y="595.76831" font-family="sans-serif" font-size="6px" style="font-variant-caps:normal;font-variant-east-asian:normal;font-variant-ligatures:normal;font-variant-numeric:normal">Super Transform</tspan></text>
  <path d="m605.15 544.5 53.163 13.403" fill="none" stroke="#000" stroke-width=".5"/>
  <text x="659.01825" y="560.35986" fill="#000000" font-family="sans-serif" font-size="40px" letter-spacing="0px" word-spacing="0px" style="line-height:1.25" xml:space="preserve"><tspan x="659.01825" y="560.35986" font-family="sans-serif" font-size="6px" style="font-variant-caps:normal;font-variant-east-asian:normal;font-variant-ligatures:normal;font-variant-numeric:normal">Air Dash</tspan></text>
  <path d="m582.92 636.21 78.008 22.519" fill="none" stroke="#000" stroke-width=".5"/>
  <text x="664.28082" y="661.3197" fill="#000000" font-family="sans-serif" font-size="40px" letter-spacing="0px" word-spacing="0px" style="line-height:1.25" xml:space="preserve"><tspan x="664.28082" y="661.3197" font-family="sans-serif" font-size="6px" style="font-variant-caps:normal;font-variant-east-asian:normal;font-variant-ligatures:normal;font-variant-numeric:normal">Switch Shields</tspan></text>
  <path d="m426.92 544.08-53.163 13.403" fill="none" stroke="#000" stroke-width=".5"/>
  <text x="347.5455" y="559.51819" fill="#000000" font-family="sans-serif" font-size="40px" letter-spacing="0px" word-spacing="0px" style="line-height:1.25" xml:space="preserve"><tspan x="347.5455" y="559.51819" font-family="sans-serif" font-size="6px" style="font-variant-caps:normal;font-variant-east-asian:normal;font-variant-ligatures:normal;font-variant-numeric:normal">Air Dash</tspan></text>
  <path d="m438.09 626.74-67.043 18.472" fill="none" stroke="#000" stroke-width=".5"/>
  <text x="352.86777" y="647.30273" fill="#000000" font-family="sans-serif" font-size="40px" letter-spacing="0px" word-spacing="0px" style="line-height:1.25" xml:space="preserve"><tspan x="352.86777" y="647.30273" font-family="sans-serif" font-size="6px" style="font-variant-caps:normal;font-variant-east-asian:normal;font-variant-ligatures:normal;font-variant-numeric:normal">Move</tspan></text>
  <path d="m507.06 652.49-115.69 44.146" fill="none" stroke="#000" stroke-width=".5"/>
  <text x="371.43689" y="698.36121" fill="#000000" font-family="sans-serif" font-size="40px" letter-spacing="0px" word-spacing="0px" style="line-height:1.25" xml:space="preserve"><tspan x="371.43689" y="698.36121" font-family="sans-serif" font-size="6px" style="font-variant-caps:normal;font-variant-east-asian:normal;font-variant-ligatures:normal;font-variant-numeric:normal">Pause</tspan></text>
 </g>
</svg>
