<?xml version="1.0" encoding="UTF-8" standalone="no"?>
<svg
   xmlns:dc="http://purl.org/dc/elements/1.1/"
   xmlns:cc="http://creativecommons.org/ns#"
   xmlns:rdf="http://www.w3.org/1999/02/22-rdf-syntax-ns#"
   xmlns:svg="http://www.w3.org/2000/svg"
   xmlns="http://www.w3.org/2000/svg"
   xmlns:sodipodi="http://sodipodi.sourceforge.net/DTD/sodipodi-0.dtd"
   xmlns:inkscape="http://www.inkscape.org/namespaces/inkscape"
   width="96.479591mm"
   height="8.0046539mm"
   viewBox="0 0 96.479591 8.0046539"
   version="1.1"
   id="svg881"
   inkscape:version="1.0.2 (e86c870879, 2021-01-15)"
   sodipodi:docname="sane-engine.svg">
  <defs
     id="defs875">
    <rect
       x="19.190598"
       y="71.254829"
       width="169.56252"
       height="58.415939"
       id="rect885" />
  </defs>
  <sodipodi:namedview
     id="base"
     pagecolor="#000000"
     bordercolor="#666666"
     borderopacity="1.0"
     inkscape:pageopacity="0"
     inkscape:pageshadow="2"
     inkscape:zoom="0.7"
     inkscape:cx="424.14769"
     inkscape:cy="44.885843"
     inkscape:document-units="mm"
     inkscape:current-layer="text883"
     inkscape:document-rotation="0"
     showgrid="false"
     fit-margin-top="0"
     fit-margin-left="0"
     fit-margin-right="0"
     fit-margin-bottom="0"
     inkscape:window-width="1366"
     inkscape:window-height="717"
     inkscape:window-x="0"
     inkscape:window-y="27"
     inkscape:window-maximized="1" />
  <metadata
     id="metadata878">
    <rdf:RDF>
      <cc:Work
         rdf:about="">
        <dc:format>image/svg+xml</dc:format>
        <dc:type
           rdf:resource="http://purl.org/dc/dcmitype/StillImage" />
        <dc:title></dc:title>
      </cc:Work>
    </rdf:RDF>
  </metadata>
  <g
     inkscape:label="Layer 1"
     inkscape:groupmode="layer"
     id="layer1"
     transform="translate(-19.1604,-72.762853)">
    <g
       aria-label="THE SANE ENGINE
"
       id="text883"
       style="font-style:normal;font-weight:normal;font-size:10.5833px;line-height:1.25;font-family:sans-serif;letter-spacing:0px;word-spacing:0px;white-space:pre;shape-inside:url(#rect885);fill:#ffffff;fill-opacity:1;stroke:none">
      <path
         d="m 19.1604,72.902379 h 6.526713 v 0.878497 h -2.738842 v 6.83677 h -1.049028 v -6.83677 H 19.1604 Z"
         style="fill:#ffffff"
         id="path889" />
      <path
         d="m 26.6948,72.902379 h 1.043861 v 3.162588 h 3.793038 v -3.162588 h 1.043861 v 7.715267 h -1.043861 v -3.674183 h -3.793038 v 3.674183 H 26.6948 Z"
         style="fill:#ffffff"
         id="path891" />
      <path
         d="m 34.652945,72.902379 h 4.87824 v 0.878497 h -3.834379 v 2.284091 h 3.674182 v 0.878496 h -3.674182 v 2.795686 h 3.927396 v 0.878497 h -4.971257 z"
         style="fill:#ffffff"
         id="path893" />
      <path
         d="m 49.329006,73.155593 v 1.018022 q -0.594277,-0.284219 -1.121375,-0.423745 -0.527098,-0.139526 -1.018023,-0.139526 -0.852658,0 -1.317744,0.330728 -0.459919,0.330728 -0.459919,0.940508 0,0.511595 0.30489,0.775144 0.310057,0.258382 1.167883,0.418578 l 0.630451,0.129191 q 1.167884,0.222208 1.72082,0.785479 0.558103,0.558104 0.558103,1.498612 0,1.121375 -0.754473,1.700149 -0.749306,0.578774 -2.201409,0.578774 -0.547769,0 -1.167884,-0.124023 -0.614947,-0.124023 -1.276404,-0.366901 v -1.074867 q 0.635618,0.356566 1.245398,0.537433 0.60978,0.180867 1.19889,0.180867 0.893999,0 1.379756,-0.351398 0.485757,-0.351399 0.485757,-1.00252 0,-0.568439 -0.351398,-0.888832 -0.346231,-0.320393 -1.142046,-0.480589 l -0.635618,-0.124023 q -1.167884,-0.232543 -1.689814,-0.728635 -0.52193,-0.496093 -0.52193,-1.379757 0,-1.02319 0.7183,-1.612299 0.723468,-0.58911 1.989536,-0.58911 0.542601,0 1.105872,0.09818 0.563272,0.09819 1.152381,0.294555 z"
         style="fill:#ffffff"
         id="path895" />
      <path
         d="m 54.19691,73.930737 -1.41593,3.839547 h 2.837027 z M 53.6078,72.902379 h 1.183387 l 2.940379,7.715267 h -1.085201 l -0.702798,-1.979201 h -3.477812 l -0.702798,1.979201 h -1.100704 z"
         style="fill:#ffffff"
         id="path897" />
      <path
         d="m 58.858109,72.902379 h 1.405595 l 3.420968,6.454366 v -6.454366 h 1.012855 v 7.715267 H 63.291933 L 59.870964,74.16328 v 6.454366 h -1.012855 z"
         style="fill:#ffffff"
         id="path899" />
      <path
         d="m 66.774914,72.902379 h 4.87824 v 0.878497 h -3.834379 v 2.284091 h 3.674183 v 0.878496 h -3.674183 v 2.795686 h 3.927396 v 0.878497 h -4.971257 z"
         style="fill:#ffffff"
         id="path901" />
      <path
         d="m 76.825947,72.902379 h 4.87824 v 0.878497 h -3.834379 v 2.284091 h 3.674183 v 0.878496 h -3.674183 v 2.795686 h 3.927396 v 0.878497 h -4.971257 z"
         style="fill:#ffffff"
         id="path903" />
      <path
         d="m 83.512856,72.902379 h 1.405595 l 3.420968,6.454366 v -6.454366 h 1.012855 v 7.715267 H 87.94668 L 84.525711,74.16328 v 6.454366 h -1.012855 z"
         style="fill:#ffffff"
         id="path905" />
      <path
         d="m 96.690305,79.516941 v -2.072218 h -1.705316 v -0.857826 h 2.738842 v 3.312449 q -0.604613,0.428913 -1.333248,0.651121 -0.728635,0.21704 -1.555456,0.21704 -1.808669,0 -2.831859,-1.054196 -1.018023,-1.059363 -1.018023,-2.945547 0,-1.891351 1.018023,-2.945547 1.02319,-1.059364 2.831859,-1.059364 0.754474,0 1.431433,0.186035 0.682127,0.186034 1.255733,0.547768 v 1.11104 q -0.578774,-0.490925 -1.229895,-0.738971 -0.651121,-0.248046 -1.369421,-0.248046 -1.41593,0 -2.129062,0.790647 -0.707965,0.790647 -0.707965,2.356438 0,1.560623 0.707965,2.35127 0.713132,0.790647 2.129062,0.790647 0.552936,0 0.987017,-0.09302 0.43408,-0.09819 0.780311,-0.299723 z"
         style="fill:#ffffff"
         id="path907" />
      <path
         d="m 99.630688,72.902379 h 1.043862 v 7.715267 h -1.043862 z"
         style="fill:#ffffff"
         id="path909" />
      <path
         d="m 102.75193,72.902379 h 1.4056 l 3.42097,6.454366 v -6.454366 h 1.01285 v 7.715267 h -1.40559 l -3.42097,-6.454366 v 6.454366 h -1.01286 z"
         style="fill:#ffffff"
         id="path911" />
      <path
         d="m 110.66874,72.902379 h 4.87824 v 0.878497 h -3.83438 v 2.284091 h 3.67418 v 0.878496 h -3.67418 v 2.795686 h 3.92739 v 0.878497 h -4.97125 z"
         style="fill:#ffffff"
         id="path913" />
    </g>
  </g>
</svg>
