<?xml version="1.0" encoding="UTF-8"?>
<svg width="512" height="288" version="1.0" xmlns="http://www.w3.org/2000/svg"><g transform="translate(-260.34 -473.69)"><g transform="translate(134.82 68.294)"><g transform="matrix(.06485 0 0 .06485 172.41 452.75)" stroke-width="15.42"><g stroke-width="15.42" data-button="button-6"><g id="Shape_13_copy_1_" enable-background="new    " fill="#2d1650"><g id="Shape_13_copy" fill="#2d1650" stroke-width="15.42"><g fill="#2d1650" stroke-width="15.42"><ellipse cx="2016" cy="596" rx="394.32" ry="416.56" fill="#2d1650" stroke-width="15.42"/></g></g></g><g id="Shape_13_1_" enable-background="new    "><g stroke-width="15.42"><g stroke-width="15.42"><ellipse cx="2016" cy="600" rx="381.55" ry="410.27" fill="#eee" stroke-width="207.68"/></g></g></g></g><g stroke-width="15.42" data-button="button-7"><g id="Shape_13_copy_2_1_" enable-background="new    " fill="#2d1650"><g fill="#2d1650" stroke-width="15.42"><g fill="#2d1650" stroke-width="15.42"><ellipse cx="4444" cy="597" rx="394.32" ry="416.56" fill="#2d1650" stroke-width="15.42"/></g></g></g><g id="Shape_13_copy_3_1_" enable-background="new    "><g stroke-width="15.42"><g stroke-width="15.42"><ellipse cx="4444" cy="601" rx="381.55" ry="410.27" fill="#eee" stroke-width="207.68"/></g></g></g></g><text transform="matrix(.68482 0 0 .68587 845.52 -545.07)" fill="#000000" fill-opacity=".75" font-family="sans-serif" font-size="144px" letter-spacing="0px" stroke-width="22.5" word-spacing="0px" style="line-height:1.25;shape-inside:url(#rect1879-3-6-5-2);white-space:pre" xml:space="preserve"><tspan x="5247.6191" y="1275.3691"><tspan stroke-width="22.5">R</tspan></tspan></text><g stroke-width="15.42" data-button="button-5"><g id="Shape_14_copy_1_" transform="translate(63.785 -10.951)" enable-background="new    "><g id="Shape_14_copy" stroke-width="15.42"><g stroke-width="15.42"><path d="m4875.8 533.15c-9.153-20.295-141.3-109.76-312.96-156.14-171.66-46.381-446.05-75.91-470.47-66.579-24.426 9.331-20.68 96.067-20.68 96.067l755.06 236.36c0 1e-3 58.209-89.412 49.057-109.71z" fill="#490094" stroke-width="207.68"/></g></g></g><g id="Shape_14_1_" transform="translate(63.785 -10.951)" enable-background="new    "><g stroke-width="15.42"><g stroke-width="15.42"><path d="m4862.8 543.29c-8.855-19.636-136.71-106.2-302.8-151.08s-431.57-73.446-455.2-64.418-20.008 92.95-20.008 92.95l730.55 228.69s56.319-86.51 47.464-106.15z" fill="#5600ae" stroke-width="207.68"/></g></g></g></g><g stroke-width="15.42" data-button="button-4"><g transform="matrix(-1 0 0 1 6378.1 -10.674)" enable-background="new    "><g stroke-width="15.42"><g stroke-width="15.42"><path d="m4875.8 533.15c-9.153-20.295-141.3-109.76-312.96-156.14-171.66-46.381-446.05-75.91-470.47-66.579-24.426 9.331-20.68 96.067-20.68 96.067l755.06 236.36c0 1e-3 58.209-89.412 49.057-109.71z" fill="#490094" stroke-width="207.68"/></g></g></g><g transform="matrix(-1 0 0 1 6378.1 -10.674)" enable-background="new    "><g stroke-width="15.42"><g stroke-width="15.42"><path d="m4862.8 543.29c-8.855-19.636-136.71-106.2-302.8-151.08s-431.57-73.446-455.2-64.418-20.008 92.95-20.008 92.95l730.55 228.69s56.319-86.51 47.464-106.15z" fill="#5600ae" stroke-width="207.68"/></g></g></g></g><g id="Shape_15_copy_2_1_" enable-background="new    " stroke-width="15.42"><g fill="#2d1650" stroke-width="15.42"><g fill="#2d1650" stroke-width="15.42"><path d="m3227.9 120.17c-783.43 0-1504.4 382.76-1504.4 382.76l447.27 1463.6s200.02-494.06 1045-494.06c807.36 0 1061.2 473.81 1061.2 473.81l423.57-1451.3s-688.92-374.76-1472.6-374.76z" fill="#2d1650" stroke-width="15.42"/></g></g></g><g id="Shape_15_copy_3_1_" enable-background="new    " fill="#442178" stroke-width="15.42"><g fill="#442178" stroke-width="15.42"><g fill="#442178" stroke-width="15.42"><path d="m3228 136c-767.99 0-1504 388-1504 388l460 1390s194.99-457.37 1044-457.37c779.87 0 1036 437.37 1036 437.37l436-1378s-719.98-380-1472-380z" fill="#442178" stroke-width="15.42"/></g></g></g><text transform="matrix(.49661 0 0 .49737 -1067.6 -73.788)" fill="#000000" fill-opacity=".75" font-family="sans-serif" font-size="144px" letter-spacing="0px" stroke-width="31.027" word-spacing="0px" style="line-height:1.25;shape-inside:url(#rect1879-3-6-5-2-3-7);white-space:pre" xml:space="preserve"><tspan x="5247.6191" y="1275.3691"><tspan stroke-width="31.027">ZL</tspan></tspan></text><g id="Shape_12_1_" enable-background="new    " fill="#2d1650" stroke-width="15.42"><g fill="#2d1650" stroke-width="15.42"><g fill="#2d1650" stroke-width="15.42"><path d="m1376.2 941.81c-30.5 123.8-80.063 786.99-61.001 1136.3 19.063 349.28 53.376 702.99 282.13 725.09s244-265.28 270.69-371.39c26.688-106.11 163.94-711.83 163.94-711.83s-625.25-901.94-655.75-778.15z" fill="#2d1650" stroke-width="15.42"/></g></g></g><g id="Shape_12_copy_5_1_" enable-background="new    " fill="#442178" stroke-width="15.42"><g fill="#442178" stroke-width="15.42"><g fill="#442178" stroke-width="15.42"><path d="m1387.9 966.73c-28.94 121.04-75.969 769.48-57.881 1111s50.646 687.34 267.7 708.96c217.06 21.614 231.52-259.38 256.85-363.12 25.322-103.75 155.56-695.99 155.56-695.99s-593.28-881.87-622.22-760.83z" fill="#442178" stroke-width="15.42"/></g></g></g><g id="Shape_12_copy_6_1_" enable-background="new    " fill="#2d1650" stroke-width="15.42"><g fill="#2d1650" stroke-width="15.42"><g fill="#2d1650" stroke-width="15.42"><path d="m5071.2 945.81c-31.246-123.8-671.8 778.15-671.8 778.15s140.61 605.72 167.95 711.83c27.34 106.11 42.963 393.5 277.31 371.39s269.5-375.81 289.03-725.09-31.246-1012.5-62.493-1136.3z" fill="#2d1650" stroke-width="15.42"/></g></g></g><g id="Shape_12_copy_7_1_" enable-background="new    " fill="#442178" stroke-width="15.42"><g fill="#442178" stroke-width="15.42"><g fill="#442178" stroke-width="15.42"><path d="m5059.2 970.73c-29.648-121.04-637.45 760.83-637.45 760.83s133.42 592.24 159.36 695.99c25.942 103.75 40.768 384.74 263.13 363.12 222.36-21.615 255.72-367.45 274.25-708.96 18.531-341.51-29.649-989.94-59.297-1111z" fill="#442178" stroke-width="15.42"/></g></g></g><g id="Shape_12_copy_3_1_" enable-background="new    " fill="#2d1650" stroke-width="15.42"><g fill="#2d1650" stroke-width="15.42"><g fill="#2d1650" stroke-width="15.42"><path d="m3049.2 1753.4c-122.76-188.31-176.88-182.53-252.72-305.76-97.796-158.92 14.472-476-199.59-766.22-174.59-236.7-591.61-384.65-941.21-138.62-373.08 262.56-355.83 699.77-175.22 973.89 189.64 287.82 445.08 264.06 582.85 407.41 85.999 89.487 101.86 265.09 203.89 370.36 143.79 148.36 380.24 225.33 639.15 61.496 215.72-136.5 255.61-429.57 142.84-602.55z" fill="#2d1650" stroke-width="15.42"/></g></g></g><g id="Shape_12_copy_1_" enable-background="new    " fill="#442178" stroke-width="15.42"><g id="Shape_12_copy" fill="#442178" stroke-width="15.42"><g fill="#442178" stroke-width="15.42"><path d="m3044 1772c-111.08-187.17-185.56-195.03-260-316-96-156-1.5-502.6-192-760-171.76-232.08-571.05-373.11-920-140-362.3 242.03-364 668-172 956 188.32 282.48 434.64 257.5 568 400 108.42 115.84 111.85 264.14 196 356 154.8 168.97 400.25 242.11 644 68 224-160 208.51-441.82 136-564z" fill="#442178" stroke-width="15.42"/></g></g></g><g id="Shape_12_copy_4_1_" enable-background="new    " fill="#2d1650" stroke-width="15.42"><g fill="#2d1650" stroke-width="15.42"><g fill="#2d1650" stroke-width="15.42"><path d="m4789.3 542.8c-349.6-246.03-766.62-98.079-941.21 138.62-214.06 290.21-101.8 607.3-199.59 766.22-75.836 123.24-129.96 117.45-252.72 305.76-112.77 172.98-72.872 466.05 142.84 602.55 258.9 163.84 495.36 86.859 639.15-61.496 102.03-105.28 117.89-280.87 203.89-370.36 137.77-143.35 393.21-119.59 582.85-407.41 180.61-274.12 197.86-711.33-175.22-973.89z" fill="#2d1650" stroke-width="15.42"/></g></g></g><g id="Shape_12_copy_2_1_" enable-background="new    " fill="#442178" stroke-width="15.42"><g fill="#442178" stroke-width="15.42"><g fill="#442178" stroke-width="15.42"><path d="m4773 556c-348.95-233.11-748.24-92.075-920 140-190.5 257.4-96 604-192 760-74.444 120.97-148.92 128.83-260 316-72.508 122.18-88 404 136 564 243.75 174.11 489.2 100.97 644-68 84.154-91.858 87.58-240.16 196-356 133.36-142.5 379.68-117.52 568-400 192-288 190.3-713.97-172-956z" fill="#442178" stroke-width="15.42"/></g></g></g><g fill="#2d1650" stroke-width="15.42"><g fill="#2d1650" stroke-width="15.42"><ellipse cx="2064" cy="1112" rx="475.27" ry="470.42" fill="#2d1650" stroke-width="15.42"/></g></g><g id="Shape_2_copy" fill="#442178" stroke-width="15.42"><g fill="#442178" stroke-width="15.42"><ellipse cx="2064" cy="1112" rx="463.16" ry="458.44" fill="#442178" stroke-width="15.42"/></g></g><g stroke-width="15.42"><g stroke-width="15.42"><path d="m2277.5 911.54c-16.518-16.517-171.99-88.264-210.78-88.264-38.798 0-189.87 67.706-210.24 88.074-21.36 21.361-87.389 180.22-88.395 211.24-0.982 30.301 63.237 186.73 87.045 210.53 26.177 26.177 171.71 85.496 210.51 86.467 38.797 0.97 184.9-64.136 209.77-86.1 25.23-22.284 89.316-181.15 89.316-211.28-1e-3 -30.067-68.831-192.28-87.223-210.68z" stroke-width="15.42"/></g></g><g stroke-width="15.42"><g stroke-width="15.42"><path d="m2271 917.95c-16.014-16.014-166.74-85.57-204.35-85.57s-184.07 65.64-203.82 85.386c-20.709 20.709-84.722 174.72-85.696 204.8-0.952 29.376 61.307 181.03 84.389 204.11 25.377 25.377 166.47 82.886 204.08 83.827 37.613 0.939 179.26-62.179 203.36-83.472 24.46-21.604 86.591-175.62 86.591-204.83 0-29.15-66.729-186.42-84.561-204.25z" fill="#d1d1d1" stroke-width="207.68"/></g></g><g stroke-width="15.42" data-button="button-10"><g><g stroke-width="15.42"><ellipse cx="2065.6" cy="1124.9" rx="248.44" ry="238.77" stroke-width="15.42"/></g></g><g id="Shape_1_copy"><g stroke-width="15.42"><ellipse cx="2065.6" cy="1124.9" rx="234.29" ry="225.17" fill="#eee" stroke-width="207.68"/></g></g><g><g stroke-width="15.42"><ellipse cx="2064.1" cy="1125.8" rx="211.47" ry="199.69" fill="#acacac" stroke-width="207.68"/></g></g><g><g stroke-width="15.42"><ellipse cx="2064.1" cy="1125.8" rx="199.43" ry="188.32" fill="#eee" stroke-width="207.68"/></g></g><g><g stroke-width="15.42"><ellipse cx="2063.9" cy="1131.1" rx="135.66" ry="128.1" fill="#acacac" stroke-width="207.68"/></g></g><g><g stroke-width="15.42"><ellipse cx="2063.9" cy="1131.1" rx="123.95" ry="117.04" fill="#eee" stroke-width="207.68"/></g></g><g><g stroke-width="15.42"><ellipse cx="2066" cy="1131" rx="53.975" ry="50.966" fill="#acacac" stroke-width="207.68"/></g></g><g><g stroke-width="15.42"><ellipse cx="2066" cy="1131" rx="42.118" ry="39.771" fill="#eee" stroke-width="207.68"/></g></g></g><g stroke-width="15.42"><g stroke-width="15.42"><path d="m4035.5 1760.5c-16.518-16.517-171.99-88.264-210.78-88.264-38.798 0-189.87 67.706-210.24 88.074-21.361 21.361-87.389 180.22-88.395 211.24-0.982 30.301 63.237 186.73 87.045 210.53 26.177 26.177 171.71 85.496 210.51 86.466 38.798 0.971 184.9-64.135 209.77-86.099 25.229-22.284 89.316-181.15 89.316-211.28 0-30.067-68.831-192.28-87.223-210.68z" stroke-width="15.42"/></g></g><g stroke-width="15.42"><g stroke-width="15.42"><path d="m4029 1767c-16.014-16.014-166.74-85.57-204.35-85.57s-184.07 65.64-203.82 85.386c-20.709 20.709-84.722 174.72-85.696 204.8-0.952 29.376 61.307 181.03 84.389 204.11 25.377 25.377 166.47 82.886 204.08 83.827 37.613 0.939 179.26-62.179 203.36-83.472 24.46-21.604 86.591-175.62 86.591-204.83 0-29.15-66.729-186.42-84.561-204.25z" fill="#ffe400" stroke-width="207.68"/></g></g><g data-button="button-11"><g stroke-width="15.42"><g stroke-width="15.42"><circle cx="3824" cy="1976" r="144" fill="#5f5500" stroke-width="207.68"/></g></g><g id="Shape_9_copy" stroke-width="15.42"><g stroke-width="15.42"><circle cx="3824" cy="1976" r="128" fill="#ffe400" stroke-width="207.68"/></g></g><text transform="matrix(.68482 0 0 .68587 195.81 1137.2)" fill="#000000" fill-opacity=".75" font-family="sans-serif" font-size="144px" letter-spacing="0px" stroke-width="22.5" word-spacing="0px" style="line-height:1.25;shape-inside:url(#rect1879-3-6-5-2-7);white-space:pre" xml:space="preserve"><tspan x="5247.6191" y="1275.3691"><tspan stroke-width="22.5">C</tspan></tspan></text></g><text x="3826.5161" y="1970.2391" fill="#000000" font-family="sans-serif" font-size="40px" letter-spacing="0px" stroke-width="15.42" word-spacing="0px" style="line-height:1.25" xml:space="preserve"><tspan x="3826.5161" y="1970.2391" stroke-width="15.42"/></text><g fill="#2d1650" stroke-width="15.42"><g fill="#2d1650" stroke-width="15.42"><ellipse cx="2626.5" cy="1976.9" rx="320.41" ry="317.14" fill="#2d1650" stroke-width="15.42"/></g></g><g fill="#442178" stroke-width="15.42"><g fill="#442178" stroke-width="15.42"><ellipse cx="2626.5" cy="1976.9" rx="312.25" ry="309.06" fill="#442178" stroke-width="15.42"/></g></g><g stroke-width="15.42"><g stroke-width="15.42"><polygon points="2870.6 1901.9 2709.5 1901.9 2709.5 1737.1 2545.8 1737.1 2545.9 1899.5 2387.3 1899.5 2387.3 2055.9 2544.8 2057.1 2544.8 2221.9 2707.3 2221.9 2708.5 2054.7 2870.6 2053.5" stroke-width="15.42"/></g></g><g stroke-width="15.42" data-button="dpad-0"><g id="Shape_4_copy"><g stroke-width="15.42"><polygon points="2860.2 1911 2700.8 1911 2700.8 1747.6 2554.2 1747.6 2554.4 1908.7 2396.1 1908.7 2396.1 2047.5 2554.1 2048.7 2554.3 2211.4 2698.2 2211.4 2699.6 2046.4 2860.2 2045.3" fill="#eaeaea" stroke-width="207.68"/></g></g><g><g stroke-width="15.42"><polygon points="2674.2 1862 2627.3 1780.1 2578.7 1862" fill="#c7c7c7" stroke-width="207.68"/></g></g><g id="Shape_5_copy"><g stroke-width="15.42"><polygon points="2674.2 2103 2578.7 2103 2627.3 2184.9" fill="#c7c7c7" stroke-width="207.68"/></g></g><g><g stroke-width="15.42"><polygon points="2506 1934.7 2424 1981.7 2506 2030.3" fill="#c7c7c7" stroke-width="207.68"/></g></g><g><g stroke-width="15.42"><polygon points="2828.9 1981.7 2747 1934.7 2747 2030.3" fill="#c7c7c7" stroke-width="207.68"/></g></g><g><g stroke-width="15.42"><circle cx="2626.9" cy="1979.4" r="48.647" fill="#c7c7c7" stroke-width="207.68"/></g></g></g><g id="Shape_6_copy_1_" enable-background="new    " stroke-width="15.42"><g id="Shape_6_copy" stroke-width="15.42"></g></g><g id="START_x2F_PAUSE" transform="matrix(1.4379 0 0 1.1683 -1075.9 -163.29)" enable-background="new    " stroke-width="11.898"><text transform="matrix(.7382 0 0 1 3021.6 1148)" font-family="KhmerUI-Bold" font-size="86.409px" stroke-width="160.24">START</text></g><g fill="#2d1650" stroke-width="15.42"><g fill="#2d1650" stroke-width="15.42"><ellipse cx="4403.4" cy="1112" rx="475.27" ry="470.42" fill="#2d1650" stroke-width="15.42"/></g></g><g fill="#442178" stroke-width="15.42"><g fill="#442178" stroke-width="15.42"><ellipse cx="4403.4" cy="1112" rx="463.16" ry="458.44" fill="#442178" stroke-width="15.42"/></g></g><g stroke-width="15.42" data-button="button-0"><g id="Shape_7_copy"><g stroke-width="15.42"><circle cx="4408" cy="1104" r="240" stroke-width="15.42"/></g></g><g><g stroke-width="15.42"><circle cx="4408" cy="1104" r="224" fill="#00bc8e" stroke-width="207.68"/></g></g></g><g stroke-width="15.42" data-button="button-2"><g><g stroke-width="15.42"><circle cx="3968" cy="1336" r="148" stroke-width="15.42"/></g></g><g id="Shape_8_copy"><g stroke-width="15.42"><circle cx="3968" cy="1336" r="130" fill="#f00" stroke-width="207.68"/></g></g></g><g stroke-width="15.42" data-button="button-3"><g><g stroke-width="15.42"><path d="m4206 614c-40 18-216 108-140 216 94 100 146-2 226-40 104-40 210 18 210-118-8-128-256-76-296-58z" stroke-width="15.42"/></g></g><g id="Shape_10_copy"><g stroke-width="15.42"><path d="m4487.3 672.68c-8.889-112.4-236.65-62.308-273.91-45.485s-207.07 96.898-134.67 194.16c83.202 86.025 136.64-11.178 211.14-46.641 96.962-37.559 200.88 15.784 197.44-102.04z" fill="#eaeaea" stroke-width="207.68"/></g></g></g><g stroke-width="15.42" data-button="button-1"><g><g stroke-width="15.42"><path d="m4910.5 905.72c-18-40-108-216-216-140-100 94 2 146 40 226 40 104-18 210 118 210 128-8 76-256 58-296z" stroke-width="15.42"/></g></g><g><g stroke-width="15.42"><path d="m4897.3 913.11c-16.822-37.264-96.897-207.07-194.16-134.67-86.025 83.202 11.178 136.64 46.641 211.14 37.56 96.962-15.783 200.88 102.04 197.44 112.4-8.888 62.308-236.64 45.485-273.91z" fill="#eaeaea" stroke-width="207.68"/></g></g></g><text transform="translate(-888.84 -118.88)" fill="#000000" fill-opacity=".75" font-family="sans-serif" font-size="144px" letter-spacing="0px" stroke-width="15.42" word-spacing="0px" style="line-height:1.25;shape-inside:url(#rect1879-3);white-space:pre" xml:space="preserve"><tspan x="5247.6191" y="1275.3691"><tspan fill="#000000" fill-opacity=".75" stroke-width="15.42" style="shape-inside:url(#rect1879-3)">A</tspan></tspan></text><text transform="translate(-1331 113.12)" fill="#000000" fill-opacity=".75" font-family="sans-serif" font-size="144px" letter-spacing="0px" stroke-width="15.42" word-spacing="0px" style="line-height:1.25;shape-inside:url(#rect1879-3-6);white-space:pre" xml:space="preserve"><tspan x="5247.6191" y="1275.3691"><tspan stroke-width="15.42">B</tspan></tspan></text><text transform="matrix(.88915 0 0 .88915 -425.56 -389.36)" fill="#000000" fill-opacity=".75" font-family="sans-serif" font-size="144px" letter-spacing="0px" stroke-width="17.343" word-spacing="0px" style="line-height:1.25;shape-inside:url(#rect1879-3-6-5);white-space:pre" xml:space="preserve"><tspan x="5247.6191" y="1275.3691"><tspan stroke-width="17.343">Y</tspan></tspan></text><text transform="translate(-479.38 -261.09)" fill="#000000" fill-opacity=".75" font-family="sans-serif" font-size="144px" letter-spacing="0px" stroke-width="15.42" word-spacing="0px" style="line-height:1.25;shape-inside:url(#rect1879-3-6-5-5);white-space:pre" xml:space="preserve"><tspan x="5247.6191" y="1275.3691"><tspan stroke-width="15.42">X</tspan></tspan></text><text transform="matrix(.68482 0 0 .68587 -1678.4 -545.07)" fill="#000000" fill-opacity=".75" font-family="sans-serif" font-size="144px" letter-spacing="0px" stroke-width="22.5" word-spacing="0px" style="line-height:1.25;shape-inside:url(#rect1879-3-6-5-2-1);white-space:pre" xml:space="preserve"><tspan x="5247.6191" y="1275.3691"><tspan stroke-width="22.5">L</tspan></tspan></text><text transform="matrix(.49661 0 0 .49737 2207.6 -73.254)" fill="#000000" fill-opacity=".75" font-family="sans-serif" font-size="144px" letter-spacing="0px" stroke-width="31.027" word-spacing="0px" style="line-height:1.25;shape-inside:url(#rect1879-3-6-5-2-3);white-space:pre" xml:space="preserve"><tspan x="5247.6191" y="1275.3691"><tspan stroke-width="31.027">ZR</tspan></tspan></text><g stroke-width="15.42" data-button="button-16"><g transform="translate(-1196 -395.27)"><g stroke-width="15.42"><circle cx="4408" cy="1104" r="240" stroke-width="15.42"/></g></g><g><g transform="translate(-1196 -395.27)" stroke-width="15.42"><circle cx="4408" cy="1104" r="224" fill="#ebebeb" stroke-width="207.68"/></g></g></g><path d="m3170.6 561.51c-21.814 12.496-54.583 31.25-72.82 41.674l-33.157 18.954-0.026 170.4 72.068 42.783c39.638 23.53 73.022 43.032 74.185 43.336 1.3821 0.36118 17.016-8.291 45.019-24.916 23.596-14.009 56.552-33.525 73.235-43.371l30.335-17.901v-85.002c0-79.864-0.1179-84.957-1.9466-84.255-1.0711 0.41057-18.804 11.009-39.407 23.553-20.603 12.543-37.97 22.797-38.594 22.787-0.6235-0.0103-16.148-9.5256-34.499-21.145l-33.366-21.125-5.2696 3.0995c-2.8975 1.7042-17.847 10.754-33.219 20.109l-27.95 17.01 0.016 41.958 0.017 41.959 32.606 18.428c17.933 10.135 33.345 18.407 34.249 18.382 0.9044-0.025 16.698-8.3971 35.096-18.605l33.454-18.56 0.317-14.198 0.3162-14.199 14.426-8.7472c7.9335-4.8111 14.808-8.961 15.276-9.2219 0.4673-0.26094 0.8397 13.971 0.827 31.628l-0.023 32.102-50.01 29.247-50.01 29.246-26.228-15.523c-14.425-8.5379-37.327-22.118-50.893-30.176l-24.665-14.654v-116.2l50.068-28.856c27.537-15.871 50.482-29.02 50.988-29.22 0.5064-0.19976 15.973 8.6028 34.372 19.562 18.398 10.959 33.999 19.925 34.668 19.925 1.8597 0 46.5-27.347 46.5-28.486 0-0.54913-0.5337-0.99804-1.186-0.99804s-26.117-14.289-56.588-31.752c-30.471-17.464-56.103-31.752-56.96-31.752-0.8573 0-19.406 10.224-41.22 22.721" fill-opacity=".75" fill-rule="evenodd" stroke-width="237.78"/><g transform="translate(9.424)" data-button="button-8"><g transform="matrix(.58703 0 0 .58703 695.18 537.14)" stroke-width="26.268"><g stroke-width="26.268"><circle cx="3968" cy="1336" r="148" stroke-width="26.268"/></g></g><g transform="translate(-943.5 -14.586)" stroke-width="15.42"><g stroke-width="15.42"><circle cx="3968" cy="1336" r="76.314" fill="#ebebeb" stroke-width="207.68"/></g></g></g><g transform="matrix(1.4379 0 0 1.1683 -1486.6 -163.29)" enable-background="new    " stroke-width="11.898"><text transform="matrix(.7382 0 0 1 3021.6 1148)" font-family="KhmerUI-Bold" font-size="86.409px" stroke-width="160.24">SELECT</text></g><g data-button="button-9"><g transform="matrix(.58703 0 0 .58703 1084.2 537.14)" stroke-width="26.268"><g stroke-width="26.268"><circle cx="3968" cy="1336" r="148" stroke-width="26.268"/></g></g><g transform="translate(-554.5 -14.586)" stroke-width="15.42"><g stroke-width="15.42"><circle cx="3968" cy="1336" r="76.314" fill="#ebebeb" stroke-width="207.68"/></g></g></g></g></g></g><g transform="translate(-260.34 -473.69)"><g cv-if = "ra"><path d="m567.54 648.99h103.15" fill="none" stroke="#000" stroke-width=".5"/></g><g cv-if = "dpad"><path d="m374.56 649.32h103.15" fill="none" stroke="#000" stroke-width=".5"/></g><g cv-if = "a"><path d="m596.71 592.91h91.882" fill="none" stroke="#000" stroke-width=".5"/></g><g cv-if = "b"><path d="m568.05 607.66h103.15" fill="none" stroke="#000" stroke-width=".5"/></g><g><g cv-if = "y"><path d="m589.13 565.7h99.459" fill="none" stroke="#000" stroke-width=".5"/></g><g cv-if = "x"><path d="m622.99 583.02h65.606" fill="none" stroke="#000" stroke-width=".5"/></g><g cv-if = "r1"><path d="m628.97 554.91h59.627" fill="none" stroke="#000" stroke-width=".5"/></g><g cv-if = "start"><path d="m528.6 591.28v-82.736" fill="none" stroke="#000" stroke-width=".5"/></g><text x="519.64154" y="506.8317" fill="#000000" font-family="sans-serif" font-size="40px" letter-spacing="0px" word-spacing="0px" style="line-height:1.25" xml:space="preserve"><tspan x="519.64154" y="506.8317" font-family="sans-serif" font-size="6px" style="font-variant-caps:normal;font-variant-east-asian:normal;font-variant-ligatures:normal;font-variant-numeric:normal">[[start]]</tspan></text><text x="674.04346" y="651.5755" fill="#000000" font-family="sans-serif" font-size="40px" letter-spacing="0px" word-spacing="0px" style="line-height:1.25" xml:space="preserve"><tspan x="674.04346" y="651.5755" font-family="sans-serif" font-size="6px" style="font-variant-caps:normal;font-variant-east-asian:normal;font-variant-ligatures:normal;font-variant-numeric:normal">[[ra]]</tspan></text><text x="673.08386" y="609.31451" fill="#000000" font-family="sans-serif" font-size="40px" letter-spacing="0px" word-spacing="0px" style="line-height:1.25" xml:space="preserve"><tspan x="673.08386" y="609.31451" font-family="sans-serif" font-size="6px" style="font-variant-caps:normal;font-variant-east-asian:normal;font-variant-ligatures:normal;font-variant-numeric:normal">[[b]]</tspan></text><text x="691.40167" y="594.74054" fill="#000000" font-family="sans-serif" font-size="40px" letter-spacing="0px" word-spacing="0px" style="line-height:1.25" xml:space="preserve"><tspan x="691.40167" y="594.74054" font-family="sans-serif" font-size="6px" style="font-variant-caps:normal;font-variant-east-asian:normal;font-variant-ligatures:normal;font-variant-numeric:normal">[[a]]</tspan></text><text x="690.66138" y="584.66785" fill="#000000" font-family="sans-serif" font-size="40px" letter-spacing="0px" word-spacing="0px" style="line-height:1.25" xml:space="preserve"><tspan x="690.66138" y="584.66785" font-family="sans-serif" font-size="6px" style="font-variant-caps:normal;font-variant-east-asian:normal;font-variant-ligatures:normal;font-variant-numeric:normal">[[x]]</tspan></text><text x="691.40601" y="567.63531" fill="#000000" font-family="sans-serif" font-size="40px" letter-spacing="0px" word-spacing="0px" style="line-height:1.25" xml:space="preserve"><tspan x="691.40601" y="567.63531" font-family="sans-serif" font-size="6px" style="font-variant-caps:normal;font-variant-east-asian:normal;font-variant-ligatures:normal;font-variant-numeric:normal">[[y]]</tspan></text><text x="690.68622" y="557.03937" fill="#000000" font-family="sans-serif" font-size="40px" letter-spacing="0px" word-spacing="0px" style="line-height:1.25" xml:space="preserve"><tspan x="690.68622" y="557.03937" font-family="sans-serif" font-size="6px" style="font-variant-caps:normal;font-variant-east-asian:normal;font-variant-ligatures:normal;font-variant-numeric:normal">[[r1]]</tspan></text><g cv-if = "l1"><path d="m342.83 555.19h59.627" fill="none" stroke="#000" stroke-width=".5"/></g><text x="315.89267" y="557.19037" fill="#000000" font-family="sans-serif" font-size="40px" letter-spacing="0px" word-spacing="0px" style="line-height:1.25" xml:space="preserve"><tspan x="315.89267" y="557.19037" font-family="sans-serif" font-size="6px" style="font-variant-caps:normal;font-variant-east-asian:normal;font-variant-ligatures:normal;font-variant-numeric:normal">[[l1]]</tspan></text><text x="354.72061" y="651.14825" fill="#000000" font-family="sans-serif" font-size="40px" letter-spacing="0px" word-spacing="0px" style="line-height:1.25" xml:space="preserve"><tspan x="354.72061" y="651.14825" font-family="sans-serif" font-size="6px" style="font-variant-caps:normal;font-variant-east-asian:normal;font-variant-ligatures:normal;font-variant-numeric:normal">[[dpad]]</tspan></text></g></svg>
