<?xml version="1.0" encoding="UTF-8"?>
<svg width="512" height="288" version="1.0"
	xmlns="http://www.w3.org/2000/svg">
	<g transform="translate(-260.34 -473.69)">
		<g transform="translate(134.82 68.294)">
			<path d="m435.57 481.84h33.046l-2.5898-4.9919c-1.698-3.2729-6.1119-5.7018-13.933-5.7018-7.8212 0-12.235 2.4289-13.933 5.7018z" fill="#7a7a7a" fill-rule="evenodd" stroke="#000" stroke-width="1.0793" data-button="button-7"/>
			<path d="m293.22 481.84h33.046l-2.5898-4.9919c-1.698-3.2729-6.1119-5.7018-13.933-5.7018-7.8212 0-12.235 2.4289-13.933 5.7018z" fill="#7a7a7a" fill-rule="evenodd" stroke="#000" stroke-width="1.0793" data-button="button-6"/>
			<path d="m320.62 497.85c-1.5358 0-2.75 1.2454-2.75 2.7812v73.156c0 1.5358 1.2142 2.75 2.75 2.75h121.78c1.5358 0 2.7812-1.2142 2.7812-2.75v-73.156c0-1.5358-1.2454-2.7812-2.7812-2.7812h-52.808c-0.2723 0.44907-0.77809 0.75-1.3438 0.75h-14.312c-0.56415 0-1.0398-0.30294-1.3125-0.75z" fill="#3f3f3f" fill-rule="evenodd" stroke="#000" stroke-linecap="round" stroke-linejoin="round"/>
			<rect x="324.17" y="504.14" width="114.69" height="68.484" rx="2.7723" ry="2.6797" fill="#262626" fill-rule="evenodd"/>
			<path d="m272.94 520.34c-5.4902 30.065-9.0709 62.226-11.765 76.34-4.2253 22.138 32.77 40.747 46.797 15.163 10.649-19.422 22.745-44.183 22.745-44.183z" fill="#262626" fill-rule="evenodd" stroke="#000"/>
			<path d="m435.52 483.74h33.15l-2.598-4.2714c-1.7033-2.8005-6.1312-4.8789-13.977-4.8789-7.8459 0-12.274 2.0784-13.977 4.8789z" fill="#7a7a7a" fill-rule="evenodd" stroke="#000" data-button="button-5"/>
			<path d="m293.16 483.74h33.15l-2.598-4.2714c-1.7033-2.8005-6.1312-4.8789-13.977-4.8789-7.8459 0-12.274 2.0784-13.977 4.8789z" fill="#7a7a7a" fill-rule="evenodd" stroke="#000" data-button="button-4"/>
			<path d="m330.59 504.54c-1.6994-10.98-2.4837-16.471-3.268-20.523-0.78432-4.0523-7.7124-6.1438-17.582-6.1438s-16.797 2.0915-17.582 6.1438c-0.78431 4.0523-1.5686 9.5425-3.268 20.523" fill="#262626" fill-rule="evenodd" stroke="#000"/>
			<circle cx="309.8" cy="529.75" r="37.909" fill="#333" fill-rule="evenodd" stroke="#000" stroke-linecap="round" stroke-linejoin="round"/>
			<path d="m472.94 504.54c-1.6994-10.98-2.4837-16.471-3.268-20.523-0.78432-4.0523-7.7124-6.1438-17.582-6.1438s-16.797 2.0915-17.582 6.1438c-0.78431 4.0523-1.5686 9.5425-3.268 20.523" fill="#262626" fill-rule="evenodd" stroke="#000"/>
			<circle cx="346.14" cy="566.61" r="24.052" fill="#333" fill-rule="evenodd" stroke="#000" stroke-linecap="round" stroke-linejoin="round"/>
			<circle cx="346.14" cy="566.61" r="18.562" fill-opacity=".51852" fill-rule="evenodd" stroke="#000" stroke-linecap="round" stroke-linejoin="round"/>
			<circle cx="346.14" cy="566.61" r="16.209" fill="#3b3b3b" fill-rule="evenodd" stroke="#000" stroke-linecap="round" stroke-linejoin="round" data-button="left-stick button-10"/>
			<path d="m490.08 520.34c5.4902 30.065 9.0709 62.749 11.765 76.34 4.3818 22.107-32.77 40.747-46.797 15.163-10.649-19.422-22.745-44.183-22.745-44.183z" fill="#262626" fill-rule="evenodd" stroke="#000"/>
			<circle transform="scale(-1,1)" cx="-453.21" cy="529.75" r="37.909" fill="#333" fill-rule="evenodd" stroke="#000" stroke-linecap="round" stroke-linejoin="round"/>
			<path d="m445.43 501.73c-1.5358 0-2.7812 1.2454-2.7812 2.7812v14.656h-14.688c-1.5358 0-2.75 1.2454-2.75 2.7812v15.594c0 1.5358 1.2142 2.7812 2.75 2.7812h14.688v14.656c0 1.5358 1.2454 2.7812 2.7812 2.7812h15.594c1.5358 0 2.75-1.2454 2.75-2.7812v-14.656h14.688c1.5358 0 2.75-1.2454 2.75-2.7812v-15.594c0-1.5358-1.2142-2.7812-2.75-2.7812h-14.688v-14.656c0-1.5358-1.2142-2.7812-2.75-2.7812z" fill="#262626" fill-rule="evenodd"/>
			<rect x="353.46" y="530.28" width="11.634" height="6.6667" rx="1.5686" ry="1.5686" fill="#595959" fill-rule="evenodd" stroke="#000" stroke-linecap="round" stroke-linejoin="round" data-button="button-8"/>
			<path d="m407.19 533.61-8.4967 3.3333c-0.80899 0.31737-1.5686-0.69961-1.5686-1.5686v-3.5294c0-0.86902 0.75963-1.886 1.5686-1.5686z" fill="#595959" fill-rule="evenodd" stroke="#000" stroke-linecap="round" stroke-linejoin="round" data-button="button-9"/>
			<circle cx="382.48" cy="551.32" r="7.9347" fill="#595959" fill-rule="evenodd" stroke="#000" stroke-linecap="round" stroke-linejoin="round" stroke-width="1.3796" data-button="button-16"/>
			<circle cx="453.21" cy="512.1" r="8.2353" fill="#5a5a5a" fill-rule="evenodd" stroke="#454545" stroke-linecap="round" stroke-linejoin="round" data-button="button-3"/>
			<circle cx="453.21" cy="547.53" r="8.2353" fill="#5a5a5a" fill-rule="evenodd" stroke="#454545" stroke-linecap="round" stroke-linejoin="round" data-button="button-0"/>
			<circle cx="470.93" cy="529.81" r="8.2353" fill="#5a5a5a" fill-rule="evenodd" stroke="#454545" stroke-linecap="round" stroke-linejoin="round" data-button="button-1"/>
			<circle cx="435.5" cy="529.81" r="8.2353" fill="#5a5a5a" fill-rule="evenodd" stroke="#454545" stroke-linecap="round" stroke-linejoin="round" data-button="button-2"/>
			<path d="m301.84 501.25c-1.5358 0-2.7812 1.2454-2.7812 2.7812v14.656h-14.688c-1.5358 0-2.75 1.2454-2.75 2.7812v15.594c0 1.5358 1.2142 2.7812 2.75 2.7812h14.688v14.656c0 1.5358 1.2454 2.7812 2.7812 2.7812h15.594c1.5358 0 2.75-1.2454 2.75-2.7812v-14.656h14.688c1.5358 0 2.75-1.2454 2.75-2.7812v-15.594c0-1.5358-1.2142-2.7812-2.75-2.7812h-14.688v-14.656c0-1.5358-1.2142-2.7812-2.75-2.7812z" fill="#262626" fill-rule="evenodd"/>
			<circle cx="416.21" cy="566.61" r="24.052" fill="#333" fill-rule="evenodd" stroke="#000" stroke-linecap="round" stroke-linejoin="round"/>
			<circle cx="416.21" cy="566.61" r="18.562" fill-opacity=".51852" fill-rule="evenodd" stroke="#000" stroke-linecap="round" stroke-linejoin="round"/>
			<circle cx="416.21" cy="566.61" r="16.209" fill="#3b3b3b" fill-rule="evenodd" stroke="#000" stroke-linecap="round" stroke-linejoin="round" data-button="right-stick button-11"/>
			<g fill="#3f3f3f" fill-rule="evenodd">
				<path transform="matrix(0 -.28374 -.51741 0 575.79 583.64)" d="m279.97 514.41-12.665 7.3123v-14.625z"/>
				<path transform="matrix(0 .28374 -.51741 0 575.79 474.89)" d="m279.97 514.41-12.665 7.3123v-14.625z"/>
				<path transform="matrix(.28374 0 0 -.51741 255.25 795.43)" d="m279.97 514.41-12.665 7.3123v-14.625z"/>
				<path transform="matrix(-.28374 0 0 -.51741 364 795.43)" d="m279.97 514.41-12.665 7.3123v-14.625z"/>
			</g>
			<rect x="430.79" y="525.1" width="9.4281" height="9.4281" rx="0" ry="0" fill="none" stroke="#ff01db"/>
			<path transform="matrix(.87668 0 0 .87521 59.31 61.955)" d="m455.3 518.14h-11.974l5.9871-10.37z" fill="none" stroke="#00ff83" stroke-width="1.1416"/>
			<circle transform="scale(-1)" cx="-470.93" cy="-529.81" r="5.6472" fill="none" stroke="#f00" stroke-linecap="round" stroke-linejoin="round"/>
			<path d="m449.04 543.43 8.5038 8.5038m0-8.5038-8.5038 8.5038" fill="none" stroke="#8243fb"/>
			<g fill="#5a5a5a" stroke="#454545">
				<path transform="translate(.35102 .37335)" d="m318.62 523.29a1.1789 1.1789 0 0 0-0.85742 0.44726l-3.5 4.4375a1.1789 1.1789 0 0 0-2e-3 1.457l3.5 4.4688a1.1789 1.1789 0 0 0 0.92382 0.45313l8.125 0.0312a1.1789 1.1789 0 0 0 1.1836-1.1797v-8.7812a1.1789 1.1789 0 0 0-1.1562-1.1777l-8.125-0.15625a1.1789 1.1789 0 0 0-0.0918 0z" fill="#5a5a5a" fill-rule="evenodd" stroke="#454545" stroke-linecap="round" stroke-linejoin="round" data-button="button-15"/>
				<g data-button="button-14">
					<path transform="matrix(-1 0 0 1 618.9 .2845)" d="m318.62 523.29a1.1789 1.1789 0 0 0-0.85742 0.44726l-3.5 4.4375a1.1789 1.1789 0 0 0-2e-3 1.457l3.5 4.4688a1.1789 1.1789 0 0 0 0.92382 0.45313l8.125 0.0312a1.1789 1.1789 0 0 0 1.1836-1.1797v-8.7812a1.1789 1.1789 0 0 0-1.1562-1.1777l-8.125-0.15625a1.1789 1.1789 0 0 0-0.0918 0z" fill="#5a5a5a" fill-rule="evenodd" stroke="#454545" stroke-linecap="round" stroke-linejoin="round"/>
				</g>
				<g data-button="button-13">
					<path transform="rotate(90 309.26 529.25)" d="m318.62 523.29a1.1789 1.1789 0 0 0-0.85742 0.44726l-3.5 4.4375a1.1789 1.1789 0 0 0-2e-3 1.457l3.5 4.4688a1.1789 1.1789 0 0 0 0.92382 0.45313l8.125 0.0312a1.1789 1.1789 0 0 0 1.1836-1.1797v-8.7812a1.1789 1.1789 0 0 0-1.1562-1.1777l-8.125-0.15625a1.1789 1.1789 0 0 0-0.0918 0z" fill="#5a5a5a" fill-rule="evenodd" stroke="#454545" stroke-linecap="round" stroke-linejoin="round"/>
				</g>
				<g data-button="button-12">
					<path transform="matrix(0 -1 -1 0 838.61 838.54)" d="m318.62 523.29a1.1789 1.1789 0 0 0-0.85742 0.44726l-3.5 4.4375a1.1789 1.1789 0 0 0-2e-3 1.457l3.5 4.4688a1.1789 1.1789 0 0 0 0.92382 0.45313l8.125 0.0312a1.1789 1.1789 0 0 0 1.1836-1.1797v-8.7812a1.1789 1.1789 0 0 0-1.1562-1.1777l-8.125-0.15625a1.1789 1.1789 0 0 0-0.0918 0z" fill="#5a5a5a" fill-rule="evenodd" stroke="#454545" stroke-linecap="round" stroke-linejoin="round"/>
				</g>
			</g>
			<path d="m307.47 481.42h1.038v6.7985h3.7358v0.87358h-4.7738v-7.6721"/>
			<path d="m454.02 485.5c0.22267 0.0754 0.43849 0.23638 0.64747 0.48303 0.2124 0.24666 0.4248 0.58582 0.6372 1.0175l1.0534 2.0966h-1.1151l-0.98149-1.9681c-0.25352-0.51387-0.50017-0.85473-0.73998-1.0226-0.23638-0.16786-0.56012-0.25179-0.97121-0.25179h-1.1305v3.2425h-1.038v-7.6721h2.3432c0.877 1e-5 1.5313 0.18329 1.963 0.54984 0.43164 0.36657 0.64747 0.91983 0.64747 1.6598 0 0.48304-0.11305 0.88386-0.33915 1.2024-0.22268 0.31861-0.54813 0.53957-0.97635 0.6629m-2.6002-3.222v2.7235h1.3052c0.50016 1e-5 0.877-0.11476 1.1305-0.34429 0.25693-0.23295 0.3854-0.57382 0.3854-1.0226 0-0.44877-0.12847-0.78622-0.3854-1.0123-0.25351-0.22953-0.63035-0.34429-1.1305-0.3443h-1.3052"/>
			<path d="m353.63 524.56v0.43917c-0.17091-0.0817-0.33216-0.14267-0.48375-0.1828-0.15159-0.0401-0.29798-0.0602-0.43917-0.0602-0.24522 0-0.43471 0.0476-0.56846 0.14267-0.13227 0.0951-0.19841 0.23036-0.19841 0.40573 0 0.14713 0.0438 0.2586 0.13153 0.33439 0.0892 0.0743 0.25711 0.1345 0.50382 0.18057l0.27197 0.0557c0.33587 0.0639 0.58332 0.17686 0.74234 0.33885 0.16051 0.16051 0.24076 0.37601 0.24077 0.64649-1e-5 0.3225-0.1085 0.56698-0.32548 0.73343-0.2155 0.16646-0.53205 0.24968-0.94967 0.24968-0.15753 0-0.32547-0.0178-0.50381-0.0535-0.17686-0.0357-0.3604-0.0884-0.55063-0.15828v-0.46369c0.1828 0.10255 0.36188 0.17983 0.53725 0.23185 0.17537 0.052 0.34777 0.078 0.51719 0.078 0.25711 0 0.45551-0.0505 0.59522-0.15159 0.1397-0.10106 0.20955-0.24522 0.20955-0.43248 0-0.16348-0.0505-0.29129-0.15159-0.38343-0.0996-0.0921-0.2638-0.16125-0.49267-0.20733l-0.2742-0.0535c-0.33588-0.0669-0.57887-0.17165-0.72897-0.31433-0.15011-0.14267-0.22516-0.34107-0.22516-0.59521 0-0.29426 0.10329-0.52611 0.30987-0.69553 0.20806-0.16943 0.49415-0.25414 0.85827-0.25414 0.15605 0 0.31507 0.0141 0.47706 0.0423 0.162 0.0283 0.3277 0.0706 0.49713 0.12707m0.90286-0.10923h2.1044v0.37898h-1.6541v0.98533h1.585v0.37898h-1.585v1.206h1.6942v0.37897h-2.1446v-3.3283m2.8891 0h0.45032v2.9493h1.6207v0.37897h-2.071v-3.3283m2.5414 0h2.1044v0.37898h-1.6541v0.98533h1.585v0.37898h-1.585v1.206h1.6942v0.37897h-2.1446v-3.3283m5.3815 0.25637v0.47483c-0.15159-0.14118-0.31359-0.2467-0.48598-0.31656-0.17092-0.0698-0.35297-0.10477-0.54617-0.10477-0.38047 0-0.67176 0.11667-0.87388 0.34999-0.20212 0.23185-0.30318 0.56773-0.30318 1.0076 0 0.43843 0.10106 0.77431 0.30318 1.0076 0.20212 0.23184 0.49341 0.34776 0.87388 0.34776 0.1932 0 0.37525-0.0349 0.54617-0.10477 0.17239-0.0698 0.33439-0.17537 0.48598-0.31656v0.47038c-0.15754 0.107-0.32473 0.18726-0.50159 0.24076-0.17537 0.0535-0.36114 0.0802-0.55732 0.0802-0.50381 0-0.90062-0.15382-1.1904-0.46146-0.2898-0.30912-0.43471-0.73045-0.43471-1.264 0-0.53502 0.14491-0.95635 0.43471-1.264 0.28981-0.30913 0.68662-0.46369 1.1904-0.46369 0.19915 0 0.38641 0.0267 0.56178 0.0802 0.17685 0.052 0.34256 0.13079 0.49713 0.23631m0.23853-0.25637h2.8156v0.37898h-1.1815v2.9493h-0.45254v-2.9493h-1.1815v-0.37898" fill="#e6e6e6"/>
			<path d="m396.51 524.56v0.43917c-0.17092-0.0817-0.33217-0.14267-0.48376-0.1828-0.15159-0.0401-0.29798-0.0602-0.43916-0.0602-0.24522 0-0.43471 0.0476-0.56847 0.14267-0.13227 0.0951-0.1984 0.23036-0.1984 0.40573 0 0.14713 0.0438 0.2586 0.13152 0.33439 0.0892 0.0743 0.25711 0.1345 0.50382 0.18057l0.27197 0.0557c0.33588 0.0639 0.58333 0.17686 0.74235 0.33885 0.1605 0.16051 0.24076 0.37601 0.24076 0.64649 0 0.3225-0.10849 0.56698-0.32547 0.73343-0.2155 0.16646-0.53206 0.24968-0.94967 0.24968-0.15754 0-0.32548-0.0178-0.50382-0.0535-0.17686-0.0357-0.3604-0.0884-0.55063-0.15828v-0.46369c0.1828 0.10255 0.36189 0.17983 0.53726 0.23185 0.17536 0.052 0.34776 0.078 0.51719 0.078 0.2571 0 0.45551-0.0505 0.59521-0.15159 0.1397-0.10106 0.20955-0.24522 0.20955-0.43248 0-0.16348-0.0505-0.29129-0.15159-0.38343-0.0996-0.0921-0.2638-0.16125-0.49267-0.20733l-0.2742-0.0535c-0.33587-0.0669-0.57886-0.17165-0.72897-0.31433-0.1501-0.14267-0.22516-0.34107-0.22515-0.59521-1e-5 -0.29426 0.10328-0.52611 0.30986-0.69553 0.20807-0.16943 0.49416-0.25414 0.85827-0.25414 0.15605 0 0.31507 0.0141 0.47707 0.0423 0.16199 0.0283 0.3277 0.0706 0.49713 0.12707m0.44139-0.10923h2.8156v0.37898h-1.1815v2.9493h-0.45254v-2.9493h-1.1815v-0.37898m4.0082 0.44362-0.61082 1.6564h1.2239l-0.61305-1.6564m-0.25413-0.44362h0.5105l1.2685 3.3283h-0.46815l-0.30318-0.85381h-1.5003l-0.30318 0.85381h-0.47484l1.2707-3.3283m3.841 1.7678c0.0966 0.0327 0.19023 0.10255 0.28089 0.20955 0.0921 0.10701 0.18429 0.25414 0.27643 0.4414l0.457 0.90954h-0.48375l-0.42579-0.85381c-0.10998-0.22292-0.21698-0.3708-0.32102-0.44362-0.10254-0.0728-0.24299-0.10924-0.42133-0.10924h-0.49044v1.4067h-0.45031v-3.3283h1.0166c0.38046 0 0.66432 0.0795 0.85158 0.23853s0.28088 0.39904 0.28089 0.72006c-1e-5 0.20955-0.0491 0.38343-0.14713 0.52165-0.0966 0.13821-0.2378 0.23407-0.42357 0.28757m-1.128-1.3978v1.1815h0.56624c0.21698 0 0.38046-0.0498 0.49044-0.14936 0.11146-0.10106 0.16719-0.24893 0.16719-0.44362s-0.0557-0.34108-0.16719-0.43917c-0.10998-0.0996-0.27346-0.14936-0.49044-0.14936h-0.56624m1.9328-0.37006h2.8156v0.37898h-1.1815v2.9493h-0.45254v-2.9493h-1.1815v-0.37898" fill="#e6e6e6"/>
			<text transform="scale(-1.6252 -.6153)" x="-223.68372" y="-815.48474" fill="#b3b3b3" font-family="Arial" stroke-width="1px" style="line-height:0%" xml:space="preserve">
				<tspan x="-223.68372" y="-815.48474" font-size="3.0753px" style="line-height:1.25">1</tspan>
			</text>
			<text transform="scale(-1.6252 -.6153)" x="-220.45108" y="-815.48474" fill="#b3b3b3" font-family="Arial" stroke-width="1px" style="line-height:0%" xml:space="preserve">
				<tspan x="-220.45108" y="-815.48474" font-size="3.0753px" style="line-height:1.25">2</tspan>
			</text>
			<text transform="scale(-1.6252 -.6153)" x="-216.92226" y="-815.5238" fill="#b3b3b3" font-family="Arial" stroke-width="1px" style="line-height:0%" xml:space="preserve">
				<tspan x="-216.92226" y="-815.5238" font-size="3.0753px" style="line-height:1.25">3</tspan>
			</text>
			<text transform="scale(-1.6252 -.6153)" x="-212.86066" y="-815.49377" fill="#b3b3b3" font-family="Arial" stroke-width="1px" style="line-height:0%" xml:space="preserve">
				<tspan x="-212.86066" y="-815.49377" font-size="3.0753px" style="line-height:1.25">4</tspan>
			</text>
			<rect x="343.44" y="498.32" width="2.0832" height="2.7005" rx="0" ry="1.5686" fill="#1a1a1a"/>
			<rect x="350" y="498.32" width="2.0832" height="2.7005" rx="0" ry="1.5686" fill="#1a1a1a"/>
			<rect x="355.86" y="498.32" width="2.0832" height="2.7005" rx="0" ry="1.5686" fill="#1a1a1a"/>
			<rect x="360.96" y="498.32" width="2.0832" height="2.7005" rx="0" ry="1.5686" fill="#f00"/>
			<g transform="matrix(.080659 0 0 .080659 351.05 512.47)" clip-rule="evenodd" fill-rule="evenodd" stroke-width="2.256">
				<path d="m394.88 444.14-0.0851 78.095-20.924-6.8051v-91.793l26.708 7.0613c17.096 4.5948 27.559 13.526 27.388 29.18-0.17 18.206-8.5908 25.521-25.007 20.757v-35.901c0-4.3389-8.0805-4.593-8.0805-0.59435z" fill="#de0029"/>
				<path d="m364.26 500.28-9.867 3.3186c-6.3802 2.2124-11.823-2.9768-5.9543-5.1048l4.763-1.7003-17.947-5.701c-5.5292 1.8724-10.718 5.8707-10.377 11.486 0.34027 5.6992 13.354 7.061 23.392 8.6775 9.3559 1.5306 17.862 0.68001 25.603-2.0424v-5.8705zm30.706 21.95 18.288-6.381-18.458-5.8692v11.824z" fill="#f3c202"/>
				<path d="m443.62 505.13 0.34-0.0857c7.9956-2.8065 11.398-6.7213 10.548-10.378-1.3611-6.1248-11.143-9.4434-26.199-10.55-10.802-0.76514-21.434 1.6162-31.811 5.1889l-1.7013 0.5962 18.628 5.7848 10.887-3.6586c11.398-2.1262 15.992 1.6165 5.0189 5.1048l-5.444 1.8705zm-69.748-27.052-8.2516 2.8065 8.2516 2.5524z" fill="#326db3"/>
				<path d="m413.25 515.85 30.366-10.718-19.734-6.1267-29.09 9.9534v1.0221zm-39.382-18.801-9.6118 3.2327 9.6118 3.0627zm20.924 5.0207v-12.166l18.628 5.7848zm-41.594-5.2748 20.67-7.4013v-5.9551l-8.2513-2.5524-29.941 10.124c-0.0851 0-0.25513 0.0841-0.42513 0.0841z" fill="#00aa9e"/>
			</g>
		</g>
	</g>
	<g transform="translate(-260.34 -473.69)">
		<g cv-if = "a">
			<path transform="translate(134.82 68.294)" d="m456.39 552.34 69.71 17.901" fill="none" stroke="#000" stroke-width=".
			5"/>
		</g>
		<g cv-if = "x">
			<path transform="translate(134.82 68.294)" d="m439.07 532.57 87.033 22.593" fill="none" stroke="#000" stroke-width=".5"/>
		</g>
		<g cv-if = "y">
			<path transform="translate(134.82 68.294)" d="m457.95 515.41 68.155 16.266" fill="none" stroke="#000" stroke-width=".5"/>
		</g>
		<g cv-if = "b">
			<path transform="translate(134.82 68.294)" d="m474.2 532.63 51.904 12.605" fill="none" stroke="#000" stroke-width=".
			5"/>
		</g>
		<text transform="translate(134.82 68.294)" x="527.39423" y="547.27045" fill="#000000" font-family="sans-serif" font-size="40px" letter-spacing="0px" word-spacing="0px" style="line-height:1.25" xml:space="preserve">
			<tspan x="527.39423" y="547.27045" font-family="sans-serif" font-size="6px" style="font-variant-caps:normal;font-variant-east-asian:normal;font-variant-ligatures:normal;font-variant-numeric:normal">[[b]]</tspan>
		</text>
		<text transform="translate(134.82 68.294)" x="527.69214" y="572.71301" fill="#000000" font-family="sans-serif" font-size="40px" letter-spacing="0px" word-spacing="0px" style="line-height:1.25" xml:space="preserve">
			<tspan x="527.69214" y="572.71301" font-family="sans-serif" font-size="6px" style="font-variant-caps:normal;font-variant-east-asian:normal;font-variant-ligatures:normal;font-variant-numeric:normal">[[a]]</tspan>
		</text>
		<text transform="translate(134.82 68.294)" x="527.45691" y="557.97314" fill="#000000" font-family="sans-serif" font-size="40px" letter-spacing="0px" word-spacing="0px" style="line-height:1.25" xml:space="preserve">
			<tspan x="527.45691" y="557.97314" font-family="sans-serif" font-size="6px" style="font-variant-caps:normal;font-variant-east-asian:normal;font-variant-ligatures:normal;font-variant-numeric:normal">[[x]]</tspan>
		</text>
		<text transform="translate(134.82 68.294)" x="526.81152" y="534.13593" fill="#000000" font-family="sans-serif" font-size="40px" letter-spacing="0px" word-spacing="0px" style="line-height:1.25" xml:space="preserve">
			<tspan x="526.81152" y="534.13593" font-family="sans-serif" font-size="6px" style="font-variant-caps:normal;font-variant-east-asian:normal;font-variant-ligatures:normal;font-variant-numeric:normal">[[y]]</tspan>
		</text>
		<g cv-if ="r1">
			<path transform="translate(134.82 68.294)" d="m470.33 481.76 53.163 13.403" fill="none" stroke="#000" stroke-width=".5"/>
			<text transform="translate(134.82 68.294)" x="524.19629" y="497.62772" fill="#000000" font-family="sans-serif" font-size="40px" letter-spacing="0px" word-spacing="0px" style="line-height:1.25" xml:space="preserve">
				<tspan x="524.19629" y="497.62772" font-family="sans-serif" font-size="6px" style="font-variant-caps:normal;font-variant-east-asian:normal;font-variant-ligatures:normal;font-variant-numeric:normal">[[l1]]</tspan>
			</text>
		</g>
		<g cv-if ="ra">
			<path transform="translate(134.82 68.294)" d="m435.96 571.55 90.146 25.55" fill="none" stroke="#000" stroke-width=".5"/>
			<text transform="translate(134.82 68.294)" x="529.45886" y="599.68732" fill="#000000" font-family="sans-serif" font-size="40px" letter-spacing="0px" word-spacing="0px" style="line-height:1.25" xml:space="preserve">
				<tspan x="529.45886" y="599.68732" font-family="sans-serif" font-size="6px" style="font-variant-caps:normal;font-variant-east-asian:normal;font-variant-ligatures:normal;font-variant-numeric:normal">[[ra]]</tspan>
			</text>
		</g>
		<g cv-if = "l1">
			<path transform="translate(134.82 68.294)" d="m292.1 481.01-53.163 13.403" fill="none" stroke="#000" stroke-width=".5"/>
			<text transform="translate(134.82 68.294)" x="212.72356" y="496.87265" fill="#000000" font-family="sans-serif" font-size="40px" letter-spacing="0px" word-spacing="0px" style="line-height:1.25" xml:space="preserve">
				<tspan x="212.72356" y="496.87265" font-family="sans-serif" font-size="6px" style="font-variant-caps:normal;font-variant-east-asian:normal;font-variant-ligatures:normal;font-variant-numeric:normal">[[l1]]</tspan>
			</text>
		</g>
		<g cv-if = "dpad">
			<path transform="translate(134.82 68.294)" d="m294.23 543.48-55.024 27.964" fill="none" stroke="#000" stroke-width=".5"/>
			<text transform="translate(134.82 68.294)" x="220.96754" y="573.75909" fill="#000000" font-family="sans-serif" font-size="40px" letter-spacing="0px" word-spacing="0px" style="line-height:1.25" xml:space="preserve">
				<tspan x="220.96754" y="573.75909" font-family="sans-serif" font-size="6px" style="font-variant-caps:normal;font-variant-east-asian:normal;font-variant-ligatures:normal;font-variant-numeric:normal">[[dpad]]</tspan>
			</text>
		</g>
		<g cv-if = "start">
			<path transform="translate(134.82 68.294)" d="m401.03 523.14v-50.774" fill="none" stroke="#000" stroke-width=".5"/>
			<text transform="translate(134.82 68.294)" x="392.06915" y="470.65366" fill="#000000" font-family="sans-serif" font-size="40px" letter-spacing="0px" word-spacing="0px" style="line-height:1.25" xml:space="preserve">
				<tspan x="392.06915" y="470.65366" font-family="sans-serif" font-size="6px" style="font-variant-caps:normal;font-variant-east-asian:normal;font-variant-ligatures:normal;font-variant-numeric:normal">[[start]]</tspan>
			</text>
		</g>
	</g>
</svg>
