<?xml version="1.0" encoding="UTF-8" standalone="no"?>
<svg
   xmlns:ns3="http://ns.adobe.com/AdobeIllustrator/10.0/"
   xmlns:dc="http://purl.org/dc/elements/1.1/"
   xmlns:cc="http://creativecommons.org/ns#"
   xmlns:rdf="http://www.w3.org/1999/02/22-rdf-syntax-ns#"
   xmlns:svg="http://www.w3.org/2000/svg"
   xmlns="http://www.w3.org/2000/svg"
   xmlns:sodipodi="http://sodipodi.sourceforge.net/DTD/sodipodi-0.dtd"
   xmlns:inkscape="http://www.inkscape.org/namespaces/inkscape"
   width="26.492199mm"
   height="17.699038mm"
   viewBox="0 0 26.492199 17.699038"
   version="1.1"
   id="svg4858"
   inkscape:version="1.0.2 (e86c870879, 2021-01-15)"
   sodipodi:docname="arrow-keys.svg">
  <defs
     id="defs4852" />
  <sodipodi:namedview
     id="base"
     pagecolor="#ffffff"
     bordercolor="#666666"
     borderopacity="1.0"
     inkscape:pageopacity="0.0"
     inkscape:pageshadow="2"
     inkscape:zoom="5.6"
     inkscape:cx="41.235583"
     inkscape:cy="17.059828"
     inkscape:document-units="mm"
     inkscape:current-layer="layer1"
     inkscape:document-rotation="0"
     showgrid="false"
     fit-margin-top="0"
     fit-margin-left="0"
     fit-margin-right="0"
     fit-margin-bottom="0"
     showguides="true"
     inkscape:guide-bbox="true"
     inkscape:window-width="1920"
     inkscape:window-height="1026"
     inkscape:window-x="1050"
     inkscape:window-y="31"
     inkscape:window-maximized="1" />
  <metadata
     id="metadata4855">
    <rdf:RDF>
      <cc:Work
         rdf:about="">
        <dc:format>image/svg+xml</dc:format>
        <dc:type
           rdf:resource="http://purl.org/dc/dcmitype/StillImage" />
        <dc:title></dc:title>
      </cc:Work>
    </rdf:RDF>
  </metadata>
  <g
     inkscape:label="Layer 1"
     inkscape:groupmode="layer"
     id="layer1"
     transform="translate(-96.625825,-37.444644)">
    <path
       ns3:knockout="Off"
       fill="#f9f9f9"
       stroke="#000000"
       stroke-width="0.529167"
       d="m 113.99578,54.111012 c 0,0.424392 -0.34369,0.768086 -0.76808,0.768086 h -6.70666 c -0.42439,0 -0.76808,-0.343959 -0.76808,-0.768086 v -6.706658 c 0,-0.425185 0.34369,-0.769144 0.76808,-0.769144 h 6.70666 c 0.42439,0 0.76808,0.343959 0.76808,0.769144 z"
       id="path4090"
       style="fill:#ffffff" />
    <path
       ns3:knockout="Off"
       fill="#f9f9f9"
       stroke="#000000"
       stroke-width="0.529167"
       d="m 113.99578,45.185029 c 0,0.424127 -0.34369,0.76835 -0.76808,0.76835 h -6.70666 c -0.42439,0 -0.76808,-0.344223 -0.76808,-0.76835 v -6.706394 c 0,-0.425185 0.34369,-0.769408 0.76808,-0.769408 h 6.70666 c 0.42439,0 0.76808,0.344223 0.76808,0.769408 z"
       id="path4092"
       style="fill:#ffffff" />
    <path
       ns3:knockout="Off"
       fill="#f9f9f9"
       stroke="#000000"
       stroke-width="0.529167"
       d="m 105.13376,54.111012 c 0,0.424392 -0.34422,0.768086 -0.76861,0.768086 h -6.706132 c -0.42492,0 -0.76861,-0.343959 -0.76861,-0.768086 v -6.706658 c 0,-0.425185 0.34369,-0.769144 0.76861,-0.769144 h 6.706132 c 0.42439,0 0.76861,0.343959 0.76861,0.769144 z"
       id="path4116"
       style="fill:#ffffff" />
    <path
       ns3:knockout="Off"
       fill="#f9f9f9"
       stroke="#000000"
       stroke-width="0.529167"
       d="m 122.85344,54.111012 c 0,0.424392 -0.34449,0.768086 -0.76888,0.768086 h -6.70613 c -0.42492,0 -0.76861,-0.343959 -0.76861,-0.768086 v -6.706658 c 0,-0.425185 0.34369,-0.769144 0.76861,-0.769144 h 6.70613 c 0.42439,0 0.76888,0.343959 0.76888,0.769144 z"
       id="path4174"
       style="fill:#ffffff" />
    <path
       d="m 102.34425,48.602697 v 4.308244 c 0,0.233055 -0.28315,0.350671 -0.44651,0.185137 l -2.141048,-2.154122 c -0.10237,-0.10237 -0.10237,-0.265726 0,-0.368095 l 2.141048,-2.154123 c 0.16336,-0.167712 0.44651,-0.0501 0.44651,0.182959 z"
       id="path5519"
       style="stroke-width:0.0217808"
       sodipodi:nodetypes="ssccccs" />
    <path
       d="m 112.02883,43.163472 h -4.30825 c -0.23305,0 -0.35067,-0.28315 -0.18513,-0.44651 l 2.15412,-2.14105 c 0.10237,-0.10237 0.26573,-0.10237 0.36809,0 l 2.15413,2.14105 c 0.16771,0.16336 0.0501,0.44651 -0.18296,0.44651 z"
       id="path5519-3"
       style="stroke-width:0.0217808"
       sodipodi:nodetypes="ssccccs" />
    <path
       d="m 117.39946,52.911613 v -4.30825 c 0,-0.23305 0.28315,-0.35067 0.44651,-0.18513 l 2.14105,2.15412 c 0.10237,0.10237 0.10237,0.26573 0,0.36809 l -2.14105,2.15413 c -0.16336,0.16771 -0.44651,0.0501 -0.44651,-0.18296 z"
       id="path5519-3-6"
       style="stroke-width:0.0217808"
       sodipodi:nodetypes="ssccccs" />
    <path
       id="path5519-3-6-5"
       style="stroke-width:0.0217808"
       sodipodi:type="inkscape:offset"
       inkscape:radius="0"
       inkscape:original="M 120.9707 48.003906 C 120.80734 47.838366 120.52344 47.956403 120.52344 48.189453 L 120.52344 52.498047 C 120.52344 52.731107 120.80734 52.847397 120.9707 52.679688 L 123.11133 50.527344 C 123.2137 50.424984 123.2137 50.260573 123.11133 50.158203 L 120.9707 48.003906 z "
       d="m 120.9707,48.003906 c -0.16336,-0.16554 -0.44726,-0.0475 -0.44726,0.185547 v 4.308594 c 0,0.23306 0.2839,0.34935 0.44726,0.181641 l 2.14063,-2.152344 c 0.10237,-0.10236 0.10237,-0.266771 0,-0.369141 z"
       transform="rotate(90,115.65788,44.559253)" />
  </g>
</svg>
