<?xml version="1.0" encoding="UTF-8" standalone="no"?>
<svg
   xmlns:dc="http://purl.org/dc/elements/1.1/"
   xmlns:cc="http://creativecommons.org/ns#"
   xmlns:rdf="http://www.w3.org/1999/02/22-rdf-syntax-ns#"
   xmlns:svg="http://www.w3.org/2000/svg"
   xmlns="http://www.w3.org/2000/svg"
   xmlns:sodipodi="http://sodipodi.sourceforge.net/DTD/sodipodi-0.dtd"
   xmlns:inkscape="http://www.inkscape.org/namespaces/inkscape"
   width="16.64"
   height="10.24"
   version="1.1"
   viewBox="0 0 16.64 10.24"
   id="svg539"
   sodipodi:docname="arrow-keys-beveled-up.svg"
   inkscape:version="1.0.2 (e86c870879, 2021-01-15)">
  <defs
     id="defs543" />
  <sodipodi:namedview
     pagecolor="#ffffff"
     bordercolor="#666666"
     borderopacity="1"
     objecttolerance="10"
     gridtolerance="10"
     guidetolerance="10"
     inkscape:pageopacity="0"
     inkscape:pageshadow="2"
     inkscape:window-width="1920"
     inkscape:window-height="1026"
     id="namedview541"
     showgrid="false"
     inkscape:zoom="57.245268"
     inkscape:cx="6.4244332"
     inkscape:cy="6.1840521"
     inkscape:window-x="1050"
     inkscape:window-y="31"
     inkscape:window-maximized="1"
     inkscape:current-layer="svg539"
     inkscape:document-rotation="0" />
  <metadata
     id="metadata475">
    <rdf:RDF>
      <cc:Work
         rdf:about="">
        <dc:format>image/svg+xml</dc:format>
        <dc:type
           rdf:resource="http://purl.org/dc/dcmitype/StillImage" />
        <dc:title />
      </cc:Work>
    </rdf:RDF>
  </metadata>
  <path
     d="m 6.060025,0.3 4.549982,-1.38e-6 -0.02311,4.49424998 -4.526881,0.00577 z"
     fill="#999999"
     fill-opacity="0.9"
     id="path477"
     style="stroke-width:0.50001;fill:#999999;fill-opacity:1" />
  <path
     d="m 10.879918,5.119995 1.09e-4,-5.12 -0.270011,0.3 -0.02311,4.49425 -4.526881,0.00577 -0.300012,0.32 z"
     fill="#5d6069"
     stroke-width="0.108257"
     id="path479" />
  <path
     d="M 5.760013,0 6.060025,0.3 V 4.8 L 5.760013,5.12 Z m 0,0 5.120205,3.5765e-8 -0.270011,0.300000004235 -4.549982,1.38e-6 z"
     id="path483"
     style="fill:#dcdee5;stroke-width:0.50001" />
  <path
     d="m 9.7451094,3.44125 h -2.850164 c -0.1541762,0 -0.2319893,-0.18731 -0.1224749,-0.29538 l 1.425057,-1.41635 c 0.067723,-0.06772 0.175797,-0.06772 0.2435097,0 l 1.425057,1.41635 c 0.1109495,0.108065 0.033144,0.29538 -0.1210398,0.29538 z"
     stroke-width="0.0144088"
     id="path489" />
  <path
     d="m 6.060025,5.42 4.549982,-1.4e-6 -0.02311,4.49425 -4.526881,0.00577 z"
     fill="#999"
     fill-opacity="0.9"
     id="path493"
     style="fill:#666666;stroke-width:0.50001;fill-opacity:1" />
  <path
     d="m 10.879918,10.239995 1.09e-4,-5.12 -0.270011,0.3 -0.02311,4.49425 -4.526881,0.00577 -0.300012,0.320001 z"
     fill="#5d6069"
     stroke-width="0.108257"
     id="path495" />
  <path
     d="m 5.760013,5.12 0.300012,0.3 v 4.5 l -0.300012,0.32 z m 0,0 h 5.120205 l -0.270011,0.3 -4.549982,1.4e-6 z"
     id="path499"
     style="fill:#dcdee5;stroke-width:0.50001" />
  <path
     d="m 9.7451094,6.79875 h -2.850164 c -0.1541762,0 -0.2319893,0.18731 -0.1224749,0.29538 l 1.425057,1.41635 c 0.067723,0.06772 0.175797,0.06772 0.2435097,0 L 9.8660942,7.09413 C 9.9770437,6.986065 9.8992381,6.79875 9.7450544,6.79875 Z"
     stroke-width="0.0144088"
     id="path505"
     style="fill:#333333" />
  <path
     d="m 0.9402166,5.42 4.549982,-1.4e-6 -0.02311,4.49425 -4.5268811,0.00577 z"
     fill="#999999"
     fill-opacity="0.9"
     id="path509"
     style="fill:#666666;stroke-width:0.50001;fill-opacity:0.99235034" />
  <path
     d="m 5.7601094,10.239995 1.09e-4,-5.12 -0.2700108,0.3 -0.02311,4.49425 -4.52688107,0.00577 -0.300012,0.320001 z"
     fill="#5d6069"
     stroke-width="0.108257"
     id="path511"
     style="fill:#5d6069;fill-opacity:1" />
  <path
     d="m 0.6402046,5.12 0.300012,0.3 v 4.5 l -0.300012,0.32 z m 0,0 h 5.1202048 l -0.2700108,0.3 -4.54998199,1.4e-6 z"
     id="path515"
     style="fill:#dcdee5;stroke-width:0.50001" />
  <path
     d="M 4.0810422,9.1053 V 6.25515 c 0,-0.154175 -0.1873125,-0.231985 -0.2953768,-0.122475 l -1.4163566,1.42505 c -0.067723,0.067725 -0.067723,0.175795 0,0.24351 l 1.4163566,1.42505 c 0.1080693,0.11095 0.2953768,0.033144 0.2953768,-0.12104 z"
     stroke-width="0.0144088"
     id="path521"
     style="fill:#333333" />
  <path
     d="m 11.179976,5.42 4.549982,-1.4e-6 -0.02311,4.49425 -4.526881,0.00577 z"
     fill="#999999"
     fill-opacity="0.9"
     id="path523"
     style="fill:#666666;stroke-width:0.50001;fill-opacity:1" />
  <path
     d="m 15.999869,10.239995 1.09e-4,-5.12 -0.270011,0.3 -0.02311,4.49425 -4.526881,0.00577 -0.300012,0.320001 z"
     fill="#5d6069"
     stroke-width="0.108257"
     id="path525" />
  <path
     d="m 10.879964,5.12 0.300012,0.3 v 4.5 l -0.300012,0.32 z m 0,0 h 5.120205 l -0.270011,0.3 -4.549982,1.4e-6 z"
     id="path529"
     style="fill:#dcdee5;stroke-width:0.50001" />
  <path
     d="m 12.558481,6.2547 v 2.85015 c 0,0.154175 0.187313,0.231985 0.295377,0.122475 l 1.416357,-1.42505 c 0.06772,-0.067725 0.06772,-0.175795 0,-0.24351 l -1.416357,-1.42505 c -0.108069,-0.11095 -0.295377,-0.033141 -0.295377,0.12104 z"
     stroke-width="0.0144088"
     id="path535"
     style="fill:#333333" />
</svg>
