<?xml version="1.0" encoding="UTF-8"?>
<svg width="16.64" height="10.24" version="1.1" viewBox="0 0 16.64 10.24" xmlns="http://www.w3.org/2000/svg" xmlns:cc="http://creativecommons.org/ns#" xmlns:dc="http://purl.org/dc/elements/1.1/" xmlns:rdf="http://www.w3.org/1999/02/22-rdf-syntax-ns#">
 <metadata>
  <rdf:RDF>
   <cc:Work rdf:about="">
    <dc:format>image/svg+xml</dc:format>
    <dc:type rdf:resource="http://purl.org/dc/dcmitype/StillImage"/>
    <dc:title/>
   </cc:Work>
  </rdf:RDF>
 </metadata>
 <g transform="matrix(.50002 0 0 .5 5.7597 0)">
  <g transform="translate(6.26e-4)">
   <path d="m0.6 0.6 9.0996-2.76e-6 -0.046218 8.9885-9.0534 0.011545z" fill="#999" fill-opacity=".9"/>
   <g transform="matrix(-1 0 0 -1 4.3185 9.7807)" fill="#5d6069">
    <path d="m-5.9209-0.45929-2.18e-4 10.24 0.54-0.6 0.046218-8.9885 9.0534-0.011545 0.6-0.64z" fill="#5d6069" stroke-width=".21651"/>
   </g>
   <g fill="#dcdee5">
    <path d="m0 0 0.6 0.6v9l-0.6 0.64zm0 0 10.24 7.153e-8 -0.54 0.6-9.0996 2.76e-6z"/>
   </g>
  </g>
  <path d="m7.9705 6.8825h-5.7001c-0.30834 0-0.46396-0.37462-0.24494-0.59076l2.85-2.8327c0.13544-0.13544 0.35158-0.13544 0.487 0l2.85 2.8327c0.22189 0.21613 0.066285 0.59076-0.24207 0.59076z" stroke-width=".028817"/>
 </g>
 <g transform="matrix(.50002 0 0 .5 5.7597 5.12)">
  <g transform="translate(6.26e-4)">
   <path d="m0.6 0.6 9.0996-2.76e-6 -0.046218 8.9885-9.0534 0.011545z" fill="#999" fill-opacity=".9"/>
   <g transform="matrix(-1 0 0 -1 4.3185 9.7807)" fill="#5d6069">
    <path d="m-5.9209-0.45929-2.18e-4 10.24 0.54-0.6 0.046218-8.9885 9.0534-0.011545 0.6-0.64z" fill="#5d6069" stroke-width=".21651"/>
   </g>
   <g fill="#dcdee5">
    <path d="m0 0 0.6 0.6v9l-0.6 0.64zm0 0 10.24 7.153e-8 -0.54 0.6-9.0996 2.76e-6z"/>
   </g>
  </g>
  <path d="m7.9705 3.3575h-5.7001c-0.30834 0-0.46396 0.37462-0.24494 0.59076l2.85 2.8327c0.13544 0.13544 0.35158 0.13544 0.487 0l2.85-2.8327c0.22189-0.21613 0.066285-0.59076-0.24207-0.59076z" stroke-width=".028817"/>
 </g>
 <g transform="matrix(.50002 0 0 .5 8.0255 4.671)">
  <g transform="translate(-14.77 .898)">
   <path d="m0.6 0.6 9.0996-2.76e-6 -0.046218 8.9885-9.0534 0.011545z" fill="#999" fill-opacity=".9"/>
   <g transform="matrix(-1 0 0 -1 4.3185 9.7807)" fill="#5d6069">
    <path d="m-5.9209-0.45929-2.18e-4 10.24 0.54-0.6 0.046218-8.9885 9.0534-0.011545 0.6-0.64z" fill="#5d6069" stroke-width=".21651"/>
   </g>
   <g fill="#dcdee5">
    <path d="m0 0 0.6 0.6v9l-0.6 0.64zm0 0 10.24 7.153e-8 -0.54 0.6-9.0996 2.76e-6z"/>
   </g>
  </g>
  <path d="m-7.8886 8.8686v-5.7003c0-0.30835-0.37461-0.46397-0.59073-0.24495l-2.8326 2.8501c-0.13544 0.13545-0.13544 0.35159 0 0.48702l2.8326 2.8501c0.21613 0.2219 0.59073 0.066288 0.59073-0.24208z" stroke-width=".028817"/>
  <g transform="translate(5.7087 .898)">
   <path d="m0.6 0.6 9.0996-2.76e-6 -0.046218 8.9885-9.0534 0.011545z" fill="#999" fill-opacity=".9"/>
   <g transform="matrix(-1 0 0 -1 4.3185 9.7807)" fill="#5d6069">
    <path d="m-5.9209-0.45929-2.18e-4 10.24 0.54-0.6 0.046218-8.9885 9.0534-0.011545 0.6-0.64z" fill="#5d6069" stroke-width=".21651"/>
   </g>
   <g fill="#dcdee5">
    <path d="m0 0 0.6 0.6v9l-0.6 0.64zm0 0 10.24 7.153e-8 -0.54 0.6-9.0996 2.76e-6z"/>
   </g>
  </g>
  <path d="m9.0656 3.1674v5.7003c0 0.30835 0.37461 0.46397 0.59073 0.24495l2.8326-2.8501c0.13544-0.13545 0.13544-0.35159 0-0.48702l-2.8326-2.8501c-0.21613-0.2219-0.59073-0.066283-0.59073 0.24208z" stroke-width=".028817"/>
 </g>
</svg>
