<?xml version="1.0" encoding="UTF-8" standalone="no"?>
<svg
   xmlns:dc="http://purl.org/dc/elements/1.1/"
   xmlns:cc="http://creativecommons.org/ns#"
   xmlns:rdf="http://www.w3.org/1999/02/22-rdf-syntax-ns#"
   xmlns:svg="http://www.w3.org/2000/svg"
   xmlns="http://www.w3.org/2000/svg"
   xmlns:sodipodi="http://sodipodi.sourceforge.net/DTD/sodipodi-0.dtd"
   xmlns:inkscape="http://www.inkscape.org/namespaces/inkscape"
   version="1.1"
   id="Capa_1"
   x="0px"
   y="0px"
   width="128"
   height="128"
   viewBox="0 0 127.99999 127.99999"
   xml:space="preserve"
   sodipodi:docname="genesis-controller.svg"
   inkscape:version="1.0.2 (e86c870879, 2021-01-15)"><metadata
   id="metadata79"><rdf:RDF><cc:Work
       rdf:about=""><dc:format>image/svg+xml</dc:format><dc:type
         rdf:resource="http://purl.org/dc/dcmitype/StillImage" /><dc:title></dc:title></cc:Work></rdf:RDF></metadata><defs
   id="defs77" /><sodipodi:namedview
   pagecolor="#000000"
   bordercolor="#666666"
   borderopacity="1"
   objecttolerance="10"
   gridtolerance="10"
   guidetolerance="10"
   inkscape:pageopacity="0"
   inkscape:pageshadow="2"
   inkscape:window-width="1920"
   inkscape:window-height="1026"
   id="namedview75"
   showgrid="false"
   inkscape:pagecheckerboard="true"
   inkscape:zoom="4.1672197"
   inkscape:cx="11.869649"
   inkscape:cy="75.221599"
   inkscape:window-x="1050"
   inkscape:window-y="31"
   inkscape:window-maximized="1"
   inkscape:current-layer="g40" />
<g
   id="g42">
	<g
   id="g40">
		<path
   d="m 30.99043,80.258258 c 3.794318,-1.04166 6.828753,-4.07455 7.873065,-7.86776 H 30.91318 Z"
   id="path2"
   style="fill:#ffffff;stroke-width:0.221346" />
		<path
   d="m 28.027932,49.895298 c -10.765396,0 -19.5245101,8.75912 -19.5245101,19.52451 0,10.7654 8.7591141,19.52451 19.5245101,19.52451 10.765396,0 19.52451,-8.75911 19.52451,-19.52451 -2.21e-4,-10.76539 -8.759335,-19.52451 -19.52451,-19.52451 z m -16.427876,20.83444 -3.0857882,-1.30993 3.0857882,-1.30992 z m 16.427876,-20.82359 1.309927,3.08579 h -2.619854 z m 0,39.02711 -1.309927,-3.08557 h 2.619854 z m 12.512704,-17.8974 -0.156935,0.80725 -0.107131,0.54739 h -0.04338 c -1.110716,4.58962 -4.643623,8.12385 -9.234566,9.23479 v 0.0418 l -0.532338,0.10448 c -0.0053,0.001 -0.0095,0.003 -0.01483,0.004 l -0.80725,0.15716 v -0.0407 c -0.537871,0.0704 -1.078399,0.11776 -1.616049,0.11776 -0.539199,0 -1.079505,-0.0487 -1.617377,-0.11776 v 0.0407 l -0.807249,-0.15716 c -0.0053,-0.001 -0.0095,-0.003 -0.01483,-0.004 l -0.532337,-0.10448 v -0.0418 c -4.589394,-1.11094 -8.12385,-4.64495 -9.234566,-9.23479 h -0.04338 l -0.10691,-0.54739 -0.157156,-0.80725 h 0.0394 c -0.06906,-0.5392 -0.117978,-1.07817 -0.117978,-1.61605 0,-0.53919 0.04892,-1.07839 0.117978,-1.61627 h -0.0394 l 0.157156,-0.80725 0.10691,-0.54716 h 0.04206 c 1.110937,-4.59095 4.643623,-8.12518 9.234566,-9.23612 v -0.0434 l 0.545839,-0.10691 h 0.0013 l 0.807249,-0.15716 v 0.0407 c 1.075522,-0.13812 2.158126,-0.13812 3.233426,0 v -0.0407 l 0.807471,0.15716 h 0.0013 l 0.547389,0.10691 v 0.0434 c 4.589393,1.11094 8.12385,4.64517 9.234565,9.23612 h 0.04206 l 0.10691,0.54716 0.157156,0.80725 h -0.0394 c 0.06906,0.53788 0.117977,1.0784 0.117977,1.61627 0,0.53788 -0.0487,1.07818 -0.117977,1.61605 z m 3.914951,-2.92597 3.085788,1.30992 -3.085788,1.30993 z"
   id="path4"
   style="fill:#ffffff;stroke-width:0.221346" />
		<path
   d="m 25.055695,58.582698 c -3.790334,1.04454 -6.821892,4.07609 -7.865097,7.86665 h 7.865097 z"
   id="path6"
   style="fill:#ffffff;stroke-width:0.221346" />
		<path
   d="m 30.91318,67.803538 c -0.700339,0 -1.269199,-0.57018 -1.269199,-1.27052 v -8.23209 c -1.078399,-0.15716 -2.157905,-0.15716 -3.233426,0 v 8.23209 c 0,0.70034 -0.56886,1.27052 -1.269199,1.27052 h -8.23231 c -0.07725,0.53655 -0.116428,1.07973 -0.116428,1.61627 0,0.53655 0.0394,1.07818 0.116428,1.61605 h 8.233416 c 0.70034,0 1.2692,0.56886 1.2692,1.2692 v 8.23364 c 1.072865,0.15561 2.159232,0.15561 3.233647,0 v -8.23364 c 0,-0.70034 0.56886,-1.2692 1.2692,-1.2692 h 8.233416 c 0.07725,-0.53787 0.116428,-1.0795 0.116428,-1.61605 0,-0.53654 -0.0394,-1.07972 -0.116428,-1.61627 z"
   id="path8"
   style="fill:#ffffff;stroke-width:0.221346" />
		<path
   d="m 30.99862,58.582698 v 7.95032 l 7.867753,-0.0773 c -1.041877,-3.79299 -4.074764,-6.82876 -7.867753,-7.87307 z"
   id="path10"
   style="fill:#ffffff;stroke-width:0.221346" />
		<path
   d="m 86.712136,54.442858 10.186797,-4.50284 c 0.365664,-0.16137 0.543183,-0.56222 0.396874,-0.89137 -0.10027,-0.22754 -0.339988,-0.37385 -0.612466,-0.37385 -0.108238,0 -0.214041,0.023 -0.315639,0.0677 l -10.185691,4.50418 c -0.182832,0.0812 -0.323829,0.22201 -0.396874,0.3982 -0.06906,0.16402 -0.06906,0.33999 0,0.49316 0.142547,0.32095 0.567975,0.46461 0.926999,0.30479 z"
   id="path12"
   style="fill:#ffffff;stroke-width:0.221346" />
		<path
   d="m 87.596635,71.501798 c -2.64553,0 -4.798123,2.1537 -4.798123,4.79967 0,2.64553 2.152593,4.79812 4.798123,4.79812 2.645531,0 4.798123,-2.15259 4.798123,-4.79812 0,-2.64575 -2.152592,-4.79967 -4.798123,-4.79967 z"
   id="path14"
   style="fill:#ffffff;stroke-width:0.221346" />
		<path
   d="m 113.05301,59.070328 c -2.64553,0 -4.79813,2.15259 -4.79813,4.79812 0,2.64553 2.1526,4.79967 4.79813,4.79967 2.64553,0 4.79812,-2.15392 4.79812,-4.79967 0,-2.64575 -2.15259,-4.79812 -4.79812,-4.79812 z"
   id="path16"
   style="fill:#ffffff;stroke-width:0.221346" />
		<path
   d="m 25.055695,80.255598 v -7.95054 l -7.867753,0.0786 c 1.043205,3.79166 4.076091,6.82875 7.867753,7.87196 z"
   id="path18"
   style="fill:#ffffff;stroke-width:0.221346" />
		<path
   d="m 108.65995,54.204468 c -4.23856,0 -9.347236,1.32764 -15.18303,3.94616 -0.16933,0.0826 -18.576042,9.08295 -17.61562,18.88106 0.689493,7.03306 5.872316,10.18281 10.702976,10.18281 v 0 c 1.443842,0 2.810655,-0.29262 3.848548,-0.82518 2.16875,-1.11337 5.148956,-2.81353 7.545251,-4.17901 2.252865,-1.28425 4.032935,-2.2989 4.657345,-2.56297 0.0527,-0.0285 8.3919,-4.05174 13.18206,-5.77758 2.44787,-0.88074 5.29659,-3.24449 6.14191,-6.53481 0.73288,-2.85426 -0.22887,-5.894 -2.78232,-8.79032 -2.53729,-2.87994 -6.06887,-4.34016 -10.49712,-4.34016 z m -21.063315,28.24976 c -3.393459,0 -6.152762,-2.75952 -6.152762,-6.15276 0,-3.39346 2.760852,-6.15431 6.152762,-6.15431 3.39191,0 6.152762,2.76085 6.152762,6.15431 0,3.39324 -2.759524,6.15276 -6.152762,6.15276 z m 12.431475,-6.80706 c -3.393243,0 -6.152767,-2.75952 -6.152767,-6.15276 0,-3.39346 2.760852,-6.15431 6.152767,-6.15431 3.39191,0 6.15276,2.76085 6.15276,6.15431 0,3.39324 -2.7593,6.15276 -6.15276,6.15276 z m 13.0249,-5.62441 c -3.39324,0 -6.15277,-2.76085 -6.15277,-6.15431 0,-3.39346 2.76086,-6.15276 6.15277,-6.15276 3.39191,0 6.15276,2.75952 6.15276,6.15276 0,3.39346 -2.75931,6.15431 -6.15276,6.15431 z"
   id="path20"
   style="fill:#ffffff;stroke-width:0.221346" />
		<path
   d="m 100.02811,64.694738 c -2.645536,0 -4.798128,2.1537 -4.798128,4.79967 0,2.64553 2.152592,4.79812 4.798128,4.79812 2.64553,0 4.79812,-2.15259 4.79812,-4.79812 0,-2.64575 -2.15104,-4.79967 -4.79812,-4.79967 z"
   id="path22"
   style="fill:#ffffff;stroke-width:0.221346" />
		<path
   d="m 68.125027,36.42749 c -0.03121,-0.07725 -0.04892,-0.154279 -0.08677,-0.231528 -1.259903,-2.568502 5.84664,-5.930531 7.124029,-7.930173 1.817917,-2.84607 2.21634,-6.034784 1.038999,-9.216857 -1.201688,-3.246929 -6.440069,-1.843815 -5.224878,1.439857 1.888526,5.102916 -3.386597,6.812373 -6.357285,9.772437 -1.702596,1.697283 -2.321701,3.913623 -2.031959,6.095876 -24.650004,0.333126 -48.732919,8.984006 -58.0190581,22.478816 -9.4716275,13.76442 -2.6643449,34.48398 6.3641471,43.807972 9.027386,9.32399 19.518977,12.60212 25.012127,-0.78977 4.806312,-11.717622 26.724239,-12.214772 28.055858,-12.233802 1.331398,0.019 23.248219,0.51618 28.055638,12.233802 5.49315,13.39189 15.983415,10.11376 25.012135,0.78977 9.02738,-9.323992 15.83577,-30.043112 6.36414,-43.807972 C 114.48622,45.838028 91.812175,37.333681 68.125027,36.42749 Z m 16.410168,16.697258 c 0.207402,-0.49848 0.598742,-0.89535 1.09987,-1.11625 l 10.18569,-4.50418 c 1.026825,-0.45243 2.281195,0.0177 2.714812,0.99695 0.447119,1.01199 -0.04073,2.21346 -1.089245,2.67806 l -10.186797,4.50285 c -0.274912,0.12329 -0.566204,0.18438 -0.865464,0.18438 -0.806143,0 -1.532159,-0.46328 -1.849127,-1.17999 -0.218247,-0.49715 -0.222453,-1.05251 -0.0097,-1.56182 z m -56.507263,37.17421 c -11.513104,0 -20.8791492,-9.36604 -20.8791492,-20.87915 0,-11.5131 9.3660452,-20.87914 20.8791492,-20.87914 11.513104,0 20.879149,9.36604 20.879149,20.87914 -2.21e-4,11.51311 -9.366045,20.87915 -20.879149,20.87915 z m 95.225598,-22.628 c -0.96994,3.77284 -4.21156,6.4726 -6.99543,7.47508 -4.72375,1.70149 -13.00055,5.69502 -13.08311,5.7342 -0.58259,0.24791 -2.41954,1.29377 -4.544687,2.50741 -2.407362,1.37212 -5.402398,3.0776 -7.596825,4.20469 -1.224487,0.62995 -2.812204,0.9768 -4.466324,0.9768 h -0.0013 c -5.443126,0 -11.280248,-3.52759 -12.050754,-11.40464 -1.052723,-10.73707 17.598133,-19.85919 18.393209,-20.24123 12.602351,-5.65695 21.888491,-5.37916 27.267431,0.72469 3.61679,4.10597 3.6697,7.71746 3.07782,10.023 z"
   id="path24"
   sodipodi:nodetypes="cccccccccccccccccccccsccssscscccccsscccc"
   style="fill:#ffffff;stroke-width:0.221346" />
		
		
		
		
		
		
		
	</g>
</g>
<g
   id="g44">
</g>
<g
   id="g46">
</g>
<g
   id="g48">
</g>
<g
   id="g50">
</g>
<g
   id="g52">
</g>
<g
   id="g54">
</g>
<g
   id="g56">
</g>
<g
   id="g58">
</g>
<g
   id="g60">
</g>
<g
   id="g62">
</g>
<g
   id="g64">
</g>
<g
   id="g66">
</g>
<g
   id="g68">
</g>
<g
   id="g70">
</g>
<g
   id="g72">
</g>
</svg>
