<?xml version="1.0" encoding="UTF-8"?>
<svg width="300px" height="300px" enable-background="new 0 0 100 100" fill="#000000" version="1.1" viewBox="0 0 100 100" xml:space="preserve" xmlns="http://www.w3.org/2000/svg" xmlns:cc="http://creativecommons.org/ns#" xmlns:dc="http://purl.org/dc/elements/1.1/" xmlns:rdf="http://www.w3.org/1999/02/22-rdf-syntax-ns#" xmlns:xlink="http://www.w3.org/1999/xlink"><metadata><rdf:RDF><cc:Work rdf:about=""><dc:format>image/svg+xml</dc:format><dc:type rdf:resource="http://purl.org/dc/dcmitype/StillImage"/><dc:title/></cc:Work></rdf:RDF></metadata><defs><linearGradient id="SVGID_2_" x1="10" x2="10" y2="20.001" gradientTransform="matrix(.33333 0 0 .33333 84.577 27.77)" gradientUnits="userSpaceOnUse"><stop stop-color="#5A5B5F" offset="0"/><stop stop-color="#56575A" offset=".0197"/><stop stop-color="#3E3E40" offset=".1524"/><stop stop-color="#2B2A2C" offset=".2989"/><stop stop-color="#1E1C1E" offset=".4647"/><stop stop-color="#161416" offset=".6657"/><stop stop-color="#141213" offset="1"/></linearGradient><linearGradient id="linearGradient1860" x1="7.5" x2="90.6" y1="48.95" y2="48.95" gradientTransform="rotate(90 49.059 49.891)" gradientUnits="userSpaceOnUse" xlink:href="#SVGID_2_"/><linearGradient id="linearGradient1862" x1="7.6" x2="90.5" y1="48.95" y2="48.95" gradientTransform="translate(.95 .9322)" gradientUnits="userSpaceOnUse" xlink:href="#SVGID_2_"/></defs><g><path d="m63.95 83.932v-20.1h20.2c3.8 0 6.8-3.4 6.8-7.2v-13.6c0-3.8-3.1-7.2-6.8-7.2h-20.2v-20.2c0-3.8-3.2-6.8-6.9-6.8h-13.7c-3.8 0-7.3 3-7.4 6.8v20.2h-20.1c-3.8 0-6.8 3.4-6.8 7.2v13.7c0 3.8 3.1 7.2 6.8 7.2h20.2v20.1c0 3.8 3.5 6.9 7.3 6.9h13.7c3.7-0.1 6.9-3.2 6.9-7z" fill="url(#linearGradient1860)" stroke="url(#linearGradient1862)"/><g fill="#fff"><path d="m48.909 83.098-6.8-9.8c-0.2-0.2-0.4-0.5-0.3-0.8 0-0.1 0.1-0.5 0.1-0.7 0.2-0.5 0.7-0.8 1.2-0.8h13.8c0.6 0 1 0.4 1.2 0.8 0.2 0.5 0.1 1-0.1 1.4l-6.9 9.7c-0.3 0.4-0.7 0.6-1.1 0.6-0.5 0.2-0.8 0-1.1-0.4z"/><path d="m48.909 16.666-6.8 9.8c-0.2 0.2-0.4 0.5-0.3 0.8 0 0.1 0.1 0.5 0.1 0.7 0.2 0.5 0.7 0.8 1.2 0.8h13.8c0.6 0 1-0.4 1.2-0.8 0.2-0.5 0.1-1-0.1-1.4l-6.9-9.7c-0.3-0.4-0.7-0.6-1.1-0.6-0.5-0.2-0.8 0-1.1 0.4z"/><path d="m16.895 48.472 9.8-6.8c0.2-0.2 0.5-0.4 0.8-0.3 0.1 0 0.5 0.1 0.7 0.1 0.5 0.2 0.8 0.7 0.8 1.2v13.8c0 0.6-0.4 1-0.8 1.2-0.5 0.2-1 0.1-1.4-0.1l-9.7-6.9c-0.4-0.3-0.6-0.7-0.6-1.1-0.2-0.5 0-0.8 0.4-1.1z"/><path d="m82.95 48.791-9.8-6.8c-0.2-0.2-0.5-0.4-0.8-0.3-0.1 0-0.5 0.1-0.7 0.1-0.5 0.2-0.8 0.7-0.8 1.2v13.8c0 0.6 0.4 1 0.8 1.2 0.5 0.2 1 0.1 1.4-0.1l9.7-6.9c0.4-0.3 0.6-0.7 0.6-1.1 0.2-0.5 0-0.8-0.4-1.1z"/></g></g></svg>
