<?xml version="1.0" encoding="UTF-8" standalone="no"?>
<svg
   width="600"
   height="300"
   version="1.1"
   viewBox="28.916 2.382 600 300"
   id="svg14"
   sodipodi:docname="newgrounds-audio.svg"
   inkscape:version="1.2.2 (b0a8486541, 2022-12-01)"
   xmlns:inkscape="http://www.inkscape.org/namespaces/inkscape"
   xmlns:sodipodi="http://sodipodi.sourceforge.net/DTD/sodipodi-0.dtd"
   xmlns="http://www.w3.org/2000/svg"
   xmlns:svg="http://www.w3.org/2000/svg">
  <defs
     id="defs18" />
  <sodipodi:namedview
     id="namedview16"
     pagecolor="#ffffff"
     bordercolor="#666666"
     borderopacity="1.0"
     inkscape:showpageshadow="2"
     inkscape:pageopacity="0.0"
     inkscape:pagecheckerboard="0"
     inkscape:deskcolor="#d1d1d1"
     showgrid="false"
     inkscape:zoom="0.5939697"
     inkscape:cx="303.04576"
     inkscape:cy="326.61599"
     inkscape:window-width="1680"
     inkscape:window-height="1001"
     inkscape:window-x="1024"
     inkscape:window-y="256"
     inkscape:window-maximized="1"
     inkscape:current-layer="g10"
     showguides="true">
    <sodipodi:guide
       position="420,116"
       orientation="1,0"
       id="guide1175"
       inkscape:locked="false" />
    <sodipodi:guide
       position="193.27858,34.311724"
       orientation="1,0"
       id="guide1177"
       inkscape:locked="false" />
    <sodipodi:guide
       position="407.11111,53.777778"
       orientation="1,0"
       id="guide1179"
       inkscape:locked="false" />
    <sodipodi:guide
       position="197.67563,40.413244"
       orientation="1,0"
       id="guide1642"
       inkscape:locked="false" />
    <sodipodi:guide
       position="402.57946,25.956839"
       orientation="1,0"
       id="guide1644"
       inkscape:locked="false" />
  </sodipodi:namedview>
  <g
     transform="translate(28.916 2.3819)"
     id="g12">
    <g
       stroke-dasharray=""
       stroke-miterlimit="10"
       style="mix-blend-mode:normal"
       data-paper-data="{&quot;isPaintingLayer&quot;:true}"
       id="g10">
      <path
         d="m0 300v-300h600v300z"
         fill="#999"
         id="path2" />
      <path
         d="M 600.81833,45.159 403.94932,301.509 H 352.6743 L 497.64181,-2.381 H 600.81376 V 45.16 M -0.81375617,214.48 148.89119,301.548 103.5334,301.50781 -0.81832899,301.69428 v -87.214 M 198.43769,301.50828 -0.81832899,40.97828 v -43.361 H 104.64002 l 145.04068,303.89 h -51.23844 m 181.35801,-303.89 -65.68398,303.93 h -25.84008 l -65.72056,-303.93 h 157.24096 m 119.05791,303.89 -45.46754,0.0402 147.42769,-84.094 v 84.928 z"
         fill="#333333"
         id="path4"
         style="stroke-width:0.956328" />
      <path
         d="m 391.47632,23.580575 c 0.0462,-0.04614 0.1038,-0.08075 0.173,-0.1038 2.97543,-1.706865 6.34308,-2.479554 10.10254,-2.31815 5.16675,0.230656 9.53758,2.248906 13.11313,6.054772 0.0231,0 0.0462,0.01154 0.0692,0.03461 l 0.0693,0.06921 c 0.71502,0.761165 1.36089,1.591541 1.93751,2.491137 0.0462,0.02308 0.0923,0.08073 0.1384,0.172978 l 0.1038,0.1038 h -0.0346 c 2.07592,3.183083 3.06776,6.781299 2.97543,10.794983 -0.11534,3.667461 -1.14174,6.942786 -3.07926,9.825892 l -0.0692,0.06921 c -0.8073,1.130244 -1.75303,2.214326 -2.83711,3.252244 -2.00676,1.799108 -4.16334,3.113838 -6.46999,3.944272 h -0.1038 l -21.96994,9.410925 -0.0346,0.03461 c -0.0231,0.02307 -0.0462,0.0346 -0.0692,0.0346 -0.1384,0.02307 -0.27679,0.08074 -0.41519,0.172978 -0.0231,0 -0.0346,0.01153 -0.0346,0.03461 -1.59154,0.599711 -3.2869,0.945675 -5.08601,1.037918 -0.78423,0.02307 -1.53388,-8e-6 -2.24891,-0.06922 -0.0692,0 -0.11532,-0.01153 -0.13838,-0.03461 -4.10567,2.168162 -8.18835,4.359406 -12.2482,6.573732 -3.55214,1.891351 -7.09269,3.782785 -10.62166,5.674219 -1.10717,0.553573 -2.20275,1.118662 -3.28691,1.695367 l -0.0346,0.03458 c 0.36905,0.830368 0.95717,2.606461 1.76453,5.328164 0.64583,2.099001 1.14174,4.209501 1.48771,6.331584 0.16146,1.03792 0.28833,2.08742 0.38059,3.1485 l 5.77796,0.72658 c 0.62278,0.0692 1.15324,0.34597 1.59154,0.83035 h 0.0346 l 0.0346,0.0346 c 0.0923,0.11534 0.18454,0.23064 0.27679,0.34598 0.0922,0.1384 0.17299,0.28833 0.24219,0.44978 0.0923,0.23065 0.14994,0.48438 0.17299,0.76117 v 0.10379 l 0.31139,5.05143 c 3.96735,0.1384 7.68089,0.36903 11.14079,0.69197 6.4584,0.57663 11.93656,1.38397 16.43453,2.42189 0.0693,0 0.13838,0.0116 0.20759,0.0346 0.0231,0 0.0462,0.0116 0.0692,0.0346 2.76787,0.85343 5.35125,2.24891 7.75006,4.18642 0.87651,0.69198 1.71836,1.46472 2.52572,2.31807 1.59154,1.6377 3.07925,3.56363 4.46323,5.77796 0.29985,0.43824 0.58816,0.89959 0.86493,1.38397 0.39213,0.69198 0.78423,1.38398 1.17632,2.07592 0.36905,0.71502 0.72657,1.45314 1.07259,2.21433 l 0.0346,0.0346 c 0.2076,0.48438 0.41518,0.98034 0.62277,1.48771 0.23066,0.53051 0.46132,1.061 0.69196,1.59155 h 0.0346 c 0.34599,0.7381 0.61124,1.51079 0.79577,2.31806 v 0.0346 c 0.0231,0.2076 0.0346,0.43824 0.0346,0.69198 v 0.0346 c -0.0922,0.71502 -0.44978,1.30323 -1.07258,1.76453 v 0.0346 l -7.05812,5.01677 c 0.0462,1.33781 0.0808,2.67562 0.1038,4.01344 0.11535,6.94278 -0.47282,13.85057 -1.76452,20.7242 -0.55358,2.97543 -1.25707,5.90486 -2.1105,8.78764 -1.56846,5.16676 -3.63288,10.1492 -6.19318,14.94632 -4.10568,7.75005 -9.66424,14.25471 -16.67619,19.51346 -1.43005,1.08408 -2.89477,2.02976 -4.39398,2.83711 -0.18453,0.0923 -0.38058,0.13841 -0.58818,0.13841 H 199.69732 c -1.29165,0.0462 -2.27199,0.0692 -2.94094,0.0692 h -0.173 c -0.11534,-0.0231 -0.2076,-0.0346 -0.27679,-0.0346 h -0.0692 l -1.69537,-0.13838 c -3.89811,-0.62278 -7.26568,-3.16 -10.10254,-7.61173 v -0.0693 c -3.04467,-4.75154 -4.56697,-10.42584 -4.56697,-17.02282 0,-6.64298 1.52238,-12.23654 4.56697,-16.78035 0.0231,-0.0462 0.0462,-0.0807 0.0693,-0.10381 0.66891,-1.01492 1.34931,-1.96059 2.04134,-2.83711 -0.18452,-4.29024 0.17299,-8.22293 1.07258,-11.79823 2.99851,-3.36757 6.37766,-6.90821 10.13753,-10.62167 5.5819,-5.58189 11.98239,-11.55575 19.20182,-17.92192 0.0231,-2.32965 0.0577,-4.60163 0.10379,-6.81596 0.0923,-3.13692 0.2076,-6.15851 0.34599,-9.06512 0.16146,-3.13692 0.36903,-6.20468 0.62276,-9.20344 0.32293,-4.17492 0.74963,-8.234434 1.28015,-12.179039 0.0693,-0.715027 0.38059,-1.280149 0.93418,-1.695367 0.89959,-0.715027 1.79911,-1.430054 2.6987,-2.145081 1.24557,-0.968757 2.49114,-1.914432 3.73662,-2.837109 2.69871,-2.07592 5.39741,-4.071096 8.09612,-5.985528 1.13024,-0.807295 2.26048,-1.591542 3.39065,-2.352732 2.099,-1.476217 4.2095,-2.894771 6.3315,-4.255664 v -0.0346 l 0.0346,0.0346 c 0.0231,-0.04615 0.0577,-0.06921 0.1038,-0.06921 -1.17633,-1.430054 -1.9721,-2.987015 -2.38731,-4.670799 -0.2768,-1.084081 -0.40366,-2.214325 -0.38058,-3.390649 0.46133,-2.767866 0.80728,-5.074434 1.03792,-6.919705 0.0923,-0.415184 0.19605,-0.818827 0.3114,-1.210904 0.36904,-1.199406 0.71503,-2.398811 1.038,-3.598217 l 2.2489,-5.74338 0.0693,-0.03461 c 0.78423,-0.415184 1.61462,-0.749633 2.49114,-1.003338 0.87651,-0.25373 1.75302,-0.495919 2.62945,-0.726568 1.24557,-0.345981 2.47956,-0.69197 3.70205,-1.037918 h 0.0692 c -0.25373,-0.392119 -0.38059,-0.818819 -0.38059,-1.280149 -0.80729,-0.161454 -1.48771,-0.553581 -2.04134,-1.176324 l -0.0346,-0.03461 -0.20759,-0.415184 c -0.11534,-0.622775 -0.18452,-1.464634 -0.20759,-2.525717 -0.0231,-0.945676 0.0577,-2.260489 0.24218,-3.944273 v -0.03461 c 0.43826,-0.645833 1.0495,-1.107163 1.83377,-1.383975 0.0462,-0.02308 0.11534,-0.04614 0.2076,-0.06921 -0.0231,-0.02308 -0.0231,-0.03461 0,-0.03461 0.18451,-2.122082 1.13024,-3.944272 2.8371,-5.466569 1.93752,-1.776026 4.29025,-2.664123 7.05812,-2.664123 2.81402,0 5.18975,0.888013 7.12735,2.664123 1.24557,1.130245 2.08742,2.318151 2.52572,3.563636 0.69197,0.29986 1.26856,0.611227 1.72994,0.934176 -0.0231,1.31473 -0.14993,2.606462 -0.38057,3.875028 l 0.72657,1.037919 c -0.11534,1.545378 -0.31138,3.044676 -0.58818,4.497812 -0.11534,0.576629 -0.24219,1.141743 -0.38057,1.695366 l -2.52572,0.968757 -0.55358,1.660702 0.1038,0.06922 v -0.03443 c 0.11534,0.02308 0.23064,0.05769 0.34598,0.103801 0.55358,0.2076 1.07258,0.472829 1.55696,0.795762 0.0231,0 0.0462,0.01154 0.0692,0.0346 0.99184,0.57663 1.99518,1.176324 3.0101,1.799109 0.34598,0.2076 0.69198,0.426716 1.03792,0.657373 l 0.96875,0.657381 c 1.22249,2.07592 2.12209,3.782786 2.69871,5.120597 0.62277,1.430054 1.17632,2.883189 1.6607,4.359406 l 0.0346,0.03461 c 0,0.02307 0.0115,0.04613 0.0346,0.06921 l 51.10181,7.611733 c 0.36904,0.04615 0.72656,0.172978 1.07258,0.380579 0.73811,0.507451 1.5108,1.060999 2.31815,1.660702 0,-0.02307 0.0115,-0.0346 0.0346,-0.0346 l 26.15627,-18.406049 c 0,-0.06705 0.0231,-0.124699 0.0693,-0.172995 l -0.0346,0.0346 c 0.13839,-0.43824 0.31138,-0.864932 0.51897,-1.280149 0.34598,-0.807295 0.8073,-1.591541 1.38398,-2.352731 0.83036,-1.130244 1.81069,-2.133582 2.94085,-3.010096 0.32291,-0.25373 0.62276,-0.48437 0.89959,-0.691971 v -0.03461 c 0.0231,-0.02308 0.0692,-0.04615 0.1384,-0.06922 1.061,-0.899596 2.15666,-1.77611 3.28691,-2.629459 l 11.03663,-8.891799 c 0,-0.06921 0.0462,-0.115341 0.13838,-0.138398 1.03792,-0.853433 2.07592,-1.695366 3.11384,-2.525717 0.0231,-0.04614 0.0577,-0.08074 0.1038,-0.103792 0.11534,-0.09225 0.24219,-0.184536 0.38058,-0.276795 h -0.0346 c 0.8996,-0.78423 1.85678,-1.453136 2.8717,-2.006675 m 10.06837,1.383891 c -3.41373,-0.161471 -6.49299,0.622767 -9.23761,2.352731 l -3.35607,2.491137 c -4.91303,3.875028 -9.60674,7.750056 -14.08139,11.624917 l -4.15184,3.529055 c -0.0923,0.06921 -0.17298,0.161462 -0.24219,0.276787 -0.76116,0.853432 -1.37239,1.753028 -1.83369,2.698704 -0.25373,0.553573 -0.46132,1.118661 -0.62278,1.695366 v 0.06922 h -0.0346 v 0.03461 l -0.0346,0.0346 c -0.16145,0.553573 -0.27677,1.141744 -0.34598,1.764528 -0.0692,0.668906 -0.0807,1.372392 -0.0346,2.1105 v 0.0346 c 0.0462,0.738108 0.14993,1.453135 0.3114,2.14508 l 16.71118,-11.45243 c -0.16145,-1.845271 0.28832,-3.771203 1.34931,-5.777961 -0.0231,0.230656 -0.0115,0.853432 0.0346,1.868352 0.0462,1.01492 0.18453,2.07592 0.41519,3.183083 0.36904,1.476217 0.98025,2.87169 1.83369,4.18642 0.50745,0.807294 1.10716,1.591541 1.7991,2.352731 0.64584,0.691979 1.33782,1.326312 2.07592,1.902933 0.0923,0.04615 0.19606,0.115341 0.3114,0.207592 0.16145,0.115333 0.33445,0.242198 0.51897,0.380587 0.0231,0 0.0577,0.01152 0.1038,0.0346 2.21433,1.476217 4.76304,2.283487 7.64632,2.421893 1.93751,0.09225 3.77128,-0.138398 5.50115,-0.691971 0,-0.02307 0.0115,-0.0346 0.0346,-0.0346 0.0231,-0.02307 0.0462,-0.03461 0.0692,-0.03461 1.91443,-0.668906 3.66746,-1.729947 5.259,-3.183082 3.04468,-2.814029 4.63622,-6.285422 4.77463,-10.41418 0.0923,-3.20608 -0.70352,-6.089353 -2.38731,-8.649318 -0.53051,-0.761165 -1.11867,-1.499298 -1.76453,-2.214325 -2.88319,-3.09084 -6.42383,-4.740043 -10.62167,-4.94761 M 390.1284,112.67257 c -7.05811,-1.59154 -16.60702,-2.65254 -28.64774,-3.18308 -0.16145,-0.0231 -0.32292,-0.0346 -0.48438,-0.0346 h -0.58819 c 0.11535,0.0462 0.24219,0.0923 0.38058,0.13839 0.18453,0.0692 0.36904,0.14993 0.55358,0.24219 3.2984,1.47622 6.04319,3.32149 8.23451,5.53582 3.18309,3.22924 5.14368,7.21959 5.88179,11.97072 l 31.06922,2.97543 c -1.13025,-2.44497 -2.4104,-4.79762 -3.84045,-7.05811 -2.14508,-3.36757 -4.54398,-5.99711 -7.19652,-7.88846 -1.68378,-1.19941 -3.47139,-2.099 -5.36274,-2.6987 m 9.09928,31.86498 c 0,-0.25373 -0.0116,-0.48437 -0.0346,-0.69197 -0.0462,-1.54538 -0.14994,-3.05618 -0.31139,-4.5324 l -26.77956,-2.45647 c 0.1384,2.32965 0.173,4.6593 0.1038,6.98895 v 0.3114 c -0.25373,7.03503 -1.1994,13.98973 -2.83711,20.86336 -0.13839,0.57663 -0.27678,1.15332 -0.41519,1.72994 -1.40697,5.67422 -3.36757,11.14079 -5.88178,16.39954 -0.25373,0.53051 -0.49592,1.0495 -0.72658,1.55696 -2.49114,5.09752 -5.55881,9.80256 -9.20344,14.11639 l -4.04802,4.39399 -4.01343,3.5983 h 26.12211 c 2.88319,-1.86836 5.53581,-3.95577 7.9577,-6.26234 l -8.78764,-0.13841 c -0.18452,0 -0.34597,-0.0577 -0.48437,-0.17298 -0.13839,-0.1384 -0.2076,-0.29986 -0.2076,-0.48438 -0.0231,-0.18452 0.0346,-0.34599 0.173,-0.48439 0.23065,-0.27679 0.47284,-0.55357 0.72657,-0.83036 h 0.0346 c 0,-0.0462 0.0115,-0.0692 0.0346,-0.0692 0.57663,-0.71502 1.14174,-1.41856 1.69536,-2.1105 0.0692,-0.0923 0.14994,-0.14993 0.24219,-0.17299 0.0922,-0.0462 0.19605,-0.0692 0.31138,-0.0692 l 9.75674,0.13839 c 0.13839,0 0.27678,0.0577 0.41518,0.17299 1.6377,-2.00676 3.1485,-4.14034 4.53239,-6.40075 0.76116,-1.24556 1.48772,-2.50263 2.17975,-3.7712 l 0.48438,-0.96875 -9.48009,-0.44979 c -0.16145,-0.0231 -0.29985,-0.0807 -0.41518,-0.17298 -0.1384,-0.11534 -0.21914,-0.24219 -0.24219,-0.38059 -0.0231,-0.16145 0,-0.31139 0.0692,-0.44978 0.29985,-0.62278 0.59971,-1.24557 0.8996,-1.86835 0.0462,-0.0923 0.0807,-0.16147 0.10379,-0.20759 l 0.0346,-0.0346 c 0,-0.0923 0.0346,-0.17298 0.10379,-0.24218 v -0.0346 c 0.0922,-0.2076 0.18454,-0.40364 0.2768,-0.58816 0.0462,-0.1384 0.12684,-0.24219 0.24219,-0.3114 0.11534,-0.0692 0.25373,-0.0923 0.41518,-0.0692 l 9.86089,0.44978 c 0.0692,0 0.13839,0.0115 0.2076,0.0346 1.72995,-3.94427 3.13692,-8.01537 4.221,-12.21321 l -9.51425,-0.55357 c -0.16145,-0.0231 -0.28832,-0.0692 -0.38058,-0.1384 -0.11534,-0.0923 -0.19605,-0.20759 -0.24219,-0.34597 -0.0462,-0.11534 -0.0462,-0.24218 0,-0.38058 0.18453,-0.78423 0.38056,-1.55696 0.58816,-2.31815 0,-0.0231 0.0115,-0.0346 0.0346,-0.0346 0.0462,-0.23065 0.0923,-0.46131 0.13839,-0.69197 0.0462,-0.16145 0.13839,-0.27679 0.27679,-0.34599 0.1384,-0.11534 0.28833,-0.16145 0.44978,-0.1384 l 9.58341,0.51899 c 0.0231,0 0.0577,0.0115 0.1038,0.0346 0.87652,-4.49781 1.40706,-9.03012 1.59154,-13.59726 l -8.85763,-0.58817 c -0.2076,0 -0.36904,-0.0692 -0.48437,-0.20759 -0.1384,-0.16145 -0.19607,-0.33445 -0.173,-0.51897 0.0693,-0.94568 0.13838,-1.86836 0.2076,-2.76787 v -0.0346 c 0,-0.0923 0.0115,-0.18453 0.0346,-0.27678 0.0231,-0.18452 0.1038,-0.33444 0.24219,-0.44978 0.1384,-0.11534 0.29986,-0.16145 0.48438,-0.1384 l 8.61516,0.51899 c 0,-0.55357 -0.0116,-1.10716 -0.0346,-1.6607 m -33.76818,-92.75936 -41.8642,29.028545 c -0.0231,0 -0.0462,0.0115 -0.0692,0.03458 -0.41518,0.25373 -0.79577,0.576638 -1.14174,0.968757 -0.66892,0.761165 -1.08408,1.626122 -1.24557,2.594879 l -0.0693,0.415184 c -0.0231,0.322924 -0.0231,0.657381 0,1.003337 0.0462,0.599711 0.16147,1.164825 0.34599,1.695367 0.0462,0.115332 0.0923,0.219141 0.13838,0.3114 l 45.70473,-27.816974 v -0.03461 c -0.59972,-1.01492 -1.0495,-2.087418 -1.34939,-3.217663 -0.25373,-0.945675 -0.41518,-1.937514 -0.48438,-2.975432 -0.0462,-0.691979 -0.0346,-1.360893 0.0346,-2.006758 m -87.98473,3.805866 h 0.0693 l -0.55359,-2.698704 c -0.16146,-1.868352 -0.20759,-3.459894 -0.13838,-4.774623 -0.94568,-0.507452 -1.93752,-0.876515 -2.97552,-1.107163 l -1.03792,2.041339 c -1.36089,1.107163 -2.92935,1.660703 -4.70538,1.660703 -1.70686,0.02307 -3.35607,-0.276779 -4.94761,-0.899596 -1.13024,-0.461322 -2.17966,-1.049501 -3.1485,-1.764528 -0.46133,-0.299851 -0.88801,-0.6343 -1.28015,-1.003337 -0.50744,-0.438241 -0.95726,-0.911095 -1.34931,-1.418555 -0.1384,-0.161454 -0.26526,-0.322925 -0.38059,-0.484379 l -3.90969,0.588179 c 0.71502,2.052838 1.15325,3.702041 1.31473,4.94761 0.1384,1.245568 0.28832,2.433475 0.44978,3.563636 0.1384,1.130244 0.14993,2.917853 0.0346,5.362744 l -3.1485,-1.972095 c 1.56846,2.537217 2.73329,4.428651 3.49448,5.67422 0.85343,-0.484371 1.38397,-0.772706 1.59154,-0.864932 1.29165,-0.645833 2.58338,-1.291732 3.87503,-1.937514 1.47621,-0.715027 2.95243,-1.430054 4.42865,-2.145164 0.78423,-0.39212 1.59154,-0.761165 2.42189,-1.107163 3.18308,-1.360893 6.48149,-1.926015 9.89505,-1.695367 v 0.03461 m 46.67382,20.828358 -23.59647,-3.183082 h -0.0346 c -0.1384,0 -0.27679,0.04615 -0.41518,0.138397 2.05283,2.790947 3.1715,5.547313 3.35606,8.269098 0.18453,3.298407 -0.41518,6.343084 -1.7991,9.13428 -0.11534,0.207601 -0.24219,0.438241 -0.38058,0.691971 l 13.45894,1.556961 c 2.39881,-8.003786 3.93269,-12.432354 4.60163,-13.28562 l 4.80921,-3.321488 M 295.1886,69.736207 c 0.57664,-0.25373 1.21099,-0.403643 1.90294,-0.449773 l 31.10421,4.290245 6.95429,-4.913029 c -0.32292,-0.230649 -0.63431,-0.449781 -0.93418,-0.657382 l -56.56887,-8.130692 c -1.24557,-0.09225 -1.98368,0.276786 -2.21433,1.107163 -0.0922,0.230648 -0.12685,0.507443 -0.1038,0.830359 1.54538,3.759704 2.92935,8.038366 4.15184,12.836488 0.11534,0.438241 0.23064,0.888014 0.34598,1.349311 0.2768,1.245568 0.53051,2.502636 0.76117,3.771202 0.11534,0.738109 0.23064,1.476217 0.34598,2.214326 0.1384,0.922594 0.26525,1.868353 0.38058,2.83711 0,0.138389 0.0115,0.276786 0.0346,0.415183 0.13839,1.222487 0.2422,2.479555 0.31138,3.771287 h 0.17299 l 13.56226,1.729947 h 0.0346 V 90.39197 c 0.0231,-1.845271 -1e-5,-3.41373 -0.0692,-4.705462 -0.0462,-0.738108 -0.1038,-1.533879 -0.173,-2.387312 -0.11534,-1.061 -0.26524,-2.225824 -0.44977,-3.494474 -0.32292,-2.237407 -0.95726,-4.982191 -1.90293,-8.234435 0.66891,-0.853432 1.45313,-1.464718 2.35273,-1.833688 m 0.0347,27.713651 c 4.40557,0.69198 7.94613,1.61462 10.62167,2.76786 0.0462,0 0.1038,0.0116 0.17299,0.0346 1.38397,0.66891 2.68712,1.40697 3.90969,2.21432 0.66892,0.43824 1.32631,0.9111 1.9721,1.41856 0.80729,0.62277 1.56846,1.29164 2.28348,2.00675 0.0231,0.0462 0.0577,0.0923 0.10379,0.13839 0.0923,0.0923 0.18454,0.19606 0.2768,0.3114 0.0231,0 0.0346,0.0115 0.0346,0.0346 h 0.0346 l 34.32146,3.52906 2.52572,-3.07926 c 0.76116,-1.03792 1.74145,-1.53388 2.94085,-1.48771 l 4.70538,0.13839 -0.13838,-3.21767 -78.43548,-9.51425 -0.0693,3.35607 c 1.15324,0.0462 2.17975,0.1038 3.07926,0.173 1.10716,0.0692 2.04134,0.13838 2.80244,0.20758 h 0.1384 c 1.93752,0.13839 3.77129,0.32292 5.50115,0.55359 h 0.0346 c 1.08408,0.11533 2.14508,0.25372 3.18308,0.41518 m -20.58587,2.31807 c -1.40698,-0.11534 -2.82553,-0.21913 -4.25567,-0.31138 -1.59154,0.43824 -3.19458,0.93417 -4.8092,1.48771 -3.13692,1.08408 -6.3315,2.36423 -9.58341,3.84045 -7.95771,3.59822 -16.23789,8.37267 -24.84221,14.32387 -1.59154,1.10716 -3.19458,2.24891 -4.80921,3.42523 2.14508,-1.1994 4.24409,-2.34115 6.29692,-3.42523 12.61734,-6.7583 22.78904,-11.4291 30.51593,-14.01223 1.84527,-0.62277 3.55214,-1.11866 5.1206,-1.48771 1.26857,0.48437 2.45647,1.14174 3.56363,1.97209 3.52906,2.65254 6.1816,6.98895 7.95771,13.00897 l 38.68112,3.39065 c -0.34598,-1.17632 -0.65736,-2.13358 -0.93418,-2.87169 -0.23066,-0.57663 -0.47284,-1.15324 -0.72657,-1.72994 -0.85344,-1.84527 -1.86836,-3.6098 -3.04468,-5.29359 v -0.0346 c -0.50745,-0.71502 -1.02642,-1.39547 -1.55696,-2.04134 -0.66892,-0.80729 -1.37239,-1.55696 -2.1105,-2.2489 -0.87652,-0.8073 -1.79911,-1.55696 -2.76787,-2.24891 -0.62277,-0.46131 -1.28015,-0.89959 -1.97218,-1.31473 -0.66891,-0.27678 -1.37239,-0.54204 -2.1105,-0.79578 -2.32965,-0.80729 -5.01677,-1.45313 -8.06144,-1.93751 -2.21433,-0.34597 -4.62464,-0.61125 -7.2311,-0.79578 -0.50745,-0.0462 -1.00334,-0.0807 -1.48772,-0.10379 -0.13839,0 -0.26525,-0.0116 -0.38057,-0.0346 -2.23741,-0.1384 -4.49782,-0.28832 -6.7813,-0.44977 -1.54538,-0.11535 -3.10234,-0.21915 -4.6708,-0.3114 m 54.45821,-5.18985 v 0.3114 l 9.89505,1.31473 c 0,-0.0462 0.0115,-0.0807 0.0346,-0.1038 0.0462,-0.16145 0.0807,-0.28832 0.10378,-0.38057 l 0.0693,-0.24218 c 0,-0.0692 0.0231,-0.11534 0.0692,-0.13839 0.0922,-0.39212 0.173,-0.66891 0.24219,-0.83037 v 0.0346 c 0.0923,-0.48437 0.18453,-0.957261 0.27678,-1.418558 v -0.06924 c 0.11534,-0.830368 0.17299,-1.649203 0.17299,-2.456473 0,-0.691979 -0.0346,-1.406972 -0.1038,-2.145081 l -10.58749,5.570392 c -0.0462,0.18453 -0.1038,0.36905 -0.173,0.55357 m -7.30034,24.53057 c 0.39213,1.17632 0.72656,2.39881 1.00334,3.66746 v 0.48438 l -0.0346,0.13838 c -0.0462,0.23065 -0.16147,0.44978 -0.34598,0.65738 l -6.36617,6.15852 c 0.0231,0.99183 0.0462,1.99517 0.0692,3.01009 l 49.92606,4.56697 c 0.59972,-6.52756 -0.69198,-11.79823 -3.87503,-15.81125 v -0.0346 c -2.35273,-2.79095 -5.38582,-4.98219 -9.09928,-6.57373 -1.38398,-0.57664 -2.84861,-1.08408 -4.39399,-1.52238 l -30.86173,-3.0101 c 1.45313,2.19125 2.64104,4.54398 3.56363,7.05811 0.1384,0.39212 0.27679,0.79576 0.41519,1.21091 m 21.83161,-28.716903 c 0.0231,0.945676 -0.0231,1.85677 -0.13838,2.733285 0,0.06924 -0.0115,0.138389 -0.0346,0.207592 -0.0693,0.553573 -0.173,1.107156 -0.3114,1.660696 -0.0693,0.2768 -0.13839,0.55358 -0.20759,0.83037 l -0.27679,0.83038 8.33851,1.03792 c -0.0462,-0.50746 -0.0922,-0.98026 -0.13838,-1.41856 -0.16146,-1.36089 -0.29984,-2.329646 -0.41519,-2.906267 v -0.03458 c -0.0692,-0.392119 -0.13838,-0.761157 -0.2076,-1.107163 -0.13839,-0.668905 -0.28832,-1.31473 -0.44978,-1.937514 -0.48437,-1.914432 -1.08408,-3.736622 -1.7991,-5.466569 -0.0693,-0.184527 -0.13839,-0.369046 -0.2076,-0.553573 l -4.49781,2.352731 c 0.2076,1.291732 0.32292,2.548799 0.34599,3.771286 M 261.28108,28.668466 c -0.0692,0.02308 -0.1384,0.05768 -0.2076,0.1038 -0.11534,0.04614 -0.21914,0.115349 -0.31139,0.2076 -0.13839,1.061 -0.17299,2.029757 -0.10379,2.906271 0.11534,1.360893 0.31139,2.099002 0.58818,2.214326 1.33781,0.345981 2.82553,0.46133 4.46323,0.345989 0.55358,-0.02308 0.99184,-0.14993 1.31473,-0.380586 l 0.27679,-0.380587 c 0.0231,-0.02308 0.0577,-0.04614 0.1038,-0.06921 l 0.51897,-0.691962 c 0.25373,-0.415184 0.57663,-0.59972 0.96876,-0.553582 0.62278,0.02308 1.24557,0.08074 1.86835,0.172987 0.34598,0 0.59972,0.196042 0.76117,0.588161 l 0.2076,0.553582 0.0346,0.06921 0.34598,0.934176 v 0.103792 c 0.64583,0.115341 1.21099,0.138398 1.69537,0.06921 0.16145,-0.2076 0.27678,-0.415183 0.34598,-0.622775 v -0.03461 c 0.46132,-1.476217 0.61123,-2.756366 0.44978,-3.840447 -0.0462,-0.161471 -0.14993,-0.357514 -0.3114,-0.588162 -4.03652,-1.222487 -8.31518,-1.614623 -12.83649,-1.176408 -0.0692,0 -0.12685,0.02308 -0.17298,0.06922 m 2.5603,8.822638 c -0.0231,0.02308 -0.0231,0.04615 0,0.06923 v 0.06921 c 0,0.02308 0.0115,0.04615 0.0346,0.06922 -0.0231,0.06921 -0.0115,0.138398 0.0346,0.207592 0.0462,0.207601 0.0923,0.415184 0.13839,0.622776 0.0462,0.138398 0.0923,0.288328 0.1384,0.44979 0.0922,0.369046 0.21912,0.715019 0.38058,1.037918 0.23065,0.299851 0.51897,0.542049 0.86493,0.726568 0.29985,0.161454 0.62277,0.334457 0.96876,0.518984 l 1.03791,0.276778 c 0.0923,0 0.2076,0.01153 0.34598,0.03461 h 0.93418 c 0.11534,-0.02308 0.23065,-0.03461 0.34598,-0.03461 0.43825,-0.06921 0.86493,-0.172986 1.28015,-0.311392 0.39213,-0.161454 0.68044,-0.311384 0.86493,-0.449781 0.16146,-0.161454 0.26526,-0.288327 0.3114,-0.380587 l 0.20759,-0.518976 c 0.11534,-0.345981 0.24219,-0.703511 0.38058,-1.072582 0.0231,-0.115341 0.0577,-0.207583 0.1038,-0.276778 0.0692,-0.25373 0.11534,-0.449781 0.13838,-0.588179 0.0231,-0.184527 0.0807,-0.461313 0.17299,-0.830359 0,-0.138398 -0.0577,-0.230649 -0.17299,-0.276787 -0.11534,-0.06921 -0.19605,-0.103791 -0.24218,-0.103791 -0.0462,-0.04615 -0.1038,-0.08074 -0.17299,-0.103792 -0.16145,-0.04616 -0.29985,-0.08075 -0.41518,-0.1038 -0.16146,-0.06921 -0.3114,-0.115341 -0.44979,-0.13839 l -0.0692,-0.06922 c -0.0231,-0.06921 -0.0462,-0.161462 -0.0692,-0.276787 -0.0692,-0.2076 -0.11535,-0.345989 -0.1384,-0.415184 -0.0462,-0.184527 -0.0807,-0.345981 -0.10379,-0.484378 -0.0692,-0.138397 -0.12685,-0.288327 -0.17299,-0.44979 -0.0231,-0.06921 -0.0346,-0.126856 -0.0346,-0.172986 -0.39213,-0.115341 -0.78424,-0.161454 -1.17633,-0.138381 h -0.13838 c -0.0462,0.02308 -0.0693,0.05768 -0.0693,0.103792 -0.0692,0.06921 -0.13839,0.161462 -0.2076,0.276787 -0.0922,0.138397 -0.18452,0.276786 -0.27678,0.415184 -0.0923,0.11534 -0.17298,0.24218 -0.24218,0.38057 -0.0922,0.09225 -0.16146,0.196042 -0.2076,0.311383 -0.0231,0 -0.0346,0.01153 -0.0346,0.03461 -0.39213,0.161454 -0.80729,0.276786 -1.24557,0.345989 -0.43825,0.06921 -0.84193,0.126857 -1.21099,0.172995 -0.29985,0.04615 -0.55356,0.08074 -0.76114,0.103792 h -0.173 c -0.43825,0.04615 -0.68044,0.138381 -0.72657,0.276778 -0.0693,0.115341 -0.11535,0.25373 -0.1384,0.415184 -0.0462,0.09225 -0.0577,0.184527 -0.0346,0.276778 m 5.08601,84.693323 -4.04801,2.87169 c 0.32292,0.46132 0.64584,0.95726 0.96876,1.48772 2.12208,3.52905 3.35606,7.62323 3.70204,12.28236 0.0692,0.87652 0.10378,1.77603 0.10378,2.69871 0,0.71502 -0.0231,1.45313 -0.0692,2.21432 -0.0231,0.0231 -0.0231,0.0577 0,0.10379 -0.39213,6.64298 -2.24891,12.31737 -5.5704,17.02283 -1.40697,2.00676 -2.90627,3.58672 -4.49781,4.74004 -0.0231,0.0231 -0.0462,0.0577 -0.0692,0.1038 -0.29986,0.18452 -0.58817,0.35752 -0.86494,0.51898 -0.36904,0.25373 -0.74963,0.47284 -1.14174,0.65737 h -0.0346 c -4.221,1.61462 -7.92304,1.25707 -11.10579,-1.07258 2.07592,0.99184 4.83228,1.11866 8.2691,0.38058 -0.39212,-0.1384 -0.76117,-0.29986 -1.10717,-0.48438 -2.16816,-1.15324 -4.08267,-3.11384 -5.74338,-5.88179 -0.57663,-0.94567 -1.07258,-1.93751 -1.48771,-2.97543 l -6.60832,-0.17299 c -0.29985,-0.80729 -0.55358,-1.61462 -0.76116,-2.42189 l 6.46999,0.20759 c -0.43826,-1.43006 -0.77269,-2.91777 -1.00334,-4.46324 l -6.26234,-0.17298 c -0.0923,-0.73811 -0.14992,-1.48772 -0.17299,-2.24891 -0.0693,-1.15324 -0.0693,-2.34115 0,-3.56363 l -3.11384,2.17966 c 0,0.55357 0.0115,1.10716 0.0346,1.6607 0.0231,0.80729 0.0693,1.59154 0.13839,2.35273 0.46133,5.46657 1.97209,10.29919 4.53239,14.49719 0.2076,0.32293 0.41517,0.65738 0.62276,1.00334 0.0923,0.11534 0.18455,0.24219 0.2768,0.38058 3.36757,4.84378 7.53099,7.26567 12.48985,7.26567 h 0.1038 c 5.02836,-0.0462 9.51425,-2.59487 13.45894,-7.64623 0.25373,-0.34597 0.50745,-0.68043 0.76117,-1.00333 0.2076,-0.32293 0.41518,-0.64584 0.62277,-0.96876 0.36905,-0.53051 0.72657,-1.07258 1.07259,-1.62612 0.89959,-1.56846 1.69536,-3.21767 2.38731,-4.94761 1.59154,-4.01344 2.51413,-8.4535 2.76786,-13.32062 0.0231,-0.73811 0.0462,-1.46472 0.0693,-2.17974 0,-0.96876 -0.0231,-1.91444 -0.0693,-2.83711 -0.32291,-6.0202 -1.86835,-11.29078 -4.63621,-15.81126 -0.16146,-0.27678 -0.32292,-0.55357 -0.48438,-0.83036 m -39.6502,27.88614 -21.83162,15.36212 c 1.40698,0.8073 2.73329,2.00676 3.97886,3.59822 0.39212,0.50744 0.78423,1.0495 1.17632,1.62612 2.67562,-1.82219 5.1091,-3.47139 7.30034,-4.94761 4.54398,-3.09084 8.06145,-5.45507 10.5525,-7.09269 -0.69197,-1.91452 -1.08408,-4.76304 -1.17632,-8.54599 m -0.8996,22.21241 c -0.36904,-0.27679 -0.70351,-0.5651 -1.00333,-0.86493 l -0.51898,-0.58816 c -0.29986,-0.39212 -0.5651,-0.81884 -0.79576,-1.28015 l -0.0693,0.0692 -0.0692,-0.0692 -5.32816,3.28691 0.48438,3.04467 7.30034,-3.5983 m -8.99595,11.69408 c -1.33781,0.48438 -2.5718,1.48772 -3.70204,3.0101 -1.17633,1.56846 -2.00668,3.36756 -2.49114,5.3974 -0.16146,0.59972 -0.2768,1.22249 -0.34599,1.86836 -0.0462,0.27678 -0.0807,0.55357 -0.10379,0.83036 -0.0462,0.53051 -0.0693,1.061 -0.0693,1.59154 0,0.29986 0.0115,0.59972 0.0346,0.89959 0.0923,2.12209 0.61124,4.00194 1.55696,5.63956 0.0693,0.1384 0.14993,0.27679 0.24218,0.41519 0.0231,0.0462 0.0577,0.0922 0.10381,0.13839 1.24557,1.86835 2.83711,2.80253 4.77463,2.80253 h 0.0346 c 1.96059,-0.0231 3.73662,-1.00334 5.32816,-2.94085 0.0923,-0.1384 0.19606,-0.27679 0.3114,-0.41519 0.0693,-0.1384 0.14993,-0.26526 0.24218,-0.38058 0.16146,-0.2076 0.3114,-0.41519 0.44978,-0.62278 0.36905,-0.62277 0.70351,-1.26856 1.00334,-1.93751 0.64584,-1.56846 1.061,-3.29841 1.24557,-5.18976 l 0.0692,-0.83035 c 0.11534,-2.81403 -0.41518,-5.23592 -1.59154,-7.26568 -0.34597,-0.57664 -0.7035,-1.07258 -1.07258,-1.48771 l -0.0692,-0.0693 c -1.10717,-1.1994 -2.4219,-1.79911 -3.94428,-1.79911 -0.2076,0 -0.40366,0.0116 -0.58817,0.0346 -0.53051,0.11534 -1.00334,0.21914 -1.41856,0.31139 m 23.7348,-5.63956 c -0.62278,0.1384 -1.19941,0.26526 -1.72995,0.38058 -1.63771,0.59972 -3.17158,1.82219 -4.60164,3.66746 -1.4993,1.91452 -2.5718,4.11726 -3.21766,6.60831 -0.18452,0.73811 -0.33444,1.5108 -0.44978,2.31815 -0.0692,0.32293 -0.11534,0.6689 -0.13839,1.03792 -0.0693,0.64584 -0.11534,1.28015 -0.13839,1.90294 -0.0231,0.39211 -0.0231,0.77269 0,1.14174 0.0692,2.58338 0.66891,4.87836 1.79911,6.88512 0.0692,0.16146 0.16145,0.32294 0.27678,0.48439 0.0231,0.0692 0.0577,0.12685 0.1038,0.17298 1.47621,2.30657 3.40214,3.47139 5.77796,3.49447 h 0.0346 c 2.39881,-0.0462 4.60163,-1.26865 6.60831,-3.66746 0.1384,-0.16145 0.26526,-0.32293 0.38059,-0.48439 0.11534,-0.13839 0.23064,-0.28831 0.34597,-0.44977 0.18452,-0.25373 0.36905,-0.50744 0.55357,-0.76116 0.48437,-0.76117 0.9111,-1.55696 1.28015,-2.38731 0.85343,-1.91452 1.40697,-4.02502 1.6607,-6.33151 0.0462,-0.36904 0.0807,-0.71502 0.10381,-1.03791 0.2076,-3.4599 -0.38059,-6.43533 -1.76452,-8.9268 -0.39212,-0.69198 -0.8073,-1.30323 -1.24557,-1.83369 -0.0462,-0.0231 -0.0807,-0.0462 -0.1038,-0.0692 -1.33781,-1.47622 -2.94086,-2.20283 -4.80921,-2.17975 -0.25373,-0.0231 -0.49592,-0.0115 -0.72657,0.0346 m -58.43706,3.14842 c -0.29986,1.43005 -0.48438,2.92935 -0.55358,4.49781 -0.0462,0.87652 -0.0577,1.74145 -0.0346,2.59488 0,0.50744 0.0231,1.01492 0.0692,1.52238 0.29986,3.50598 1.28015,6.6199 2.94085,9.34177 0.18452,0.32292 0.36904,0.62275 0.55357,0.89959 2.19124,3.11384 4.88995,4.6708 8.09611,4.6708 h 0.0693 c 3.45989,-0.0231 6.51607,-1.87985 9.16844,-5.57039 l 0.41519,-0.62278 c 0.23064,-0.34597 0.44977,-0.69197 0.65737,-1.03792 0.59972,-1.01492 1.11866,-2.07592 1.55696,-3.18308 1.01492,-2.60646 1.61462,-5.47815 1.79911,-8.61516 0.27678,-5.259 -0.72658,-9.74506 -3.0101,-13.45893 -0.57664,-0.94568 -1.18791,-1.76453 -1.83369,-2.45648 -0.0462,-0.0462 -0.0807,-0.0923 -0.1038,-0.13839 -0.50744,-0.50744 -1.01492,-0.94567 -1.52238,-1.31473 l -2.90627,2.04134 c 1.59154,0.69198 2.98702,2.02976 4.18642,4.01344 1.84527,3.06775 2.65254,6.79288 2.42189,11.17495 -0.23064,4.3594 -1.43005,8.08453 -3.59821,11.17495 -0.9226,1.29165 -1.90294,2.31815 -2.94094,3.07926 -0.2076,0.1384 -0.41517,0.26526 -0.62276,0.38059 -0.25373,0.16145 -0.49592,0.3114 -0.72656,0.44978 -2.76787,1.03791 -5.18976,0.79578 -7.26568,-0.72656 1.33781,0.66891 3.12542,0.76115 5.36274,0.27678 -1.70686,-0.69198 -3.18308,-2.07592 -4.42865,-4.15184 -0.36904,-0.62278 -0.69196,-1.26865 -0.96876,-1.93752 l -4.29024,-0.1384 c -0.2076,-0.50745 -0.3806,-1.02642 -0.51898,-1.55696 l 4.221,0.13838 c -0.29986,-0.92259 -0.51897,-1.89135 -0.65738,-2.90627 l -4.08268,-0.1038 c -0.0462,-0.48438 -0.0807,-0.98025 -0.10378,-1.48771 -0.0462,-0.8073 -0.0346,-1.63771 0.0346,-2.49114 0.0923,-2.21433 0.44977,-4.25566 1.07258,-6.12393 l -2.42189,1.69536 c -0.0231,0.0231 -0.0346,0.0462 -0.0346,0.0692 m 65.599,25.32633 h 32.83408 c 2.28348,-1.08408 4.46323,-2.38731 6.53915,-3.9096 1.45313,-1.08409 2.83711,-2.27199 4.15184,-3.56364 l -8.82264,-0.1384 c -0.2076,0 -0.38057,-0.0692 -0.51897,-0.20759 -0.1384,-0.1384 -0.21913,-0.31138 -0.24219,-0.51896 0,-0.18452 0.0693,-0.35752 0.2076,-0.51897 l 2.42189,-3.0101 c 0.0692,-0.0923 0.16146,-0.16145 0.2768,-0.20758 0.0922,-0.0693 0.19605,-0.0923 0.31139,-0.0693 l 9.79173,0.173 c 0.18453,-0.0231 0.34598,0.0231 0.48438,0.13838 1.47621,-1.9606 2.82552,-4.01344 4.04801,-6.15852 1.10716,-2.00676 2.14508,-4.04801 3.11384,-6.12393 0.0692,-0.18452 0.14993,-0.35753 0.24218,-0.51898 l -9.2726,-0.44978 c -0.18453,-0.0231 -0.34599,-0.0807 -0.48438,-0.17298 -0.11534,-0.11535 -0.19605,-0.25374 -0.24218,-0.4152 -0.0462,-0.16145 -0.0346,-0.32292 0.0346,-0.48438 l 1.31473,-2.97543 c 0.0462,-0.16145 0.1384,-0.27678 0.27679,-0.34598 0.13839,-0.0923 0.28831,-0.13839 0.44977,-0.13839 l 9.54925,0.48438 c 0.0692,-0.0231 0.13839,-0.0116 0.2076,0.0346 1.45313,-3.78278 2.59487,-7.65781 3.42523,-11.62492 0.16145,-0.78423 0.33444,-1.55696 0.51896,-2.31815 l -9.06512,-0.51898 c -0.16145,-0.0231 -0.29985,-0.0807 -0.41519,-0.17299 -0.13839,-0.0923 -0.23064,-0.20759 -0.27678,-0.34599 -0.0462,-0.13839 -0.0577,-0.27678 -0.0346,-0.41519 l 0.62277,-3.04468 c 0.0231,-0.18451 0.11534,-0.33444 0.27679,-0.44977 0.1384,-0.11534 0.31138,-0.16146 0.51897,-0.1384 l 9.09929,0.55358 c 0.0231,-0.0231 0.0577,-0.0231 0.10379,0 0.76115,-4.6593 1.24557,-9.35343 1.45313,-14.08139 l -9.37592,-0.58818 c -0.2076,-0.0231 -0.38058,-0.11534 -0.51898,-0.27679 -0.11534,-0.1384 -0.17299,-0.28833 -0.17299,-0.44978 -0.0231,-0.0462 -0.0231,-0.0807 0,-0.1038 l 0.2076,-3.04468 c 0,-0.23064 0.0807,-0.40365 0.24219,-0.51897 0.13839,-0.16146 0.32291,-0.23064 0.55357,-0.2076 l 9.20344,0.62277 v -9.6534 l -32.31495,-2.07592 c 0,3.32149 -0.0808,6.64297 -0.24219,9.96421 -0.0693,1.40698 -0.14994,2.82553 -0.24218,4.25567 -0.0231,0.25373 -0.0346,0.50744 -0.0346,0.76116 -0.55359,7.45025 -1.81069,14.73884 -3.77129,21.86661 -0.2768,0.94568 -0.56511,1.90294 -0.86493,2.87169 -2.5603,8.2806 -6.29692,16.08873 -11.20995,23.42316 -4.03652,5.97403 -8.82264,10.90997 -14.35804,14.808 m -6.88512,-24.73805 c 0.27679,0.0231 0.54204,0.0692 0.79577,0.13839 1.24557,0.36905 2.28349,1.31473 3.11384,2.83711 0.96875,1.77603 1.38397,3.87503 1.24557,6.29692 0,0.29986 -0.0116,0.61125 -0.0346,0.93418 -0.32292,2.79095 -1.24557,5.18976 -2.76787,7.19652 -0.64584,0.83036 -1.31473,1.49929 -2.00667,2.00667 -0.0231,0 -0.0346,0.0116 -0.0346,0.0346 -0.11534,0.0693 -0.23064,0.13841 -0.34598,0.2076 -0.18452,0.0923 -0.35753,0.18452 -0.51898,0.27677 -1.82219,0.66892 -3.36757,0.51899 -4.63622,-0.44978 0.76117,0.36905 1.76453,0.44979 3.0101,0.24219 0.1384,-0.0462 0.28832,-0.0807 0.44978,-0.10379 -0.16146,-0.0462 -0.29985,-0.1038 -0.41519,-0.17299 -0.9226,-0.48438 -1.69537,-1.31473 -2.31815,-2.49114 -0.23065,-0.41518 -0.42672,-0.83036 -0.58817,-1.24556 l -2.76787,-0.0693 c -0.0922,-0.34597 -0.17299,-0.68044 -0.24218,-1.00334 l 2.6987,0.0692 c -0.16145,-0.59972 -0.26525,-1.22249 -0.3114,-1.86835 l -2.62946,-0.0693 c -0.0231,-0.32292 -0.0231,-0.63431 0,-0.93418 0,-0.5305 0.0346,-1.07258 0.1038,-1.62612 0.0231,-0.32292 0.0577,-0.63431 0.10379,-0.93417 0.23065,-1.4993 0.65738,-2.87169 1.28015,-4.11726 0.34597,-0.78423 0.78423,-1.5108 1.31473,-2.17975 1.52238,-2.00676 3.20616,-3.01009 5.05143,-3.01009 0.1384,0 0.28833,0.0115 0.44979,0.0346 m -21.69329,4.77462 c 1.03792,0.29986 1.91452,1.07258 2.62946,2.31807 0.80729,1.43005 1.17632,3.13692 1.10716,5.12059 0,0.23065 -0.0115,0.48437 -0.0346,0.76117 -0.2076,2.28349 -0.91109,4.24408 -2.1105,5.88179 -0.50744,0.69198 -1.03792,1.23407 -1.59154,1.62612 l -0.0346,0.0346 c -0.11534,0.0462 -0.21914,0.1038 -0.3114,0.17299 -0.1384,0.0692 -0.26525,0.13838 -0.38058,0.20759 -1.47622,0.55357 -2.74478,0.43825 -3.80587,-0.34598 0.62278,0.29986 1.44164,0.36903 2.45648,0.20758 0.11534,-0.0462 0.2422,-0.0807 0.38058,-0.10379 -0.13839,-0.0462 -0.25373,-0.0923 -0.34598,-0.13841 -0.76116,-0.39212 -1.40697,-1.061 -1.93751,-2.00667 -0.18452,-0.34598 -0.34599,-0.69199 -0.48439,-1.03792 l -2.28348,-0.0693 c -0.0923,-0.27678 -0.16146,-0.55359 -0.2076,-0.83036 l 2.21433,0.0692 c -0.1384,-0.48438 -0.23065,-0.99184 -0.2768,-1.52238 l -2.17966,-0.0692 c -0.0231,-0.25373 -0.0231,-0.50745 0,-0.76117 -0.0231,-0.43824 -0.0116,-0.87651 0.0346,-1.31473 0.0231,-0.27679 0.0462,-0.53051 0.0693,-0.76116 0.16145,-1.22249 0.48438,-2.34115 0.96876,-3.35607 0.27678,-0.64584 0.62277,-1.23399 1.03791,-1.76453 1.22249,-1.6377 2.58338,-2.45647 4.08268,-2.45647 0.11534,0 0.24219,0.0115 0.38059,0.0346 0.2076,0 0.41517,0.0346 0.62276,0.1038 m 102.37526,-55.91143 c -0.36904,0.36905 -0.81883,0.55359 -1.34939,0.55359 -0.53051,-0.0231 -0.96876,-0.21913 -1.31473,-0.58818 v 0.0346 c -0.39213,-0.36904 -0.58818,-0.81882 -0.58818,-1.34939 0,-0.53051 0.19605,-0.98026 0.58818,-1.34931 0.34598,-0.39212 0.78423,-0.58818 1.31473,-0.58818 0.53051,0 0.98025,0.19606 1.34939,0.58818 0.36905,0.36905 0.56511,0.81882 0.58817,1.34931 -0.0231,0.50744 -0.21912,0.94568 -0.58817,1.31473 v 0.0346 m 11.69408,-1.93751 c 0.53051,0 0.98026,0.19606 1.34931,0.58817 0.36905,0.36905 0.55358,0.8073 0.55358,1.31473 0,0.53051 -0.18453,0.98026 -0.55358,1.34931 v 0.0346 c -0.36905,0.36904 -0.81882,0.55358 -1.34931,0.55358 -0.50745,-0.0231 -0.94568,-0.21913 -1.31473,-0.58817 v 0.0346 c -0.39213,-0.39212 -0.58818,-0.85344 -0.58818,-1.38398 0,-0.50744 0.19605,-0.94567 0.58818,-1.31473 0.36905,-0.39212 0.8073,-0.58818 1.31473,-0.58818 m 11.14079,3.21767 c 0,-0.53051 0.18452,-0.98026 0.55357,-1.34931 0.36905,-0.36905 0.81882,-0.55359 1.34931,-0.55359 0.53051,0 0.98026,0.18452 1.3494,0.55359 0.36904,0.36904 0.55357,0.81882 0.55357,1.34931 0,0.53051 -0.18452,0.98025 -0.55357,1.34931 -0.36905,0.36904 -0.81884,0.55359 -1.3494,0.55359 -0.53051,0 -0.98025,-0.18453 -1.34931,-0.55359 -0.36904,-0.36905 -0.55357,-0.81882 -0.55357,-1.34931 m 15.5696,1.24557 c 0,0.5305 -0.18451,0.98025 -0.55357,1.34931 h -0.0346 c -0.36905,0.36904 -0.80729,0.55359 -1.31473,0.55359 -0.53051,0 -0.98026,-0.18454 -1.34939,-0.55359 -0.39213,-0.36905 -0.58817,-0.81882 -0.58817,-1.34931 0,-0.53051 0.19605,-0.98026 0.58817,-1.3494 0.36904,-0.36904 0.81882,-0.55357 1.34939,-0.55357 0.53051,0 0.98026,0.18452 1.34931,0.55357 h -0.0346 c 0.36905,0.36905 0.56511,0.81882 0.58818,1.3494 m -74.4908,-49.199459 c 0.48437,-0.02308 0.8996,0.149913 1.24557,0.518959 0.32292,0.369046 0.49592,0.830376 0.51898,1.383974 0,0.507452 -0.14993,0.945675 -0.44979,1.31473 -0.34598,0.369045 -0.74963,0.565105 -1.21099,0.588178 -0.29985,0 -0.57664,-0.06924 -0.83037,-0.2076 -0.0923,-0.04616 -0.17298,-0.1038 -0.24218,-0.172978 l -0.13839,-0.138406 c -0.13839,-0.161454 -0.25373,-0.322916 -0.34598,-0.48437 -0.11534,-0.25373 -0.18452,-0.542032 -0.2076,-0.864932 -0.0231,-0.530508 0.1384,-0.980256 0.48437,-1.34931 0.11534,-0.161454 0.25373,-0.276795 0.41519,-0.34599 0.23065,-0.161454 0.48437,-0.242189 0.76117,-0.242189 M 287.8507,73.98741 c 0.34598,0.369046 0.53051,0.818836 0.55357,1.349394 0,0.530508 -0.16145,0.980256 -0.48437,1.34931 -0.27679,0.299852 -0.58818,0.484387 -0.93417,0.553573 -0.0922,0 -0.17299,0.0115 -0.24218,0.03458 -0.48437,0 -0.8996,-0.172995 -1.24557,-0.518976 -0.32292,-0.369046 -0.49592,-0.79577 -0.51898,-1.280149 v -0.1038 c -0.0231,-0.507452 0.1384,-0.945675 0.48437,-1.31473 0.0462,-0.06922 0.0923,-0.126848 0.13839,-0.172986 0.29985,-0.276795 0.64583,-0.426716 1.03792,-0.44979 0.39213,0 0.74963,0.13839 1.07258,0.415184 v -0.03461 c 0.0462,0.04615 0.0922,0.103801 0.13838,0.172995 m -2.2489,-8.372673 c -0.0231,0.461322 -0.17299,0.864932 -0.44979,1.210988 -0.2076,0.230648 -0.43824,0.392119 -0.69197,0.48437 -0.16146,0.04615 -0.33445,0.08074 -0.51898,0.1038 -0.46132,0 -0.86493,-0.173003 -1.2109,-0.518976 -0.34599,-0.369046 -0.51898,-0.818819 -0.51898,-1.34931 -0.0231,-0.530508 0.12686,-0.980256 0.44978,-1.34931 0.32292,-0.39212 0.72658,-0.588162 1.21099,-0.588162 0.46132,-0.02307 0.86493,0.149921 1.21099,0.518975 0.32291,0.369046 0.49591,0.818827 0.51897,1.349311 v 0.138814 M 406.52565,29.77139 392.75507,42.50372 c 0.39213,1.360893 1.08408,2.594879 2.07592,3.702042 l 18.61437,-10.759986 c 0.64583,0.738109 0.98025,1.949013 1.00334,3.632881 0,0.345981 -0.0115,0.461322 -0.0346,0.345989 l -17.7836,8.407671 c 0.69197,0.48437 1.44155,0.876514 2.2489,1.176324 l 14.39304,-4.221001 c -0.25373,1.107163 -1.17633,2.398811 -2.76787,3.875028 -2.46806,2.283487 -5.40891,3.34457 -8.82264,3.183082 -1.93751,-0.09225 -3.69054,-0.553589 -5.259,-1.383974 -1.03792,-0.553573 -1.98368,-1.257067 -2.83711,-2.1105 h -0.0346 l -0.48437,-0.484379 v -0.0346 c -0.50745,-0.553573 -0.95726,-1.130244 -1.34939,-1.729947 l -0.0692,-0.06922 -0.0346,-0.03461 c -0.69197,-1.084081 -1.1994,-2.237323 -1.52238,-3.459894 -0.27679,-1.107162 -0.39212,-2.271987 -0.34598,-3.494474 0.0922,-3.39065 1.38397,-6.227759 3.87503,-8.510996 2.46805,-2.283487 5.4089,-3.34457 8.82264,-3.183082 1.1994,0.04614 2.32965,0.242189 3.39065,0.588178 0.27679,0.09225 0.54204,0.196043 0.79577,0.311384 1.45313,0.668906 2.58338,1.476217 3.39065,2.421892 -0.16146,-0.09225 -0.3114,-0.16147 -0.44979,-0.2076 -1.3609,-0.553573 -2.37573,-0.784221 -3.04468,-0.691962 z"
         id="path6"
         style="stroke-width:0.833268" />
      <path
         d="m 262.63632,192.0023 c 4.91303,-7.33492 8.64932,-15.14297 11.20995,-23.42315 0.29985,-0.96876 0.58817,-1.92602 0.86493,-2.87169 1.9606,-7.12728 3.21767,-14.41637 3.77129,-21.86661 0,-0.25373 0.0115,-0.50745 0.0346,-0.76117 0.0923,-1.43005 0.17299,-2.84861 0.24219,-4.25566 0.16145,-3.32149 0.24218,-6.64298 0.24218,-9.96422 l 32.31495,2.07592 v 9.65341 l -9.20344,-0.62278 c -0.23066,-0.0231 -0.41518,0.0462 -0.55357,0.20759 -0.16146,0.11534 -0.24219,0.28832 -0.24219,0.51898 l -0.20758,3.04468 c -0.0231,0.0231 -0.0231,0.0577 0,0.10379 0,0.16145 0.0577,0.31139 0.17298,0.44978 0.1384,0.16145 0.31139,0.25373 0.51898,0.27679 l 9.37593,0.58817 c -0.2076,4.72846 -0.69197,9.42259 -1.45314,14.08139 -0.0462,-0.0231 -0.0807,-0.0231 -0.10381,0 l -9.09928,-0.55357 c -0.2076,-0.0231 -0.38058,0.0231 -0.51898,0.13839 -0.16145,0.11534 -0.25372,0.26527 -0.27679,0.44979 l -0.62276,3.04468 c -0.0231,0.13839 -0.0116,0.27678 0.0346,0.41518 0.0462,0.1384 0.13838,0.25372 0.27677,0.34597 0.11534,0.0923 0.25373,0.14994 0.41518,0.173 l 9.06512,0.51897 c -0.18453,0.76116 -0.35752,1.53387 -0.51897,2.31815 -0.83037,3.96735 -1.9721,7.84238 -3.42523,11.62491 -0.0693,-0.0462 -0.13839,-0.0577 -0.2076,-0.0346 l -9.54924,-0.48438 c -0.16146,0 -0.3114,0.0462 -0.44978,0.13839 -0.13839,0.0692 -0.23064,0.18454 -0.27677,0.34599 l -1.31473,2.97543 c -0.0692,0.16146 -0.0807,0.32293 -0.0346,0.48438 0.0462,0.16146 0.12685,0.29986 0.24218,0.41519 0.1384,0.0923 0.29986,0.14993 0.48438,0.17297 l 9.27261,0.44979 c -0.0923,0.16145 -0.17299,0.33445 -0.2422,0.51897 -0.96876,2.07592 -2.00676,4.11726 -3.11384,6.12394 -1.22249,2.14508 -2.5718,4.198 -4.04801,6.15859 -0.1384,-0.11534 -0.29986,-0.16146 -0.48437,-0.13839 l -9.79173,-0.173 c -0.11534,-0.0231 -0.21914,0 -0.31139,0.0693 -0.11534,0.0462 -0.2076,0.11534 -0.27678,0.2076 l -2.4219,3.01009 c -0.13839,0.16146 -0.20759,0.33444 -0.20759,0.51896 0.0231,0.2076 0.1038,0.38058 0.24219,0.51898 0.1384,0.13839 0.31139,0.20759 0.51898,0.20759 l 8.82264,0.13839 c -1.31473,1.29165 -2.69871,2.47955 -4.15184,3.56363 -2.07592,1.52238 -4.25567,2.82553 -6.53915,3.9097 h -32.83408 c 5.53581,-3.89811 10.32168,-8.83431 14.35803,-14.808 m -79.92287,-10.5875 2.4219,-1.69537 c -0.62278,1.86835 -0.98026,3.90961 -1.07259,6.12394 -0.0692,0.85343 -0.0807,1.68378 -0.0346,2.49113 0.0231,0.50745 0.0577,1.00334 0.10381,1.48772 l 4.0826,0.1038 c 0.13839,1.01492 0.35752,1.98368 0.65738,2.90627 l -4.221,-0.13839 c 0.1384,0.53051 0.31138,1.0495 0.51897,1.55696 l 4.29025,0.13839 c 0.27679,0.66891 0.5997,1.31473 0.96876,1.93751 1.24556,2.07592 2.72178,3.4599 4.42865,4.15184 -2.23741,0.48438 -4.02502,0.39212 -5.36275,-0.27677 2.07592,1.52238 4.49782,1.76452 7.26568,0.72656 0.23065,-0.13839 0.47284,-0.28832 0.72657,-0.44977 0.2076,-0.11534 0.41518,-0.24219 0.62277,-0.38059 1.03791,-0.76116 2.01825,-1.78761 2.94093,-3.07925 2.16816,-3.09084 3.36757,-6.81597 3.59822,-11.17496 0.23065,-4.38248 -0.57664,-8.10761 -2.4219,-11.17495 -1.1994,-1.98368 -2.59487,-3.32149 -4.18642,-4.01343 l 2.90628,-2.04134 c 0.50744,0.36904 1.01492,0.8073 1.52229,1.31473 0.0231,0.0462 0.0577,0.0923 0.10381,0.13839 0.64584,0.69198 1.25707,1.51079 1.83369,2.45647 2.28349,3.71362 3.28691,8.19985 3.0101,13.45894 -0.18452,3.13692 -0.78423,6.00861 -1.79911,8.61515 -0.43824,1.10717 -0.95726,2.16817 -1.55696,3.18309 -0.2076,0.34597 -0.42671,0.69198 -0.65738,1.03791 l -0.41518,0.62276 c -2.65254,3.69055 -5.7088,5.54732 -9.16844,5.5704 h -0.0692 c -3.20616,0 -5.90487,-1.55696 -8.09611,-4.6708 -0.18452,-0.27679 -0.36905,-0.57665 -0.55359,-0.8996 -1.6607,-2.72178 -2.64104,-5.83562 -2.94085,-9.34176 -0.0462,-0.50744 -0.0693,-1.01492 -0.0693,-1.52238 -0.0231,-0.85343 -0.0116,-1.71836 0.0346,-2.59488 0.0693,-1.56846 0.25373,-3.06776 0.55359,-4.49781 0,-0.0231 0.0116,-0.0462 0.0346,-0.0693 m 59.12868,-3.11392 c 1.86835,-0.0231 3.47139,0.70351 4.8092,2.17975 0.0231,0.0231 0.0577,0.0462 0.1038,0.0692 0.43826,0.53051 0.85343,1.14175 1.24557,1.83369 1.38397,2.49114 1.97218,5.46657 1.76453,8.9268 -0.0231,0.32292 -0.0577,0.6689 -0.10379,1.03792 -0.25373,2.30656 -0.8073,4.41706 -1.66071,6.3315 -0.36904,0.83036 -0.79576,1.62612 -1.28015,2.38731 -0.18451,0.25373 -0.36904,0.50744 -0.55357,0.76116 -0.11534,0.16146 -0.23064,0.3114 -0.34598,0.44978 -0.11534,0.16146 -0.24219,0.32293 -0.38058,0.48438 -2.00676,2.39881 -4.2095,3.6213 -6.60831,3.66746 h -0.0346 c -2.37581,-0.0231 -4.30175,-1.1879 -5.77796,-3.49447 -0.0462,-0.0462 -0.0807,-0.1038 -0.10379,-0.17299 -0.11535,-0.16145 -0.2076,-0.32292 -0.27679,-0.48438 -1.13024,-2.00675 -1.72995,-4.30174 -1.79911,-6.88512 -0.0231,-0.36904 -0.0231,-0.74963 0,-1.14174 0.0231,-0.62278 0.0693,-1.25707 0.13839,-1.90294 0.0231,-0.36904 0.0692,-0.71502 0.13841,-1.03791 0.11534,-0.8073 0.26526,-1.58005 0.44978,-2.31815 0.64584,-2.49114 1.71836,-4.69388 3.21766,-6.60832 1.43005,-1.84527 2.96393,-3.06776 4.60164,-3.66746 0.53051,-0.11534 1.10716,-0.24218 1.72994,-0.38058 0.23065,-0.0462 0.47284,-0.0577 0.72657,-0.0346 m -0.89959,3.73671 c -1.84527,0 -3.52906,1.00334 -5.05144,3.01009 -0.53051,0.66892 -0.96876,1.39548 -1.31473,2.17975 -0.62277,1.24557 -1.0495,2.61796 -1.28015,4.11726 -0.0462,0.29986 -0.0807,0.61123 -0.10379,0.93417 -0.0692,0.55358 -0.10379,1.09559 -0.10379,1.62613 -0.0231,0.29986 -0.0231,0.61123 0,0.93417 l 2.62946,0.0693 c 0.0462,0.64584 0.14993,1.26865 0.3114,1.86835 l -2.69871,-0.0692 c 0.0693,0.32292 0.14993,0.65739 0.24219,1.00333 l 2.76786,0.0693 c 0.16145,0.41518 0.35751,0.83036 0.58817,1.24557 0.62278,1.17632 1.39547,2.00675 2.31815,2.49113 0.11534,0.0693 0.25373,0.12686 0.41519,0.17299 -0.16146,0.0231 -0.3114,0.0577 -0.44979,0.1038 -1.24556,0.2076 -2.2489,0.12686 -3.01009,-0.24219 1.26857,0.96876 2.81403,1.11866 4.63622,0.44978 0.16145,-0.0923 0.33444,-0.18452 0.51897,-0.27678 0.11534,-0.0692 0.23064,-0.1384 0.34598,-0.2076 0,-0.0231 0.0116,-0.0346 0.0346,-0.0346 0.69197,-0.50744 1.3609,-1.17632 2.00676,-2.00667 1.52238,-2.00676 2.44498,-4.40557 2.76787,-7.19652 0.0231,-0.32292 0.0346,-0.63429 0.0346,-0.93417 0.1384,-2.4219 -0.27679,-4.5209 -1.24557,-6.29701 -0.83037,-1.52238 -1.86835,-2.46805 -3.11384,-2.83711 -0.25373,-0.0692 -0.51897,-0.11534 -0.79578,-0.1384 -0.16145,-0.0231 -0.31138,-0.0346 -0.44977,-0.0346 m -22.14325,1.62613 c 0.18451,-0.0231 0.38057,-0.0346 0.58817,-0.0346 1.52238,0 2.83711,0.59972 3.94427,1.79911 l 0.0692,0.0693 c 0.36905,0.41518 0.72657,0.91109 1.07258,1.48771 1.17633,2.02976 1.70687,4.45174 1.59155,7.26568 l -0.0693,0.83036 c -0.18452,1.89135 -0.59971,3.6213 -1.24557,5.18976 -0.29986,0.66891 -0.63431,1.31473 -1.00333,1.93751 -0.1384,0.2076 -0.28833,0.41519 -0.44979,0.62277 -0.0923,0.11534 -0.17299,0.24219 -0.24219,0.38059 -0.11534,0.13839 -0.21914,0.27677 -0.3114,0.41518 -1.59154,1.93751 -3.36756,2.91777 -5.32816,2.94085 h -0.0346 c -1.93751,0 -3.52905,-0.93417 -4.77462,-2.80253 -0.0462,-0.0462 -0.0807,-0.0922 -0.1038,-0.13839 -0.0923,-0.13839 -0.17298,-0.27677 -0.24219,-0.41518 -0.94568,-1.6377 -1.46472,-3.51756 -1.55696,-5.63956 -0.0231,-0.29986 -0.0346,-0.5997 -0.0346,-0.89959 0,-0.53051 0.0231,-1.06108 0.0692,-1.59154 0.0231,-0.27679 0.0577,-0.55358 0.1038,-0.83036 0.0692,-0.64584 0.18453,-1.26865 0.34598,-1.86836 0.48438,-2.02975 1.31473,-3.82894 2.49114,-5.3974 1.13024,-1.52238 2.36423,-2.52572 3.70204,-3.0101 0.41518,-0.0923 0.88801,-0.19605 1.41856,-0.31138 m 0.27679,3.07925 c -0.1384,-0.0231 -0.26525,-0.0346 -0.38058,-0.0346 -1.4993,0 -2.86011,0.81882 -4.08268,2.45648 -0.41518,0.53051 -0.76116,1.11866 -1.03791,1.76452 -0.48438,1.01492 -0.8073,2.13359 -0.96876,3.35607 -0.0231,0.23065 -0.0462,0.48437 -0.0693,0.76117 -0.0462,0.43824 -0.0577,0.87651 -0.0346,1.31473 -0.0231,0.25373 -0.0231,0.50744 0,0.76116 l 2.17966,0.0693 c 0.0462,0.53051 0.1384,1.03792 0.2768,1.52238 l -2.21433,-0.0693 c 0.0462,0.27679 0.11534,0.55358 0.2076,0.83036 l 2.28349,0.0692 c 0.1384,0.34597 0.29986,0.69198 0.48439,1.03792 0.53051,0.94567 1.17632,1.61462 1.93751,2.00675 0.0923,0.0462 0.2076,0.0923 0.34598,0.1384 -0.13839,0.0231 -0.26526,0.0577 -0.38058,0.10379 -1.01492,0.16146 -1.83369,0.0923 -2.45648,-0.20759 1.061,0.78423 2.32965,0.8996 3.80587,0.34599 0.11534,-0.0692 0.24219,-0.1384 0.38058,-0.20759 0.0923,-0.0692 0.19606,-0.12685 0.3114,-0.17299 l 0.0346,-0.0346 c 0.55357,-0.39212 1.08408,-0.93417 1.59154,-1.62612 1.19941,-1.6377 1.90293,-3.59822 2.1105,-5.88179 0.0231,-0.27678 0.0346,-0.5305 0.0346,-0.76116 0.0692,-1.98368 -0.29985,-3.69054 -1.10716,-5.1206 -0.71502,-1.24557 -1.59154,-2.01826 -2.62946,-2.31807 -0.2076,-0.0692 -0.41518,-0.1038 -0.62277,-0.1038 m -1e-5,-10.86414 -0.48437,-3.04468 5.32817,-3.2869 0.0692,0.0692 0.0692,-0.0692 c 0.23064,0.46131 0.49591,0.88801 0.79577,1.28015 l 0.51896,0.58817 c 0.29986,0.29986 0.63431,0.58817 1.00334,0.86494 l -7.30034,3.59821 m 9.37593,-17.26447 c -2.49114,1.6377 -6.00861,4.00193 -10.5525,7.09269 -2.19125,1.47622 -4.62464,3.12542 -7.30035,4.94761 -0.39211,-0.57664 -0.78423,-1.11866 -1.1764,-1.62612 -1.24557,-1.59154 -2.5718,-2.79095 -3.97886,-3.59822 l 21.83162,-15.36212 c 0.0923,3.78279 0.48438,6.63139 1.17632,8.54599 m 38.95776,-35.60219 c 2.76787,4.52089 4.31333,9.79173 4.63622,15.81125 0.0462,0.9226 0.0693,1.86836 0.0693,2.83711 -0.0231,0.71502 -0.0462,1.44164 -0.0693,2.17975 -0.25373,4.86686 -1.17641,9.30676 -2.76786,13.32061 -0.69197,1.72995 -1.48772,3.37915 -2.38732,4.94761 -0.34598,0.55358 -0.70349,1.09558 -1.07258,1.62613 -0.2076,0.32292 -0.41518,0.64583 -0.62277,0.96875 -0.25373,0.32293 -0.50746,0.65738 -0.76117,1.00334 -3.94427,5.05144 -8.43017,7.60015 -13.45894,7.64623 h -0.1038 c -4.95911,0 -9.12261,-2.42189 -12.48985,-7.26568 -0.0923,-0.13839 -0.18452,-0.26525 -0.27677,-0.38057 -0.20761,-0.34598 -0.4152,-0.68044 -0.62278,-1.00334 -2.5603,-4.198 -4.0711,-9.03012 -4.53239,-14.49719 -0.0693,-0.76117 -0.11534,-1.54538 -0.13839,-2.35273 -0.0231,-0.55358 -0.0346,-1.10717 -0.0346,-1.66071 l 3.11392,-2.17966 c -0.0692,1.22249 -0.0692,2.4104 0,3.56364 0.0231,0.76116 0.0807,1.5108 0.17298,2.2489 l 6.26234,0.17299 c 0.23065,1.54538 0.5651,3.03309 1.00334,4.46323 l -6.46991,-0.20758 c 0.20761,0.80729 0.46133,1.61462 0.76117,2.42189 l 6.60831,0.17299 c 0.41519,1.03792 0.9111,2.02975 1.48772,2.97551 1.6607,2.76787 3.57522,4.72846 5.74338,5.88179 0.34597,0.18452 0.71502,0.34598 1.10716,0.48438 -3.43681,0.73811 -6.19318,0.61122 -8.2691,-0.38059 3.18309,2.32965 6.88513,2.68712 11.10579,1.07258 h 0.0346 c 0.39211,-0.18452 0.77268,-0.40363 1.14174,-0.65736 0.27679,-0.16146 0.5651,-0.33445 0.86493,-0.51899 0.0231,-0.0462 0.0462,-0.0807 0.0693,-0.1038 1.59154,-1.15324 3.09083,-2.73328 4.49781,-4.74004 3.32149,-4.70538 5.17826,-10.37918 5.57039,-17.02282 -0.0231,-0.0462 -0.0231,-0.0808 0,-0.1038 0.0462,-0.76117 0.0693,-1.4993 0.0693,-2.21433 0,-0.92259 -0.0346,-1.82219 -0.1038,-2.6987 -0.34599,-4.6593 -1.58005,-8.75348 -3.70205,-12.28237 -0.32291,-0.53051 -0.64584,-1.02642 -0.96875,-1.48771 l 4.04801,-2.8717 c 0.16146,0.27679 0.32292,0.55358 0.48439,0.83037 m -5.53582,-85.801567 c 0.0231,-0.161454 0.0693,-0.29986 0.1384,-0.415184 0.0462,-0.138398 0.28832,-0.23064 0.72658,-0.276779 h 0.17299 c 0.2076,-0.02308 0.46132,-0.05767 0.76115,-0.103791 0.36905,-0.04615 0.7727,-0.103809 1.21099,-0.172995 0.43825,-0.06921 0.85343,-0.184527 1.24557,-0.345981 0,-0.02308 0.0115,-0.0346 0.0346,-0.0346 0.0462,-0.115341 0.11534,-0.219141 0.20758,-0.311392 0.0692,-0.138398 0.14995,-0.265255 0.2422,-0.380579 0.0922,-0.138397 0.18452,-0.276786 0.27678,-0.415184 0.0692,-0.115341 0.1384,-0.2076 0.2076,-0.276786 0,-0.04615 0.0231,-0.08075 0.0692,-0.103809 h 0.1384 c 0.39213,-0.02308 0.78424,0.02308 1.17632,0.138398 0,0.04615 0.0115,0.1038 0.0346,0.172994 0.0462,0.161454 0.1038,0.311401 0.17299,0.44979 0.0231,0.138397 0.0577,0.299843 0.10379,0.48437 0.0231,0.06921 0.0692,0.207584 0.13841,0.415184 0.0231,0.115341 0.0462,0.2076 0.0692,0.276787 l 0.0692,0.06922 c 0.1384,0.02308 0.28832,0.06921 0.44977,0.138397 0.11534,0.02308 0.25373,0.05768 0.41518,0.103792 0.0693,0.02308 0.12686,0.05769 0.17299,0.1038 0.0462,0 0.12686,0.0346 0.24219,0.103792 0.11534,0.04616 0.17299,0.138398 0.17299,0.276795 -0.0922,0.369046 -0.14993,0.645833 -0.17299,0.83036 -0.0231,0.138397 -0.0692,0.334448 -0.13839,0.588178 -0.0462,0.06921 -0.0807,0.161454 -0.1038,0.276779 -0.1384,0.369045 -0.26525,0.726576 -0.38058,1.072582 l -0.2076,0.518984 c -0.0462,0.09225 -0.14992,0.219141 -0.31138,0.380586 -0.18453,0.138398 -0.47284,0.288319 -0.86493,0.449773 -0.41519,0.138398 -0.84194,0.24219 -1.28015,0.311401 -0.11534,0 -0.23066,0.01154 -0.34599,0.0346 h -0.93418 c -0.1384,-0.02308 -0.25374,-0.0346 -0.34598,-0.0346 l -1.03792,-0.276778 c -0.34598,-0.184528 -0.66891,-0.357531 -0.96875,-0.518976 -0.34599,-0.184527 -0.6343,-0.426708 -0.86494,-0.726568 -0.16145,-0.322924 -0.28832,-0.668906 -0.38058,-1.037918 -0.0462,-0.161454 -0.0923,-0.311384 -0.1384,-0.449773 -0.0462,-0.2076 -0.0922,-0.415184 -0.13838,-0.622776 -0.0462,-0.06921 -0.0577,-0.138397 -0.0346,-0.207584 -0.0231,-0.02308 -0.0346,-0.04615 -0.0346,-0.06921 v -0.06921 c -0.0231,-0.02308 -0.0231,-0.04615 0,-0.06922 -0.0231,-0.09225 -0.0116,-0.184535 0.0346,-0.276786 m -2.42189,-8.615154 c 4.52089,-0.438257 8.7993,-0.04614 12.83648,1.176324 0.16146,0.230656 0.26526,0.426716 0.3114,0.58817 0.16145,1.084081 0.0115,2.36423 -0.44978,3.840447 v 0.03461 c -0.0692,0.2076 -0.18452,0.415184 -0.34598,0.622776 -0.48437,0.06921 -1.0495,0.04614 -1.69536,-0.06923 v -0.1038 l -0.34599,-0.934177 -0.0346,-0.06921 -0.2076,-0.553581 c -0.16145,-0.392119 -0.41518,-0.588179 -0.76116,-0.588179 -0.62278,-0.09225 -1.24557,-0.149938 -1.86835,-0.172986 -0.39213,-0.04614 -0.71502,0.138389 -0.96876,0.553573 l -0.51898,0.691979 c -0.0462,0.02308 -0.0807,0.04614 -0.10379,0.06921 l -0.27678,0.380578 c -0.32292,0.230657 -0.76117,0.357539 -1.31473,0.380587 -1.63771,0.115341 -3.12542,8e-6 -4.46324,-0.345981 -0.27679,-0.115341 -0.47283,-0.853433 -0.58817,-2.214326 -0.0692,-0.876514 -0.0346,-1.845271 0.1038,-2.906271 0.0922,-0.09225 0.19605,-0.161454 0.31139,-0.207592 0.0692,-0.04614 0.13838,-0.08075 0.20759,-0.103808 0.0462,-0.04614 0.1038,-0.06921 0.17299,-0.06921 m 81.82605,58.022093 4.49781,-2.352731 c 0.0692,0.184527 0.13838,0.369054 0.20758,0.553589 0.71502,1.729947 1.31473,3.552137 1.79911,5.46657 0.16145,0.622767 0.31138,1.26865 0.44977,1.937513 0.0693,0.345982 0.1384,0.715027 0.2076,1.107163 v 0.03458 c 0.11534,0.576629 0.25372,1.545378 0.41519,2.906268 0.0462,0.43824 0.0923,0.9111 0.13839,1.41856 l -8.3385,-1.03792 0.27677,-0.83037 c 0.0693,-0.27679 0.13839,-0.55357 0.2076,-0.83036 0.13839,-0.55357 0.24218,-1.107161 0.3114,-1.6607 0.0231,-0.06924 0.0346,-0.138406 0.0346,-0.207601 0.11534,-0.876514 0.16147,-1.787609 0.13839,-2.733284 -0.0231,-1.222487 -0.13838,-2.479555 -0.34598,-3.771286 M 319.3767,117.89536 c -0.92259,-2.51413 -2.1105,-4.86687 -3.56364,-7.05811 l 30.86174,3.0101 c 1.54538,0.43824 3.01009,0.94567 4.39398,1.52238 3.71363,1.59154 6.74672,3.78278 9.09929,6.57373 v 0.0346 c 3.18308,4.01343 4.47473,9.28427 3.87502,15.81125 l -49.92606,-4.56697 c -0.0231,-1.01492 -0.0462,-2.01826 -0.0692,-3.0101 l 6.36616,-6.15851 c 0.18453,-0.2076 0.29985,-0.42672 0.34598,-0.65738 l 0.0346,-0.13839 v -0.48438 c -0.27679,-1.26865 -0.61123,-2.49114 -1.00334,-3.66746 -0.13839,-0.41518 -0.27677,-0.81883 -0.41518,-1.21099 m 40.51514,14.21971 h 0.0346 c -0.36904,-0.36904 -0.81882,-0.55357 -1.34939,-0.55357 -0.53051,0 -0.98026,0.18452 -1.34931,0.55357 -0.39213,0.36905 -0.58818,0.81882 -0.58818,1.3494 0,0.53051 0.19605,0.98025 0.58818,1.34931 0.36904,0.36904 0.81882,0.55357 1.34931,0.55357 0.50745,0 0.94567,-0.18452 1.31473,-0.55357 h 0.0346 c 0.36904,-0.36905 0.55357,-0.81882 0.55357,-1.34931 -0.0231,-0.53051 -0.21912,-0.98026 -0.58817,-1.3494 m -14.4272,1.45314 c 0.36905,0.36905 0.81882,0.55357 1.3494,0.55357 0.53051,0 0.98025,-0.18452 1.34931,-0.55357 0.36904,-0.36905 0.55357,-0.81882 0.55357,-1.34939 0,-0.53051 -0.18452,-0.98026 -0.55357,-1.3494 -0.36905,-0.36904 -0.81882,-0.55357 -1.34931,-0.55357 -0.53051,0 -0.98026,0.18452 -1.3494,0.55357 -0.36904,0.36905 -0.55357,0.81883 -0.55357,1.3494 0,0.5305 0.18452,0.98025 0.55357,1.34939 m -13.00897,-3.97885 c -0.39213,0.36904 -0.58818,0.80729 -0.58818,1.31473 0,0.5305 0.19605,0.99183 0.58818,1.38397 v -0.0346 c 0.36905,0.36905 0.80729,0.5651 1.31473,0.58816 0.53051,0 0.98034,-0.18452 1.34939,-0.55357 v -0.0346 c 0.36905,-0.36905 0.55358,-0.81882 0.55358,-1.34931 0,-0.50745 -0.18452,-0.94568 -0.55358,-1.31473 -0.36904,-0.39212 -0.81882,-0.58818 -1.34939,-0.58818 -0.50745,0 -0.94568,0.19606 -1.31473,0.58818 m -10.37918,1.31473 c 0.36904,-0.36905 0.5651,-0.8073 0.58818,-1.31473 -0.0231,-0.53051 -0.21914,-0.98026 -0.58818,-1.34931 -0.36905,-0.39212 -0.81882,-0.58817 -1.34931,-0.58817 -0.53051,0 -0.96876,0.19604 -1.31473,0.58817 -0.39213,0.36904 -0.58818,0.81882 -0.58818,1.34931 0,0.53051 0.19605,0.98025 0.58818,1.34939 v -0.0346 c 0.34598,0.36905 0.78423,0.56511 1.31473,0.58817 0.53051,0 0.98025,-0.18453 1.34931,-0.55358 v -0.0346 m 5.18976,-36.88209 10.58749,-5.570396 c 0.0693,0.738109 0.1038,1.453136 0.1038,2.145164 0,0.807295 -0.0577,1.626122 -0.17299,2.456473 v 0.06924 c -0.0923,0.461322 -0.18454,0.934179 -0.27679,1.418559 v -0.0346 c -0.0692,0.16145 -0.14993,0.43824 -0.24219,0.83036 -0.0462,0.0231 -0.0692,0.0692 -0.0692,0.1384 l -0.0692,0.24218 c -0.0231,0.0923 -0.0577,0.21913 -0.1038,0.38057 -0.0231,0.0231 -0.0346,0.0577 -0.0346,0.1038 l -9.89505,-1.31473 v -0.31137 c 0.0692,-0.18453 0.12686,-0.36905 0.173,-0.55359 m -49.96023,6.05477 c 2.28348,0.16146 4.54397,0.31138 6.7813,0.44978 0.11534,0.0231 0.24219,0.0346 0.38058,0.0346 0.48437,0.0231 0.98026,0.0577 1.48772,0.1038 2.60646,0.18451 5.01677,0.44979 7.2311,0.79577 3.04467,0.48438 5.73188,1.13025 8.06153,1.93752 0.7381,0.25373 1.44163,0.51896 2.1105,0.79576 0.69197,0.41519 1.34931,0.85343 1.97209,1.31473 0.96876,0.69198 1.89135,1.44164 2.76787,2.24891 0.7381,0.69198 1.44163,1.44163 2.1105,2.2489 0.5305,0.64584 1.0495,1.32632 1.55696,2.04134 v 0.0346 c 1.17632,1.68379 2.19124,3.44831 3.04467,5.29359 0.25373,0.57663 0.49592,1.15332 0.72658,1.72994 0.27679,0.73811 0.58816,1.69537 0.93418,2.87169 l -38.68112,-3.39065 c -1.77603,-6.02019 -4.42865,-10.35668 -7.95771,-13.00897 -1.10716,-0.83036 -2.29507,-1.48772 -3.56363,-1.9721 -1.56846,0.36905 -3.27533,0.86494 -5.1206,1.48772 -7.72706,2.58338 -17.89859,7.25418 -30.51593,14.01223 -2.05284,1.08408 -4.15184,2.22582 -6.29692,3.42523 1.61462,-1.17632 3.21767,-2.31815 4.80921,-3.42523 8.60348,-5.95095 16.8845,-10.72582 24.84137,-14.32387 3.25225,-1.47622 6.44691,-2.75637 9.58425,-3.84045 1.61462,-0.55357 3.21766,-1.0495 4.8092,-1.48772 1.43005,0.0923 2.84861,0.19606 4.25566,0.31141 1.56846,0.0923 3.12543,0.19605 4.6708,0.3114 m 12.73233,-3.04468 h -0.0346 c -1.72994,-0.23065 -3.56363,-0.41518 -5.50115,-0.55359 h -0.1384 c -0.76116,-0.0692 -1.69537,-0.13839 -2.80245,-0.20758 -0.89959,-0.0692 -1.92601,-0.12686 -3.07926,-0.173 l 0.0693,-3.356071 78.43465,9.514251 0.13839,3.21767 -4.70538,-0.13839 c -1.19941,-0.0462 -2.17975,0.44977 -2.94085,1.48771 l -2.52572,3.07926 -34.32146,-3.52906 h -0.0346 c 0,-0.0231 -0.0115,-0.0346 -0.0346,-0.0346 -0.0922,-0.11534 -0.18454,-0.21913 -0.27679,-0.31139 -0.0462,-0.0462 -0.0807,-0.0923 -0.10379,-0.1384 -0.71502,-0.71502 -1.47622,-1.38398 -2.28349,-2.00668 -0.64583,-0.50744 -1.30323,-0.98026 -1.97218,-1.41855 -1.22248,-0.8073 -2.52571,-1.54538 -3.90969,-2.21433 -0.0692,-0.0231 -0.12685,-0.0346 -0.17298,-0.0346 -2.67563,-1.15324 -6.21626,-2.07592 -10.62167,-2.76787 -1.03791,-0.16145 -2.099,-0.29986 -3.18308,-0.41518 m 0.79576,-25.464662 c 0.94568,3.252244 1.58005,5.997111 1.90294,8.234435 0.18452,1.26865 0.33444,2.433474 0.44978,3.494474 0.0692,0.853433 0.12686,1.649203 0.17299,2.387312 0.0693,1.291731 0.0922,2.860108 0.0693,4.705462 v 0.345981 h -0.0346 l -13.56227,-1.729947 h -0.17299 c -0.0693,-1.291731 -0.173,-2.548799 -0.31139,-3.771286 -0.0231,-0.138389 -0.0346,-0.276786 -0.0346,-0.415184 -0.11535,-0.968757 -0.24219,-1.914432 -0.38059,-2.837109 -0.11534,-0.738109 -0.23065,-1.476217 -0.34599,-2.214326 -0.23066,-1.26865 -0.48437,-2.525717 -0.76117,-3.771202 -0.11534,-0.461322 -0.23065,-0.911095 -0.34599,-1.349311 -1.22248,-4.797705 -2.60646,-9.076784 -4.15183,-12.836488 -0.0231,-0.322925 0.0115,-0.599711 0.1038,-0.830368 0.23065,-0.830368 0.96875,-1.199405 2.21432,-1.107163 l 56.56888,8.130693 c 0.29985,0.2076 0.61123,0.426716 0.93417,0.657381 l -6.95428,4.91303 -31.10422,-4.290245 c -0.69197,0.04615 -1.32631,0.196042 -1.90293,0.449772 -0.8996,0.369046 -1.68379,0.980257 -2.35273,1.833689 m -7.2311,-6.089353 c -0.0231,-0.530508 -0.19606,-0.980256 -0.51898,-1.34931 -0.34598,-0.369046 -0.74962,-0.542041 -1.21098,-0.518976 -0.48437,0 -0.88802,0.196043 -1.21099,0.588162 -0.32292,0.369046 -0.47285,0.818819 -0.44978,1.34931 0,0.530508 0.17299,0.980256 0.51897,1.34931 0.34598,0.345982 0.74964,0.518985 1.21099,0.518985 0.18453,-0.02307 0.35752,-0.05769 0.51898,-0.103801 0.25373,-0.09225 0.48437,-0.25373 0.69197,-0.484386 0.27679,-0.345981 0.42671,-0.749641 0.44978,-1.210905 v -0.138506 m 2.1105,8.33851 v 0.0346 c -0.32292,-0.276795 -0.68042,-0.415184 -1.07258,-0.415184 -0.39213,0.02307 -0.73811,0.172978 -1.03792,0.449773 -0.0462,0.04615 -0.0923,0.1038 -0.1384,0.172995 -0.34598,0.369046 -0.50745,0.807295 -0.48438,1.31473 v 0.103791 c 0.0231,0.484371 0.19606,0.911095 0.51898,1.28015 0.34598,0.345981 0.76116,0.518959 1.24557,0.518959 0.0692,-0.02308 0.14994,-0.03458 0.24219,-0.03458 0.34599,-0.06925 0.65739,-0.25373 0.93418,-0.55359 0.32292,-0.369046 0.48438,-0.818835 0.48438,-1.349393 -0.0231,-0.530508 -0.2076,-0.980256 -0.55358,-1.349311 -0.0462,-0.06922 -0.0922,-0.126856 -0.13838,-0.172986 m -0.4844,10.690824 c -0.16145,0.06924 -0.29985,0.184519 -0.41518,0.345981 -0.34598,0.369046 -0.50745,0.818827 -0.48437,1.34931 0.0231,0.322925 0.0923,0.611227 0.20758,0.864932 0.0922,0.161454 0.2076,0.322916 0.34599,0.484387 l 0.13838,0.138389 c 0.0693,0.06925 0.14995,0.126857 0.24221,0.172986 0.25373,0.13839 0.5305,0.207601 0.83036,0.207601 0.46132,-0.02308 0.86493,-0.219141 1.21099,-0.588187 0.29985,-0.369046 0.44978,-0.807295 0.44978,-1.31473 -0.0231,-0.553573 -0.19606,-1.01492 -0.51898,-1.383974 -0.34598,-0.369046 -0.76116,-0.542049 -1.24557,-0.518976 -0.27679,0 -0.53051,0.08074 -0.76116,0.242189 m 32.10747,-4.77454 c -0.66892,0.853433 -2.20283,5.282084 -4.60164,13.285619 l -13.45894,-1.55696 c 0.1384,-0.25373 0.26525,-0.48437 0.38058,-0.691971 1.38397,-2.790946 1.98368,-5.835623 1.79911,-9.13428 -0.18453,-2.721785 -1.30323,-5.478068 -3.35607,-8.269098 0.1384,-0.09225 0.27679,-0.138389 0.41518,-0.138389 h 0.0346 l 23.59648,3.183083 -4.80921,3.321488 M 275.4733,55.546522 c -3.41373,-0.230648 -6.71214,0.334441 -9.89505,1.695367 -0.83037,0.345981 -1.63771,0.71501 -2.42189,1.107162 -1.47622,0.715027 -2.95244,1.430054 -4.42866,2.145165 -1.29164,0.645832 -2.58338,1.291731 -3.87502,1.937514 -0.2076,0.09225 -0.73811,0.380586 -1.59154,0.864931 -0.76117,-1.245568 -1.92602,-3.136919 -3.49448,-5.674219 l 3.1485,1.972095 c 0.11534,-2.444974 0.1038,-4.232583 -0.0346,-5.362828 -0.16145,-1.130244 -0.31139,-2.31815 -0.44979,-3.563635 -0.16145,-1.245569 -0.5997,-2.894772 -1.31473,-4.94761 l 3.90961,-0.588179 c 0.11534,0.161454 0.24219,0.322933 0.38059,0.484387 0.39212,0.507451 0.84193,0.980256 1.34939,1.418555 0.39212,0.369045 0.81882,0.703511 1.28015,1.003337 0.96876,0.715027 2.01826,1.303231 3.1485,1.764528 1.59154,0.622767 3.24075,0.922594 4.94761,0.899596 1.77603,0 3.34457,-0.553582 4.70547,-1.660703 l 1.03791,-2.041339 c 1.03792,0.230648 2.02984,0.599719 2.97544,1.107163 -0.0693,1.314729 -0.0231,2.906271 0.13838,4.774623 l 0.55358,2.698704 h -0.0693 v -0.0346 m 87.9514,-1.764528 c 0.0693,1.037919 0.23065,2.029757 0.48438,2.975433 0.29985,1.130244 0.74965,2.202743 1.3494,3.217663 v 0.0346 l -45.70473,27.816974 c -0.0462,-0.09225 -0.0923,-0.196059 -0.1384,-0.311392 -0.18453,-0.530508 -0.29985,-1.09558 -0.34598,-1.695366 -0.0231,-0.345981 -0.0231,-0.68043 0,-1.003338 l 0.0692,-0.415192 c 0.16146,-0.968757 0.57665,-1.833689 1.24557,-2.594879 0.34598,-0.392119 0.72657,-0.715027 1.14174,-0.968757 0.0231,-0.02308 0.0462,-0.03458 0.0693,-0.03458 l 41.8642,-29.028546 c -0.0693,0.645833 -0.0808,1.31473 -0.0346,2.006759 m 33.83733,92.409383 -8.61515,-0.51898 c -0.18453,-0.0231 -0.34599,0.0231 -0.48438,0.13839 -0.1384,0.11534 -0.21914,0.26526 -0.24219,0.44977 -0.0231,0.0923 -0.0346,0.18453 -0.0346,0.27679 v 0.0346 c -0.0693,0.8996 -0.13838,1.82219 -0.20759,2.76787 -0.0231,0.18451 0.0346,0.35752 0.17299,0.51896 0.11534,0.13839 0.27677,0.2076 0.48437,0.2076 l 8.85764,0.58817 c -0.18453,4.56697 -0.71503,9.09928 -1.59155,13.59726 -0.0462,-0.0231 -0.0807,-0.0346 -0.1038,-0.0346 l -9.58341,-0.51898 c -0.16145,-0.0231 -0.3114,0.0231 -0.44978,0.13839 -0.1384,0.0692 -0.23064,0.18453 -0.27678,0.34598 -0.0462,0.23065 -0.0923,0.46132 -0.13839,0.69198 -0.0231,0 -0.0346,0.0115 -0.0346,0.0346 -0.20761,0.76117 -0.40365,1.53388 -0.58817,2.31815 -0.0462,0.1384 -0.0462,0.26526 0,0.38059 0.0462,0.1384 0.12685,0.25373 0.24219,0.34598 0.0922,0.0692 0.21913,0.11534 0.38058,0.1384 l 9.51425,0.55357 c -1.08408,4.198 -2.49114,8.2691 -4.221,12.2132 -0.0692,-0.0231 -0.1384,-0.0346 -0.20758,-0.0346 l -9.86089,-0.44977 c -0.16146,-0.0231 -0.29985,-1e-5 -0.41519,0.0692 -0.11534,0.0692 -0.19606,0.173 -0.24219,0.3114 -0.0923,0.18452 -0.18454,0.38058 -0.27679,0.58818 v 0.0346 c -0.0692,0.0693 -0.1038,0.14994 -0.1038,0.24219 l -0.0346,0.0346 c -0.0231,0.0462 -0.0577,0.11534 -0.1038,0.20759 -0.29985,0.62277 -0.59972,1.24557 -0.8996,1.86835 -0.0692,0.1384 -0.0923,0.28833 -0.0692,0.44978 0.0231,0.1384 0.1038,0.26526 0.24219,0.38058 0.11534,0.0923 0.25372,0.14993 0.41519,0.17298 l 9.48009,0.44978 -0.48437,0.96876 c -0.69197,1.26865 -1.41856,2.52571 -2.17975,3.77128 -1.38397,2.26049 -2.89477,4.39399 -4.53239,6.40075 -0.1384,-0.11534 -0.27679,-0.17298 -0.41519,-0.17298 l -9.75673,-0.1384 c -0.11534,0 -0.21913,0.0231 -0.31139,0.0692 -0.0923,0.0231 -0.17299,0.0807 -0.24219,0.17297 -0.55358,0.69198 -1.11866,1.39548 -1.69536,2.11051 -0.0231,0 -0.0346,0.0231 -0.0346,0.0692 h -0.0346 c -0.25373,0.27679 -0.49591,0.55358 -0.72656,0.83036 -0.1384,0.1384 -0.19605,0.29986 -0.17299,0.48438 0,0.18452 0.0692,0.34597 0.20759,0.48437 0.1384,0.11534 0.29985,0.173 0.48438,0.173 l 8.78764,0.13838 c -2.42189,2.30657 -5.07443,4.39407 -7.95771,6.26234 h -26.1221 l 4.01343,-3.59822 4.04802,-4.39398 c 3.64437,-4.31333 6.71213,-9.01846 9.20344,-14.11639 0.23065,-0.50744 0.47283,-1.02642 0.72657,-1.55696 2.51414,-5.259 4.47473,-10.72582 5.88179,-16.39954 0.1384,-0.57664 0.27679,-1.15324 0.41519,-1.72995 1.63771,-6.87362 2.58338,-13.82807 2.83711,-20.86335 v -0.3114 c 0.0693,-2.32964 0.0346,-4.65929 -0.1038,-6.98894 l 26.77956,2.45647 c 0.16145,1.47622 0.26526,2.98701 0.3114,4.53239 0.0231,0.2076 0.0346,0.43824 0.0346,0.69198 0.0231,0.55357 0.0346,1.10716 0.0346,1.6607 m -3.77129,-30.82757 c 2.65254,1.89135 5.05144,4.5209 7.19652,7.88846 1.43005,2.26049 2.7102,4.61314 3.84045,7.05811 l -31.06922,-2.97543 c -0.73811,-4.75154 -2.69871,-8.74181 -5.88179,-11.97072 -2.19124,-2.21433 -4.93603,-4.0596 -8.23443,-5.53573 -0.18453,-0.0923 -0.36905,-0.173 -0.55358,-0.24219 -0.1384,-0.0462 -0.26526,-0.0922 -0.38058,-0.13839 h 0.58819 c 0.16146,0 0.32292,0.0115 0.48437,0.0346 12.04072,0.53051 21.58913,1.59154 28.64774,3.18308 1.89136,0.59972 3.67896,1.4993 5.36275,2.69871 m 16.67618,-85.459931 c 0.64584,0.715035 1.23407,1.453135 1.76453,2.214325 1.68379,2.560299 2.47956,5.443571 2.38731,8.649319 -0.13839,4.128758 -1.72994,7.600151 -4.77462,10.414179 -1.59154,1.453135 -3.34457,2.514135 -5.259,3.183082 -0.0231,0 -0.0462,0.01154 -0.0692,0.03461 -0.0231,0 -0.0346,0.01153 -0.0346,0.03461 -1.72994,0.553573 -3.56363,0.78423 -5.50115,0.69197 -2.88319,-0.138389 -5.43199,-0.945675 -7.64631,-2.421892 -0.0462,-0.02307 -0.0807,-0.0346 -0.10379,-0.0346 -0.18453,-0.13839 -0.35753,-0.265263 -0.51899,-0.380587 -0.11534,-0.09225 -0.21913,-0.161454 -0.31138,-0.207584 -0.73811,-0.576629 -1.43005,-1.210904 -2.07592,-1.902933 -0.69197,-0.761165 -1.29165,-1.545378 -1.79911,-2.352731 -0.85343,-1.31473 -1.46463,-2.710203 -1.83369,-4.18642 -0.23065,-1.107163 -0.36904,-2.168163 -0.41518,-3.183083 -0.0462,-1.01492 -0.0577,-1.637704 -0.0346,-1.868353 -1.061,2.006759 -1.5108,3.93269 -1.3494,5.777962 l -16.71118,11.45243 c -0.16145,-0.691978 -0.26525,-1.406972 -0.31138,-2.145081 v -0.0346 c -0.0462,-0.738108 -0.0346,-1.441636 0.0346,-2.1105 0.0692,-0.622768 0.18453,-1.210988 0.34599,-1.764528 l 0.0346,-0.0346 v -0.03461 h 0.0346 v -0.06922 c 0.16145,-0.576629 0.36904,-1.141743 0.62277,-1.695366 0.46132,-0.945675 1.07258,-1.845271 1.83369,-2.698704 0.0692,-0.115332 0.14993,-0.207592 0.24218,-0.276778 l 4.15184,-3.529055 c 4.47473,-3.875028 9.16845,-7.750056 14.08139,-11.624917 l 3.35607,-2.491137 c 2.74479,-1.729947 5.82413,-2.514135 9.23761,-2.352731 4.198,0.2076 7.73855,1.85677 10.62166,4.94761 m -5.53581,-1.660786 c -0.25373,-0.115341 -0.51898,-0.219133 -0.79578,-0.311384 -1.061,-0.345989 -2.19125,-0.542041 -3.39065,-0.58817 -3.41373,-0.161471 -6.35458,0.899596 -8.82264,3.183082 -2.49114,2.283487 -3.78278,5.120597 -3.87503,8.510996 -0.0462,1.222487 0.0693,2.387312 0.346,3.494475 0.32292,1.222487 0.83035,2.375812 1.5223,3.459894 l 0.0346,0.0346 0.0692,0.06922 c 0.39213,0.599711 0.84194,1.176324 1.3494,1.729947 v 0.03461 l 0.48437,0.484387 h 0.0346 c 0.85343,0.853433 1.7991,1.556961 2.83711,2.1105 1.56845,0.830368 3.32148,1.291732 5.259,1.383975 3.41373,0.161454 6.35458,-0.899596 8.82264,-3.183083 1.59154,-1.476217 2.51413,-2.767865 2.76786,-3.875028 l -14.39303,4.221001 c -0.8073,-0.299851 -1.55696,-0.691979 -2.24891,-1.176324 l 17.7836,-8.407671 c 0.0231,0.115341 0.0346,0 0.0346,-0.345989 -0.0231,-1.683784 -0.35753,-2.894772 -1.00334,-3.63288 l -18.61436,10.759985 c -0.99184,-1.107163 -1.68379,-2.341149 -2.07592,-3.702042 l 13.77058,-12.732329 c 0.66891,-0.09225 1.68378,0.138389 3.04468,0.691962 0.13839,0.04614 0.28833,0.115341 0.44979,0.2076 -0.8073,-0.945675 -1.93752,-1.753028 -3.39065,-2.421892 z"
         fill="#ffffff"
         id="path8"
         style="stroke-width:0.833268" />
    </g>
  </g>
  <rect
     style="fill:#000000;stroke:#000000;stroke-width:3.75737;stroke-linecap:square;stroke-linejoin:round;stroke-dasharray:none;stroke-opacity:1;paint-order:stroke fill markers;stop-color:#000000"
     id="rect1046"
     width="596.24268"
     height="89.401817"
     x="30.361906"
     y="214.79738" />
  <g
     id="g1384">
    <g
       aria-label="NEWGROUNDS
AUDIO PORTAL"
       id="text301"
       style="font-size:40px;line-height:1.25;letter-spacing:0px;word-spacing:0px;fill:#ffffff">
      <g
         id="g1396"
         transform="translate(4.859995,8)">
        <path
           d="m 237.15594,247.04363 q 0,0.56 -0.56,0.56 h -3.88 q -0.56,0 -0.56,-0.56 v -23.68 q 0,-0.92 -0.92,-0.92 h -3.2 q -0.92,0 -0.92,0.92 v 23.68 q 0,0.56 -0.56,0.56 h -3.88 q -0.56,0 -0.56,-0.56 v -23.72 q 0,-2.48 1.72,-4.2 1.72,-1.72 4.2,-1.72 h 3.2 q 2.48,0 4.2,1.72 1.72,1.72 1.72,4.2 z"
           style="font-family:TekutekuAL;-inkscape-font-specification:'TekutekuAL, Normal'"
           id="path1077" />
        <path
           d="m 256.99595,247.04363 q 0,0.56 -0.56,0.56 h -8.56 q -2.48,0 -4.2,-1.72 -1.72,-1.72 -1.72,-4.2 v -18.36 q 0,-2.48 1.72,-4.2 1.72,-1.72 4.2,-1.72 h 8.56 q 0.56,0 0.56,0.56 v 3.88 q 0,0.56 -0.56,0.56 h -8.56 q -0.92,0 -0.92,0.92 v 6.12 q 0,0.56 0.56,0.56 h 8.92 q 0.56,0 0.56,0.56 v 3.88 q 0,0.6 -0.56,0.6 h -8.92 q -0.56,0 -0.56,0.56 v 6.08 q 0,0.92 0.92,0.92 h 8.56 q 0.56,0 0.56,0.56 z"
           style="font-family:TekutekuAL;-inkscape-font-specification:'TekutekuAL, Normal'"
           id="path1079" />
        <path
           d="m 286.99597,241.68363 q 0,2.44 -1.76,4.2 -1.72,1.72 -4.16,1.72 h -3.24 q -1.56,0 -2.92,-0.8 -0.48,-0.28 -0.96,0 -1.4,0.8 -2.92,0.8 h -3.24 q -2.44,0 -4.2,-1.72 -1.72,-1.76 -1.72,-4.2 v -23.72 q 0,-0.6 0.56,-0.6 h 3.88 q 0.6,0 0.6,0.6 v 23.72 q 0,0.92 0.88,0.92 h 3.24 q 0.88,0 0.88,-0.88 v -23.76 q 0,-0.6 0.56,-0.6 h 3.92 q 0.56,0 0.56,0.6 v 23.76 q 0,0.88 0.88,0.88 h 3.24 q 0.88,0 0.88,-0.92 v -23.72 q 0,-0.6 0.6,-0.6 h 3.88 q 0.56,0 0.56,0.6 z"
           style="font-family:TekutekuAL;-inkscape-font-specification:'TekutekuAL, Normal'"
           id="path1081" />
        <path
           d="m 306.916,241.68363 q 0,2.44 -1.76,4.2 -1.72,1.72 -4.16,1.72 h -3.2 q -2.44,0 -4.2,-1.72 -1.72,-1.76 -1.72,-4.2 v -18.36 q 0,-2.44 1.72,-4.16 1.76,-1.76 4.2,-1.76 h 3.2 q 2.44,0 4.16,1.76 1.76,1.72 1.76,4.16 v 3.6 q 0,0.56 -0.56,0.56 h -3.88 q -0.56,0 -0.56,-0.56 v -3.56 q 0,-0.92 -0.92,-0.92 h -3.2 q -0.92,0 -0.92,0.92 v 18.32 q 0,0.92 0.92,0.92 h 3.2 q 0.92,0 0.92,-0.92 v -3.52 q 0,-0.6 -0.56,-0.6 h -1.36 q -0.56,0 -0.56,-0.56 v -3.88 q 0,-0.56 0.56,-0.56 h 6.36 q 0.56,0 0.56,0.56 z"
           style="font-family:TekutekuAL;-inkscape-font-specification:'TekutekuAL, Normal'"
           id="path1083" />
        <path
           d="m 326.79601,229.12363 q 0,1.88 -1.12,3.44 -1.08,1.52 -2.84,2.12 -0.24,0.12 -0.24,0.36 -0.04,0.24 0.16,0.36 l 0.6,0.44 q 3.4,2.48 3.4,6.52 v 4.68 q 0,0.56 -0.56,0.56 h -3.88 q -0.56,0 -0.56,-0.56 v -4.68 q 0,-1.48 -1.28,-2.4 l -3.12,-2.2 q -0.24,-0.16 -0.44,-0.04 -0.2,0.12 -0.2,0.36 v 8.92 q 0,0.6 -0.56,0.6 h -3.92 q -0.56,0 -0.56,-0.6 v -29.04 q 0,-0.56 0.56,-0.56 h 8.64 q 2.44,0 4.16,1.76 1.76,1.72 1.76,4.16 z m -5.04,0 v -5.8 q 0,-0.92 -0.88,-0.92 h -3.6 q -0.56,0 -0.56,0.6 v 6.44 q 0,0.56 0.56,0.56 h 3.6 q 0.88,0 0.88,-0.88 z"
           style="font-family:TekutekuAL;-inkscape-font-specification:'TekutekuAL, Normal'"
           id="path1085" />
        <path
           d="m 346.59602,241.68363 q 0,2.44 -1.76,4.2 -1.72,1.72 -4.16,1.72 h -3.2 q -2.44,0 -4.2,-1.72 -1.72,-1.76 -1.72,-4.2 v -18.36 q 0,-2.44 1.72,-4.16 1.76,-1.76 4.2,-1.76 h 3.2 q 2.44,0 4.16,1.76 1.76,1.72 1.76,4.16 z m -5,0 v -18.36 q 0,-0.88 -0.92,-0.88 h -3.2 q -0.92,0 -0.92,0.88 v 18.36 q 0,0.92 0.92,0.92 h 3.2 q 0.92,0 0.92,-0.92 z"
           style="font-family:TekutekuAL;-inkscape-font-specification:'TekutekuAL, Normal'"
           id="path1087" />
        <path
           d="m 366.43603,241.68363 q 0,2.44 -1.76,4.2 -1.72,1.72 -4.16,1.72 h -3.2 q -2.44,0 -4.2,-1.72 -1.72,-1.76 -1.72,-4.2 v -23.72 q 0,-0.56 0.56,-0.56 h 3.88 q 0.56,0 0.56,0.56 v 23.72 q 0,0.92 0.92,0.92 h 3.2 q 0.92,0 0.92,-0.92 v -23.72 q 0,-0.56 0.56,-0.56 h 3.88 q 0.56,0 0.56,0.56 z"
           style="font-family:TekutekuAL;-inkscape-font-specification:'TekutekuAL, Normal'"
           id="path1089" />
        <path
           d="m 386.27604,247.04363 q 0,0.56 -0.56,0.56 h -3.88 q -0.56,0 -0.56,-0.56 v -23.68 q 0,-0.92 -0.92,-0.92 h -3.2 q -0.92,0 -0.92,0.92 v 23.68 q 0,0.56 -0.56,0.56 h -3.88 q -0.56,0 -0.56,-0.56 v -23.72 q 0,-2.48 1.72,-4.2 1.72,-1.72 4.2,-1.72 h 3.2 q 2.48,0 4.2,1.72 1.72,1.72 1.72,4.2 z"
           style="font-family:TekutekuAL;-inkscape-font-specification:'TekutekuAL, Normal'"
           id="path1091" />
        <path
           d="m 406.11606,241.68363 q 0,2.44 -1.76,4.2 -1.72,1.72 -4.16,1.72 h -8.56 q -0.56,0 -0.56,-0.56 v -29.08 q 0,-0.56 0.56,-0.56 h 8.56 q 2.44,0 4.16,1.76 1.76,1.72 1.76,4.16 z m -5,0 v -18.32 q 0,-0.92 -0.92,-0.92 h -3.56 q -0.56,0 -0.56,0.6 v 18.96 q 0,0.6 0.56,0.6 h 3.56 q 0.92,0 0.92,-0.92 z"
           style="font-family:TekutekuAL;-inkscape-font-specification:'TekutekuAL, Normal'"
           id="path1093" />
        <path
           d="m 425.99607,221.88363 q 0,0.56 -0.56,0.56 h -8.64 q -0.92,0 -0.92,0.88 v 5.84 q 0,0.88 0.92,0.88 h 3.28 q 2.48,0 4.2,1.76 1.72,1.72 1.72,4.2 v 5.68 q 0,2.44 -1.76,4.2 -1.72,1.72 -4.16,1.72 h -8.6 q -0.6,0 -0.6,-0.56 v -3.88 q 0,-0.56 0.6,-0.56 h 8.6 q 0.88,0 0.88,-0.92 v -5.68 q 0,-0.92 -0.88,-0.92 h -3.28 q -2.44,0 -4.2,-1.72 -1.72,-1.76 -1.72,-4.2 v -5.84 q 0,-2.44 1.72,-4.16 1.76,-1.76 4.2,-1.76 h 8.64 q 0.56,0 0.56,0.56 z"
           style="font-family:TekutekuAL;-inkscape-font-specification:'TekutekuAL, Normal'"
           id="path1095" />
      </g>
      <g
         id="g1251"
         transform="translate(0,-10)">
        <path
           d="m 237.15594,298.20676 q 0,0.56 -0.56,0.56 h -3.88 q -0.56,0 -0.56,-0.56 v -11.44 q 0,-0.56 -0.6,-0.56 h -3.84 q -0.6,0 -0.6,0.56 v 11.44 q 0,0.56 -0.56,0.56 h -3.88 q -0.56,0 -0.56,-0.56 v -23.72 q 0,-2.44 1.72,-4.16 1.76,-1.76 4.2,-1.76 h 3.2 q 2.44,0 4.16,1.76 1.76,1.72 1.76,4.16 z m -5,-17.6 v -6.08 q 0,-0.92 -0.92,-0.92 h -3.2 q -0.92,0 -0.92,0.92 v 6.08 q 0,0.56 0.6,0.56 h 3.84 q 0.6,0 0.6,-0.56 z"
           style="font-family:TekutekuAL;-inkscape-font-specification:'TekutekuAL, Normal'"
           id="path1097" />
        <path
           d="m 256.99595,292.84676 q 0,2.44 -1.76,4.2 -1.72,1.72 -4.16,1.72 h -3.2 q -2.44,0 -4.2,-1.72 -1.72,-1.76 -1.72,-4.2 v -23.72 q 0,-0.56 0.56,-0.56 h 3.88 q 0.56,0 0.56,0.56 v 23.72 q 0,0.92 0.92,0.92 h 3.2 q 0.92,0 0.92,-0.92 v -23.72 q 0,-0.56 0.56,-0.56 h 3.88 q 0.56,0 0.56,0.56 z"
           style="font-family:TekutekuAL;-inkscape-font-specification:'TekutekuAL, Normal'"
           id="path1099" />
        <path
           d="m 276.83597,292.84676 q 0,2.44 -1.76,4.2 -1.72,1.72 -4.16,1.72 h -8.56 q -0.56,0 -0.56,-0.56 v -29.08 q 0,-0.56 0.56,-0.56 h 8.56 q 2.44,0 4.16,1.76 1.76,1.72 1.76,4.16 z m -5,0 v -18.32 q 0,-0.92 -0.92,-0.92 h -3.56 q -0.56,0 -0.56,0.6 v 18.96 q 0,0.6 0.56,0.6 h 3.56 q 0.92,0 0.92,-0.92 z"
           style="font-family:TekutekuAL;-inkscape-font-specification:'TekutekuAL, Normal'"
           id="path1101" />
        <path
           d="m 286.75598,298.20676 q 0,0.56 -0.6,0.56 h -3.88 q -0.56,0 -0.56,-0.56 v -29.08 q 0,-0.56 0.56,-0.56 h 3.88 q 0.6,0 0.6,0.56 z"
           style="font-family:TekutekuAL;-inkscape-font-specification:'TekutekuAL, Normal'"
           id="path1103" />
        <path
           d="m 306.67598,292.84676 q 0,2.44 -1.76,4.2 -1.72,1.72 -4.16,1.72 h -3.2 q -2.44,0 -4.2,-1.72 -1.72,-1.76 -1.72,-4.2 v -18.36 q 0,-2.44 1.72,-4.16 1.76,-1.76 4.2,-1.76 h 3.2 q 2.44,0 4.16,1.76 1.76,1.72 1.76,4.16 z m -5,0 v -18.36 q 0,-0.88 -0.92,-0.88 h -3.2 q -0.92,0 -0.92,0.88 v 18.36 q 0,0.92 0.92,0.92 h 3.2 q 0.92,0 0.92,-0.92 z"
           style="font-family:TekutekuAL;-inkscape-font-specification:'TekutekuAL, Normal'"
           id="path1105" />
        <path
           d="m 336.55599,280.28676 q 0,2.48 -1.72,4.2 -1.72,1.72 -4.2,1.72 h -3.6 q -0.56,0 -0.56,0.6 v 11.4 q 0,0.56 -0.6,0.56 h -3.88 q -0.56,0 -0.56,-0.56 v -29.04 q 0,-0.6 0.56,-0.6 h 8.64 q 2.48,0 4.2,1.76 1.72,1.72 1.72,4.2 z m -5.04,0 v -5.76 q 0,-0.92 -0.88,-0.92 h -3.6 q -0.56,0 -0.56,0.56 v 6.48 q 0,0.56 0.56,0.56 h 3.6 q 0.88,0 0.88,-0.92 z"
           style="font-family:TekutekuAL;-inkscape-font-specification:'TekutekuAL, Normal'"
           id="path1107" />
        <path
           d="m 356.356,292.84676 q 0,2.44 -1.76,4.2 -1.72,1.72 -4.16,1.72 h -3.2 q -2.44,0 -4.2,-1.72 -1.72,-1.76 -1.72,-4.2 v -18.36 q 0,-2.44 1.72,-4.16 1.76,-1.76 4.2,-1.76 h 3.2 q 2.44,0 4.16,1.76 1.76,1.72 1.76,4.16 z m -5,0 v -18.36 q 0,-0.88 -0.92,-0.88 h -3.2 q -0.92,0 -0.92,0.88 v 18.36 q 0,0.92 0.92,0.92 h 3.2 q 0.92,0 0.92,-0.92 z"
           style="font-family:TekutekuAL;-inkscape-font-specification:'TekutekuAL, Normal'"
           id="path1109" />
        <path
           d="m 376.23601,280.28676 q 0,1.88 -1.12,3.44 -1.08,1.52 -2.84,2.12 -0.24,0.12 -0.24,0.36 -0.04,0.24 0.16,0.36 l 0.6,0.44 q 3.4,2.48 3.4,6.52 v 4.68 q 0,0.56 -0.56,0.56 h -3.88 q -0.56,0 -0.56,-0.56 v -4.68 q 0,-1.48 -1.28,-2.4 l -3.12,-2.2 q -0.24,-0.16 -0.44,-0.04 -0.2,0.12 -0.2,0.36 v 8.92 q 0,0.6 -0.56,0.6 h -3.92 q -0.56,0 -0.56,-0.6 v -29.04 q 0,-0.56 0.56,-0.56 h 8.64 q 2.44,0 4.16,1.76 1.76,1.72 1.76,4.16 z m -5.04,0 v -5.8 q 0,-0.92 -0.88,-0.92 h -3.6 q -0.56,0 -0.56,0.6 v 6.44 q 0,0.56 0.56,0.56 h 3.6 q 0.88,0 0.88,-0.88 z"
           style="font-family:TekutekuAL;-inkscape-font-specification:'TekutekuAL, Normal'"
           id="path1111" />
        <path
           d="m 396.03602,273.00676 q 0,0.56 -0.56,0.56 h -3.88 q -0.56,0 -0.56,0.6 v 24.04 q 0,0.56 -0.56,0.56 h -3.92 q -0.56,0 -0.56,-0.56 v -24.04 q 0,-0.6 -0.56,-0.6 h -3.88 q -0.56,0 -0.56,-0.56 v -3.88 q 0,-0.56 0.56,-0.56 h 13.92 q 0.56,0 0.56,0.56 z"
           style="font-family:TekutekuAL;-inkscape-font-specification:'TekutekuAL, Normal'"
           id="path1113" />
        <path
           d="m 415.87604,298.20676 q 0,0.56 -0.56,0.56 h -3.88 q -0.56,0 -0.56,-0.56 v -11.44 q 0,-0.56 -0.6,-0.56 h -3.84 q -0.6,0 -0.6,0.56 v 11.44 q 0,0.56 -0.56,0.56 h -3.88 q -0.56,0 -0.56,-0.56 v -23.72 q 0,-2.44 1.72,-4.16 1.76,-1.76 4.2,-1.76 h 3.2 q 2.44,0 4.16,1.76 1.76,1.72 1.76,4.16 z m -5,-17.6 v -6.08 q 0,-0.92 -0.92,-0.92 h -3.2 q -0.92,0 -0.92,0.92 v 6.08 q 0,0.56 0.6,0.56 h 3.84 q 0.6,0 0.6,-0.56 z"
           style="font-family:TekutekuAL;-inkscape-font-specification:'TekutekuAL, Normal'"
           id="path1115" />
        <path
           d="m 435.71605,298.20676 q 0,0.56 -0.56,0.56 h -8.56 q -2.48,0 -4.2,-1.72 -1.72,-1.72 -1.72,-4.2 v -23.72 q 0,-0.56 0.56,-0.56 h 3.88 q 0.56,0 0.56,0.56 v 23.72 q 0,0.92 0.92,0.92 h 8.56 q 0.56,0 0.56,0.56 z"
           style="font-family:TekutekuAL;-inkscape-font-specification:'TekutekuAL, Normal'"
           id="path1117" />
      </g>
    </g>
  </g>
</svg>
