<?xml version="1.0" encoding="UTF-8" standalone="no"?>
<svg
   xmlns:dc="http://purl.org/dc/elements/1.1/"
   xmlns:cc="http://creativecommons.org/ns#"
   xmlns:rdf="http://www.w3.org/1999/02/22-rdf-syntax-ns#"
   xmlns:svg="http://www.w3.org/2000/svg"
   xmlns="http://www.w3.org/2000/svg"
   xmlns:sodipodi="http://sodipodi.sourceforge.net/DTD/sodipodi-0.dtd"
   xmlns:inkscape="http://www.inkscape.org/namespaces/inkscape"
   width="20.480265"
   height="20.484032"
   version="1.1"
   viewBox="0 0 20.480266 20.484033"
   id="svg539"
   sodipodi:docname="numpad-beveled-left.svg"
   inkscape:version="1.0.2 (e86c870879, 2021-01-15)">
  <rect
     style="fill:#ffffff;fill-opacity:0.9;stroke-width:0.999984"
     id="rect3965"
     width="15.359664"
     height="5.1199951"
     x="4.399996e-05"
     y="15.364038" />
  <rect
     style="fill:#ffffff;fill-opacity:1;stroke-width:2.00005"
     id="rect3826"
     width="20.479965"
     height="20.480007"
     x="1.4606372e-15"
     y="0.0039929999" />
  <path
     d="m 5.4206128,10.544011 4.549982,-10e-7 -0.02311,4.49425 -4.5268811,0.0058 z"
     fill="#999999"
     fill-opacity="0.9"
     id="path493-0"
     style="stroke-width:0.50001;fill:#666666;fill-opacity:1" />
  <path
     d="m 10.240506,15.364006 1.09e-4,-5.12 -0.2700112,0.3 -0.02311,4.49425 -4.5268811,0.0058 -0.300012,0.32 z"
     fill="#5d6069"
     stroke-width="0.108257"
     id="path495-1"
     style="fill:#666666" />
  <path
     d="m 5.1206008,10.244011 0.300012,0.3 v 4.5 l -0.300012,0.32 z m 0,0 h 5.1202052 l -0.2700112,0.3 -4.549982,1e-6 z"
     id="path499-7"
     style="fill:#dcdee5;stroke-width:0.50001" />
  <path
     d="m 9.1056972,11.922761 h -2.850164 c -0.1541762,0 -0.2319893,0.18731 -0.1224749,0.29538 l 1.425057,1.41635 c 0.067723,0.06772 0.175797,0.06772 0.2435097,0 l 1.425057,-1.41635 c 0.1109495,-0.108065 0.033144,-0.29538 -0.1210398,-0.29538 z"
     stroke-width="0.0144088"
     id="path505" />
  <path
     d="m 0.300012,5.4240105 4.549982,-1.4e-6 -0.02311,4.49425 -4.5268811,0.00577 z"
     fill="#999999"
     fill-opacity="0.9"
     id="path509"
     style="stroke-width:0.50001;fill:#999999;fill-opacity:1" />
  <path
     d="m 5.1199048,10.244005 1.09e-4,-5.12 -0.2700108,0.3 -0.02311,4.49425 L 0.30001193,9.924025 3e-8,10.244028 Z"
     fill="#5d6069"
     stroke-width="0.108257"
     id="path511"
     style="fill:#666666" />
  <path
     d="m 0,5.1240105 0.300012,0.3 v 4.5 L 0,10.244011 Z m 0,0 h 5.1202048 l -0.2700108,0.3 -4.54998199,1.4e-6 z"
     id="path515"
     style="fill:#dcdee5;stroke-width:0.50001" />
  <path
     d="m 3.4408376,9.1093105 v -2.85015 c 0,-0.154175 -0.1873125,-0.231985 -0.2953768,-0.122475 l -1.4163566,1.42505 c -0.067723,0.067725 -0.067723,0.175795 0,0.24351 l 1.4163566,1.42505 c 0.1080693,0.11095 0.2953768,0.033144 0.2953768,-0.12104 z"
     stroke-width="0.0144088"
     id="path521" />
  <path
     d="m 10.540518,5.423983 4.549982,-1.4e-6 -0.02311,4.49425 -4.526881,0.00577 z"
     fill="#999999"
     fill-opacity="0.9"
     id="path523"
     style="stroke-width:0.50001;fill:#666666;fill-opacity:1" />
  <path
     d="m 15.36041,10.243978 1.09e-4,-5.12 -0.27001,0.3 -0.02311,4.49425 -4.526881,0.00577 -0.300012,0.320001 z"
     fill="#5d6069"
     stroke-width="0.108257"
     id="path525" />
  <path
     d="m 10.240506,5.123983 0.300012,0.3 v 4.5 l -0.300012,0.32 z m 0,0 h 5.120205 l -0.270011,0.3 -4.549982,1.4e-6 z"
     id="path529"
     style="fill:#dcdee5;stroke-width:0.50001" />
  <path
     d="m 11.919023,6.258683 v 2.85015 c 0,0.154175 0.187313,0.231985 0.295377,0.122475 l 1.416357,-1.42505 c 0.06772,-0.067725 0.06772,-0.175795 0,-0.24351 L 12.2144,6.137698 c -0.108069,-0.11095 -0.295377,-0.033141 -0.295377,0.12104 z"
     stroke-width="0.0144088"
     id="path535" />
  <defs
     id="defs543" />
  <sodipodi:namedview
     pagecolor="#ffffff"
     bordercolor="#666666"
     borderopacity="1"
     objecttolerance="10"
     gridtolerance="10"
     guidetolerance="10"
     inkscape:pageopacity="0"
     inkscape:pageshadow="2"
     inkscape:window-width="1920"
     inkscape:window-height="1026"
     id="namedview541"
     showgrid="false"
     inkscape:zoom="32"
     inkscape:cx="10.722806"
     inkscape:cy="6.0239619"
     inkscape:window-x="1050"
     inkscape:window-y="31"
     inkscape:window-maximized="1"
     inkscape:current-layer="svg539"
     inkscape:document-rotation="0"
     fit-margin-top="0"
     fit-margin-left="0"
     fit-margin-right="0"
     fit-margin-bottom="0"
     showguides="true"
     inkscape:guide-bbox="true">
    <sodipodi:guide
       position="15.09015,9.9400231"
       orientation="0,-1"
       id="guide1807" />
    <sodipodi:guide
       position="15.660373,10.560022"
       orientation="1,0"
       id="guide1809" />
  </sodipodi:namedview>
  <metadata
     id="metadata475">
    <rdf:RDF>
      <cc:Work
         rdf:about="">
        <dc:format>image/svg+xml</dc:format>
        <dc:type
           rdf:resource="http://purl.org/dc/dcmitype/StillImage" />
        <dc:title />
      </cc:Work>
    </rdf:RDF>
  </metadata>
  <path
     d="m 5.4202164,0.303993 4.549982,-1.38e-6 -0.02311,4.49424998 -4.5268811,0.00577 z"
     fill="#999999"
     fill-opacity="0.9"
     id="path477"
     style="stroke-width:0.50001;fill:#666666;fill-opacity:1" />
  <path
     d="m 10.240109,5.123988 1.09e-4,-5.12 -0.2700106,0.3 -0.02311,4.49425 -4.5268811,0.00577 -0.300012,0.32 z"
     fill="#5d6069"
     stroke-width="0.108257"
     id="path479" />
  <path
     d="m 5.1202044,0.003993 0.300012,0.3 v 4.5 l -0.300012,0.32 z m 0,0 5.1202046,4e-8 -0.2700106,0.3 -4.549982,1.38e-6 z"
     id="path483"
     style="fill:#dcdee5;stroke-width:0.50001" />
  <path
     d="m 9.1053008,3.445243 h -2.850164 c -0.1541762,0 -0.2319893,-0.18731 -0.1224749,-0.29538 l 1.425057,-1.41635 c 0.067723,-0.06772 0.175797,-0.06772 0.2435097,0 l 1.425057,1.41635 c 0.1109495,0.108065 0.033144,0.29538 -0.1210398,0.29538 z"
     stroke-width="0.0144088"
     id="path489" />
  <path
     d="m 5.4203134,5.423988 4.549982,-1.4e-6 -0.02311,4.49425 -4.5268811,0.00577 z"
     fill="#999999"
     fill-opacity="0.9"
     id="path493"
     style="stroke-width:0.50001;fill:#666666;fill-opacity:1" />
  <path
     d="m 10.240206,10.243983 1.09e-4,-5.12 -0.2700106,0.3 -0.02311,4.49425 -4.5268811,0.00577 -0.300012,0.320001 z"
     fill="#5d6069"
     stroke-width="0.108257"
     id="path495" />
  <path
     d="m 5.1203014,5.123988 0.300012,0.3 v 4.5 l -0.300012,0.32 z m 0,0 h 5.1202046 l -0.2700106,0.3 -4.549982,1.4e-6 z"
     id="path499"
     style="fill:#dcdee5;stroke-width:0.50001" />
  <path
     d="m 0.300012,0.303993 4.549982,-1.38e-6 -0.02311,4.49424998 -4.5268811,0.00577 z"
     fill="#999999"
     fill-opacity="0.9"
     id="path509-7"
     style="fill:#666666;stroke-width:0.50001;fill-opacity:1" />
  <path
     d="m 5.1199048,5.123988 1.09e-4,-5.12 -0.2700108,0.3 -0.02311,4.49425 -4.52688107,0.00577 -0.300012,0.32 z"
     fill="#5d6069"
     stroke-width="0.108257"
     id="path511-3" />
  <path
     d="m 0,0.003993 0.300012,0.3 v 4.5 L 0,5.123993 Z m 0,0 5.1202048,4e-8 -0.2700108,0.3 -4.54998199,1.38e-6 z"
     id="path515-6"
     style="fill:#dcdee5;stroke-width:0.50001" />
  <path
     d="m 10.54023,0.303988 4.549982,-1.38e-6 -0.02311,4.49424998 -4.526881,0.00577 z"
     fill="#999999"
     fill-opacity="0.9"
     id="path509-7-2"
     style="fill:#666666;stroke-width:0.50001;fill-opacity:1" />
  <path
     d="m 15.360123,5.123983 1.09e-4,-5.12 -0.27001,0.3 -0.02311,4.49425 -4.526881,0.00577 -0.300012,0.32 z"
     fill="#5d6069"
     stroke-width="0.108257"
     id="path511-3-0" />
  <path
     d="m 10.240218,0.003988 0.300012,0.3 v 4.5 l -0.300012,0.32 z m 0,0 5.120205,4e-8 -0.270011,0.3 -4.549982,1.37e-6 z"
     id="path515-6-3"
     style="fill:#dcdee5;stroke-width:0.50001" />
  <path
     d="m 0.300408,10.544011 4.549982,-10e-7 -0.02311,4.49425 -4.5268811,0.0058 z"
     fill="#999999"
     fill-opacity="0.9"
     id="path509-73"
     style="fill:#666666;stroke-width:0.50001;fill-opacity:1" />
  <path
     d="m 5.1203008,15.364006 1.09e-4,-5.12 -0.2700108,0.3 -0.02311,4.49425 -4.52688107,0.0058 -0.300012,0.32 z"
     fill="#5d6069"
     stroke-width="0.108257"
     id="path511-1" />
  <path
     d="m 3.96e-4,10.244011 0.300012,0.3 v 4.5 l -0.300012,0.32 z m 0,0 h 5.1202048 l -0.2700108,0.3 -4.54998199,1e-6 z"
     id="path515-9"
     style="fill:#dcdee5;stroke-width:0.50001" />
  <path
     d="m 10.540167,10.544011 4.549982,-10e-7 -0.02311,4.49425 -4.526881,0.0058 z"
     fill="#999999"
     fill-opacity="0.9"
     id="path523-4"
     style="fill:#666666;stroke-width:0.50001;fill-opacity:1" />
  <path
     d="m 15.360059,15.364006 1.09e-4,-5.12 -0.27001,0.3 -0.02311,4.49425 -4.526881,0.0058 -0.300012,0.32 z"
     fill="#5d6069"
     stroke-width="0.108257"
     id="path525-8" />
  <path
     d="m 10.240155,10.244011 0.300012,0.3 v 4.5 l -0.300012,0.32 z m 0,0 h 5.120205 l -0.270011,0.3 -4.549982,1e-6 z"
     id="path529-5"
     style="fill:#dcdee5;stroke-width:0.50001" />
  <path
     d="m 0.300057,15.664015 h 9.6697368 l -0.023111,4.49425 -9.6466348,0.0058 z"
     fill="#999999"
     fill-opacity="0.9"
     id="path509-73-5"
     sodipodi:nodetypes="ccccc"
     style="fill:#666666;stroke-width:0.50001;fill-opacity:1" />
  <path
     d="m 10.239696,20.484015 1.09e-4,-5.12 -0.2700112,0.3 -0.023111,4.49425 -9.64662687,0.0058 -0.30001200004,0.320001 z"
     fill="#5d6069"
     stroke-width="0.108257"
     id="path511-1-4"
     sodipodi:nodetypes="ccccccc" />
  <path
     d="m 4.5e-5,15.364015 0.300012,0.3 v 4.5 l -0.300012,0.32 z m 0,0 h 5.1202048 l -0.2700108,0.3 -4.54998199,1e-6 z"
     id="path515-9-6"
     style="fill:#dcdee5;stroke-width:0.50001" />
  <path
     d="m 10.539816,15.664015 4.549982,-10e-7 -0.02311,4.49425 -4.526881,0.0058 z"
     fill="#999999"
     fill-opacity="0.9"
     id="path523-4-3"
     style="fill:#666666;stroke-width:0.50001;fill-opacity:1" />
  <path
     d="m 15.359708,20.48401 1.09e-4,-5.12 -0.27001,0.3 -0.02311,4.49425 -4.526881,0.0058 -0.300012,0.32 z"
     fill="#5d6069"
     stroke-width="0.108257"
     id="path525-8-4" />
  <path
     d="m 10.239804,15.364015 0.300012,0.3 v 4.5 l -0.300012,0.32 z m 0,0 h 5.120205 l -0.270011,0.3 -4.549982,1e-6 z"
     id="path529-5-2"
     style="fill:#dcdee5;stroke-width:0.50001" />
  <path
     d="m 15.660372,10.544009 4.568318,-0.0023 -0.02331,9.614266 -4.526881,0.0058 z"
     fill="#999999"
     fill-opacity="0.9"
     id="path523-4-3-4"
     sodipodi:nodetypes="ccccc"
     style="fill:#666666;stroke-width:0.50001;fill-opacity:1" />
  <path
     d="m 20.479964,20.484 3e-4,-10.240012 -0.27001,0.3 -0.0233,9.614262 -4.526881,0.0058 -0.300012,0.32 z"
     fill="#5d6069"
     stroke-width="0.108257"
     id="path525-8-4-3"
     sodipodi:nodetypes="ccccccc" />
  <path
     d="m 15.660072,20.164005 -0.300012,0.32 c 0,0 0.300012,-0.319982 0.300012,-0.32 z m 4.820193,-9.920017 -0.270011,0.3 c 0,0 0,0 0.270011,-0.3 z"
     id="path529-5-2-7"
     sodipodi:nodetypes="cccccc"
     style="fill:#dcdee5;stroke-width:0.50001" />
  <path
     d="m 15.660372,0.3000212 4.568318,-0.002271 -0.02331,9.6142657 -4.526881,0.00577 z"
     fill="#999999"
     fill-opacity="0.9"
     id="path523-4-3-4-9"
     sodipodi:nodetypes="ccccc"
     style="fill:#666666;stroke-width:0.50001;fill-opacity:1" />
  <path
     d="M 20.479964,10.240012 20.480264,0 l -0.27001,0.3 -0.0233,9.614262 -4.526881,0.00577 -0.300012,0.320001 z"
     fill="#5d6069"
     stroke-width="0.108257"
     id="path525-8-4-3-0"
     sodipodi:nodetypes="ccccccc" />
  <path
     d="m 15.660072,9.920017 -0.300012,0.32 c 0,0 0.300012,-0.3199825 0.300012,-0.32 z M 20.480265,0 20.210254,0.3 c 0,0 0,0 0.270011,-0.3 z"
     id="path529-5-2-7-8"
     sodipodi:nodetypes="cccccc"
     style="fill:#dcdee5;stroke-width:0.50001" />
</svg>
