<?xml version="1.0" encoding="utf-8"?>
<!-- Generator: Adobe Illustrator 16.0.0, SVG Export Plug-In . SVG Version: 6.00 Build 0)  -->
<!DOCTYPE svg PUBLIC "-//W3C//DTD SVG 1.1//EN" "http://www.w3.org/Graphics/SVG/1.1/DTD/svg11.dtd">
<svg version="1.1" id="Capa_1" xmlns="http://www.w3.org/2000/svg" xmlns:xlink="http://www.w3.org/1999/xlink" x="0px" y="0px"
	 width="20.001px" height="19.842px" viewBox="0 0 20.001 19.842" enable-background="new 0 0 20.001 19.842" xml:space="preserve">
<g>
	<g>
		
			<linearGradient id="SVGID_1_" gradientUnits="userSpaceOnUse" x1="-132.3262" y1="-295.4063" x2="-132.3262" y2="-286.8857" gradientTransform="matrix(-1 0 0 -1 -122.3242 -275.5645)">
			<stop  offset="0.3" style="stop-color:#0044A1"/>
			<stop  offset="1" style="stop-color:#5FB1DA"/>
		</linearGradient>
		<path fill="url(#SVGID_1_)" d="M6.669,14.292l3.332-2.971l3.332,2.971v4.436c0,0.615-0.5,1.114-1.115,1.114H7.782
			c-0.615,0-1.113-0.499-1.113-1.114V14.292z"/>
		<linearGradient id="SVGID_2_" gradientUnits="userSpaceOnUse" x1="10.001" y1="19.8418" x2="10.001" y2="11.3213">
			<stop  offset="0.3" style="stop-color:#1B388A"/>
			<stop  offset="1" style="stop-color:#5FB1DA"/>
		</linearGradient>
		<path fill="url(#SVGID_2_)" d="M10.001,12.191l2.682,2.392v4.145c0,0.256-0.209,0.465-0.465,0.465H7.782
			c-0.256,0-0.464-0.209-0.464-0.465v-4.145L10.001,12.191 M10.001,11.321l-3.332,2.971v4.436c0,0.615,0.498,1.114,1.113,1.114
			h4.436c0.615,0,1.115-0.499,1.115-1.114v-4.436L10.001,11.321L10.001,11.321z"/>
	</g>
	<g>
		<linearGradient id="SVGID_3_" gradientUnits="userSpaceOnUse" x1="10.001" y1="8.5205" x2="10.001" y2="4.882813e-004">
			<stop  offset="0.3" style="stop-color:#1E1E1E"/>
			<stop  offset="1" style="stop-color:#5B5B5F"/>
		</linearGradient>
		<path fill="url(#SVGID_3_)" d="M13.332,5.55l-3.331,2.971L6.669,5.55V1.114C6.669,0.499,7.167,0,7.782,0h4.436
			c0.615,0,1.114,0.499,1.114,1.114V5.55z"/>
		<linearGradient id="SVGID_4_" gradientUnits="userSpaceOnUse" x1="10.001" y1="8.5205" x2="10.001" y2="4.882813e-004">
			<stop  offset="0" style="stop-color:#141414"/>
			<stop  offset="0.2261" style="stop-color:#181818"/>
			<stop  offset="0.4603" style="stop-color:#242425"/>
			<stop  offset="0.6982" style="stop-color:#373739"/>
			<stop  offset="0.9374" style="stop-color:#535356"/>
			<stop  offset="1" style="stop-color:#5B5B5F"/>
		</linearGradient>
		<path fill="url(#SVGID_4_)" d="M12.218,0.65c0.256,0,0.465,0.208,0.465,0.464v4.145L10.001,7.65L7.317,5.259V1.114
			c0-0.256,0.209-0.464,0.465-0.464H12.218 M12.218,0H7.782C7.167,0,6.669,0.499,6.669,1.114V5.55l3.332,2.971l3.331-2.971V1.114
			C13.332,0.499,12.833,0,12.218,0L12.218,0z"/>
	</g>
	<g>
		
			<linearGradient id="SVGID_5_" gradientUnits="userSpaceOnUse" x1="-104.7935" y1="-205.3506" x2="-111.4575" y2="-205.3506" gradientTransform="matrix(0 1 -1 0 -189.6104 118.0469)">
			<stop  offset="0.3" style="stop-color:#1E1E1E"/>
			<stop  offset="1" style="stop-color:#5B5B5F"/>
		</linearGradient>
		<path fill="url(#SVGID_5_)" d="M14.45,13.253l-2.971-3.332l2.971-3.332h4.438c0.615,0,1.113,0.499,1.113,1.114v4.437
			c0,0.614-0.5,1.113-1.113,1.113H14.45z"/>
		<linearGradient id="SVGID_6_" gradientUnits="userSpaceOnUse" x1="15.7402" y1="13.2529" x2="15.7402" y2="6.5889">
			<stop  offset="0" style="stop-color:#141414"/>
			<stop  offset="0.2325" style="stop-color:#181818"/>
			<stop  offset="0.4734" style="stop-color:#242425"/>
			<stop  offset="0.7181" style="stop-color:#373739"/>
			<stop  offset="0.9641" style="stop-color:#525256"/>
			<stop  offset="1" style="stop-color:#57575B"/>
		</linearGradient>
		<path fill="url(#SVGID_6_)" d="M18.888,7.239c0.256,0,0.463,0.207,0.463,0.464v4.437c0,0.256-0.207,0.463-0.463,0.463h-4.146
			l-2.391-2.682l2.391-2.682H18.888 M18.888,6.589H14.45l-2.971,3.332l2.971,3.332h4.438c0.613,0,1.113-0.499,1.113-1.113V7.703
			C20.001,7.088,19.503,6.589,18.888,6.589L18.888,6.589z"/>
	</g>
	<g>
		
			<linearGradient id="SVGID_7_" gradientUnits="userSpaceOnUse" x1="-16.8643" y1="-58.3599" x2="-10.2002" y2="-58.3599" gradientTransform="matrix(0 -1 1 0 62.6201 -3.6113)">
			<stop  offset="0.3" style="stop-color:#1E1E1E"/>
			<stop  offset="1" style="stop-color:#5B5B5F"/>
		</linearGradient>
		<path fill="url(#SVGID_7_)" d="M5.55,6.589l2.971,3.332L5.55,13.253H1.114C0.499,13.253,0,12.754,0,12.14V7.702
			c0-0.614,0.499-1.113,1.114-1.113H5.55z"/>
		<linearGradient id="SVGID_8_" gradientUnits="userSpaceOnUse" x1="4.2607" y1="13.2529" x2="4.2607" y2="6.5889">
			<stop  offset="0" style="stop-color:#141414"/>
			<stop  offset="0.2261" style="stop-color:#181818"/>
			<stop  offset="0.4603" style="stop-color:#242425"/>
			<stop  offset="0.6982" style="stop-color:#373739"/>
			<stop  offset="0.9374" style="stop-color:#535356"/>
			<stop  offset="1" style="stop-color:#5B5B5F"/>
		</linearGradient>
		<path fill="url(#SVGID_8_)" d="M5.259,7.239l2.391,2.682l-2.391,2.682H1.114c-0.256,0-0.465-0.207-0.465-0.463V7.702
			c0-0.256,0.209-0.463,0.465-0.463H5.259 M5.55,6.589H1.114C0.499,6.589,0,7.088,0,7.702v4.438c0,0.614,0.499,1.113,1.114,1.113
			H5.55l2.971-3.332L5.55,6.589L5.55,6.589z"/>
	</g>
</g>
</svg>
