<?xml version="1.0" encoding="utf-8"?>
<!-- Generator: Adobe Illustrator 16.0.0, SVG Export Plug-In . SVG Version: 6.00 Build 0)  -->
<!DOCTYPE svg PUBLIC "-//W3C//DTD SVG 1.1//EN" "http://www.w3.org/Graphics/SVG/1.1/DTD/svg11.dtd">
<svg version="1.1" id="Capa_1" xmlns="http://www.w3.org/2000/svg" xmlns:xlink="http://www.w3.org/1999/xlink" x="0px" y="0px"
	 width="20px" height="14.949px" viewBox="0 0 20 14.949" enable-background="new 0 0 20 14.949" xml:space="preserve">
<g>
	<g>
		<linearGradient id="SVGID_1_" gradientUnits="userSpaceOnUse" x1="10" y1="0" x2="10" y2="13.3794">
			<stop  offset="0" style="stop-color:#5B5B5F"/>
			<stop  offset="0.0626" style="stop-color:#535356"/>
			<stop  offset="0.3018" style="stop-color:#373739"/>
			<stop  offset="0.5397" style="stop-color:#242425"/>
			<stop  offset="0.7739" style="stop-color:#181818"/>
			<stop  offset="1" style="stop-color:#141414"/>
		</linearGradient>
		<path fill="url(#SVGID_1_)" d="M20,10.746c0,5.604-20,5.604-20,0V2.563C0,1.147,1.147,0,2.562,0h14.877
			C18.853,0,20,1.147,20,2.563V10.746z"/>
		<linearGradient id="SVGID_2_" gradientUnits="userSpaceOnUse" x1="10" y1="0" x2="10" y2="14.9492">
			<stop  offset="0" style="stop-color:#5B5B5F"/>
			<stop  offset="0.0155" style="stop-color:#58585B"/>
			<stop  offset="0.1488" style="stop-color:#3F3F41"/>
			<stop  offset="0.296" style="stop-color:#2C2C2D"/>
			<stop  offset="0.4624" style="stop-color:#1E1E1F"/>
			<stop  offset="0.6643" style="stop-color:#161617"/>
			<stop  offset="1" style="stop-color:#141414"/>
		</linearGradient>
		<path fill="url(#SVGID_2_)" d="M17.438,1.512c0.579,0,1.051,0.471,1.051,1.051v8.184c0,0.586-0.802,1.235-2.143,1.736
			c-1.625,0.607-3.938,0.955-6.347,0.955c-2.409,0-4.722-0.348-6.347-0.955c-1.342-0.501-2.143-1.15-2.143-1.736V2.563
			c0-0.58,0.472-1.051,1.051-1.051H17.438 M17.438,0H2.562C1.147,0,0,1.147,0,2.563v8.184c0,2.802,5,4.203,10,4.203
			s10-1.401,10-4.203V2.563C20,1.147,18.853,0,17.438,0L17.438,0z"/>
	</g>
	<g>
		<polygon fill="#FFFFFF" points="6.381,2.7 4.509,2.7 4.509,10.22 9.919,10.22 9.919,8.54 6.381,8.54 		"/>
		<path fill="#FFFFFF" d="M12.471,8.626c0.044-0.099,0.112-0.206,0.205-0.322c0.175-0.219,0.396-0.427,0.651-0.615
			c0.381-0.273,0.711-0.526,0.979-0.751c0.275-0.23,0.5-0.462,0.67-0.688c0.173-0.23,0.301-0.47,0.379-0.711
			c0.076-0.24,0.116-0.51,0.116-0.801c0-0.376-0.065-0.712-0.194-0.997c-0.131-0.287-0.314-0.529-0.548-0.72
			c-0.23-0.187-0.51-0.329-0.831-0.422c-0.313-0.091-0.662-0.137-1.036-0.137c-0.79,0-1.413,0.239-1.854,0.711
			c-0.437,0.468-0.658,1.121-0.658,1.941v0.188h1.722V5.115c0-0.42,0.078-0.717,0.224-0.86c0.151-0.147,0.357-0.22,0.632-0.22
			c0.119,0,0.235,0.013,0.344,0.038c0.095,0.022,0.174,0.06,0.242,0.114c0.064,0.052,0.115,0.122,0.152,0.214
			c0.041,0.1,0.062,0.228,0.062,0.38c0,0.13-0.019,0.251-0.056,0.36c-0.035,0.108-0.098,0.22-0.184,0.331
			c-0.092,0.118-0.219,0.246-0.377,0.381c-0.164,0.139-0.374,0.298-0.628,0.475c-0.466,0.334-0.847,0.652-1.133,0.946
			c-0.29,0.298-0.52,0.597-0.681,0.89c-0.164,0.296-0.275,0.602-0.332,0.906c-0.057,0.297-0.084,0.62-0.084,0.96v0.189h5.238V8.626
			H12.471z"/>
	</g>
</g>
</svg>
