<?xml version="1.0" encoding="UTF-8" standalone="no"?>
<!-- Generator: Adobe Illustrator 16.0.0, SVG Export Plug-In . SVG Version: 6.00 Build 0)  -->

<svg
   xmlns:dc="http://purl.org/dc/elements/1.1/"
   xmlns:cc="http://creativecommons.org/ns#"
   xmlns:rdf="http://www.w3.org/1999/02/22-rdf-syntax-ns#"
   xmlns:svg="http://www.w3.org/2000/svg"
   xmlns="http://www.w3.org/2000/svg"
   xmlns:sodipodi="http://sodipodi.sourceforge.net/DTD/sodipodi-0.dtd"
   xmlns:inkscape="http://www.inkscape.org/namespaces/inkscape"
   version="1.1"
   id="Capa_1"
   x="0px"
   y="0px"
   width="384"
   height="384"
   viewBox="0 0 384 384.00001"
   xml:space="preserve"
   sodipodi:docname="unmute.svg"
   inkscape:version="0.92.4 (5da689c313, 2019-01-14)"><metadata
   id="metadata450"><rdf:RDF><cc:Work
       rdf:about=""><dc:format>image/svg+xml</dc:format><dc:type
         rdf:resource="http://purl.org/dc/dcmitype/StillImage" /><dc:title></dc:title></cc:Work></rdf:RDF></metadata><defs
   id="defs448">
		
		
		
		
	</defs><sodipodi:namedview
   pagecolor="#ffffff"
   bordercolor="#666666"
   borderopacity="1"
   objecttolerance="10"
   gridtolerance="10"
   guidetolerance="10"
   inkscape:pageopacity="0"
   inkscape:pageshadow="2"
   inkscape:window-width="1920"
   inkscape:window-height="1026"
   id="namedview446"
   showgrid="false"
   inkscape:zoom="0.63621196"
   inkscape:cx="-50.078379"
   inkscape:cy="9.7363626"
   inkscape:window-x="1050"
   inkscape:window-y="31"
   inkscape:window-maximized="1"
   inkscape:current-layer="g413" />
<g
   id="g413"
   transform="translate(0,-91.080994)">
	<path
   inkscape:connector-curvature="0"
   id="path403"
   d="m 200.9985,109.49049 c -4.946,0 -9.229,1.812 -12.847,5.426 l -95.074,95.075 h -74.802 c -4.952,0 -9.234,1.812 -12.85,5.424 -3.617,3.616 -5.426,7.901 -5.426,12.849 v 109.63 c 0,4.949 1.809,9.233 5.426,12.848 3.619,3.617 7.902,5.427 12.85,5.427 h 74.798 l 95.074,95.078 c 3.617,3.61 7.9,5.424 12.847,5.424 4.952,0 9.234,-1.813 12.85,-5.424 3.617,-3.614 5.426,-7.901 5.426,-12.847 v -310.634 c 0,-4.948 -1.809,-9.234 -5.422,-12.85 -3.619,-3.614 -7.898,-5.426 -12.85,-5.426 z"
   style="fill:#ffffff" /><path
   inkscape:connector-curvature="0"
   id="path405"
   d="m 298.7685,323.47449 c 8.093,-12.467 12.135,-25.93 12.135,-40.395 0,-14.465 -4.042,-27.992 -12.135,-40.556 -8.094,-12.562 -18.791,-21.41 -32.121,-26.551 -1.902,-0.949 -4.284,-1.427 -7.139,-1.427 -4.944,0 -9.232,1.762 -12.847,5.282 -3.61,3.521 -5.427,7.852 -5.427,12.99 0,3.997 1.143,7.376 3.432,10.137 2.283,2.762 5.041,5.142 8.282,7.139 3.23,1.998 6.468,4.188 9.708,6.567 3.238,2.38 5.996,5.758 8.278,10.135 2.276,4.38 3.426,9.804 3.426,16.277 0,6.471 -1.143,11.896 -3.426,16.276 -2.282,4.381 -5.04,7.755 -8.278,10.14 -3.24,2.379 -6.478,4.569 -9.708,6.567 -3.241,1.992 -5.999,4.377 -8.282,7.132 -2.282,2.765 -3.432,6.143 -3.432,10.14 0,5.144 1.816,9.47 5.427,12.99 3.614,3.521 7.902,5.288 12.847,5.288 2.854,0 5.236,-0.479 7.139,-1.424 13.33,-5.339 24.031,-14.24 32.121,-26.707 z"
   style="fill:#ffffff" /><path
   inkscape:connector-curvature="0"
   id="path407"
   d="m 359.7275,363.73249 c 16.18,-24.646 24.273,-51.531 24.273,-80.654 0,-29.124 -8.094,-56.005 -24.273,-80.666 -16.177,-24.645 -37.6,-42.583 -64.241,-53.815 -2.471,-0.95 -4.948,-1.427 -7.416,-1.427 -4.948,0 -9.236,1.809 -12.854,5.426 -3.613,3.616 -5.424,7.898 -5.424,12.847 0,7.424 3.713,13.039 11.139,16.849 10.657,5.518 17.888,9.705 21.693,12.559 14.089,10.28 25.077,23.173 32.976,38.686 7.898,15.514 11.848,32.026 11.848,49.537 0,17.512 -3.949,34.023 -11.848,49.536 -7.898,15.516 -18.894,28.407 -32.976,38.684 -3.806,2.857 -11.036,7.043 -21.693,12.563 -7.426,3.809 -11.139,9.424 -11.139,16.847 0,4.948 1.811,9.236 5.424,12.847 3.617,3.621 7.991,5.432 13.131,5.432 2.286,0 4.668,-0.483 7.139,-1.428 26.641,-11.234 48.064,-29.173 64.241,-53.823 z"
   style="fill:#ffffff" />
</g>
<g
   id="g415"
   transform="translate(0,-91.080994)">
</g>
<g
   id="g417"
   transform="translate(0,-91.080994)">
</g>
<g
   id="g419"
   transform="translate(0,-91.080994)">
</g>
<g
   id="g421"
   transform="translate(0,-91.080994)">
</g>
<g
   id="g423"
   transform="translate(0,-91.080994)">
</g>
<g
   id="g425"
   transform="translate(0,-91.080994)">
</g>
<g
   id="g427"
   transform="translate(0,-91.080994)">
</g>
<g
   id="g429"
   transform="translate(0,-91.080994)">
</g>
<g
   id="g431"
   transform="translate(0,-91.080994)">
</g>
<g
   id="g433"
   transform="translate(0,-91.080994)">
</g>
<g
   id="g435"
   transform="translate(0,-91.080994)">
</g>
<g
   id="g437"
   transform="translate(0,-91.080994)">
</g>
<g
   id="g439"
   transform="translate(0,-91.080994)">
</g>
<g
   id="g441"
   transform="translate(0,-91.080994)">
</g>
<g
   id="g443"
   transform="translate(0,-91.080994)">
</g>
</svg>