<?xml version="1.0" encoding="utf-8"?>
<!-- Generator: Adobe Illustrator 16.0.0, SVG Export Plug-In . SVG Version: 6.00 Build 0)  -->
<!DOCTYPE svg PUBLIC "-//W3C//DTD SVG 1.1//EN" "http://www.w3.org/Graphics/SVG/1.1/DTD/svg11.dtd">
<svg version="1.1" id="Capa_1" xmlns="http://www.w3.org/2000/svg" xmlns:xlink="http://www.w3.org/1999/xlink" x="0px" y="0px"
	 width="20px" height="20px" viewBox="0 0 20 20" enable-background="new 0 0 20 20" xml:space="preserve">
<g>
	<g>
		<g>
			<circle fill="#727272" cx="10" cy="10" r="10"/>
		</g>
		<g>
			<linearGradient id="SVGID_1_" gradientUnits="userSpaceOnUse" x1="10" y1="0" x2="10" y2="17.9003">
				<stop  offset="0" style="stop-color:#444242"/>
				<stop  offset="1" style="stop-color:#252526"/>
			</linearGradient>
			<path fill="url(#SVGID_1_)" d="M19.746,12.235C19.912,11.516,20,10.769,20,10s-0.088-1.517-0.254-2.235
				c-3.766-0.827-6.734-3.775-7.592-7.529C11.461,0.083,10.74,0,10.002,0C9.18,0,8.383,0.102,7.619,0.288
				c-0.877,3.62-3.721,6.47-7.336,7.354C0.1,8.398,0,9.188,0,10c0,0.804,0.098,1.584,0.277,2.334
				c3.674,0.855,6.57,3.736,7.447,7.402C8.457,19.907,9.217,20,10.002,20c0.738,0,1.459-0.083,2.152-0.235
				C13.012,16.011,15.98,13.063,19.746,12.235z"/>
		</g>
	</g>
	<polygon fill="#FFFFFF" points="6.129,10 7.357,12.785 1.201,10 7.357,7.215 	"/>
</g>
</svg>
