<?xml version="1.0" encoding="utf-8"?>
<!-- Generator: Adobe Illustrator 16.0.0, SVG Export Plug-In . SVG Version: 6.00 Build 0)  -->
<!DOCTYPE svg PUBLIC "-//W3C//DTD SVG 1.1//EN" "http://www.w3.org/Graphics/SVG/1.1/DTD/svg11.dtd">
<svg version="1.1" id="Capa_1" xmlns="http://www.w3.org/2000/svg" xmlns:xlink="http://www.w3.org/1999/xlink" x="0px" y="0px"
	 width="20.004px" height="20.002px" viewBox="0 0 20.004 20.002" enable-background="new 0 0 20.004 20.002" xml:space="preserve">
<g>
	<g>
		<circle fill="#727272" cx="10.002" cy="10.001" r="10.002"/>
	</g>
	<g>
		<linearGradient id="SVGID_1_" gradientUnits="userSpaceOnUse" x1="10.002" y1="0" x2="10.002" y2="17.9021">
			<stop  offset="0" style="stop-color:#444242"/>
			<stop  offset="1" style="stop-color:#252526"/>
		</linearGradient>
		<path fill="url(#SVGID_1_)" d="M19.75,12.236c0.164-0.719,0.254-1.467,0.254-2.235s-0.09-1.517-0.254-2.235
			c-3.768-0.827-6.736-3.776-7.594-7.53C11.463,0.083,10.742,0,10.002,0c-0.82,0-1.619,0.101-2.383,0.288
			C6.744,3.908,3.9,6.759,0.283,7.643C0.1,8.399,0,9.188,0,10.001c0,0.804,0.098,1.585,0.277,2.334
			c3.676,0.855,6.57,3.736,7.447,7.404c0.732,0.17,1.494,0.263,2.277,0.263c0.74,0,1.461-0.083,2.154-0.235
			C13.014,16.013,15.982,13.063,19.75,12.236z"/>
	</g>
	<polygon fill="#FFFFFF" points="13.875,10.001 12.646,7.215 18.803,10.001 12.646,12.786 	"/>
</g>
</svg>
