<?xml version="1.0" encoding="UTF-8" standalone="no"?>
<svg
   xmlns:dc="http://purl.org/dc/elements/1.1/"
   xmlns:cc="http://creativecommons.org/ns#"
   xmlns:rdf="http://www.w3.org/1999/02/22-rdf-syntax-ns#"
   xmlns:svg="http://www.w3.org/2000/svg"
   xmlns="http://www.w3.org/2000/svg"
   xmlns:sodipodi="http://sodipodi.sourceforge.net/DTD/sodipodi-0.dtd"
   xmlns:inkscape="http://www.inkscape.org/namespaces/inkscape"
   version="1.1"
   id="Capa_1"
   x="0px"
   y="0px"
   viewBox="0 0 512 512"
   style="enable-background:new 0 0 512 512;"
   xml:space="preserve"
   sodipodi:docname="curves.svg"
   inkscape:version="1.0.2 (e86c870879, 2021-01-15)"><metadata
   id="metadata2418"><rdf:RDF><cc:Work
       rdf:about=""><dc:format>image/svg+xml</dc:format><dc:type
         rdf:resource="http://purl.org/dc/dcmitype/StillImage" /><dc:title></dc:title></cc:Work></rdf:RDF></metadata><defs
   id="defs2416" /><sodipodi:namedview
   pagecolor="#ffffff"
   bordercolor="#666666"
   borderopacity="1"
   objecttolerance="10"
   gridtolerance="10"
   guidetolerance="10"
   inkscape:pageopacity="0"
   inkscape:pageshadow="2"
   inkscape:window-width="779"
   inkscape:window-height="480"
   id="namedview2414"
   showgrid="false"
   inkscape:zoom="1.6640625"
   inkscape:cx="256"
   inkscape:cy="256"
   inkscape:window-x="1793"
   inkscape:window-y="361"
   inkscape:window-maximized="0"
   inkscape:current-layer="Capa_1" />
<polygon
   style="fill:#EFEFEF;"
   points="256,74.18 74.18,74.18 74.18,256 74.18,437.82 256,437.82 437.82,437.82 437.82,256   437.82,74.18 "
   id="polygon2371" />
<g
   id="g2377">
	<path
   style="fill:#CCCCCC;"
   d="M256,74.18h181.82C342.448,74.18,256,154.604,256,256V74.18z"
   id="path2373" />
	<path
   style="fill:#CCCCCC;"
   d="M74.18,437.82C169.552,437.82,256,357.396,256,256v181.82H74.18z"
   id="path2375" />
</g>
<path
   d="M501.961,266.039c5.545,0,10.039-4.495,10.039-10.039c0-5.545-4.495-10.039-10.039-10.039h-54.101V84.219h22.036  c5.545,0,10.039-4.495,10.039-10.039s-4.495-10.039-10.039-10.039h-22.036V10.039C447.859,4.495,443.365,0,437.82,0  s-10.039,4.495-10.039,10.039v54.101H266.039V10.039C266.039,4.495,261.545,0,256,0c-5.545,0-10.039,4.495-10.039,10.039v54.101  H84.219V10.039C84.219,4.495,79.724,0,74.18,0S64.141,4.495,64.141,10.039v54.101H10.039C4.495,64.141,0,68.635,0,74.18  s4.495,10.039,10.039,10.039h54.101v161.742H10.039C4.495,245.961,0,250.455,0,256c0,5.545,4.495,10.039,10.039,10.039h54.101  v161.742H10.039C4.495,427.781,0,432.276,0,437.82s4.495,10.039,10.039,10.039h54.101v54.101c0,5.545,4.495,10.039,10.039,10.039  s10.039-4.495,10.039-10.039v-54.101h161.742v54.091c0,5.545,4.495,10.039,10.039,10.039c5.545,0,10.039-4.495,10.039-10.039  v-54.091h161.742v54.101c0,5.545,4.495,10.039,10.039,10.039s10.039-4.495,10.039-10.039v-54.101h54.101  c5.545,0,10.039-4.495,10.039-10.039s-4.495-10.039-10.039-10.039h-54.101V266.039H501.961z M427.781,245.961H266.356  c5.2-85.333,76.091-156.224,161.425-161.425L427.781,245.961L427.781,245.961z M354.299,84.219  c-18.255,9.096-35.27,21.101-50.171,35.668c-15.776,15.422-28.558,32.915-38.088,51.802V84.219H354.299z M84.219,84.219h161.742  v161.742H84.219V84.219z M245.644,266.039c-5.2,85.333-76.091,156.224-161.425,161.425V266.039H245.644z M157.701,427.781  c18.255-9.096,35.27-21.101,50.171-35.668c15.776-15.422,28.558-32.915,38.088-51.802v87.471H157.701z M427.781,427.781H266.039  V266.039h161.742V427.781z"
   id="path2379" />
<path
   d="M501.958,84.999c12.919,0,12.941-20.078,0-20.078C489.038,64.921,489.016,84.999,501.958,84.999z"
   id="path2381" />
<g
   id="g2383">
</g>
<g
   id="g2385">
</g>
<g
   id="g2387">
</g>
<g
   id="g2389">
</g>
<g
   id="g2391">
</g>
<g
   id="g2393">
</g>
<g
   id="g2395">
</g>
<g
   id="g2397">
</g>
<g
   id="g2399">
</g>
<g
   id="g2401">
</g>
<g
   id="g2403">
</g>
<g
   id="g2405">
</g>
<g
   id="g2407">
</g>
<g
   id="g2409">
</g>
<g
   id="g2411">
</g>
</svg>
