<?xml version="1.0" encoding="UTF-8"?>
<svg enable-background="new 0 0 53.626 53.626" version="1.1" viewBox="0 0 53.626 53.626" xml:space="preserve" xmlns="http://www.w3.org/2000/svg" xmlns:cc="http://creativecommons.org/ns#" xmlns:dc="http://purl.org/dc/elements/1.1/" xmlns:rdf="http://www.w3.org/1999/02/22-rdf-syntax-ns#"><metadata><rdf:RDF><cc:Work rdf:about=""><dc:format>image/svg+xml</dc:format><dc:type rdf:resource="http://purl.org/dc/dcmitype/StillImage"/><dc:title/></cc:Work></rdf:RDF></metadata>
<path d="m48.831 15.334c-7.083-11.637-17.753-3.541-17.753-3.541-0.692 0.523-1.968 0.953-2.835 0.955l-2.858 2e-3c-0.867 1e-3 -2.143-0.429-2.834-0.952 0 0-10.671-8.098-17.755 3.539-7.082 11.633-4.228 24.302-4.228 24.302 0.5 3.102 2.148 5.172 5.258 4.912 3.101-0.259 9.832-8.354 9.832-8.354 0.556-0.667 1.721-1.212 2.586-1.212l17.134-3e-3c0.866 0 2.03 0.545 2.585 1.212 0 0 6.732 8.095 9.838 8.354 3.106 0.26 4.758-1.812 5.255-4.912-1e-3 0 2.858-12.667-4.225-24.302zm-28.457 9.472h-3.674v3.541s-0.778 0.594-1.982 0.579c-1.202-0.018-1.746-0.648-1.746-0.648v-3.471h-3.47s-0.433-0.444-0.549-1.613c-0.114-1.169 0.479-2.114 0.479-2.114h3.675v-3.674s0.756-0.405 1.843-0.374c1.088 0.034 1.885 0.443 1.885 0.443l-0.015 3.604h3.47s0.606 0.778 0.656 1.718c0.05 0.941-0.572 2.009-0.572 2.009zm16.852 4.036c-1.609 0-2.906-1.301-2.906-2.908 0-1.61 1.297-2.908 2.906-2.908 1.602 0 2.909 1.298 2.909 2.908 0 1.608-1.307 2.908-2.909 2.908zm0-8.001c-1.609 0-2.906-1.3-2.906-2.907 0-1.61 1.297-2.908 2.906-2.908 1.602 0 2.909 1.298 2.909 2.908 0 1.608-1.307 2.907-2.909 2.907zm7.242 4.295c-1.609 0-2.906-1.3-2.906-2.908 0-1.609 1.297-2.908 2.906-2.908 1.602 0 2.909 1.299 2.909 2.908 0 1.608-1.307 2.908-2.909 2.908z" fill="#010002"/>
</svg>
