<?xml version="1.0" encoding="UTF-8" standalone="no"?>
<svg
   version="1.0"
   width="1100.000000pt"
   height="900.000000pt"
   viewBox="0 0 1100.000000 900.000000"
   preserveAspectRatio="xMidYMid meet"
   id="svg95"
   sodipodi:docname="ng_tank.svg"
   inkscape:version="1.2.2 (b0a8486541, 2022-12-01)"
   xmlns:inkscape="http://www.inkscape.org/namespaces/inkscape"
   xmlns:sodipodi="http://sodipodi.sourceforge.net/DTD/sodipodi-0.dtd"
   xmlns="http://www.w3.org/2000/svg"
   xmlns:svg="http://www.w3.org/2000/svg">
  <defs
     id="defs99" />
  <sodipodi:namedview
     id="namedview97"
     pagecolor="#ffffff"
     bordercolor="#666666"
     borderopacity="1.0"
     inkscape:showpageshadow="2"
     inkscape:pageopacity="0.0"
     inkscape:pagecheckerboard="0"
     inkscape:deskcolor="#d1d1d1"
     inkscape:document-units="pt"
     showgrid="false"
     inkscape:zoom="0.665"
     inkscape:cx="712.03008"
     inkscape:cy="542.85714"
     inkscape:window-width="1680"
     inkscape:window-height="996"
     inkscape:window-x="1024"
     inkscape:window-y="261"
     inkscape:window-maximized="1"
     inkscape:current-layer="svg95" />
  <g
     transform="matrix(0.10508068,0,0,-0.10508068,-27.936439,922.86055)"
     fill="#000000"
     stroke="none"
     id="g93">
    <path
       id="path71"
       d="m 9885.9961,8489.0039 c -102.9999,15 -225.9913,12.9902 -305.9912,-5.0098 -163.9999,-34.9999 -206.0004,-61.0002 -555,-345 C 8893.005,8031.9942 8695.9979,7873.0067 8587.998,7787.0068 8365.9983,7609.007 8308.0019,7550.0019 8257.002,7447.002 L 8222.0068,7373.9941 7739.0039,7035 C 7473.0042,6848.0002 7225.999,6674.0029 7188.999,6648.0029 l -66.0058,-47.0068 -63.9991,43.0078 -63.999,43.9893 -1065,157.0019 c -585.9994,85.9999 -1074.9912,159.0117 -1085.9912,162.0117 -17,3 -30.0088,24.9962 -54.0088,90.9961 -39.9999,108.9999 -134.9893,293.9952 -163.9892,319.9951 -29,27 -257.003,161.9971 -273.003,161.9971 -16,0 -16.0068,-0.9951 -2.0068,40.0049 9,25 22.9991,37.0049 63.999,55.0049 59,27 64.0049,36.9933 85.0049,192.9931 10,72 9.001,87.003 -3.999,108.003 -13,19 -15.0049,40.003 -10.0049,108.0029 l 7.0019,84.9902 -35.9912,17.0069 c -22.9999,11 -41.0127,30.001 -53.0127,56.001 -27.9999,62.9999 -114.001,143.9961 -191.0009,180.996 -66,31 -71.9884,32.0069 -197.9883,32.0069 -119.9999,0 -133.9981,-2.0118 -187.9981,-27.0117 -107.9999,-51 -207.0078,-168.9904 -223.0078,-264.9903 -5,-32.9999 -11.999,-43.998 -33.999,-52.998 -59.9999,-25 -64.9951,-40.0031 -64.9951,-183.0029 0,-149.9999 4.9952,-166.004 64.9951,-194.004 22,-9.9999 40.0049,-23 40.0049,-30 0,-5.9999 1.9951,-18.0048 4.9951,-25.0048 4,-11 -31.9991,-24.9971 -153.999,-56.9971 -87.9999,-24 -171.9981,-50.9961 -187.9981,-60.9961 -21.9999,-13 -39,-42.9962 -75,-135.9961 -68.9999,-171.9998 -102.998,-297.9982 -127.998,-472.998 -32,-219.9998 -19.0038,-314.0002 60.9961,-435 17,-26 29.9931,-48.0098 27.9931,-50.0098 -2,-2 -104.9991,-71.9913 -228.999,-155.9912 -296.9997,-201.9998 -792.9941,-573.0079 -818.9941,-613.0078 -35,-54 -93.0069,-776.9996 -107.0069,-1353.9991 L 1997.0068,4080 1830.9961,3932.0068 c -250.9998,-221.9997 -458.9915,-422.0032 -740.9912,-708.0029 -321.9997,-326.9997 -327.00004,-333.0001 -345.00002,-420 -16.99998,-81.9999 -39.00292,-330.9981 -33.00293,-382.998 4,-31 -4.00396,-48.0128 -59.0039,-128.0127 C 458.99824,2013.9934 395.00592,1681.9976 456.00586,1282.998 514.0058,905.99842 761.99342,564.99604 1017.9932,510.99609 1055.9931,502.9961 2108.0017,499.99512 4803.999,499.99512 h 3731.9971 l 70.0049,41.00097 c 162.9998,97.99991 392.9923,302.00018 541.9922,480.00001 226.9997,271.9997 444.0001,698.0092 555,1089.0088 102.9999,361.9996 147.0068,685.0004 152.0068,1125 l 3.999,259.9951 142.998,102.9932 c 170,122.9998 185.008,136.002 193.008,172.0019 9,43 -10,99.0119 -90,267.0117 -185.9999,388.9996 -408.0014,627.9953 -686.0011,739.9952 -152.9998,61.9999 -655.0014,131.0039 -1076.001,149.0039 -185.9998,8 -172.0088,-2.0009 -174.0088,123.999 -1,97.9999 -16.999,157.9961 -48.999,180.9961 -18,13 -64.9903,22.9951 -159.9902,34.9951 -73.9999,9 -136.0029,17.0029 -138.0029,18.0029 -1,2 -6.9971,40.9971 -11.9971,86.9971 -14,111.9999 -54.001,277.0079 -101.001,418.0078 -22,62.9999 -39.0088,115.9971 -39.0088,116.9971 0,2 48.003,29 108.0029,60 59,31.9999 307.0013,165.0011 551.001,296.001 l 445.0049,237.9931 h 83.9941 c 46,0 111.005,7.0108 145.0049,16.0108 49,12.9999 355.9978,139.9925 1091.9971,451.9921 54,23 149.003,85.9952 213.003,139.9952 104,88.9999 195.994,238.006 233.994,381.0058 26,98.9999 29.01,295.0031 5.01,393.003 -76,311.9996 -351.011,564.0019 -661.0109,607.0019 z M 9870,8328.999 c 181,-28.9999 346.993,-145.0011 447.993,-311.001 90,-150.9998 114.012,-367.003 57.012,-528.0029 -63,-178.9998 -231,-342.9952 -405.0001,-394.9951 -75.9999,-23 -243.002,-30.9961 -322.002,-15.9961 -216.9998,43 -419.0088,219.9983 -489.0088,427.9981 -11.9999,37.9999 -23.9931,105.9971 -27.9931,161.997 l -6.0059,96.0059 -23.9941,-60 c -13,-33 -27,-88.003 -30,-123.0029 l -6.0059,-62.0069 L 8715,7278.999 l -349.9951,-240 -7.9981,43.0078 c -22.9999,122.9999 15.9913,279.0001 95.9912,375 67,81 563.9974,498.9866 851.9971,715.9864 192.9998,146.9998 353.0051,191.0058 565.0049,156.0058 z m -80.874,-90.1172 c -43.125,-0.875 -85.6212,-5.8828 -119.1211,-14.8828 -200.9998,-52.9999 -351.0059,-221.006 -381.0059,-426.0058 -9,-64 -7.9941,-89.9942 6.0059,-158.9942 23,-114.9999 55.9962,-179.9942 135.9961,-263.9941 111.9999,-117.9999 221.005,-165 385.0049,-165 153.9998,0 264.9991,48.0001 378.9991,165 45,45.9999 89.995,113.9883 79.995,122.9883 -1,2 -133.002,-34.9874 -292.002,-81.9873 -158.9998,-47 -297.0019,-86.001 -307.0019,-86.001 -9,0 -35.9893,9.9912 -58.9893,20.9912 l -42.0117,22.0019 40.0049,18.9991 c 22,10 191.0002,89.9971 375,176.997 l 334.995,158.0127 3.003,33.9991 c 3,39.9999 -18.994,108.9922 -38.994,121.9921 -10,6 -124.998,-56.003 -397.9981,-213.0029 C 9680.0061,7547.9952 9502,7450.9932 9495,7452.9932 c -19,8 -66.9941,96.0019 -68.9941,127.0019 -1,23 38.9963,63.9983 285.9961,292.9981 181.9998,168.9998 294.002,267.0117 307.002,267.0117 12,0 43.993,-9.0098 72.993,-20.0098 l 52.998,-18.999 -33.999,29.0039 c -49,42 -137.999,85.9942 -198.9989,98.9941 -36,7.5 -79.7462,10.7627 -122.8711,9.8877 z M 4011.0059,8190 c 76.9999,0 172.9922,-5.001 211.9921,-11.001 99.9999,-15 190.9991,-39.0019 198.9991,-52.0019 13,-20 9.0019,-100.9913 -7.9981,-155.9912 -15,-52 -15.002,-51.9991 -52.0019,-48.9991 -33,3 -37.9981,6.9884 -52.9981,47.9883 -16,42 -20.0029,46.0088 -63.0029,54.0088 -60.9999,11 -87.9951,3.0009 -109.9951,-33.999 -10,-17 -29.0078,-35.001 -43.0078,-41.001 -28,-10 -139.0001,-12.0029 -195,-3.0029 -33,6 -38.9883,10.9932 -47.9883,42.9931 -5,20 -10.0049,66.0079 -10.0049,103.0079 0,96.9999 2.006,97.998 171.0059,97.998 z m 212.9882,-251.9971 c 24,-2 32.001,-9.998 41.001,-37.998 8,-24 21.0079,-39.999 43.0078,-48.999 38,-17 38.001,-19.0109 11.001,-106.0108 -19,-60.9999 -24.0069,-68.001 -62.0068,-86.001 -56,-24.9999 -126.9981,-23.9931 -187.9981,2.0069 -57.9999,25 -78.001,56.004 -86.001,134.0039 l -5.9912,52.0019 63.9991,6.9873 c 80.9999,10 119.9883,26.0001 137.9882,60 12,21 21.0001,26.0088 45,24.0088 z M 3678.0029,7488.999 c 1,0 28.0001,-25.001 60,-56.001 203.9998,-202.9998 529.9923,-240.9998 631.9922,-75 30,49 32.003,50.001 63.0029,41.001 86,-24 86.9971,-24.9981 86.9971,-97.998 0,-62 13.001,-175.9962 26.001,-225.9961 5,-22 3.0018,-22.0078 -112.9981,-28.0078 -74.9999,-4 -144.9932,-13.9932 -192.9931,-27.9932 -41,-12 -198.9992,-82.0098 -348.999,-155.0098 -217.9998,-105.9999 -277.0108,-131.9921 -286.0108,-121.9921 -20,21.9999 -127.999,198.998 -123.999,202.998 3,2 29.0039,-11.9961 59.0039,-30.9961 l 55.0049,-35.0098 2.9883,93.003 c 5,116.9999 -11.9893,264.9972 -43.9893,386.997 -13,52 -21.999,97.0049 -18.999,100.0049 4,3 35.9932,11.0069 72.9931,17.0069 37,7 68.0049,11.9931 70.0049,12.9931 z m 4575,-289.9951 c 4,1 7.002,-23.0059 7.002,-51.0059 0,-71.9999 23.9981,-175.9971 52.998,-236.997 l 22.9981,-49.9951 -960,-585 C 6847.0015,5955.0062 6411.0068,5695 6407.0068,5700 c -5,4 -11.0039,34.9942 -14.0039,68.9941 -7,72 13.001,134.005 56.001,175.0049 29,28 1790.999,1254.0049 1803.999,1255.0049 z m -3708.999,-339.0088 c 28,0 570.9919,-74.0001 1205.9912,-165 C 6384.9945,6603.9952 6914.0049,6528 6925.0049,6525 c 11,-2 27.998,-10.0068 37.998,-17.0068 16,-12 3.0019,-23.9865 -127.998,-115.9864 L 6690,6288.999 l -660,90.9961 c -415.9996,57 -674.0059,88.0088 -696.0059,84.0088 -38.9999,-7 -118.998,-57.0098 -127.998,-80.0098 -3,-8 8.0088,-65.9942 24.0088,-128.9941 38.9999,-150.9998 67.9961,-355.9973 75.9961,-536.9971 7,-140.9998 6.0029,-148.0078 -11.9971,-148.0078 -33,0 -557.002,70.0039 -562.0019,74.0039 -2,3 -10.003,67.0021 -18.003,142.002 -26,266.9997 -88.0011,531.9934 -191.001,822.9931 -29.9999,86 -57,168.9991 -60,183.9991 -7.9999,43.9999 19.006,67.0019 81.0059,67.0019 z m 282.8027,-151.582 c -16.0461,0.1428 -33.6133,-5.9717 -50.8007,-19.4092 -33,-26 -35.0098,-74.9981 -5.0098,-112.998 43,-54 119.0039,-21.0127 119.0039,51.9873 0,49.4999 -27.8919,80.1057 -63.1934,80.4199 z m 683.1885,-413.4082 c 0,9 38.0103,4.9999 515.0098,-60 262.9997,-36 479.9922,-67.0088 481.9922,-69.0088 2,-2 -40.9952,-34.001 -94.9951,-71.001 -57,-38.9999 -105.002,-77.999 -112.002,-93.999 -25,-53 -78.9952,-209.9963 -124.9951,-360.9961 -26,-84.9999 -50.0088,-157.9971 -54.0088,-161.9971 -3,-4 -130.9894,6.9942 -283.9893,23.9942 -240.9997,27.9999 -277.0107,34.0068 -271.0107,47.0068 4,9 22.001,59.002 41.001,112.002 70.9999,206.9998 52.0028,398.9933 -56.9971,567.9931 -22,34 -40.0049,64.0059 -40.0049,66.0059 z m -573.999,-5.0098 c -30,0 -40.001,-5.9922 -56.001,-31.9922 -25,-39.9999 -18.9892,-74 16.0108,-105 31.9999,-29.9999 58.9892,-29.0078 88.9892,1.9922 51,50 20.0009,135 -48.999,135 z m 59.4873,-451.1719 c -14.8474,-0.3601 -30.0391,-6.3232 -43.4766,-18.8232 -31.9999,-30 -36.9999,-63.9971 -15,-101.9971 42,-72.9999 142.9942,-31.9979 128.9942,52.002 -6.875,43.3124 -37.8533,69.6106 -70.5176,68.8183 z m 2511.5186,-8.8183 c 5.9999,0 23.0019,-31.0088 37.0019,-69.0088 37,-93.9999 81.9912,-277.9894 95.9912,-388.9893 6,-50.9999 9.9981,-95.0058 7.9981,-96.0058 -3,-4 -289.9903,30.9941 -324.9903,38.9941 -20.9999,5 -21.0097,6.002 -5.0097,52.002 12,34.9999 16.0068,91.0069 17.0068,212.0068 l 0.9961,162.9932 80.0098,44.0039 c 42.9999,24 83.9961,44.0039 90.9961,44.0039 z m -332.0069,-172.9981 7.002,-36.0058 c 4,-20 3.0078,-73.0079 -1.9922,-118.0078 -5,-45 -14.0059,-100.9883 -21.0059,-122.9883 -10,-33 -15.998,-40.0049 -37.998,-40.0049 -45,1 -382.0039,48.0049 -389.0039,55.0049 -16,15 27.0031,42.9893 228.0029,148.9892 z M 4680,5481.0059 4722.9932,5475 c 22.9999,-3 764.0018,-92.9952 1646.0009,-199.9951 881.9992,-106.9999 1608.0127,-195 1613.0127,-195 4,0 7.9981,-29.0098 7.9981,-65.0098 V 4950 h -112.9981 c -141.9998,0 -171.0118,-13.9972 -252.0117,-116.9971 -39.9999,-51.9999 -62.9883,-73.0078 -77.9883,-73.0078 -12,0 -338.0033,33.004 -723.0029,74.0039 l -701.9971,73.0078 -58.0078,51.9873 C 5884.9992,5118.994 5669.9958,5218 5400.9961,5265 c -181.9998,31 -591.9933,75 -702.9932,75 -16,0 -18.0029,10.001 -18.0029,71.001 z m -465,-290.0098 124.9951,-4.9951 c 68.9999,-3 226.0099,-11.9951 350.0098,-19.9951 496.9995,-34 636.0021,-51.0011 832.0019,-101.001 136.9999,-34 196.9943,-60.0118 278.9942,-117.0117 153.9998,-106.9999 307.9942,-295.9905 398.9941,-489.9903 37,-78.9999 81.0108,-200.0049 76.0108,-205.0049 -6,-6.9999 -1620.0059,137.0088 -1626.0059,144.0088 -4,4 -18.9951,43.9932 -34.9951,87.9932 -80.9999,233.9998 -219.0109,416.9952 -376.0108,499.9951 -82.9999,43 -81.9894,43.0078 -268.9892,-16.9922 -242.9998,-78.9999 -600.0003,-232.0089 -930,-399.0088 C 2889.005,4492.9942 2802.9997,4447.9989 2490,4278.999 2437.0001,4249.9991 2435.9951,4250 2464.9951,4275 c 37,32 317.005,221.0069 445.0049,302.0068 383.9996,239.9998 805.9955,445.0002 1174.9951,570 z m 3844.9951,-416.001 c 0,1 21.003,1.0039 48.0029,-0.9961 26,-2 138.9972,-8.0039 251.9971,-14.0039 335.9997,-18 812.005,-81.002 955.0049,-127.0019 183.9998,-59 355.004,-199.9924 494.0039,-406.9922 52,-77.9999 153.9951,-257.004 169.9951,-299.0039 10,-25 9.0078,-26.9971 -16.9922,-26.9971 -35.9999,0 -1274.0107,119.0068 -1276.0107,122.0068 -1,2 -11.9942,42.9884 -23.9941,92.9883 -68,271.9997 -254.0003,492.006 -525,621.0059 -42,20 -77.0069,36.9941 -77.0069,38.9941 z M 6258.0029,4710 h 24.9903 c 14,0 304.0042,-27 644.0039,-60 677.9993,-64.9999 703.006,-68.9971 861.0058,-146.9971 194.9998,-94.9999 342.0011,-232.0011 416.001,-386.0009 58.9999,-122.9999 77.9942,-209.9963 83.9941,-390.9961 l 4.9952,-149.0039 -43.9893,5.9912 c -24,3 -500.0064,47.0127 -1056.0059,98.0127 L 6180,3773.9941 V 3840 v 66.0059 l 139.9951,132.9931 c 126.9999,119.9999 140.0098,136.0069 140.0098,167.0069 0,74.9999 -104.0069,345.9874 -182.0069,471.9873 z M 4187.0068,4230 c 6,0 33.9923,-44.9942 61.9922,-98.9941 156.9999,-305.9997 199.9999,-700.0112 120,-1096.0108 C 4296.9991,2679.9955 4098.9978,2349.9989 3862.998,2193.999 3735.9982,2108.9991 3661.995,2086 3514.9951,2085 c -98.9999,0 -130.9912,3.9981 -185.9912,22.998 -131.9999,45 -256.005,149.008 -355.0049,298.0079 -133.9998,200.9998 -201.9941,421.9915 -218.9941,710.9912 l -7.002,108.0029 57.9932,40.0049 c 32,22 62.0059,41.9931 66.0059,42.9931 3.9999,2 7.998,-44.001 7.998,-101.0009 0,-58 3.0059,-111.9961 6.0059,-120.9961 5,-13 22.9893,-15.9961 88.9892,-15.9961 45,0 102.9981,-3.0059 127.9981,-6.0059 l 45,-6.0058 16.0107,-66.9873 c 8,-36 19.002,-77.0001 22.002,-90 l 6.9873,-24.0088 -130.9864,5.0097 c -146.9998,6 -141.9999,8.997 -120,-63.0029 l 10.9864,-39.0088 h 138.0029 138.0029 l 36.0059,-71.001 c 67.9999,-135.9998 160.9991,-243.9893 258.999,-298.9892 l 48.999,-29.0039 -39.0088,-7.9981 c -56.9999,-12 -202.999,-9.0048 -243.999,4.9951 -32,11 -32.9961,9.9971 -15.9961,-3.0029 37,-28 131.006,-57.9922 201.0059,-61.9922 81.9999,-6 201.9883,22.003 272.9883,63.003 59.9999,34.9999 163.001,133.9922 221.0009,211.9921 226.9998,306.9997 311.0048,796.9985 205.0049,1192.9981 -24,88.9999 -89.9932,240.0098 -132.9931,305.0098 L 4020,4117.002 l 78.0029,56.0009 c 42,31 82.0039,55.9971 89.0039,56.9971 z m 2271.6211,-220.752 c -10.375,0 -20.6328,-3.75 -33.6328,-11.25 -48.9999,-27.9999 -58.9941,-77.9922 -23.9941,-121.9921 43.9999,-56 139.999,-20.0019 138.999,52.998 -1,30 -16.0069,52.9942 -47.0068,68.9941 -13.5,7.5 -23.9903,11.25 -34.3653,11.25 z m -1754.6338,-59.2529 h 42.0118 c 23.9999,0 319.9896,-17.9902 658.9892,-39.9902 338.9997,-22 625.0059,-40.0049 636.0059,-40.0049 18,0 18.999,-9.0051 18.999,-205.0049 v -206.001 L 6012.9932,3465 c -27,3 -116.9874,9.9961 -201.9873,15.9961 -123.9999,9 -155.0118,8.0078 -162.0118,-1.9922 -4,-7 -11,-45.9971 -15,-86.9971 -5,-56.9999 -2.998,-77.0117 7.002,-87.0117 12,-10 289.003,-34.9951 393.0029,-34.9951 18,0 19.0078,-6.007 13.0078,-122.0068 -7,-115.9999 -45.0127,-457.9922 -53.0127,-466.9922 -2,-2 -91.9952,1.998 -199.9951,7.998 -160.9998,10 -200,10.0039 -210,-0.9961 -7,-7 -19.001,-46.0049 -26.001,-85.0049 -9.9999,-57.9999 -9.9999,-75.0048 0,-85.0048 9,-9 77.0021,-16.9942 202.002,-23.9942 104.9999,-6 192.0039,-13 194.0039,-15 8,-8 -64.0098,-293.9962 -110.0098,-435.9961 l -46.9921,-142.998 -60.9961,0.9961 c -33,0 -126.0011,3.9941 -206.001,8.9941 -106.9999,6 -150.0078,5.0117 -163.0078,-2.9883 -23,-14.9999 -78.001,-142.0117 -71.001,-162.0117 8,-20 34.9973,-22.9961 236.9971,-30.9961 96.9999,-3 177.0117,-10.0039 177.0117,-14.0039 0,-23 -151.9981,-305.0001 -217.9981,-405 l -78.0029,-117.9931 -228.999,1.9921 -230.0098,2.0069 L 4905,1118.9941 c -96.9999,-119.99984 -94.0057,-127.9902 38.9941,-129.99019 50,-1 136.005,-3.99805 190.0049,-7.99805 L 5234.0039,975 5160.9961,911.99707 C 5075.9962,838.99714 4974.994,770.0058 4868.9941,711.00586 L 4792.998,670.00488 4102.002,671.99707 3409.9951,675 3498.999,742.99805 C 4008.9985,1129.9977 4427.9943,1892.0009 4598.9941,2745 c 55,273.9997 78.003,490.0033 93.003,888.0029 z m 2298.3985,-1.582 c -15.3149,-1.3916 -31.2041,-7.4092 -46.3916,-19.4092 -20,-16 -26.001,-29.0039 -26.001,-59.0039 0,-71.9999 84.0001,-106.0048 135,-55.0049 59.3124,58.5 3.7573,139.4483 -62.6074,133.418 z M 7560,3889.9951 c -27,0 -45,-7.002 -60,-22.0019 -53.9999,-58 7.002,-154.9942 82.002,-128.9942 89.9999,32 72.9979,150.9961 -22.002,150.9961 z M 8061.0059,3840 c -23,0 -46.0049,-6.9961 -55.0049,-15.9961 -43,-42 -42.0039,-89.9991 0.9961,-123.999 33.9999,-26 66.002,-25.0117 97.0019,2.9883 35,30.9999 40.9961,65 15.9961,105 -17,26.9999 -24.9893,32.0068 -58.9892,32.0068 z m 483.999,-218.9941 24.9902,-5.0098 c 14,-3 267.0023,-26.002 562.002,-52.002 l 536.997,-47.9882 5.0098,-40.0049 c 3,-23 6.9902,-86.9981 9.9902,-142.9981 l 3.9991,-103.0078 h -45.9961 c -26,0 -109.9913,5.001 -185.9912,11.001 -111.9999,8 -142.0108,7.9971 -151.0108,-3.0029 -19,-20 -27.997,-152.9922 -11.9971,-166.9922 7,-5 98.0021,-15.9981 202.002,-22.9981 l 187.998,-11.997 -7.0019,-113.0127 c -6,-113.9999 -27.003,-288.9953 -48.0029,-394.9952 l -10.9864,-57.9931 h -71.0009 c -39,1 -131.005,4.9902 -205.0049,9.9902 -73.9999,4 -139.9971,6.0029 -146.9971,3.0029 -17,-5.9999 -53.0078,-144.0039 -43.0078,-164.0039 8,-16.9999 29.0022,-18.9951 307.0019,-34.9951 86,-5 112.002,-10.0058 112.002,-21.0058 0,-24 -114.9971,-363.9933 -146.9971,-432.9932 l -29.0039,-64.9951 -124.9951,7.0019 c -67.9999,3 -167.9971,6.9873 -221.9971,6.9873 l -97.0019,1.0108 -37.002,-74.0039 c -20,-40 -33,-80.0039 -30,-89.0039 6,-16 40.9993,-20.9991 288.9991,-33.9991 l 135.996,-7.998 -70.0048,-120 c -38,-65.9999 -103.9864,-168.9991 -145.9864,-228.999 L 9015,1117.998 l -229.9951,0.9961 -230.0098,1.0108 -57.9931,-72.0117 c -32,-39 -57.0049,-77.99712 -55.0049,-86.99711 3,-12.99998 27.9981,-16.99805 157.998,-22.99804 84.9999,-4 173.0039,-9.00489 194.0039,-10.00489 l 40.0049,-2.98828 -85.0049,-71.00097 c -45.9999,-39.99996 -118.9932,-96.99808 -162.9931,-127.99805 l -78.003,-56.00098 h -549.0088 -547.998 l 172.998,172.99805 c 183.9999,182.99977 295.0021,320.99917 412.002,513.99907 259.9997,426.9995 443.9981,983.0035 517.998,1563.0029 22,171.9998 39.0098,451.9894 35.0098,583.9892 z m -6030,-562.002 7.0019,-103.0078 c 4,-56.9999 13.9873,-136.001 21.9873,-176.001 9,-39.9999 14.0118,-75.999 12.0118,-78.999 -4,-6 -128.0054,-90.9974 -565.0049,-386.9971 l -179.0039,-120.9961 -50.9912,67.9981 c -28,37.9999 -72.0089,84.9961 -99.0088,105.9961 -26,20.9999 -47.9991,43.0029 -48.9991,48.0029 -1,6 202.0003,152.9972 450,326.9971 z m -1110,-781.0107 27.9931,-19.9952 c 16,-10.9999 47.0089,-42.9971 69.0088,-71.997 54,-68 122.9893,-212.0011 148.9893,-311.001 43,-168.9998 33.998,-429.9992 -22.002,-618.999 -59.9999,-200.9998 -212.0011,-403.00205 -356.0009,-472.00198 -47,-21.99997 -75.9933,-28.99219 -147.9932,-31.99218 -49.9999,-2 -108.9971,0.98731 -131.99707,6.9873 -64.99994,17.99998 -157.00396,84.99909 -209.00391,153.99902 -100.9999,133.99984 -160.00587,302.00214 -171.00586,487.00194 -4.99999,91.9999 9.01271,298.003 23.0127,333.0029 4,12 85.9961,68.003 90.99609,63.003 2,-2 -2.99708,-32.002 -11.99707,-67.002 -16.99998,-72.9999 -31.00585,-282.9981 -21.00586,-322.998 6,-25 8.00399,-26.001 89.00391,-26.001 h 82.00195 l 15.9961,-60 15.99609,-60 h -89.00391 c -87.99991,0 -88.99804,0 -82.99804,-22.002 10.99999,-35.9999 17.00302,-38 108.00293,-45 l 86.99707,-5.9912 31.01074,-56.0009 c 34.99996,-61 130.99024,-167.00103 159.99024,-176.00102 11,-3.99999 18.999,-10 18.999,-15 0,-13.99998 -108,-23.0117 -149.99998,-12.01172 -55.99995,13.99999 -39.99408,-2.99806 21.00588,-22.99804 66.9999,-22.99998 169.9981,-15.99607 232.998,14.0039 57,27.99998 146.0069,116.00788 197.0069,193.00778 152.9998,237.9998 175.9871,609.9974 51.9873,866.9971 -34,70.9999 -125.9972,178.001 -176.9971,206.001 -16,9 -11.9951,15.002 40.0049,52.0019 z m 971.001,-40.9864 c 1,-1 21.9883,-28 47.9882,-60 l 47.0069,-58.0078 -146.9971,-70.0049 c -80.9999,-37.9999 -149,-67.9912 -150,-65.9912 -10,9 -23.0107,112.0039 -16.0107,119.0039 10,10 216.0127,137 218.0127,135 z m 662.9882,-382.0019 c 63,20 164.002,13.9921 217.002,-13.0078 79.9999,-41 156.0049,-158.0021 190.0049,-292.002 25,-94.9999 22.0048,-270.9903 -4.9951,-384.9902 -48,-200.99982 -170.0021,-379.00106 -307.002,-446.00099 -56.9999,-27.99998 -70.002,-31.00781 -142.0019,-28.00782 -103.9999,5 -158.0079,36.99717 -223.0079,131.99707 -73.9999,106.9999 -93.999,183.01194 -93.999,357.01174 0,176.9998 18.0098,263.9933 80.0098,387.9931 76.9999,151.9999 174.9893,252.0069 283.9892,287.0069 z m 45.5127,-146.001 c -29.9999,0.25 -59.5078,-4.0078 -80.5078,-13.0078 -119.9999,-53 -226.9961,-250.0022 -240.9961,-442.002 L 2756.9971,1170 h 55.0049 c 58.9999,0 67.998,-7.001 67.998,-56.001 0,-22 -3.9942,-23.9941 -53.9941,-23.9941 -49,0 -53.9991,-2.0098 -48.9991,-20.0098 5,-17 13.9991,-19.9951 63.9991,-19.9951 53.9999,0 59.9941,-2.0049 68.9941,-25.0049 16,-41.99994 55,-94.00001 90,-119.99998 l 33.0029,-23.99414 -63.999,-3.00293 -63.999,-3.00293 43.9892,-12.99317 c 86,-25.99997 187.0099,17.00205 260.0098,112.00196 130.9999,168.99979 159.0019,432.98939 67.002,613.98929 -29,55.9999 -59.003,86.0068 -108.003,107.0068 -22.9999,9 -53.4961,13.7539 -83.4961,14.0039 z m -895.5029,-70.0049 c 48,1 72.9971,-4.0059 101.9971,-21.0058 104.9999,-59 168.999,-204.9905 168.999,-384.9903 0,-182.9998 -51.0069,-334.99715 -152.0068,-446.99704 -115.9999,-129.99987 -277.9962,-144.01063 -375.9961,-31.01074 -74,82.99991 -112.002,201.00111 -112.002,341.00098 0,188.9998 56.0099,339.006 170.0098,456.0059 72.9999,73.9999 99.9991,85.997 198.999,86.997 z m -50.0098,-123.7939 c -14.1152,-1.0528 -28.4931,-4.0742 -42.9931,-9.1992 -110.9999,-41 -217.9942,-249.0021 -203.9942,-397.002 3,-32 4.9923,-34.0088 46.9922,-39.0088 38,-4 46.002,-8.9922 52.002,-31.9922 7,-26.9999 6.0019,-28.0078 -37.9981,-28.0078 -36.9999,0 -44.0009,-2.9922 -41.0009,-16.99217 2,-13.99999 14.9951,-19.00586 49.9951,-21.00586 42.9999,-3 48.9971,-5.99223 71.997,-46.99219 14,-23.99997 38.002,-52.99903 52.002,-63.99902 L 2112.9932,840 h -48.9991 c -39.9999,-1 -45.9999,-2.99708 -30,-11.99707 29,-15.99998 130.0001,-4.00876 165,20.99121 40,28.99997 95.0001,106.0069 120,167.00686 30,78.9999 45.0069,199 32.0069,270 -27.125,146.9998 -113.2003,236.5732 -212.0069,229.2041 z"
       style="display:inline"
       inkscape:label="Outline" />
    <path
       id="path2501"
       style="display:inline;fill:#ffffff;stroke-width:120;stroke-linecap:square;stroke-linejoin:round;paint-order:stroke fill markers;stop-color:#000000"
       d="m 12811.995,-1625.3955 c -158.913,-144.6221 -317.134,-194.667 -559.036,-176.2015 -359.692,25.5761 -1004.063,106.2345 -1104.331,137.7988 -119.334,37.0874 -236.864,146.8282 -284.423,262.5695 l -16.667,40.4459 424.231,-11.1796 424.772,-12.0157 38.748,-48.7798 c 21.545,-27.7459 63.196,-66.3015 92.046,-86.9326 l 52.756,-37.3168 -47.149,83.8462 c -27.085,49.1772 -53.982,112.7696 -64.567,151.1875 -54.318,212.6346 19.018,471.01048 177.778,625.06535 58.154,55.53528 202.672,139.60813 278.964,161.61776 174.312,50.9429 404.471,4.62203 554.655,-111.37153 135.364,-104.14726 232.632,-298.50011 239.177,-474.16468 5.466,-194.2344 -70.799,-381.8346 -206.954,-504.5688 z m -116.869,31.6747 c 36.672,22.7087 71.616,49.2282 97.755,75.0932 44.132,44.0715 94.917,129.3785 113.213,191.2676 l 12.77,42.8263 -34.156,-44.7569 c -18.361,-24.9975 -40.316,-49.9516 -50.388,-56.4749 -10.911,-7.0669 -158.199,14.3125 -402.829,57.2232 -331.802,57.9361 -387.66,70.6051 -399.324,90.4534 -15.173,27.1067 -22.729,127.0602 -11.13,144.1035 4.788,5.4839 206.927,20.8326 450.347,33.1354 314.486,16.63 444.714,27.1028 449.845,37.5749 9.72,21.7835 -9.324,91.64771 -33.587,123.59025 l -21.002,26.90422 -367.072,-49.48118 c -201.732,-27.00208 -387.067,-51.72792 -410.969,-55.294 l -43.905,-5.80051 23.301,41.30509 c 13.325,21.73575 30.547,44.79343 38.101,49.68593 8.393,5.43611 145.425,47.72071 304.429,94.70589 159.004,46.98538 289.905,87.69827 289.657,89.92055 3.501,12.99014 -71.224,45.59549 -134,59.74239 -159.287,36.23065 -278.546,16.17844 -407.804,-67.53749 -137.651,-89.1521 -203.594,-187.85766 -233.453,-347.78364 -21.484,-113.9929 -13.847,-186.4824 29.363,-295.5091 25.759,-65.5247 39.045,-87.8895 81.391,-136.7145 136.62,-155.7555 353.856,-215.2244 551.373,-150.4435 33.011,10.6569 71.402,29.5551 108.074,52.2639 z M 7818.7621,-4693.7434 c -141.8477,-91.8702 -144.0742,-92.1229 -196.8044,-10.7073 -20.1136,31.0554 -40.9232,72.3922 -47.5987,91.897 -9.8415,31.7512 -7.5297,39.1976 16.9068,62.1728 42.1102,37.9961 136.3656,96.6559 165.3031,103.4837 15.0124,2.5745 40.7519,-2.2015 58.3867,-11.0341 38.5789,-19.096 65.5855,-11.135 110.8052,31.2579 31.7426,30.0899 32.9232,35.6308 23.5209,79.5807 -9.6979,42.5668 -7.671,48.6315 18.3963,69.0887 29.4245,22.6315 29.4258,22.6334 70.2836,-12.8579 44.1672,-36.922 91.5508,-102.7277 91.5116,-126.5814 0.3523,-15.2602 -62.979,-84.8742 -138.7584,-151.8253 -29.4724,-26.2367 -107.3239,-82.6169 -171.9527,-124.4748 z m 41.7806,327.2933 c -19.0568,-14.7253 -29.3338,-15.4138 -50.8216,-4.311 -33.5907,18.7524 -75.0131,10.9873 -148.4354,-24.6518 l -57.5151,-28.9259 -23.2402,46.9041 c -35.6869,69.817 -35.7534,106.7128 -0.6623,159.2255 34.6859,51.4529 89.4572,89.8407 145.895,102.2393 5.7532,1.4063 13.5704,1.8704 19.3592,3.0302 34.4106,3.8123 44.7429,-1.9938 90.2444,-39.8634 69.9561,-58.3447 71.0485,-60.0331 48.3951,-94.959 -13.5728,-19.5134 -15.7936,-40.0133 -9.4616,-64.5062 7.667,-28.3939 5.2993,-39.4565 -13.7575,-54.1818 z m -702.3543,80.0587 c -2.2223,-0.2479 -30.9602,-12.9115 -65.8209,-27.1498 -34.317,-15.0775 -65.5228,-25.749 -70.511,-25.4054 -4.1488,0.8872 -21.0608,43.5534 -38.4172,94.2659 -39.4616,119.7944 -105.6551,253.2498 -173.4541,348.734 l -53.0656,76.4364 -27.136,-59.2863 c -14.8515,-32.2557 -29.0691,-58.1392 -32.6743,-58.0913 -5.5318,1.1829 -11.1024,208.4535 -6.2751,237.791 2.118,13.2859 65.778,23.5487 306.3758,53.0861 165.5839,20.2699 336.2568,47.3983 377.1929,59.6143 47.8986,14.3426 112.0791,44.0042 177.2037,81.4176 100.6246,58.0228 102.3061,59.1024 110.0688,37.919 16.2692,-49.0337 67.3266,-151.7825 101.0305,-203.8213 39.6835,-61.2715 39.3892,-62.6514 -19.7471,-129.546 -21.1268,-24.4059 -23.3522,-24.6546 -75.1692,0.1645 -175.8515,83.8814 -428.8121,-125.2267 -489.6837,-406.5083 -10.0068,-43.4149 -19.0782,-79.0768 -19.9175,-79.6204 z m 3773.4636,2553.2182 c -24.424,4.8792 -48.371,9.9964 -71.807,15.3444 l 49.777,-1.8632 z m -91.141,177.2068 c -11.455,-6.2276 -2156.836,64.9614 -2196.3979,72.6981 -58.3794,11.0375 -108.8737,52.2079 -142.1383,116.4454 -15.9647,30.1682 -27.7742,59.4466 -25.752,65.522 0.6393,6.3711 507.9287,25.1499 1126.436,43.293 l 1123.7762,30.8545 7.875,-54.4647 c 8.819,-66.9641 45.211,-167.2987 84.351,-227.7308 15.221,-23.5014 25.751,-45.2824 21.85,-46.6175 z M 7543.1216,-3287.6772 c -52.0388,-33.7038 -87.21,-29.078 -104.4142,12.2015 -5.6362,14.2209 -28.0932,98.5627 -49.6637,187.0539 -71.739,300.2385 -163.753,556.3626 -287.0741,794.599 -34.0561,67.2991 -62.1312,125.3689 -62.0834,128.9741 2.0222,6.0754 403.7817,349.6857 431.4798,367.6248 15.108,9.785 19.7546,4.4449 90.5283,-117.7067 91.6787,-156.2686 178.7802,-344.0935 228.1313,-492.0339 20.818,-61.5759 43.1043,-116.2372 49.9712,-121.321 20.057,-14.4123 114.3884,-12.8994 150.9277,2.426 20.6398,8.6021 220.3377,174.8843 538.5154,448.8683 l 504.4961,435.1598 177.7041,-7.632 c 159.9651,-6.0059 177.3911,-9.0007 170.485,-27.7705 -4.5881,-11.3114 -14.5026,-27.2722 -22.648,-34.9306 -7.6019,-8.4977 -410.3086,-359.8597 -893.8181,-781.4317 -483.5095,-421.5719 -899.036,-778.8599 -922.5374,-794.081 z m 154.9652,280.9632 c 29.459,19.454 36.232,60.305 9.3233,101.852 -39.6836,61.2716 -121.4088,47.6425 -128.1453,-21.057 -4.5229,-48.203 23.7999,-88.2365 65.6319,-92.1201 21.7308,-1.9353 39.7996,2.4824 53.1901,11.3251 z m 348.6921,718.3778 c -1.0872,1.6786 -2.2866,36.6514 -2.304,77.1482 -0.3825,201.1012 -88.8076,372.5759 -260.9277,507.722 -44.7587,34.1563 -87.0493,66.3393 -95.2991,71.7188 -12.103,7.6498 14.8572,32.2678 201.9159,186.7791 119.177,97.4411 220.6268,176.2454 225.3193,174.5189 5.5318,-1.1829 65.3654,-49.4007 133.395,-106.6103 120.6945,-101.7336 251.3598,-204.1542 301.1545,-235.0487 14.5732,-9.6241 76.0634,-16.2632 145.1064,-18.0114 65.4376,-1.7005 118.9213,-5.1874 118.3298,-7.9533 -0.5914,-2.7659 -165.8648,-146.7525 -367.04,-319.938 -365.0283,-313.8588 -394.7576,-337.8794 -399.6501,-330.3253 z m -484.5021,-307.8275 c 57.9141,37.5091 37.7259,125.7043 -32.2608,139.947 -42.032,9.7111 -65.2246,-4.128 -75.775,-46.7035 -12.5248,-45.0458 0.913,-76.8509 43.6408,-96.834 27.5633,-13.125 39.2149,-12.7178 64.395,3.5905 z m 2336.434,1827.30513 c -29.5711,-2.40236 -113.5129,-9.35696 -127.163,-10.42062 -67.2121,-6.59717 -122.1804,-10.03005 -123.2676,-8.35138 -0.057,0.0876 -2.8685,11.2645 -3.2152,12.45544 66.3566,4.94085 133.7531,8.33898 201.6567,10.16754 17.4046,-1.17879 34.7375,-2.46268 51.9891,-3.85098 z M 7366.9446,-2185.1404 c 27.8471,17.0917 39.5523,56.005 21.7776,96.096 -33.9125,78.1147 -140.9698,57.6276 -136.5384,-26.4755 2.1919,-43.8542 24.8698,-69.6712 68.0368,-77.4558 18.0737,-3.1869 34.0663,0.066 46.724,7.8353 z m 2103.2171,1372.69126 c -5.8754,-3.80527 -51.1594,-9.30125 -100.2974,-12.53238 l -91.0762,-6.5601 -89.441,136.26473 c -66.6162,101.016 -100.4254,145.84675 -129.5238,168.70011 -38.4354,29.9117 -38.9718,30.75808 -24.0639,46.37053 25.0279,25.74107 246.8862,211.12409 251.5787,209.39757 2.2223,0.24789 22.7887,-38.86138 45.4768,-84.92911 48.59,-100.7768 110.846,-279.66391 130.8899,-378.67503 8.9065,-39.50533 11.4928,-74.77471 6.4569,-78.03632 z m -372.7094,-35.27896 -241.8883,-22.018 c -226.3291,-20.29607 -277.6388,-20.18055 -272.3636,1.10727 2.0701,9.68062 259.3776,232.33271 296.6042,257.63453 18.4654,11.95943 27.3077,9.34057 53.6402,-12.92142 17.8348,-14.66013 55.8297,-56.75753 84.4889,-91.80961 28.6591,-35.052 58.3076,-79.0042 65.8224,-97.96537 z m -2189.8182,-1208.5832 -38.0554,58.7577 c -33.1602,51.1995 -36.9158,60.6826 -23.4864,69.3804 93.1663,60.3407 413.3703,320.1488 549.2774,445.1052 200.2316,185.6799 326.8714,385.658 390.1348,617.25794 l 20.4272,75.16858 549.5244,442.89165 c 300.8561,243.7026 556.5418,448.62341 566.6138,455.14674 12.5901,8.15416 43.3053,3.01816 105.1464,-18.882868 123.978,-42.419145 155.9381,-38.396196 275.1237,38.796408 l 94.8435,61.42701 35.332,-54.55282 c 19.57,-30.2161 31.9844,-56.738492 28.627,-58.912935 C 9456.9458,72.553652 8895.4129,-395.97776 8213.2852,-965.25084 7531.1576,-1534.5239 6958.1289,-2012.8778 6940.4551,-2027.8988 Z m -547.9443,-9.3632 -133.031,-33.7503 c -377.666,-95.6753 -843.3042,-153.0127 -1296.0754,-160.3184 -151.4674,-1.5959 -489.2325,4.8307 -537.6835,11.5759 -37.931,5.2187 -37.0879,5.7658 23.1615,10.2364 354.5822,28.3022 451.2301,37.2895 619.2841,55.5852 367.7637,39.2223 750.5855,104.8657 997.4892,170.6555 189.5724,51.2949 188.7203,50.7523 235.0098,131.9634 86.6561,155.0117 103.0155,383.6312 43.7969,624.0682 -10.4895,45.6285 -19.6443,87.3478 -18.4614,92.8796 1.2307,9.137 1277.6411,1007.40059 1286.4823,1004.78698 6.9148,-1.47862 35.7546,-126.96742 47.6443,-213.3885 29.0809,-212.2996 2.565,-454.63986 -68.5264,-628.1647 -37.8397,-92.41808 -74.055,-146.86458 -170.5612,-249.87658 -137.3293,-148.5144 -244.758,-238.3478 -643.4249,-537.0595 -99.7288,-74.1224 -226.6234,-167.0248 -282.9066,-207.0519 z M 9611.0541,173.20225 c -6.7436,12.16323 -0.7877,15.49656 -9.2745,28.89797 -34.8668,55.7543 -49.3019,79.41322 -37.3504,103.31652 17.7451,-7.09061 45.6952,-4.83099 54.9277,-19.08598 18.2097,-28.11584 10.2718,-68.70781 -8.3028,-113.12851 z m 680.3919,728.80653 c 11.203,10.46722 17.97,18.07866 28.425,28.11329 -8.675,-9.86631 -19.37,-18.38484 -28.425,-28.11329 z M 9360.7942,373.67304 c -1.0872,1.67867 19.0572,34.97263 43.4371,74.59101 157.3341,255.59263 193.8533,541.36443 103.0662,806.62915 -17.1085,48.49 -30.1624,88.8697 -30.4103,91.092 0.048,3.6053 974.4628,776.4887 1004.6788,796.0587 21.823,14.1338 23.741,12.997 28.938,-13.4225 9.402,-43.9499 21.103,-249.6405 19.859,-343.3764 -4.14,-249.3043 -71.026,-460.6046 -193.39,-610.1497 -95.019,-116.3457 -460.3,-427.98776 -732.5318,-625.74884 -91.5832,-66.46397 -183.1623,-132.92988 -203.8978,-148.74243 -21.5748,-16.35611 -39.2056,-27.77033 -39.7492,-26.93099 z m -1547.811,-925.03037 -0.6166,37.7341 c -3.0267,148.15792 -63.0418,432.147298 -103.8125,495.097437 -16.852,26.0194251 -36.4734,32.38239 -208.3022,64.064161 l -189.7997,35.523185 -35.8815,55.401167 -35.8816,55.40117 799.6975,628.72563 c 438.9464,345.05338 814.5509,640.75768 833.0641,656.32238 l 33.6649,28.9417 76.8076,-127.78 c 93.3575,-155.1813 124.7072,-238.5264 142.0505,-373.8377 21.6051,-169.48472 -27.3032,-364.38688 -139.3306,-550.12772 -90.2134,-151.35861 -109.0302,-168.30812 -642.765,-591.43255 -267.4349,-212.52557 -496.169,-392.83743 -507.9197,-400.44798 z M 5813.7858,-1274.2922 c -6.4189,-2.966 -53.5844,-3.7316 -105.6885,-0.5438 l -95.9135,4.6005 0.7812,37.4351 c 0.7567,77.9321 -25.9434,240.55514 -54.1807,328.30265 -126.3,389.99952 -463.1778,755.60814 -820.5953,889.884618 -91.083,33.938783 -231.3492,61.034206 -300.7357,57.794306 -81.8809,-4.18357 -197.8144,-45.9067551 -263.3783,-95.518794 -56.579,-41.410039 -119.1777,-117.68638 -135.012,-161.30139 -7.2018,-20.15275 -5.8205,-20.45305 15.0585,6.17519 26.8023,34.03866 147.7167,115.919475 202.0821,136.833194 l 37.0893,14.492557 -25.3598,-50.980471 c -52.3564,-99.43721 -71.7098,-240.63253 -54.8536,-391.74757 l 8.3759,-79.16695 -115.831,-75.01994 -115.831,-75.01994 11.9844,-38.71382 c 20.6746,-72.39151 14.8489,-72.59403 134.9695,12.35265 l 107.2184,75.41052 7.1867,-23.94984 c 4.5489,-12.54212 17.6027,-52.93586 30.458,-87.50086 l 22.9766,-64.92855 -34.5053,-29.50344 c -19.3526,-16.10828 -66.3985,-50.15964 -104.1687,-74.62212 -55.3961,-35.87825 -68.8666,-48.1722 -65.9963,-61.8017 2.3745,-9.1848 29.2045,-56.1398 60.7339,-104.8213 30.9857,-47.8421 52.6367,-88.626 48.1922,-89.1217 -3.901,-1.3351 -39.9546,-0.8657 -78.7727,0.2042 l -70.423,2.0518 -52.8346,94.4573 c -142.8346,251.80927 -205.8981,474.25881 -202.6929,715.80896 2.0963,178.87843 49.6386,333.586974 135.9684,443.113663 35.835,45.845894 60.5132,66.592627 143.6074,120.410027 123.9259,79.07138 198.5425,99.99642 351.3448,97.69137 282.8865,-2.64437 628.4667,-171.987315 881.8804,-430.81145 282.4164,-288.88805 460.5143,-642.9724 495.0833,-985.15587 5.8536,-60.5451 6.818,-113.5275 1.7819,-116.7891 z M 7600.4386,145.87182 c 8.7081,5.63996 15.4744,14.4901 22.7284,28.12387 17.3216,30.28117 17.4175,57.73909 1.9486,83.46279 -38.8442,61.81508 -138.9889,39.84345 -145.4774,-31.0782 -5.458,-55.95709 30.107,-92.48463 86.4555,-89.34909 14.9884,0.77192 25.6368,3.20067 34.3449,8.84063 z M 6095.4987,-758.23362 5913.1086,-498.69204 C 5684.1617,-172.79069 5547.4321,-3.9949411 5352.3194,196.08437 4745.0937,819.08016 3979.1802,1230.8876 3340.7419,1278.4693 l -111.6688,8.6897 579.1947,378.7032 578.8957,377.3053 86.0749,6.8987 c 121.0426,8.1019 243.3221,5.1008 354.3492,-9.9638 l 95.5272,-13.1928 -80.6729,-59.4048 c -43.1497,-32.7122 -113.7071,-81.9819 -155.1303,-110.0018 -110.5444,-73.9788 -108.7139,-82.3133 37.9349,-130.3033 l 75.6703,-24.8667 191.9648,126.7203 191.1245,126.1585 129.6131,-56.6327 c 109.7572,-48.0553 390.6334,-202.1207 403.1364,-221.4254 2.1745,-3.3574 -61.1751,-52.7314 -140.9598,-107.9796 -165.1969,-116.5239 -186.2281,-133.7148 -182.0706,-154.8504 4.9968,-20.592 120.2063,-97.2986 147.6651,-97.3855 15.2603,0.3522 51.8958,22.9024 138.443,86.1047 64.4288,47.6855 140.3169,101.5944 168.015,119.5335 l 50.6548,33.9943 117.1776,-94.4781 c 115.8021,-94.1796 331.7134,-295.0816 329.3476,-306.1452 -0.5914,-2.7659 -69.8119,-55.9377 -154.6805,-118.0528 -101.1117,-73.82661 -153.8427,-117.50315 -156.5042,-129.94968 -2.9572,-13.82941 6.2869,-28.10238 46.2096,-71.34775 27.0761,-28.92884 58.3525,-55.14325 68.0332,-57.21333 14.373,-3.7966 47.1054,17.40772 176.8023,113.32229 87.3865,63.74592 160.7496,116.02407 163.5155,115.43267 11.6071,-3.2052 229.4235,-269.58796 298.3577,-363.14561 68.0947,-94.10118 70.5144,-99.69107 55.4063,-109.47606 -87.2909,-56.53546 -306.2023,-228.09682 -310.8382,-243.01351 -2.9573,-13.82947 6.2411,-31.71447 41.4235,-76.83851 25.6454,-32.23834 52.7201,-61.16479 59.8827,-64.8657 11.3115,-4.58809 37.8803,11.43757 137.0654,86.39927 68.0819,51.24287 139.8086,106.03318 160.8398,123.22868 l 36.1897,30.59439 111.9845,-172.90428 C 7185.2632,53.607727 7189.32,45.506172 7174.212,35.721179 c -9.2327,-5.979717 -239.501,-176.568249 -512.0763,-379.317509 -272.5752,-202.7492 -511.231,-378.75264 -531.375,-391.79924 z M 8023.7699,492.52943 c 58.9804,31.01511 61.6055,129.15843 -19.9788,146.01675 -70.5302,15.08198 -122.5492,-59.12302 -83.4092,-119.55515 16.3083,-25.18009 28.4142,-32.83258 53.8987,-35.38975 19.2708,-1.81595 35.8784,1.77083 49.4893,8.92815 z m 436.2639,352.15402 c 79.7369,51.64296 29.3196,160.76325 -63.6161,138.69714 -77.0841,-18.94806 -75.5581,-133.52017 1.2954,-152.84675 20.7441,-4.4358 39.6586,-0.52788 62.3207,14.14961 z m 393.3349,314.31515 c 28.5374,18.4827 32.5214,27.0284 32.1126,58.9318 -0.761,47.1637 -24.2766,72.4417 -70.5052,79.4347 -41.2405,6.6496 -68.6384,-9.9177 -83.0419,-50.2232 -17.6087,-51.9126 7.6481,-92.7416 66.5713,-104.6184 12.4465,-2.6616 35.5585,3.9721 54.8632,16.4751 z m 287.1907,446.9172 -60.2523,100.3862 c -68.3992,112.9667 -234.8818,338.726 -346.8481,471.1322 -377.4047,446.5874 -834.0923,813.2393 -1284.441,1030.2969 -203.119,98.3894 -371.3057,153.8755 -625.2242,207.4496 l -239.2473,51.16 459.9551,297.8979 460.8035,298.4473 95.9135,-4.6004 c 53.7826,-2.1006 146.0336,-10.2613 206.3874,-18.8286 l 109.9447,-13.3842 -31.9532,-24.2553 c -17.0824,-12.2551 -88.2268,-64.2959 -157.3959,-113.8601 -105.852,-75.7054 -124.6605,-92.6505 -120.1116,-105.1927 3.2138,-8.6412 45.4006,-27.78 93.4602,-43.1186 l 87.8222,-28.9163 192.5063,125.8842 192.502,125.864 123.3463,-48.7891 c 67.8687,-27.5284 179.2451,-78.1087 247.0181,-112.8476 l 123.9911,-62.665 -109.7988,-80.6421 c -201.0883,-145.7267 -227.7471,-168.9487 -224.0853,-185.6397 2.3745,-9.1849 35.0325,-35.6947 73.5636,-58.396 l 71.2865,-41.9995 80.8679,53.5797 c 45.3241,29.355 127.088,87.0613 182.532,126.5448 l 101.1067,73.8257 59.6761,-38.7859 c 64.3679,-40.5186 345.7134,-263.3739 358.7601,-283.518 5.9797,-9.2327 -13.1235,-27.5693 -82.5884,-78.5165 -224.6375,-164.553 -241.1811,-177.6449 -238.6544,-196.2624 2.4788,-22.2229 107.7221,-118.4805 125.2524,-114.2751 7.5062,1.2873 61.8113,38.8453 121.7477,82.4297 59.3927,44.4239 134.4469,97.788 166.6374,119.8282 l 59.5937,38.5969 40.747,-42.7035 c 75.2487,-77.5538 188.0069,-213.0166 255.0144,-305.4392 l 67.312,-91.0494 -151.272,-112.2674 c -83.4856,-62.4108 -153.8884,-121.1117 -157.0457,-129.1137 -5.8188,-20.4484 74.0288,-127.1828 100.8484,-133.641 13.5337,-4.3402 38.7246,11.9717 128.3813,79.5707 60.5278,46.3504 128.3064,96.2066 150.1291,110.3404 l 38.6062,25.004 52.6397,-88.6322 c 27.9242,-48.6336 59.3651,-104.5188 69.3502,-125.4543 l 17.542,-36.301 -424.6344,-332.196 c -233.4701,-182.1877 -433.3204,-339.0291 -443.4403,-349.1577 z m -5366.7135,-2806.2665 -551.7146,20.3596 c -302.7434,11.2291 -553.0387,24.2561 -555.461,29.8357 -1.8787,4.7403 4.6248,35.1672 15.0318,66.9271 11.2461,32.3035 22.6368,95.67295 25.481,142.78874 l 5.8344,84.79269 216.0194,-4.24799 c 527.6982,-10.8857 677.9865,-14.81644 684.6056,-17.67802 3.3095,-1.43079 18.6725,-34.37065 32.8628,-72.83652 15.0298,-37.92234 49.593,-109.6602 77.2214,-159.6767 z m -1356.2305,52.1228 -71.8048,2.3262 c -63.759,2.7876 -70.3833,5.6483 -61.8464,21.9001 27.585,51.2255 46.6347,191.04628 36.5758,269.12184 -35.6303,283.11679 -257.1467,582.85241 -514.9442,699.44196 -84.6641,36.90467 -207.2131,62.387911 -270.2764,54.9035 -69.1864,-9.06735 -159.4442,-59.17977 -203.1766,-114.90635 -40.3273,-49.94694 -44.5212,-72.91501 -5.129,-30.72214 29.2724,32.06432 124.8197,83.21049 132.4303,71.4598 2.718,-4.19668 -0.7342,-13.58108 -7.7924,-22.91814 -19.4483,-23.31872 -42.3932,-164.47077 -38.6097,-234.69664 l 4.4143,-63.86149 -69.763,-52.32123 c -72.5742,-55.34388 -76.5256,-60.28604 -66.1883,-96.48177 6.9245,-21.72875 7.7623,-21.18608 81.6238,26.65161 l 74.7043,48.38352 19.1906,-59.05588 19.1905,-59.05589 -68.8273,-44.57718 c -67.9861,-44.03242 -69.1241,-45.96204 -60.5698,-70.20711 13.351,-39.00947 139.2641,-207.65511 193.2163,-259.68521 26.5804,-24.4843 47.0841,-46.9496 46.4926,-49.7155 -1.4786,-6.9147 -100.7448,-4.4834 -110.6255,3.4142 -30.777,21.7661 -154.5241,187.05485 -200.3395,266.99176 -91.3352,161.25676 -133.1373,334.34398 -121.2082,501.71953 6.1364,86.18188 46.9374,192.43127 91.7092,242.873972 16.043,17.539039 63.9377,52.117986 106.9916,77.619793 62.063,36.621915 90.1993,46.514186 141.6075,53.598514 158.3734,20.365683 395.7647,-66.552802 555.3904,-202.642649 149.7452,-128.19219 299.1833,-342.36543 354.9619,-507.58836 31.9947,-97.22809 52.37,-255.59706 44.0114,-342.02686 -2.7007,-36.3001 -11.3335,-80.0134 -18.7832,-97.9438 z m 792.7166,562.24842 c -0.5915,-2.76589 -242.5442,-8.16089 -256.3737,-5.20363 -9.6806,2.07008 -54.7543,95.59788 -51.2534,108.58801 -0.2479,2.22229 73.1308,14.0151 161.7741,26.15281 l 161.4356,21.15156 -7.9209,-74.24155 c -4.4271,-40.99259 -7.366,-75.06425 -7.6617,-76.4472 z m 348.8101,681.0363 c -110.5139,-29.876739 -247.1252,0.794684 -394.3828,86.51575 -119.4465,70.37367 -181.8537,133.60051 -278.0726,282.16287 -94.5882,146.04435 -119.1233,220.71608 -115.1787,350.75212 2.9139,115.07156 30.8508,171.28746 115.4236,232.01964 58.8013,41.6579 71.3497,46.2015 134.4129,53.6858 151.4109,18.2391 350.5755,-64.8423 500.1293,-207.45547 84.6335,-81.00682 182.818,-227.09407 213.4776,-320.4212 44.3063,-130.95374 44.1161,-270.47528 -0.7427,-348.37687 C 3704.4014,172.4661 3622.8925,112.51757 3559.1421,95.05682 Z m -41.1672,147.28525 c 25.0442,16.51816 48.0565,37.0864 62.4687,57.14342 29.7116,44.26298 38.5821,85.75896 32.4807,148.52641 -21.1746,201.93192 -188.1856,408.28627 -390.0087,478.92098 -112.9144,40.05335 -221.0723,21.23641 -279.1213,-47.33683 l -29.8586,-34.81869 55.3492,32.27011 55.3491,32.27012 -14.6571,-38.07994 c -15.2429,-40.84909 -19.7092,-105.69562 -10.307,-149.64546 4.9491,-24.19724 1.0077,-29.1386 -44.3164,-58.49352 -41.9668,-27.18054 -47.8919,-34.58646 -42.8472,-51.57323 5.5884,-17.82611 10.8768,-16.79545 52.0043,9.84148 41.9667,27.18048 46.4033,27.67804 58.3628,9.21264 26.6369,-41.12748 22.8902,-51.89522 -26.6306,-83.9682 l -46.1676,-29.90127 50.7011,-67.23455 c 116.1238,-153.54185 313.0225,-260.72888 442.5542,-239.98048 22.5185,3.8618 49.6003,16.32891 74.6444,32.84701 z m -789.6843,-428.04774 c -83.6379,-52.97807 -112.8213,-57.58551 -214.3199,-35.15823 -159.2867,36.2307 -287.8431,131.689046 -390.5854,290.32344 -76.1054,117.50697 -108.3558,237.20828 -91.3646,347.1003 20.827,148.11871 164.4131,224.42206 332.4453,178.36723 145.6572,-39.10095 271.097,-138.95024 370.5776,-292.54862 97.8498,-151.08037 123.4951,-308.4064606 67.4379,-415.00637 -15.0995,-30.03334 -33.3592,-47.82377 -74.1909,-73.07775 z m -109.2709,76.71899 c 86.9379,47.527167 110.491,169.5011 53.3473,307.62881 -27.685,66.65982 -105.5143,159.22259 -173.6395,209.22175 -54.1436,37.60927 -142.1691,72.3454 -191.5073,74.9417 -42.9669,1.95706 -134.2587,-42.88308 -149.9017,-72.07715 -8.5368,-16.25174 -2.4151,-14.66629 31.7019,6.23875 l 41.1267,26.63642 -11.2406,-32.30691 c -5.771,-16.84324 -10.1526,-54.23101 -8.8566,-81.9856 2.9833,-46.91575 -0.4238,-52.68749 -34.8844,-78.58071 -28.2895,-20.70504 -36.4756,-31.97098 -30.5437,-44.8089 5.0925,-13.38152 12.5954,-12.08713 43.6508,8.02641 36.9308,23.91887 38.3164,23.61544 47.1185,-2.85183 7.467,-22.5664 3.4645,-31.10652 -26.2558,-55.12108 -32.534,-27.02827 -33.1142,-29.79741 -18.2367,-58.287002 68.7036,-131.832239 271.5803,-248.252928 387.0346,-222.324978 14.9563,3.58075 28.6668,8.8608 41.0865,15.65032 z"
       transform="matrix(0.83933714,0.54361122,0.54361122,-0.83933714,0,0)"
       inkscape:label="Fill"
       sodipodi:nodetypes="cccccccccccccccccsccccscccccccccccssccsccccsssccccccccccssccccccccccscccccccccccccscccccccccccccccscsccccscccccccccssssccssccccccccscsscccsccscccscccssccccccccscccccscccssccccscscsssccccccccccccccccccccccsccccscccscccccsccscccccccccccscccccccccccccccccccccccccscscccccccccccsccccscccccccccccccccccscccccccscscccccsccccccsssscscscssccssccccscccccccccccccccccccccccscccccscccccccccccccsccccccccccccccscccccccccccscccccscccsccscccccccccccssccccsccscccccccscccccccccscssscccsccsccsccsccccccccccsccccs" />
  </g>
</svg>
